<?xml version="1.0" encoding="utf-8"?>
<!-- Generator: Adobe Illustrator 18.1.1, SVG Export Plug-In . SVG Version: 6.00 Build 0)  -->
<svg version="1.1" xmlns="http://www.w3.org/2000/svg" xmlns:xlink="http://www.w3.org/1999/xlink" x="0px" y="0px"
	 viewBox="0 0 64 64" enable-background="new 0 0 64 64" xml:space="preserve">
<g id="Layer_2" display="none">
	<rect x="-305" y="-267.5" display="inline" fill="#84C9F3" stroke="#000000" stroke-miterlimit="10" width="485" height="615.8"/>
</g>
<g id="Layer_1">
	<g>
		<rect x="61.5" y="-72.5" fill="none" width="75" height="75"/>
	</g>
	<g>
		<path fill="none" stroke="#363636" stroke-width="2" stroke-miterlimit="10" d="M52,47H12c-3.3,0-6-2.7-6-6V23c0-3.3,2.7-6,6-6h40
			c3.3,0,6,2.7,6,6v18C58,44.3,55.3,47,52,47z"/>
		<g>
			<path fill="#363636" d="M14,22c1.7,0,3,1.3,3,3s-1.3,3-3,3s-3-1.3-3-3S12.3,22,14,22 M14,20c-2.8,0-5,2.2-5,5s2.2,5,5,5
				s5-2.2,5-5S16.8,20,14,20L14,20z"/>
		</g>
		<g>
			<path fill="#363636" d="M26,22c1.7,0,3,1.3,3,3s-1.3,3-3,3s-3-1.3-3-3S24.3,22,26,22 M26,20c-2.8,0-5,2.2-5,5s2.2,5,5,5
				s5-2.2,5-5S28.8,20,26,20L26,20z"/>
		</g>
		<g>
			<path fill="#363636" d="M38,22c1.7,0,3,1.3,3,3s-1.3,3-3,3s-3-1.3-3-3S36.3,22,38,22 M38,20c-2.8,0-5,2.2-5,5s2.2,5,5,5
				s5-2.2,5-5S40.8,20,38,20L38,20z"/>
		</g>
		<g>
			<path fill="#363636" d="M50,22c1.7,0,3,1.3,3,3s-1.3,3-3,3s-3-1.3-3-3S48.3,22,50,22 M50,20c-2.8,0-5,2.2-5,5s2.2,5,5,5
				s5-2.2,5-5S52.8,20,50,20L50,20z"/>
		</g>
		<g>
			<path fill="#363636" d="M14,36c1.7,0,3,1.3,3,3s-1.3,3-3,3s-3-1.3-3-3S12.3,36,14,36 M14,34c-2.8,0-5,2.2-5,5s2.2,5,5,5
				s5-2.2,5-5S16.8,34,14,34L14,34z"/>
		</g>
		<g>
			<path fill="#363636" d="M26,36c1.7,0,3,1.3,3,3s-1.3,3-3,3s-3-1.3-3-3S24.3,36,26,36 M26,34c-2.8,0-5,2.2-5,5s2.2,5,5,5
				s5-2.2,5-5S28.8,34,26,34L26,34z"/>
		</g>
		<g>
			<path fill="#363636" d="M38,36c1.7,0,3,1.3,3,3s-1.3,3-3,3s-3-1.3-3-3S36.3,36,38,36 M38,34c-2.8,0-5,2.2-5,5s2.2,5,5,5
				s5-2.2,5-5S40.8,34,38,34L38,34z"/>
		</g>
		<g>
			<path fill="#363636" d="M50,36c1.7,0,3,1.3,3,3s-1.3,3-3,3s-3-1.3-3-3S48.3,36,50,36 M50,34c-2.8,0-5,2.2-5,5s2.2,5,5,5
				s5-2.2,5-5S52.8,34,50,34L50,34z"/>
		</g>
		<rect y="0" fill="none" width="64" height="64"/>
	</g>
</g>
</svg>
