<?xml version="1.0" encoding="utf-8"?>
<!-- Generator: Adobe Illustrator 18.1.1, SVG Export Plug-In . SVG Version: 6.00 Build 0)  -->
<svg version="1.1" xmlns="http://www.w3.org/2000/svg" xmlns:xlink="http://www.w3.org/1999/xlink" x="0px" y="0px"
	 viewBox="0 0 64 64" enable-background="new 0 0 64 64" xml:space="preserve">
<g id="Layer_2" display="none">
	<rect x="-171" y="-133.5" display="inline" fill="#84C9F3" stroke="#000000" stroke-miterlimit="10" width="485" height="615.8"/>
</g>
<g id="Layer_1">
	<g>
		<polyline fill="none" stroke="#363636" stroke-width="2" stroke-miterlimit="10" points="10.6,49 5,49 5,59 15,59 15,49 10.6,49 
					"/>
		<polyline fill="none" stroke="#363636" stroke-width="2" stroke-miterlimit="10" points="53.4,15 59,15 59,5 49,5 49,15 53.4,15 
					"/>
		<line fill="none" stroke="#363636" stroke-width="2" stroke-miterlimit="10" x1="37" y1="32" x2="52" y2="32"/>
		<path fill="none" stroke="#363636" stroke-width="2" stroke-miterlimit="10" d="M27,32"/>
		<line fill="none" stroke="#363636" stroke-width="2" stroke-miterlimit="10" x1="12" y1="32" x2="27" y2="32"/>
		<path fill="none" stroke="#363636" stroke-width="2" stroke-miterlimit="10" d="M37,32"/>
		<line fill="none" stroke="#363636" stroke-width="2" stroke-miterlimit="10" x1="52" y1="32" x2="52.3" y2="32"/>
		<path fill="none" stroke="#363636" stroke-width="2" stroke-miterlimit="10" d="M52,32c0,1.7,1.3,3,3,3s3-1.3,3-3c0-1.7-1.3-3-3-3
			S52,30.3,52,32"/>
		<path fill="none" stroke="#363636" stroke-width="2" stroke-miterlimit="10" d="M12,32c0-1.7-1.3-3-3-3s-3,1.3-3,3
			c0,1.7,1.3,3,3,3S12,33.7,12,32"/>
		<line fill="none" stroke="#363636" stroke-width="2" stroke-miterlimit="10" x1="37" y1="32" x2="37" y2="31.4"/>
		<line fill="none" stroke="#363636" stroke-width="2" stroke-miterlimit="10" x1="27" y1="32.6" x2="27" y2="32"/>
		<polyline fill="none" stroke="#363636" stroke-width="2" stroke-miterlimit="10" points="27,32.6 27,37 37,37 37,32 		"/>
		<polyline fill="none" stroke="#363636" stroke-width="2" stroke-miterlimit="10" points="27,32 27,27 37,27 37,31.4 		"/>
		<path fill="none" stroke="#363636" stroke-width="2" stroke-miterlimit="10" d="M27,32.6"/>
		<path fill="none" stroke="#363636" stroke-width="2" stroke-miterlimit="10" d="M10.6,49c1.9-8.1,8.3-14.5,16.4-16.4"/>
		<path fill="none" stroke="#363636" stroke-width="2" stroke-miterlimit="10" d="M53.4,15"/>
		<path fill="none" stroke="#363636" stroke-width="2" stroke-miterlimit="10" d="M10.6,49"/>
		<path fill="none" stroke="#363636" stroke-width="2" stroke-miterlimit="10" d="M53.4,15c-1.9,8.1-8.3,14.5-16.4,16.4"/>
		<path fill="none" stroke="#363636" stroke-width="2" stroke-miterlimit="10" d="M37,31.4"/>
	</g>
</g>
</svg>
