<?xml version="1.0" encoding="utf-8"?>
<!-- Generator: Adobe Illustrator 18.1.1, SVG Export Plug-In . SVG Version: 6.00 Build 0)  -->
<svg version="1.1" xmlns="http://www.w3.org/2000/svg" xmlns:xlink="http://www.w3.org/1999/xlink" x="0px" y="0px"
	 viewBox="0 0 64 64" enable-background="new 0 0 64 64" xml:space="preserve">
<g id="Layer_2" display="none">
	<rect x="-305" y="-133.5" display="inline" fill="#84C9F3" stroke="#000000" stroke-miterlimit="10" width="485" height="615.8"/>
</g>
<g id="Layer_1">
	<g>
		<path fill="none" stroke="#363636" stroke-width="2" stroke-linejoin="round" stroke-miterlimit="10" d="M17.3,11.9
			C10.2,15.6,3.4,24.9,6.7,40.2C10,55.7,30.7,64.7,47.2,51.5C63.7,38.2,60.9,12.2,51,6.5s-6.9,5.9-12.4,10.6
			c-3.9,3.3-9.3,0.7-8.9-4.4C30,9.6,25,7.8,17.3,11.9z"/>
		
			<ellipse transform="matrix(0.7071 -0.7071 0.7071 0.7071 -10.9835 25.4284)" fill="none" stroke="#363636" stroke-width="2" stroke-linejoin="round" stroke-miterlimit="10" cx="25.2" cy="26" rx="6.2" ry="4.4"/>
		
			<circle fill="none" stroke="#363636" stroke-width="2" stroke-linejoin="round" stroke-miterlimit="10" cx="48.3" cy="26.9" r="4.4"/>
		
			<circle fill="none" stroke="#363636" stroke-width="2" stroke-linejoin="round" stroke-miterlimit="10" cx="43" cy="40.2" r="4.4"/>
		
			<circle fill="none" stroke="#363636" stroke-width="2" stroke-linejoin="round" stroke-miterlimit="10" cx="28.8" cy="47.3" r="4.4"/>
		<rect y="0" fill="none" width="64" height="64"/>
	</g>
	<g>
		<rect x="61.5" y="61.5" fill="none" width="75" height="75"/>
	</g>
</g>
</svg>
