<?xml version="1.0" encoding="utf-8"?>
<!-- Generator: Adobe Illustrator 18.1.1, SVG Export Plug-In . SVG Version: 6.00 Build 0)  -->
<svg version="1.1" xmlns="http://www.w3.org/2000/svg" xmlns:xlink="http://www.w3.org/1999/xlink" x="0px" y="0px"
	 viewBox="0 0 64 64" enable-background="new 0 0 64 64" xml:space="preserve">
<g id="Layer_2" display="none">
	<rect x="-171" y="-468.5" display="inline" fill="#84C9F3" stroke="#000000" stroke-miterlimit="10" width="485" height="615.8"/>
</g>
<g id="Layer_1">
	<g>
		
			<polyline fill="none" stroke="#363636" stroke-width="2" stroke-linecap="round" stroke-linejoin="round" stroke-miterlimit="10" points="
			36,28 36,16 58,16 58,48 36,48 36,35 		"/>
		<g>
			<g>
				<path fill="#363636" d="M6,42c-0.3,0-0.5-0.1-0.7-0.3C5.1,41.5,5,41.3,5,41s0.1-0.5,0.3-0.7c0.4-0.4,1-0.4,1.4,0
					C6.9,40.5,7,40.7,7,41c0,0.3-0.1,0.5-0.3,0.7C6.5,41.9,6.3,42,6,42z"/>
			</g>
			<g>
				<path fill="#363636" d="M8.8,40.1c-0.2-0.5,0.1-1.1,0.7-1.2l0,0c0.5-0.2,1.1,0.1,1.2,0.7l0,0c0.2,0.5-0.1,1.1-0.7,1.2l0,0
					c-0.1,0-0.2,0-0.3,0l0,0C9.3,40.8,8.9,40.6,8.8,40.1z M12.6,39c-0.2-0.5,0.1-1.1,0.7-1.2l0,0c0.5-0.2,1.1,0.1,1.3,0.7l0,0
					c0.2,0.5-0.1,1.1-0.7,1.2l0,0c-0.1,0-0.2,0-0.3,0l0,0C13.1,39.7,12.7,39.4,12.6,39z M16.3,37.8c-0.2-0.5,0.1-1.1,0.7-1.2l0,0
					c0.5-0.2,1.1,0.1,1.2,0.7l0,0c0.2,0.5-0.1,1.1-0.7,1.2l0,0c-0.1,0-0.2,0-0.3,0l0,0C16.9,38.5,16.5,38.3,16.3,37.8z M20.1,36.7
					c-0.2-0.5,0.1-1.1,0.7-1.2l0,0c0.5-0.2,1.1,0.1,1.2,0.7l0,0c0.2,0.5-0.1,1.1-0.7,1.2l0,0c-0.1,0-0.2,0-0.3,0l0,0
					C20.6,37.4,20.2,37.1,20.1,36.7z M23.9,35.5c-0.2-0.5,0.1-1.1,0.7-1.2l0,0c0.5-0.2,1.1,0.1,1.2,0.7l0,0c0.2,0.5-0.1,1.1-0.7,1.2
					l0,0c-0.1,0-0.2,0-0.3,0l0,0C24.4,36.2,24,36,23.9,35.5z M27.7,34.4c-0.2-0.5,0.1-1.1,0.7-1.2l0,0c0.5-0.2,1.1,0.1,1.2,0.7l0,0
					c0.2,0.5-0.1,1.1-0.7,1.2l0,0c-0.1,0-0.2,0-0.3,0l0,0C28.2,35.1,27.8,34.8,27.7,34.4z M31.4,33.2c-0.2-0.5,0.1-1.1,0.7-1.2l0,0
					c0.5-0.2,1.1,0.1,1.2,0.7l0,0c0.2,0.5-0.1,1.1-0.7,1.2l0,0c-0.1,0-0.2,0-0.3,0l0,0C32,33.9,31.6,33.6,31.4,33.2z M35.2,32.1
					c-0.2-0.5,0.1-1.1,0.7-1.2l0,0c0.5-0.2,1.1,0.1,1.2,0.7l0,0c0.2,0.5-0.1,1.1-0.7,1.2l0,0c-0.1,0-0.2,0-0.3,0l0,0
					C35.7,32.8,35.3,32.5,35.2,32.1z M39,30.9c-0.2-0.5,0.1-1.1,0.7-1.2l0,0c0.5-0.2,1.1,0.1,1.2,0.7l0,0c0.2,0.5-0.1,1.1-0.7,1.2
					l0,0c-0.1,0-0.2,0-0.3,0l0,0C39.5,31.6,39.1,31.3,39,30.9z M42.7,29.8c-0.2-0.5,0.1-1.1,0.7-1.2l0,0c0.5-0.2,1.1,0.1,1.2,0.7
					l0,0c0.2,0.5-0.1,1.1-0.7,1.2l0,0c-0.1,0-0.2,0-0.3,0l0,0C43.3,30.5,42.9,30.2,42.7,29.8z M46.5,28.6c-0.2-0.5,0.1-1.1,0.7-1.2
					l0,0c0.5-0.2,1.1,0.1,1.2,0.7l0,0c0.2,0.5-0.1,1.1-0.7,1.2l0,0c-0.1,0-0.2,0-0.3,0l0,0C47,29.3,46.6,29,46.5,28.6z M50.3,27.5
					c-0.2-0.5,0.1-1.1,0.7-1.2l0,0c0.5-0.2,1.1,0.1,1.2,0.7l0,0c0.2,0.5-0.1,1.1-0.7,1.2l0,0c-0.1,0-0.2,0-0.3,0l0,0
					C50.8,28.1,50.4,27.9,50.3,27.5z"/>
			</g>
			<g>
				<path fill="#363636" d="M55,27c-0.3,0-0.5-0.1-0.7-0.3C54.1,26.5,54,26.3,54,26s0.1-0.5,0.3-0.7c0.4-0.4,1-0.4,1.4,0
					c0.2,0.2,0.3,0.5,0.3,0.7s-0.1,0.5-0.3,0.7C55.5,26.9,55.3,27,55,27z"/>
			</g>
		</g>
		<g>
			<g>
				<path fill="#363636" d="M55,39c-0.3,0-0.5-0.1-0.7-0.3C54.1,38.5,54,38.3,54,38c0-0.3,0.1-0.5,0.3-0.7c0.4-0.4,1-0.4,1.4,0
					c0.2,0.2,0.3,0.5,0.3,0.7s-0.1,0.5-0.3,0.7C55.5,38.9,55.3,39,55,39z"/>
			</g>
			<g>
				<path fill="#363636" d="M50.9,37.8c-0.5-0.2-0.8-0.7-0.7-1.2l0,0c0.2-0.5,0.7-0.8,1.2-0.7l0,0c0.5,0.2,0.8,0.7,0.7,1.2l0,0
					c-0.1,0.4-0.5,0.7-1,0.7l0,0C51.1,37.8,51,37.8,50.9,37.8z M47.2,36.6c-0.5-0.2-0.8-0.7-0.7-1.2l0,0c0.2-0.5,0.7-0.8,1.2-0.7
					l0,0c0.5,0.2,0.8,0.7,0.7,1.2l0,0c-0.1,0.4-0.5,0.7-1,0.7l0,0C47.4,36.7,47.3,36.7,47.2,36.6z M43.4,35.5
					c-0.5-0.2-0.8-0.7-0.7-1.2l0,0c0.2-0.5,0.7-0.8,1.2-0.7l0,0c0.5,0.2,0.8,0.7,0.7,1.2l0,0c-0.1,0.4-0.5,0.7-1,0.7l0,0
					C43.6,35.5,43.5,35.5,43.4,35.5z M39.6,34.3c-0.5-0.2-0.8-0.7-0.7-1.2l0,0c0.2-0.5,0.7-0.8,1.2-0.7l0,0c0.5,0.2,0.8,0.7,0.7,1.2
					l0,0c-0.1,0.4-0.5,0.7-1,0.7l0,0C39.8,34.4,39.7,34.4,39.6,34.3z M35.9,33.2c-0.5-0.2-0.8-0.7-0.7-1.2l0,0
					c0.2-0.5,0.7-0.8,1.2-0.7l0,0c0.5,0.2,0.8,0.7,0.7,1.2l0,0c-0.1,0.4-0.5,0.7-1,0.7l0,0C36.1,33.2,36,33.2,35.9,33.2z M32.1,32
					c-0.5-0.2-0.8-0.7-0.7-1.2l0,0c0.2-0.5,0.7-0.8,1.2-0.7l0,0c0.5,0.2,0.8,0.7,0.7,1.2l0,0c-0.1,0.4-0.5,0.7-1,0.7l0,0
					C32.3,32.1,32.2,32.1,32.1,32z M28.3,30.9c-0.5-0.2-0.8-0.7-0.7-1.2l0,0c0.2-0.5,0.7-0.8,1.2-0.7l0,0c0.5,0.2,0.8,0.7,0.7,1.2
					l0,0c-0.1,0.4-0.5,0.7-1,0.7l0,0C28.5,30.9,28.4,30.9,28.3,30.9z M24.5,29.7c-0.5-0.2-0.8-0.7-0.7-1.2l0,0
					c0.2-0.5,0.7-0.8,1.2-0.7l0,0c0.5,0.2,0.8,0.7,0.7,1.2l0,0c-0.1,0.4-0.5,0.7-1,0.7l0,0C24.8,29.8,24.6,29.8,24.5,29.7z
					 M20.8,28.6c-0.5-0.2-0.8-0.7-0.7-1.2l0,0c0.2-0.5,0.7-0.8,1.2-0.7l0,0c0.5,0.2,0.8,0.7,0.7,1.2l0,0c-0.1,0.4-0.5,0.7-1,0.7l0,0
					C21,28.6,20.9,28.6,20.8,28.6z M17,27.4c-0.5-0.2-0.8-0.7-0.7-1.2l0,0c0.2-0.5,0.7-0.8,1.2-0.7l0,0c0.5,0.2,0.8,0.7,0.7,1.2l0,0
					c-0.1,0.4-0.5,0.7-0.9,0.7l0,0C17.2,27.5,17.1,27.5,17,27.4z M13.2,26.3c-0.5-0.2-0.8-0.7-0.7-1.2l0,0c0.2-0.5,0.7-0.8,1.2-0.7
					l0,0c0.5,0.2,0.8,0.7,0.7,1.2l0,0c-0.1,0.4-0.5,0.7-0.9,0.7l0,0C13.4,26.3,13.3,26.3,13.2,26.3z M9.5,25.1
					c-0.5-0.2-0.8-0.7-0.7-1.2l0,0c0.2-0.5,0.7-0.8,1.2-0.7l0,0c0.5,0.2,0.8,0.7,0.7,1.2l0,0c-0.1,0.4-0.5,0.7-1,0.7l0,0
					C9.7,25.1,9.6,25.1,9.5,25.1z"/>
			</g>
			<g>
				<path fill="#363636" d="M6,24c-0.3,0-0.5-0.1-0.7-0.3C5.1,23.5,5,23.3,5,23c0-0.3,0.1-0.5,0.3-0.7c0.4-0.4,1-0.4,1.4,0
					C6.9,22.5,7,22.7,7,23s-0.1,0.5-0.3,0.7C6.5,23.9,6.3,24,6,24z"/>
			</g>
		</g>
		<rect fill="none" width="64" height="64"/>
	</g>
</g>
</svg>
