<?xml version="1.0" encoding="utf-8"?>
<!-- Generator: Adobe Illustrator 18.1.1, SVG Export Plug-In . SVG Version: 6.00 Build 0)  -->
<svg version="1.1" xmlns="http://www.w3.org/2000/svg" xmlns:xlink="http://www.w3.org/1999/xlink" x="0px" y="0px"
	 viewBox="0 0 64 64" enable-background="new 0 0 64 64" xml:space="preserve">
<g id="Layer_2" display="none">
	<rect x="-104" y="-334.5" display="inline" fill="#84C9F3" stroke="#000000" stroke-miterlimit="10" width="485" height="615.8"/>
</g>
<g id="Layer_1">
	<g>
		<rect x="-7.1" y="-74.1" fill="none" width="78.3" height="78.3"/>
	</g>
	<g>
		<g>
			<g>
				<path fill="#363636" d="M14,41c0.6,0,1,0.4,1,1s-0.4,1-1,1H8c-0.6,0-1-0.4-1-1s0.4-1,1-1H14 M14,39H8c-1.7,0-3,1.3-3,3
					s1.3,3,3,3h6c1.7,0,3-1.3,3-3S15.7,39,14,39L14,39z"/>
			</g>
		</g>
		<path fill="none" stroke="#363636" stroke-width="2" stroke-linecap="round" stroke-linejoin="round" stroke-miterlimit="10" d="
			M32,6c0,8.7-8.8,25.6-18,34H8l-0.2-0.2C6.6,38.6,6,37.1,6,35.5V8c0-1.1,0.9-2,2-2H32z"/>
		<path fill="none" stroke="#363636" stroke-width="2" stroke-linecap="round" stroke-linejoin="round" stroke-miterlimit="10" d="
			M22,6c0,6.4-4,19.5-9,30"/>
		<path fill="none" stroke="#363636" stroke-width="2" stroke-linecap="round" stroke-linejoin="round" stroke-miterlimit="10" d="
			M13,6c0,10.8-1.1,19.9-2.9,30"/>
		<g>
			<g>
				<path fill="#363636" d="M56,41c0.6,0,1,0.4,1,1s-0.4,1-1,1h-6c-0.6,0-1-0.4-1-1s0.4-1,1-1H56 M56,39h-6c-1.7,0-3,1.3-3,3
					s1.3,3,3,3h6c1.7,0,3-1.3,3-3S57.7,39,56,39L56,39z"/>
			</g>
		</g>
		<path fill="none" stroke="#363636" stroke-width="2" stroke-linecap="round" stroke-linejoin="round" stroke-miterlimit="10" d="
			M32,6c0,8.7,8.8,25.6,18,34h6l0.2-0.2c1.1-1.1,1.8-2.7,1.8-4.2V8c0-1.1-0.9-2-2-2H32z"/>
		<path fill="none" stroke="#363636" stroke-width="2" stroke-linecap="round" stroke-linejoin="round" stroke-miterlimit="10" d="
			M42,6c0,6.4,4,19.5,9,30"/>
		<path fill="none" stroke="#363636" stroke-width="2" stroke-linecap="round" stroke-linejoin="round" stroke-miterlimit="10" d="
			M51,6c0,10.8,1.1,19.9,2.9,30"/>
		<g>
			<path fill="none" stroke="#363636" stroke-width="2" stroke-linecap="round" stroke-linejoin="round" stroke-miterlimit="10" d="
				M10.7,54L10,44H9l-0.3,0.2c-1.7,1.1-2.7,3-2.7,5V54"/>
			<path fill="none" stroke="#363636" stroke-width="2" stroke-linecap="round" stroke-linejoin="round" stroke-miterlimit="10" d="
				M6,54c0,2.2,1.8,4,4,4h1h6"/>
		</g>
		<g>
			<path fill="none" stroke="#363636" stroke-width="2" stroke-linecap="round" stroke-linejoin="round" stroke-miterlimit="10" d="
				M20.9,54c0-0.8-0.3-1.6-0.8-2.3L14,44h-2l3.6,10"/>
			<path fill="none" stroke="#363636" stroke-width="2" stroke-linecap="round" stroke-linejoin="round" stroke-miterlimit="10" d="
				M17,58c2.3,0,3.9-2,3.9-4"/>
		</g>
		<g>
			<path fill="none" stroke="#363636" stroke-width="2" stroke-linecap="round" stroke-linejoin="round" stroke-miterlimit="10" d="
				M53.3,54L54,44h1l0.3,0.2c1.7,1.1,2.7,3,2.7,5V54"/>
			<path fill="none" stroke="#363636" stroke-width="2" stroke-linecap="round" stroke-linejoin="round" stroke-miterlimit="10" d="
				M58,54c0,2.2-1.8,4-4,4h-1h-6"/>
		</g>
		<g>
			<path fill="none" stroke="#363636" stroke-width="2" stroke-linecap="round" stroke-linejoin="round" stroke-miterlimit="10" d="
				M43.1,54c0-0.8,0.3-1.6,0.8-2.3L50,44h2l-3.6,10"/>
			<path fill="none" stroke="#363636" stroke-width="2" stroke-linecap="round" stroke-linejoin="round" stroke-miterlimit="10" d="
				M47,58c-2.3,0-3.9-2-3.9-4"/>
		</g>
		<rect fill="none" width="64" height="64"/>
	</g>
</g>
</svg>
