<?xml version="1.0" encoding="utf-8"?>
<!-- Generator: Adobe Illustrator 18.1.1, SVG Export Plug-In . SVG Version: 6.00 Build 0)  -->
<svg version="1.1" xmlns="http://www.w3.org/2000/svg" xmlns:xlink="http://www.w3.org/1999/xlink" x="0px" y="0px"
	 viewBox="0 0 64 64" enable-background="new 0 0 64 64" xml:space="preserve">
<g id="Layer_2" display="none">
	<rect x="-305" y="-200.5" display="inline" fill="#84C9F3" stroke="#000000" stroke-miterlimit="10" width="485" height="615.8"/>
</g>
<g id="Layer_1">
	<g>
		<g>
			<g>
				<path fill="#363636" d="M36,27c0.3,0,0.5,0.1,0.7,0.3c0.4,0.4,0.4,1,0,1.4l-28,28C8.5,56.9,8.3,57,8,57s-0.5-0.1-0.7-0.3
					c-0.4-0.4-0.4-1,0-1.4l28-28C35.5,27.1,35.7,27,36,27 M36,25c-0.8,0-1.6,0.3-2.1,0.9l-28,28C5.3,54.4,5,55.2,5,56
					s0.3,1.6,0.9,2.1S7.2,59,8,59s1.6-0.3,2.1-0.9l28-28c0.6-0.6,0.9-1.3,0.9-2.1s-0.3-1.6-0.9-2.1C37.6,25.3,36.8,25,36,25L36,25z"
					/>
			</g>
		</g>
		<g>
			<path fill="#363636" d="M38.6,9.2l1.6,2.6l3,0.7l-2,2.3l0.2,3l-2.8-1.1l-2.8,1.1l0.2-3l-2-2.3l3-0.7L38.6,9.2 M38.6,7.2
				c-0.7,0-1.3,0.4-1.7,0.9L35.7,10l-2.2,0.6c-0.7,0.2-1.2,0.7-1.4,1.3c-0.2,0.7-0.1,1.4,0.4,1.9l1.4,1.7l-0.1,2.2
				c0,0.7,0.3,1.3,0.8,1.8c0.3,0.3,0.8,0.4,1.2,0.4c0.3,0,0.5,0,0.7-0.1l2.1-0.8l2.1,0.8c0.2,0.1,0.5,0.1,0.7,0.1
				c0.4,0,0.8-0.1,1.2-0.4c0.6-0.4,0.9-1.1,0.8-1.8l-0.1-2.2l1.4-1.7c0.4-0.5,0.6-1.2,0.4-1.9c-0.2-0.7-0.7-1.2-1.4-1.3L41.5,10
				l-1.2-1.9C39.9,7.6,39.3,7.2,38.6,7.2L38.6,7.2z"/>
		</g>
		<g>
			<path fill="#363636" d="M53,8l1,1.7l1.9,0.5l-1.3,1.5l0.1,2L53,12.9l-1.8,0.7l0.1-2l-1.3-1.5L52,9.7L53,8 M53,6
				c-0.7,0-1.3,0.4-1.7,0.9l-0.6,1l-1.1,0.3c-0.7,0.2-1.2,0.7-1.4,1.3c-0.2,0.7-0.1,1.4,0.4,1.9l0.7,0.9l-0.1,1.2
				c0,0.7,0.3,1.3,0.8,1.8c0.3,0.3,0.8,0.4,1.2,0.4c0.3,0,0.5,0,0.7-0.1L53,15l1.1,0.4c0.2,0.1,0.5,0.1,0.7,0.1
				c0.4,0,0.8-0.1,1.2-0.4c0.6-0.4,0.9-1.1,0.8-1.8l-0.1-1.2l0.7-0.9c0.4-0.5,0.6-1.2,0.4-1.9c-0.2-0.7-0.7-1.2-1.4-1.3l-1.1-0.3
				l-0.6-1C54.4,6.4,53.7,6,53,6L53,6z"/>
		</g>
		<g>
			<path fill="#363636" d="M50.3,19.8l1.4,2.2l2.5,0.6l-1.6,2l0.2,2.5l-2.4-0.9l-2.4,0.9l0.2-2.5l-1.6-2l2.5-0.6L50.3,19.8
				 M50.3,17.8c-0.7,0-1.3,0.4-1.7,0.9l-0.9,1.5L46,20.7c-0.7,0.2-1.2,0.7-1.4,1.3s-0.1,1.4,0.4,1.9l1.1,1.3L45.9,27
				c0,0.7,0.3,1.3,0.8,1.8c0.3,0.3,0.8,0.4,1.2,0.4c0.3,0,0.5,0,0.7-0.1l1.6-0.6l1.6,0.6c0.2,0.1,0.5,0.1,0.7,0.1
				c0.4,0,0.8-0.1,1.2-0.4c0.6-0.4,0.9-1.1,0.8-1.8l-0.1-1.7l1.1-1.3c0.4-0.5,0.6-1.2,0.4-1.9s-0.7-1.2-1.4-1.3l-1.7-0.4L52,18.8
				C51.6,18.2,51,17.8,50.3,17.8L50.3,17.8z"/>
		</g>
		<g>
			<path fill="none" stroke="#363636" stroke-width="2" stroke-linecap="round" stroke-linejoin="round" stroke-miterlimit="10" d="
				M30.5,41.5C33.4,46.3,35,52,35,58"/>
			<path fill="none" stroke="#363636" stroke-width="2" stroke-linecap="round" stroke-linejoin="round" stroke-miterlimit="10" d="
				M47,58c0-9.4-2.9-18.1-7.7-25.3"/>
			<path fill="none" stroke="#363636" stroke-width="2" stroke-linecap="round" stroke-linejoin="round" stroke-miterlimit="10" d="
				M39.3,32.7"/>
			<path fill="none" stroke="#363636" stroke-width="2" stroke-linecap="round" stroke-linejoin="round" stroke-miterlimit="10" d="
				M30.5,41.5"/>
			<path fill="none" stroke="#363636" stroke-width="2" stroke-linecap="round" stroke-linejoin="round" stroke-miterlimit="10" d="
				M30.5,41.5"/>
			<path fill="none" stroke="#363636" stroke-width="2" stroke-linecap="round" stroke-linejoin="round" stroke-miterlimit="10" d="
				M22.4,49.6"/>
			<path fill="none" stroke="#363636" stroke-width="2" stroke-linecap="round" stroke-linejoin="round" stroke-miterlimit="10" d="
				M22.4,49.6C23.4,52.2,24,55,24,58"/>
			<path fill="none" stroke="#363636" stroke-width="2" stroke-linecap="round" stroke-linejoin="round" stroke-miterlimit="10" d="
				M35,58c0-6-1.6-11.7-4.5-16.5"/>
			<path fill="none" stroke="#363636" stroke-width="2" stroke-linecap="round" stroke-linejoin="round" stroke-miterlimit="10" d="
				M22.4,49.6"/>
			<path fill="none" stroke="#363636" stroke-width="2" stroke-linecap="round" stroke-linejoin="round" stroke-miterlimit="10" d="
				M24,58c0-3-0.6-5.8-1.6-8.4"/>
		</g>
		<rect y="0" fill="none" width="64" height="64"/>
	</g>
	<g>
		<rect x="61.5" y="-5.5" fill="none" width="75" height="75"/>
	</g>
</g>
</svg>
