<?xml version="1.0" encoding="utf-8"?>
<!-- Generator: Adobe Illustrator 18.1.1, SVG Export Plug-In . SVG Version: 6.00 Build 0)  -->
<svg version="1.1" xmlns="http://www.w3.org/2000/svg" xmlns:xlink="http://www.w3.org/1999/xlink" x="0px" y="0px"
	 viewBox="0 0 64 64" enable-background="new 0 0 64 64" xml:space="preserve">
<g id="Layer_2" display="none">
	<rect x="-238" y="-401.5" display="inline" fill="#84C9F3" stroke="#000000" stroke-miterlimit="10" width="485" height="615.8"/>
</g>
<g id="Layer_1">
	<g>
		<g>
			<g>
				<path fill="#363636" d="M54.8,9.5l1.4,1.4l-24,24l-1.4-1.4L54.8,9.5 M54.8,6.6L53.4,8l-24,24l-1.4,1.4l1.4,1.4l1.4,1.4l1.4,1.4
					l1.4-1.4l24-24l1.4-1.4l-1.4-1.4L56.2,8L54.8,6.6L54.8,6.6z"/>
			</g>
		</g>
		<g>
			<path fill="#363636" d="M28.7,34.2l2.8,2.8l-7.1,7.1l-2.8-2.8L28.7,34.2 M28.7,32.2c-0.5,0-1,0.2-1.4,0.6l-7.1,7.1
				c-0.8,0.8-0.8,2,0,2.8l2.8,2.8c0.4,0.4,0.9,0.6,1.4,0.6s1-0.2,1.4-0.6l7.1-7.1c0.8-0.8,0.8-2,0-2.8l-2.8-2.8
				C29.7,32.4,29.2,32.2,28.7,32.2L28.7,32.2z"/>
		</g>
		
			<polyline fill="none" stroke="#363636" stroke-width="2" stroke-linecap="round" stroke-linejoin="round" stroke-miterlimit="10" points="
			23.7,44.8 23,49.8 6.4,54 17.3,42.7 20.9,42 		"/>
		<rect fill="none" width="64" height="64"/>
	</g>
</g>
</svg>
