<?xml version="1.0" encoding="utf-8"?>
<!-- Generator: Adobe Illustrator 18.1.1, SVG Export Plug-In . SVG Version: 6.00 Build 0)  -->
<svg version="1.1" xmlns="http://www.w3.org/2000/svg" xmlns:xlink="http://www.w3.org/1999/xlink" x="0px" y="0px"
	 viewBox="0 0 64 64" enable-background="new 0 0 64 64" xml:space="preserve">
<g id="Layer_2" display="none">
	<rect x="-104" y="-267.5" display="inline" fill="#84C9F3" stroke="#000000" stroke-miterlimit="10" width="485" height="615.8"/>
</g>
<g id="Layer_1">
	<g>
		<path fill="none" stroke="#363636" stroke-width="2" stroke-linecap="round" stroke-miterlimit="10" d="M28.3,49.2
			c-7.1-1.1-10.2,5.6-13.2,7.4c-5.3,3.2-8.9-1.4-7.3-4.9"/>
		<path fill="none" stroke="#363636" stroke-width="2" stroke-linecap="round" stroke-miterlimit="10" d="M35.7,49.2
			c7.1-1.1,10.2,5.6,13.2,7.4c5.3,3.2,8.9-1.4,7.3-4.9"/>
		
			<polyline fill="none" stroke="#363636" stroke-width="2" stroke-linecap="round" stroke-linejoin="round" stroke-miterlimit="10" points="
			43,28.3 13.6,28.3 13.6,23.4 36.9,23.4 		"/>
		<path fill="none" stroke="#363636" stroke-width="2" stroke-linecap="round" stroke-linejoin="round" stroke-miterlimit="10" d="
			M12.4,23.4c0,0-8.7-7.8-1.5-14.7s23.5,2.6,38.2,4.9c15.7,2.4,11.5,14.5,3.8,16.1c-8.6,1.8-5.8-6.3-16.1-6.3"/>
		
			<line fill="none" stroke="#363636" stroke-width="2" stroke-linecap="round" stroke-linejoin="round" stroke-miterlimit="10" x1="43" y1="8.8" x2="43" y2="11.2"/>
		<rect x="-7.1" y="-7.1" fill="none" width="78.3" height="78.3"/>
	</g>
</g>
</svg>
