<?xml version="1.0" encoding="utf-8"?>
<!-- Generator: Adobe Illustrator 18.1.1, SVG Export Plug-In . SVG Version: 6.00 Build 0)  -->
<svg version="1.1" xmlns="http://www.w3.org/2000/svg" xmlns:xlink="http://www.w3.org/1999/xlink" x="0px" y="0px"
	 viewBox="0 0 64 64" enable-background="new 0 0 64 64" xml:space="preserve">
<g id="Layer_2" display="none">
	<rect x="-372" y="-133.5" display="inline" fill="#84C9F3" stroke="#000000" stroke-miterlimit="10" width="485" height="615.8"/>
</g>
<g id="Layer_1">
	<g>
		<path fill="none" stroke="#363636" stroke-width="2" stroke-linejoin="round" stroke-miterlimit="10" d="M21.6,42.7
			c2.3,2.3,3.9,4.6-0.7,9.2S6,58.2,6,58.2S7.8,48,12.4,43.4S19.2,40.3,21.6,42.7z"/>
		<path fill="none" stroke="#363636" stroke-width="2" stroke-linejoin="round" stroke-miterlimit="10" d="M21.6,42.7
			c1,1,1.4,2.1-3.2,6.7S6,58.2,6,58.2s4.3-7.8,8.9-12.3S20.6,41.7,21.6,42.7z"/>
		
			<line fill="#FFFFFF" stroke="#363636" stroke-width="2" stroke-linecap="round" stroke-linejoin="round" stroke-miterlimit="10" x1="27.2" y1="32.8" x2="31.5" y2="37"/>
		<rect y="0" fill="none" width="64" height="64"/>
		<path fill="none" stroke="#363636" stroke-width="2" stroke-linejoin="round" stroke-miterlimit="10" d="M23.4,45.1
			c4.7-1.4,12.2-6.6,19.5-13.9C53.2,20.9,59.3,10.4,56.6,7.7S43.3,11,33,21.3c-7.4,7.4-12.6,14.9-13.9,19.5"/>
	</g>
	<g>
		<rect x="-5.5" y="61.5" fill="none" width="75" height="75"/>
	</g>
</g>
</svg>
