<?xml version="1.0" encoding="utf-8"?>
<!-- Generator: Adobe Illustrator 18.1.1, SVG Export Plug-In . SVG Version: 6.00 Build 0)  -->
<svg version="1.1" xmlns="http://www.w3.org/2000/svg" xmlns:xlink="http://www.w3.org/1999/xlink" x="0px" y="0px"
	 viewBox="0 0 64 64" enable-background="new 0 0 64 64" xml:space="preserve">
<g id="Layer_2" display="none">
	<rect x="-37" y="-468.5" display="inline" fill="#84C9F3" stroke="#000000" stroke-miterlimit="10" width="485" height="615.8"/>
</g>
<g id="Layer_1">
	<g>
		<g>
			<path fill="#363636" d="M24,15.1c0.2,0,0.4,0.1,0.6,0.2L44,31.6c0.7,0.6,0.3,1.7-0.6,1.8l-10.3,0.5l7.7,14.6
				c0.3,0.5,0.1,1.1-0.4,1.4C40.3,50,40.2,50,40,50c-0.4,0-0.7-0.2-0.9-0.5l-7.8-14.7l-6.6,7.3c-0.2,0.2-0.5,0.3-0.7,0.3
				c-0.5,0-1-0.4-1-1V16.1C23,15.5,23.5,15.1,24,15.1 M24,13.1c-1.7,0-3,1.3-3,3v25.2c0,1.7,1.3,3,3,3c0.8,0,1.7-0.4,2.2-1l4.7-5.2
				l6.5,12.2c0.5,1,1.5,1.6,2.7,1.6c0.5,0,1-0.1,1.4-0.3c1.5-0.8,2-2.6,1.2-4.1l-6.3-11.8l7.1-0.4c1.2-0.1,2.3-0.9,2.7-2
				c0.4-1.2,0-2.5-0.9-3.3L25.9,13.8C25.4,13.4,24.7,13.1,24,13.1L24,13.1z"/>
		</g>
		<rect fill="none" width="64" height="64"/>
	</g>
</g>
</svg>
