<?xml version="1.0" encoding="utf-8"?>
<!-- Generator: Adobe Illustrator 18.1.1, SVG Export Plug-In . SVG Version: 6.00 Build 0)  -->
<svg version="1.1" xmlns="http://www.w3.org/2000/svg" xmlns:xlink="http://www.w3.org/1999/xlink" x="0px" y="0px"
	 viewBox="0 0 64 64" enable-background="new 0 0 64 64" xml:space="preserve">
<g id="Layer_2" display="none">
	<rect x="-104" y="-200.5" display="inline" fill="#84C9F3" stroke="#000000" stroke-miterlimit="10" width="485" height="615.8"/>
</g>
<g id="Layer_1">
	<g>
		<polygon fill="none" stroke="#363636" stroke-width="2" stroke-linejoin="round" stroke-miterlimit="10" points="17,36.5 
			12.1,41.4 12.1,44.2 9.2,47.1 17.7,55.6 20.6,52.7 23.4,52.7 28.3,47.8 29,48.5 34,43.5 21.3,30.8 16.3,35.8 		"/>
		<path fill="none" stroke="#363636" stroke-width="2" stroke-linejoin="round" stroke-miterlimit="10" d="M14,56l-2,2H6.8
			c-1.8,0-2.7-2.2-1.4-3.4L9,51"/>
		<path fill="none" stroke="#363636" stroke-width="2" stroke-linejoin="round" stroke-miterlimit="10" d="M22,31.5l11.3,11.3
			l25-24.8c0.8-0.8,0.8-2.1,0-2.8l-8.5-8.5c-0.8-0.8-2-0.8-2.8,0L22,31.5z"/>
		
			<line fill="#FFFFFF" stroke="#363636" stroke-width="2" stroke-linecap="round" stroke-linejoin="round" stroke-miterlimit="10" x1="26.2" y1="45.7" x2="19.1" y2="38.6"/>
		<rect y="0" fill="none" width="64" height="64"/>
	</g>
	<g>
		<rect x="-7.1" y="59.9" fill="none" width="78.3" height="78.3"/>
	</g>
</g>
</svg>
