<?xml version="1.0" encoding="utf-8"?>
<!-- Generator: Adobe Illustrator 18.1.1, SVG Export Plug-In . SVG Version: 6.00 Build 0)  -->
<svg version="1.1" xmlns="http://www.w3.org/2000/svg" xmlns:xlink="http://www.w3.org/1999/xlink" x="0px" y="0px"
	 viewBox="0 0 64 64" enable-background="new 0 0 64 64" xml:space="preserve">
<g id="Layer_2" display="none">
	<rect x="-305" y="-401.5" display="inline" fill="#84C9F3" stroke="#000000" stroke-miterlimit="10" width="485" height="615.8"/>
</g>
<g id="Layer_1">
	<g>
		<path fill="none" stroke="#363636" stroke-width="2" stroke-linecap="round" stroke-linejoin="round" stroke-miterlimit="10" d="
			M32.4,24.5L8.5,48.5c-2,2-2,5.1,0,7.1l0,0l35.6-35.6"/>
		<path fill="none" stroke="#363636" stroke-width="2" stroke-linecap="round" stroke-linejoin="round" stroke-miterlimit="10" d="
			M32.4,24.5c-2.1,2.1-5.6,2.1-7.8,0s-2.1-5.6,0-7.8l8.1-8.1c3.1-3.1,8.2-3.1,11.3,0c3.1,3.1,3.1,8.2,0,11.3"/>
		<path fill="none" stroke="#363636" stroke-width="2" stroke-linecap="round" stroke-linejoin="round" stroke-miterlimit="10" d="
			M39.5,31.6L15.5,55.5c-2,2-5.1,2-7.1,0l0,0l35.6-35.6"/>
		<path fill="none" stroke="#363636" stroke-width="2" stroke-linecap="round" stroke-linejoin="round" stroke-miterlimit="10" d="
			M39.5,31.6c-2.1,2.1-2.1,5.6,0,7.8s5.6,2.1,7.8,0l8.1-8.1c3.1-3.1,3.1-8.2,0-11.3c-3.1-3.1-8.2-3.1-11.3,0"/>
		<circle fill="#363636" cx="29.9" cy="34.1" r="2"/>
		<path fill="none" stroke="#363636" stroke-width="2" stroke-linecap="round" stroke-miterlimit="10" d="M44.5,35.5l7-7
			c1.3-1.3,1.3-3.4,0-4.7c-1.3-1.3-3.4-1.3-4.7,0l-4.5,4.5"/>
		<path fill="none" stroke="#363636" stroke-width="2" stroke-linecap="round" stroke-miterlimit="10" d="M35.9,21.9l4.5-4.5
			c1.3-1.3,1.3-3.4,0-4.7c-1.3-1.3-3.4-1.3-4.7,0l-7.5,7.5"/>
		<rect fill="none" width="64" height="64"/>
	</g>
</g>
</svg>
