<?xml version="1.0" encoding="utf-8"?>
<!-- Generator: Adobe Illustrator 18.1.1, SVG Export Plug-In . SVG Version: 6.00 Build 0)  -->
<svg version="1.1" xmlns="http://www.w3.org/2000/svg" xmlns:xlink="http://www.w3.org/1999/xlink" x="0px" y="0px"
	 viewBox="0 0 64 64" enable-background="new 0 0 64 64" xml:space="preserve">
<g id="Layer_2" display="none">
	<rect x="-171" y="-66.5" display="inline" fill="#84C9F3" stroke="#000000" stroke-miterlimit="10" width="485" height="615.8"/>
</g>
<g id="Layer_1">
	<g>
		<polygon fill="none" stroke="#363636" stroke-width="2" stroke-miterlimit="10" points="23,56 8,56 8,41 15,41 15,49 23,49 		"/>
		<rect x="15" y="8" fill="none" stroke="#363636" stroke-width="2" stroke-miterlimit="10" width="41" height="41"/>
		<g>
			<g>
				<path fill="#363636" d="M8,57c-0.3,0-0.5-0.1-0.7-0.3C7.1,56.5,7,56.3,7,56c0-0.3,0.1-0.5,0.3-0.7c0.4-0.4,1-0.4,1.4,0
					C8.9,55.5,9,55.7,9,56c0,0.3-0.1,0.5-0.3,0.7C8.5,56.9,8.3,57,8,57z"/>
			</g>
			<g>
				<path fill="#363636" d="M9.6,54.4c-0.4-0.4-0.4-1,0-1.4l0,0c0.4-0.4,1-0.4,1.4,0l0,0c0.4,0.4,0.4,1,0,1.4l0,0
					c-0.2,0.2-0.5,0.3-0.7,0.3l0,0C10.1,54.7,9.8,54.6,9.6,54.4z M12,52c-0.4-0.4-0.4-1,0-1.4l0,0c0.4-0.4,1-0.4,1.4,0l0,0
					c0.4,0.4,0.4,1,0,1.4l0,0c-0.2,0.2-0.4,0.3-0.7,0.3l0,0C12.4,52.3,12.1,52.2,12,52z"/>
			</g>
			<g>
				<path fill="#363636" d="M15,50c-0.3,0-0.5-0.1-0.7-0.3C14.1,49.5,14,49.3,14,49s0.1-0.5,0.3-0.7c0.4-0.4,1-0.4,1.4,0
					c0.2,0.2,0.3,0.4,0.3,0.7c0,0.3-0.1,0.5-0.3,0.7C15.5,49.9,15.3,50,15,50z"/>
			</g>
		</g>
		<g>
			<g>
				<path fill="#363636" d="M15,9c-0.3,0-0.5-0.1-0.7-0.3C14.1,8.5,14,8.3,14,8c0-0.3,0.1-0.5,0.3-0.7c0.4-0.4,1-0.4,1.4,0
					C15.9,7.5,16,7.7,16,8c0,0.3-0.1,0.5-0.3,0.7C15.5,8.9,15.3,9,15,9z"/>
			</g>
			<g>
				<path fill="#363636" d="M8.7,37.8c-0.5-0.1-0.9-0.6-0.8-1.2l0,0c0.1-0.5,0.6-0.9,1.2-0.8l0,0c0.5,0.1,0.9,0.6,0.8,1.2l0,0
					c-0.1,0.5-0.5,0.8-1,0.8l0,0C8.8,37.9,8.7,37.9,8.7,37.8z M9.5,33.7c-0.5-0.1-0.9-0.7-0.8-1.2l0,0c0.1-0.5,0.6-0.9,1.2-0.8l0,0
					c0.5,0.1,0.9,0.6,0.8,1.2l0,0c-0.1,0.5-0.5,0.8-1,0.8l0,0C9.7,33.8,9.6,33.7,9.5,33.7z M10.4,29.6c-0.5-0.1-0.9-0.6-0.8-1.2l0,0
					c0.1-0.5,0.6-0.9,1.2-0.8l0,0c0.5,0.1,0.9,0.6,0.8,1.2l0,0c-0.1,0.5-0.5,0.8-1,0.8l0,0C10.6,29.6,10.5,29.6,10.4,29.6z
					 M11.3,25.5c-0.5-0.1-0.9-0.7-0.8-1.2l0,0c0.1-0.5,0.6-0.9,1.2-0.8l0,0c0.5,0.1,0.9,0.6,0.8,1.2l0,0c-0.1,0.5-0.5,0.8-1,0.8l0,0
					C11.4,25.5,11.4,25.5,11.3,25.5z M12.2,21.3c-0.5-0.1-0.9-0.6-0.8-1.2l0,0c0.1-0.5,0.6-0.9,1.2-0.8l0,0c0.5,0.1,0.9,0.6,0.8,1.2
					l0,0c-0.1,0.5-0.5,0.8-1,0.8l0,0C12.3,21.4,12.2,21.4,12.2,21.3z M13,17.2c-0.5-0.1-0.9-0.7-0.8-1.2l0,0
					c0.1-0.5,0.6-0.9,1.2-0.8l0,0c0.5,0.1,0.9,0.6,0.8,1.2l0,0c-0.1,0.5-0.5,0.8-1,0.8l0,0C13.2,17.2,13.1,17.2,13,17.2z M13.9,13.1
					c-0.5-0.1-0.9-0.6-0.8-1.2l0,0c0.1-0.5,0.6-0.9,1.2-0.8l0,0c0.5,0.1,0.9,0.6,0.8,1.2l0,0c-0.1,0.5-0.5,0.8-1,0.8l0,0
					C14.1,13.1,14,13.1,13.9,13.1z"/>
			</g>
			<g>
				<path fill="#363636" d="M8,42c-0.3,0-0.5-0.1-0.7-0.3C7.1,41.5,7,41.3,7,41c0-0.3,0.1-0.5,0.3-0.7c0.4-0.4,1-0.4,1.4,0
					C8.9,40.5,9,40.7,9,41c0,0.3-0.1,0.5-0.3,0.7C8.5,41.9,8.3,42,8,42z"/>
			</g>
		</g>
		<g>
			<g>
				<path fill="#363636" d="M23,57c-0.3,0-0.5-0.1-0.7-0.3C22.1,56.5,22,56.3,22,56c0-0.3,0.1-0.5,0.3-0.7c0.4-0.4,1-0.4,1.4,0
					c0.2,0.2,0.3,0.4,0.3,0.7c0,0.3-0.1,0.5-0.3,0.7C23.5,56.9,23.3,57,23,57z"/>
			</g>
			<g>
				<path fill="#363636" d="M26.1,55.3c-0.1-0.5,0.2-1.1,0.8-1.2l0,0c0.5-0.1,1.1,0.2,1.2,0.8l0,0c0.1,0.5-0.2,1.1-0.8,1.2l0,0
					c-0.1,0-0.1,0-0.2,0l0,0C26.7,56.1,26.2,55.8,26.1,55.3z M30.3,54.5c-0.1-0.5,0.2-1.1,0.8-1.2l0,0c0.5-0.1,1.1,0.2,1.2,0.8l0,0
					c0.1,0.5-0.2,1.1-0.8,1.2l0,0c-0.1,0-0.1,0-0.2,0l0,0C30.8,55.2,30.4,54.9,30.3,54.5z M34.4,53.6c-0.1-0.5,0.2-1.1,0.8-1.2l0,0
					c0.5-0.1,1.1,0.2,1.2,0.8l0,0c0.1,0.5-0.2,1.1-0.8,1.2l0,0c-0.1,0-0.1,0-0.2,0l0,0C34.9,54.4,34.5,54,34.4,53.6z M38.5,52.7
					c-0.1-0.5,0.2-1.1,0.8-1.2l0,0c0.5-0.1,1.1,0.2,1.2,0.8l0,0c0.1,0.5-0.2,1.1-0.8,1.2l0,0c-0.1,0-0.1,0-0.2,0l0,0
					C39,53.5,38.6,53.2,38.5,52.7z M42.6,51.8c-0.1-0.5,0.2-1.1,0.8-1.2l0,0c0.5-0.1,1.1,0.2,1.2,0.8l0,0c0.1,0.5-0.2,1.1-0.8,1.2
					l0,0c-0.1,0-0.1,0-0.2,0l0,0C43.2,52.6,42.8,52.3,42.6,51.8z M46.8,51c-0.1-0.5,0.2-1.1,0.8-1.2l0,0c0.5-0.1,1.1,0.2,1.2,0.8
					l0,0c0.1,0.5-0.2,1.1-0.8,1.2l0,0c-0.1,0-0.1,0-0.2,0l0,0C47.3,51.8,46.9,51.4,46.8,51z M50.9,50.1c-0.1-0.5,0.2-1.1,0.8-1.2
					l0,0c0.5-0.1,1.1,0.2,1.2,0.8l0,0c0.1,0.5-0.2,1.1-0.8,1.2l0,0c-0.1,0-0.1,0-0.2,0l0,0C51.4,50.9,51,50.5,50.9,50.1z"/>
			</g>
			<g>
				<path fill="#363636" d="M56,50c-0.3,0-0.5-0.1-0.7-0.3C55.1,49.5,55,49.3,55,49c0-0.3,0.1-0.5,0.3-0.7c0.4-0.4,1-0.4,1.4,0
					c0.2,0.2,0.3,0.4,0.3,0.7c0,0.3-0.1,0.5-0.3,0.7C56.5,49.9,56.3,50,56,50z"/>
			</g>
		</g>
		<rect y="0" fill="none" width="64" height="64"/>
	</g>
</g>
</svg>
