<?xml version="1.0" encoding="utf-8"?>
<!-- Generator: Adobe Illustrator 18.1.1, SVG Export Plug-In . SVG Version: 6.00 Build 0)  -->
<svg version="1.1" xmlns="http://www.w3.org/2000/svg" xmlns:xlink="http://www.w3.org/1999/xlink" x="0px" y="0px"
	 viewBox="0 0 64 64" enable-background="new 0 0 64 64" xml:space="preserve">
<g id="Layer_2" display="none">
	<rect x="-238" y="-468.5" display="inline" fill="#84C9F3" stroke="#000000" stroke-miterlimit="10" width="485" height="615.8"/>
</g>
<g id="Layer_1">
	<g>
		<g>
			<path fill="#363636" d="M32.4,11c3.2,0,7,0.6,11.4,2c0.7,1.5,0.9,3.4,1,5c0.2,3.8-3.4,5.4-5.9,8s-0.8,8.5,0.9,12
				c1.3,2.7,0.1,3.1-1.5,3.1c-0.5,0-1,0-1.5-0.1c-0.6,4.2,0,2.5-5,4s-6.7,3.4-8,7c-0.4,1.1-0.9,1.6-1.5,1.6c-1.4,0-3.1-2.7-4.5-7.6
				C13.9,30.6,17,19.3,20,16C22.6,13,26.6,11,32.4,11 M32.4,9c-6,0-10.7,1.9-14,5.6c-3.3,3.8-6.7,15.4-2.5,31.8
				c1.7,6,3.8,9.1,6.4,9.1c0.9,0,2.5-0.4,3.4-2.9c1.1-3,2.3-4.5,6.7-5.8c1.3-0.4,2.2-0.5,2.8-0.7c2.4-0.4,3-1.3,3.3-3.2
				c0.8,0,2.5-0.1,3.4-1.5c0.9-1.5,0.3-3.2-0.3-4.4c-2-4.2-2.6-8.4-1.3-9.7c0.6-0.6,1.2-1.1,1.9-1.7c2.1-1.8,4.7-4,4.5-7.7
				c-0.1-2.3-0.5-4.2-1.2-5.7l-0.4-0.8L44.5,11C40,9.7,36,9,32.4,9L32.4,9z"/>
		</g>
		<circle fill="#363636" cx="31.9" cy="41" r="2"/>
		
			<line fill="none" stroke="#363636" stroke-width="2" stroke-linecap="round" stroke-miterlimit="10" x1="29" y1="51" x2="41" y2="51"/>
		<ellipse fill="none" stroke="#363636" stroke-width="2" stroke-miterlimit="10" cx="26" cy="29" rx="5" ry="4"/>
		<rect fill="none" width="64" height="64"/>
	</g>
</g>
</svg>
