<?xml version="1.0" encoding="utf-8"?>
<!-- Generator: Adobe Illustrator 18.1.1, SVG Export Plug-In . SVG Version: 6.00 Build 0)  -->
<svg version="1.1" xmlns="http://www.w3.org/2000/svg" xmlns:xlink="http://www.w3.org/1999/xlink" x="0px" y="0px"
	 viewBox="0 0 64 64" enable-background="new 0 0 64 64" xml:space="preserve">
<g id="Layer_2" display="none">
	<rect x="-171" y="-401.5" display="inline" fill="#84C9F3" stroke="#000000" stroke-miterlimit="10" width="485" height="615.8"/>
</g>
<g id="Layer_1">
	<g>
		
			<polygon fill="none" stroke="#363636" stroke-width="2" stroke-linecap="round" stroke-linejoin="round" stroke-miterlimit="10" points="
			33.7,50.1 36.8,48.5 36.7,45 40,44 40.5,40.5 44,40 45,36.7 48.6,36.8 50.1,33.7 52.5,34.1 52.5,34.1 58.3,28.3 35.7,5.7 
			29.9,11.5 30.3,13.9 27.2,15.5 27.3,19 24,20 23.5,23.5 20,24 19,27.3 15.4,27.2 13.9,30.3 11.5,29.9 11.5,29.9 5.7,35.7 
			28.3,58.3 34.1,52.5 		"/>
		<path fill="none" stroke="#363636" stroke-width="2" stroke-linecap="round" stroke-linejoin="round" stroke-miterlimit="10" d="
			M39.2,13.5L22.8,29.9c-3.1,3.1-3.1,8.2,0,11.3s8.2,3.1,11.3,0l16.4-16.4"/>
		<circle fill="#363636" cx="32.7" cy="34.1" r="2"/>
		
			<line fill="none" stroke="#363636" stroke-width="2" stroke-linecap="round" stroke-linejoin="round" stroke-miterlimit="10" x1="42.7" y1="17" x2="23.5" y2="36.2"/>
		<rect fill="none" width="64" height="64"/>
	</g>
</g>
</svg>
