<?xml version="1.0" encoding="utf-8"?>
<!-- Generator: Adobe Illustrator 18.1.1, SVG Export Plug-In . SVG Version: 6.00 Build 0)  -->
<svg version="1.1" xmlns="http://www.w3.org/2000/svg" xmlns:xlink="http://www.w3.org/1999/xlink" x="0px" y="0px"
	 viewBox="0 0 64 64" enable-background="new 0 0 64 64" xml:space="preserve">
<g id="Layer_2" display="none">
	<rect x="-372" y="-468.5" display="inline" fill="#84C9F3" stroke="#000000" stroke-miterlimit="10" width="485" height="615.8"/>
</g>
<g id="Layer_1">
	<g>
		<g>
			<path fill="#363636" d="M41,6.6c0.3,0,0.5,0.1,0.7,0.3l17,17c0.4,0.4,0.4,1,0,1.4L57.9,26c-0.2,0.2-0.5,0.3-0.7,0.3
				c-0.3,0-0.5-0.1-0.7-0.3c-0.4-0.4-0.4-1,0-1.4l-2.1-2.1L35.5,41.3c-3.4,3.4-2.8,8.5-2.8,8.5l-14.1,8.5L7.2,47l8.5-14.1
				c0,0,0.4,0,0.9,0c1.6,0,5-0.3,7.6-2.9l18.9-18.9L41,9c-0.2,0.2-0.5,0.3-0.7,0.3S39.7,9.2,39.5,9c-0.4-0.4-0.4-1,0-1.4l0.7-0.7
				C40.4,6.7,40.7,6.6,41,6.6 M41,4.6c-0.8,0-1.6,0.3-2.1,0.9l-0.7,0.7c-0.6,0.6-0.9,1.3-0.9,2.1s0.3,1.6,0.9,2.1
				c0.5,0.5,1.2,0.8,2,0.9L22.7,28.6c-2,2-4.7,2.3-6.1,2.3c-0.4,0-0.7,0-0.7,0c-0.1,0-0.2,0-0.2,0c-0.7,0-1.4,0.4-1.7,1L5.5,46
				c-0.5,0.8-0.3,1.8,0.3,2.4l11.3,11.3c0.4,0.4,0.9,0.6,1.4,0.6c0.4,0,0.7-0.1,1-0.3l14.1-8.5c0.7-0.4,1.1-1.2,1-2
				c0,0-0.4-4.1,2.3-6.8l17.3-17.3c0,0.7,0.3,1.4,0.9,2c0.6,0.6,1.3,0.9,2.1,0.9s1.6-0.3,2.1-0.9l0.7-0.7c1.2-1.2,1.2-3.1,0-4.2
				l-17-17C42.5,4.9,41.8,4.6,41,4.6L41,4.6z"/>
		</g>
		
			<line fill="none" stroke="#363636" stroke-width="2" stroke-linecap="round" stroke-linejoin="round" stroke-miterlimit="10" x1="44.5" y1="13.9" x2="51.6" y2="21"/>
		<path fill="none" stroke="#363636" stroke-width="2" stroke-linecap="round" stroke-linejoin="round" stroke-miterlimit="10" d="
			M16.6,36.2c0,0,8.3-2.6,11.8,0.9s0.9,11.8,0.9,11.8"/>
		<rect fill="none" width="64" height="64"/>
	</g>
</g>
</svg>
