<?xml version="1.0" encoding="utf-8"?>
<!-- Generator: Adobe Illustrator 18.1.1, SVG Export Plug-In . SVG Version: 6.00 Build 0)  -->
<svg version="1.1" xmlns="http://www.w3.org/2000/svg" xmlns:xlink="http://www.w3.org/1999/xlink" x="0px" y="0px"
	 viewBox="0 0 64 64" enable-background="new 0 0 64 64" xml:space="preserve">
<g id="Layer_2" display="none">
	<rect x="-238" y="-133.5" display="inline" fill="#84C9F3" stroke="#000000" stroke-miterlimit="10" width="485" height="615.8"/>
</g>
<g id="Layer_1">
	<g>
		
			<line fill="none" stroke="#363636" stroke-width="2" stroke-linejoin="round" stroke-miterlimit="10" x1="10" y1="59" x2="15.8" y2="45"/>
		<polyline fill="none" stroke="#363636" stroke-width="2" stroke-linejoin="round" stroke-miterlimit="10" points="28.7,14 32,6 
			35.3,14 		"/>
		
			<line fill="none" stroke="#363636" stroke-width="2" stroke-linejoin="round" stroke-miterlimit="10" x1="54" y1="59" x2="48.2" y2="45"/>
		
			<line fill="none" stroke="#363636" stroke-width="2" stroke-linejoin="round" stroke-miterlimit="10" x1="32" y1="45" x2="32" y2="55"/>
		
			<line fill="none" stroke="#363636" stroke-width="2" stroke-linejoin="round" stroke-miterlimit="10" x1="32" y1="7" x2="32" y2="14"/>
		
			<line fill="none" stroke="#363636" stroke-width="2" stroke-linejoin="round" stroke-miterlimit="10" x1="32" y1="45" x2="48.2" y2="45"/>
		
			<line fill="none" stroke="#363636" stroke-width="2" stroke-linejoin="round" stroke-miterlimit="10" x1="32" y1="14" x2="35.3" y2="14"/>
		<path fill="none" stroke="#363636" stroke-width="2" stroke-linejoin="round" stroke-miterlimit="10" d="M48.2,45H50
			c2.2,0,4-1.8,4-4V18c0-2.2-1.8-4-4-4H35.3"/>
		<path fill="none" stroke="#363636" stroke-width="2" stroke-linejoin="round" stroke-miterlimit="10" d="M28.7,14H14
			c-2.2,0-4,1.8-4,4v23c0,2.2,1.8,4,4,4h1.8"/>
		
			<line fill="none" stroke="#363636" stroke-width="2" stroke-linejoin="round" stroke-miterlimit="10" x1="32" y1="45" x2="15.8" y2="45"/>
		
			<line fill="none" stroke="#363636" stroke-width="2" stroke-linejoin="round" stroke-miterlimit="10" x1="28.7" y1="14" x2="32" y2="14"/>
	</g>
</g>
</svg>
