<?xml version="1.0" encoding="utf-8"?>
<!-- Generator: Adobe Illustrator 18.1.1, SVG Export Plug-In . SVG Version: 6.00 Build 0)  -->
<svg version="1.1" xmlns="http://www.w3.org/2000/svg" xmlns:xlink="http://www.w3.org/1999/xlink" x="0px" y="0px"
	 viewBox="0 0 64 64" enable-background="new 0 0 64 64" xml:space="preserve">
<g id="Layer_2" display="none">
	<rect x="-372" y="-66.5" display="inline" fill="#84C9F3" stroke="#000000" stroke-miterlimit="10" width="485" height="615.8"/>
</g>
<g id="Layer_1">
	<g>
		<g>
			<path fill="#363636" d="M20.9,14.2c-0.1,0.2-0.3,0.3-0.4,0.5c-2.2,2.8-3.6,6.2-4.1,9.5c-1.1,8.1,4,15.6,11.6,17
				c0.7,0.1,1.5,0.2,2.2,0.2c3.5,0,6.8-1.5,9.2-4c2.6-2.7,3.8-7.4,0.4-11.4c-0.4-0.5-1.1-1-1.5-1.3c-0.9-0.6-2-1-3.1-1
				c-2.3,0-4.3,1.4-5.2,3.5c-0.7,1.8-0.4,3.9,0.8,5.5c-0.3,0.1-0.5,0.1-0.8,0.1c-0.2,0-0.4,0-0.6-0.1c-3.2-0.6-5.3-3.8-4.8-7.4
				c0.5-3.6,3.1-8.1,9-10.1c1-0.3,2.1-0.5,3.3-0.5c5.1,0,11.5,3.2,14.1,9.4c2.1,6.1,1.2,12.8-2.4,18.1C45,47.7,38.8,51,32.1,51
				c-4.8,0-9.5-1.8-13.2-5c-7.1-6.2-9-16.6-4.4-24.9C16.1,18.3,18.2,15.9,20.9,14.2 M24.1,10.4c-0.2,0-0.4,0-0.7,0.1
				c-4.3,1.9-8.1,5.1-10.7,9.7c-5,9-3,20.6,4.8,27.4C21.9,51.2,27,53,32.1,53c7,0,14-3.3,18.2-9.6c4.2-6.1,4.9-13.5,2.6-20
				c-2.8-6.9-9.8-10.7-15.9-10.7c-1.4,0-2.7,0.2-4,0.6c-6.7,2.3-9.8,7.5-10.3,11.7c-0.6,4.5,2.1,8.8,6.4,9.6c0.3,0.1,0.7,0.1,1,0.1
				c0.7,0,1.4-0.1,2-0.3c1.2-0.4,1.5-1.9,0.6-2.8c0,0,0,0,0,0c-0.9-1-1.2-2.4-0.7-3.7c0.6-1.5,1.9-2.3,3.3-2.3c0.7,0,1.4,0.2,2,0.6
				c0.3,0.2,0.8,0.6,1.1,0.9c2.6,3,1.7,6.6-0.4,8.7c-1.9,2-4.8,3.4-7.8,3.4c-0.6,0-1.2-0.1-1.8-0.2c-6.7-1.2-10.9-7.9-10-14.7
				c0.4-3,1.7-6,3.7-8.6c0.6-0.8,1.7-1.7,2.9-2.6C26.3,12.3,25.4,10.4,24.1,10.4L24.1,10.4z"/>
		</g>
		<rect y="0" fill="none" width="64" height="64"/>
	</g>
</g>
</svg>
