<?xml version="1.0" encoding="utf-8"?>
<!-- Generator: Adobe Illustrator 18.1.1, SVG Export Plug-In . SVG Version: 6.00 Build 0)  -->
<svg version="1.1" xmlns="http://www.w3.org/2000/svg" xmlns:xlink="http://www.w3.org/1999/xlink" x="0px" y="0px"
	 viewBox="0 0 64 64" enable-background="new 0 0 64 64" xml:space="preserve">
<g id="Layer_2" display="none">
	<rect x="-372" y="-401.5" display="inline" fill="#84C9F3" stroke="#000000" stroke-miterlimit="10" width="485" height="615.8"/>
</g>
<g id="Layer_1">
	<g>
		<path fill="none" stroke="#363636" stroke-width="2" stroke-linecap="round" stroke-linejoin="round" stroke-miterlimit="10" d="
			M29.3,41.9l15-15c2-2,5.4-2,7.4,0l0,0c1.1,1.1,3,0.9,3.9-0.5C59.1,21,58.5,13.7,53.7,9c-5.2-5.2-13.6-5.4-19.1-0.7l0,0L15.2,27.8
			c-2.3,2.3-2.3,6.1,0,8.5l5.7,5.7C23.2,44.3,27,44.3,29.3,41.9z"/>
		
			<polyline fill="none" stroke="#363636" stroke-width="2" stroke-linecap="round" stroke-linejoin="round" stroke-miterlimit="10" points="
			24.4,44 20.1,48.3 8.8,37 13.1,32.7 		"/>
		<path fill="none" stroke="#363636" stroke-width="2" stroke-linecap="round" stroke-linejoin="round" stroke-miterlimit="10" d="
			M19.4,47.6l-10,10C8.2,58.8,6,58,6,56.2v-15l3.5-3.5"/>
		
			<line fill="none" stroke="#363636" stroke-width="2" stroke-linecap="round" stroke-linejoin="round" stroke-miterlimit="10" x1="10.2" y1="51.1" x2="16.6" y2="44.7"/>
		<path fill="none" stroke="#363636" stroke-width="2" stroke-linecap="round" stroke-linejoin="round" stroke-miterlimit="10" d="
			M33.9,18.9l1.4,1.4c0.8,0.8,0.8,2,0,2.8l-4.1,4.1c-0.8,0.8-2,0.8-2.8,0L27,25.8c-0.8-0.8-0.8-2,0-2.8l4.1-4.1
			C31.9,18.1,33.2,18.1,33.9,18.9z"/>
		
			<line fill="none" stroke="#363636" stroke-width="2" stroke-linecap="round" stroke-linejoin="round" stroke-miterlimit="10" x1="20.8" y1="33.4" x2="27.7" y2="26.5"/>
		
			<line fill="#FFFFFF" stroke="#363636" stroke-width="2" stroke-linecap="round" stroke-linejoin="round" stroke-miterlimit="10" x1="34.6" y1="19.6" x2="37.5" y2="16.8"/>
		<rect fill="none" width="64" height="64"/>
	</g>
</g>
</svg>
