<?xml version="1.0" encoding="utf-8"?>
<!-- Generator: Adobe Illustrator 18.1.1, SVG Export Plug-In . SVG Version: 6.00 Build 0)  -->
<svg version="1.1" xmlns="http://www.w3.org/2000/svg" xmlns:xlink="http://www.w3.org/1999/xlink" x="0px" y="0px"
	 viewBox="0 0 64 64" enable-background="new 0 0 64 64" xml:space="preserve">
<g id="Layer_2" display="none">
	<rect x="-104" y="-536.2" display="inline" fill="#84C9F3" stroke="#000000" stroke-miterlimit="10" width="485" height="615.8"/>
</g>
<g id="Layer_1">
	<g>
		<path fill="none" stroke="#363636" stroke-width="2" stroke-linecap="round" stroke-miterlimit="10" d="M50,58c0,0-4-1.7-4-6
			c-0.8,0-14,0-14,0s-13.2,0-14,0c0,4.3-4,6-4,6"/>
		<path fill="none" stroke="#363636" stroke-width="2" stroke-linecap="round" stroke-miterlimit="10" d="M32,49h13c2.2,0,4-1.8,4-4
			v-5c0-2.6,5.2-5.9,3-11s-10-3.3-10,2v7c0,1.1-0.9,2-2,2h-8h-8c-1.1,0-2-0.9-2-2v-7c0-5.3-7.8-7.1-10-2s3,8.4,3,11v5
			c0,2.2,1.8,4,4,4H32z"/>
		
			<line fill="#FFFFFF" stroke="#363636" stroke-width="2" stroke-linecap="round" stroke-miterlimit="10" x1="25" y1="32" x2="39" y2="32"/>
		<rect y="0" fill="none" width="64" height="64"/>
		<path fill="none" stroke="#363636" stroke-width="2" stroke-linecap="round" stroke-miterlimit="10" d="M47.7,26
			c1.4-1.6,2.3-3.7,2.3-6c0-5-4-9-9-9H23c-5,0-9,4-9,9c0,2.3,0.9,4.5,2.4,6.1"/>
	</g>
</g>
</svg>
