<?xml version="1.0" encoding="utf-8"?>
<!-- Generator: Adobe Illustrator 18.1.1, SVG Export Plug-In . SVG Version: 6.00 Build 0)  -->
<svg version="1.1" xmlns="http://www.w3.org/2000/svg" xmlns:xlink="http://www.w3.org/1999/xlink" x="0px" y="0px"
	 viewBox="0 0 64 64" enable-background="new 0 0 64 64" xml:space="preserve">
<g id="Layer_2" display="none">
	<rect x="-372" y="-267.5" display="inline" fill="#84C9F3" stroke="#000000" stroke-miterlimit="10" width="485" height="615.8"/>
</g>
<g id="Layer_1">
	<g>
		<rect x="-5.5" y="-72.5" fill="none" width="75" height="75"/>
	</g>
	<g>
		<g>
			<path fill="#363636" d="M47,10v44H17V10H47 M47,8H17c-1.1,0-2,0.9-2,2v44c0,1.1,0.9,2,2,2h30c1.1,0,2-0.9,2-2V10
				C49,8.9,48.1,8,47,8L47,8z"/>
		</g>
		<path fill="none" stroke="#363636" stroke-width="2" stroke-linecap="round" stroke-linejoin="round" stroke-miterlimit="10" d="
			M45,40.3c-1-4.6-1.9-7.5-3.3-8.7c-1.4-1.2-2.5-2-2.7-2.3s-0.8-2.4-1.6-2.8c0.2-1.5,0.4-2.5-0.2-5c-0.2-3.1-0.5-7.7-5.4-7.9
			s-6.4,5.5-5.7,6.5c-1,1-0.9,5.5,0.2,6.6c-0.3,1-0.7,2.6-0.9,3.4c-1,0.4-1.9,1.8-2.2,2.1c-0.2,0.4-1,0.5-1.3,1.6
			c-0.3,1.1-0.1,1.7-0.1,1.7s-1,0-0.6,1.2c-0.2,0.3-0.5,0.4-0.4,0.9c-0.5,0.1-0.9,0.5-0.9,1c-0.7,0.2-1.1,0.6-1.1,0.6"/>
		<path fill="none" stroke="#363636" stroke-width="2" stroke-linecap="round" stroke-linejoin="round" stroke-miterlimit="10" d="
			M32.8,20.6c-1.5,0.3-1.4-0.4-1.7,0.1c-0.2,0.4-0.3,1.1,0.1,1.2"/>
		<path fill="none" stroke="#363636" stroke-width="2" stroke-linecap="round" stroke-linejoin="round" stroke-miterlimit="10" d="
			M37.2,31.5c-4,0.2-7.3,5.3-9.6,10.4"/>
		<path fill="none" stroke="#363636" stroke-width="2" stroke-linecap="round" stroke-linejoin="round" stroke-miterlimit="10" d="
			M24.8,39.1c0.6,0.9,1.3,1.8,0.2,3c2.2-0.5,4.3,0.6,7,2.5s3.8,2.7,2.4,3.3c-1.3,0.7-1.1,2-2.7,2.1c-1.6,0.1-2.8-0.3-3.6-0.7"/>
		<path fill="none" stroke="#363636" stroke-width="2" stroke-linecap="round" stroke-linejoin="round" stroke-miterlimit="10" d="
			M35.2,41.5c-0.8,0.8-1.2,1.2-0.6,2.1c0.6,0.9,0.1,0.9-0.9,0.9"/>
		<path fill="none" stroke="#363636" stroke-width="2" stroke-linecap="round" stroke-linejoin="round" stroke-miterlimit="10" d="
			M26.7,19.9c0.5,0.3,0.7,0.5,1.2,0.5"/>
		<path fill="none" stroke="#363636" stroke-width="2" stroke-linecap="round" stroke-linejoin="round" stroke-miterlimit="10" d="
			M32.8,25.9c1.5-0.5,1.8-1.2,2.5-2.5"/>
		<path fill="none" stroke="#363636" stroke-width="2" stroke-linecap="round" stroke-linejoin="round" stroke-miterlimit="10" d="
			M23.8,45.2c-1.4,0.4-1.3,0.8-1.4,2.4c-0.1,1.6,0.7,2.1,0.7,2.1"/>
		<rect y="0" fill="none" width="64" height="64"/>
	</g>
</g>
</svg>
