<?xml version="1.0" encoding="utf-8"?>
<!-- Generator: Adobe Illustrator 18.1.1, SVG Export Plug-In . SVG Version: 6.00 Build 0)  -->
<svg version="1.1" xmlns="http://www.w3.org/2000/svg" xmlns:xlink="http://www.w3.org/1999/xlink" x="0px" y="0px"
	 viewBox="0 0 64 64" enable-background="new 0 0 64 64" xml:space="preserve">
<g id="Layer_2" display="none">
	<rect x="-238" y="-267.5" display="inline" fill="#84C9F3" stroke="#000000" stroke-miterlimit="10" width="485" height="615.8"/>
</g>
<g id="Layer_1">
	<g>
		<path fill="none" stroke="#363636" stroke-width="2" stroke-miterlimit="10" d="M30.2,41.7c0.1-0.7,0.2-1.4-0.1-2
			c-0.3-0.6-1-1.1-1.7-1.1c-0.5,0.1-0.9,0.4-1.3,0.7c-1,0.9-0.1,3.9-3.3,6.7s-8.9,2.7-11.3-1.1S11,35.6,16.6,34
			c3.4-1,6.7,0.2,8.1,0.1c1.3,0,3.4,0.4,3.5-1.4c0.2-1.8-2.3-4.3-5.8-4.4c-2,0-3.9,0.7-5.8,0.3c-2.8-0.6-4.1-2.3-5.2-4.6
			c-0.9-2.1-0.5-5,1.5-6.9s5.2-2,7.6-0.8s3.9,3.5,4.6,5.9c0.2,0.8,1.6,3.8,2.4,4.2c0.9,0.5,2.2,0.1,2.8-0.7s0.6-1.8,0.4-2.8
			c-0.2-0.9-2.1-4.6-0.6-7.9c1.4-3.2,4.3-3.5,5.2-3.6c3.1-0.2,6.3,1.3,7.9,3.7c1.6,2.4,1,6-4.8,9.3c-1.1,0.6-3.1,2.3-3.7,3.4
			s-0.4,2.8,0.9,3.2c1.2,0.4,2.4-0.6,3-1.5c0.6-1,3-5.4,9.3-5.3C53.8,24.4,56.8,30,55,35c-0.5,1.5-3.2,5.4-8,4.9
			c-1.8-0.2-3.5-1.3-3.9-2.9C43,36.5,43,36,42.9,35.6c-0.3-0.9-1.5-1.6-2.6-1.5c-1.1,0.1-2.1,0.8-2.4,1.8c-0.4,1.2,0.2,2.5,1,3.5
			c0.9,1,2,1.7,3,2.6c1.2,1.1,2.2,2.5,2.5,4c0.3,1.5-0.1,3.2-1.3,4.4c-1.9,1.8-7.8,2.4-10.5,0.6c-1.5-1-2.5-2.7-2.8-4.4
			C29.4,45,29.9,43.3,30.2,41.7z"/>
		<rect y="0" fill="none" width="64" height="64"/>
	</g>
</g>
</svg>
