<?xml version="1.0" encoding="utf-8"?>
<!-- Generator: Adobe Illustrator 18.1.1, SVG Export Plug-In . SVG Version: 6.00 Build 0)  -->
<svg version="1.1" xmlns="http://www.w3.org/2000/svg" xmlns:xlink="http://www.w3.org/1999/xlink" x="0px" y="0px"
	 viewBox="0 0 64 64" enable-background="new 0 0 64 64" xml:space="preserve">
<g id="Layer_2" display="none">
	<rect x="-171" y="-200.5" display="inline" fill="#84C9F3" stroke="#000000" stroke-miterlimit="10" width="485" height="615.8"/>
</g>
<g id="Layer_1">
	<g>
		
			<rect x="3.6" y="43.5" transform="matrix(0.7071 0.7071 -0.7071 0.7071 38.0497 1.2023)" fill="none" stroke="#363636" stroke-width="2" stroke-linejoin="round" stroke-miterlimit="10" width="28" height="6"/>
		
			<rect x="20.1" y="14.4" transform="matrix(0.7071 0.7071 -0.7071 0.7071 32.0203 -13.3541)" fill="none" stroke="#363636" stroke-width="2" stroke-linejoin="round" stroke-miterlimit="10" width="24" height="35.2"/>
		<path fill="none" stroke="#363636" stroke-width="2" stroke-linecap="round" stroke-linejoin="round" stroke-miterlimit="10" d="
			M17.3,36.9c0,0,4.7-1.8,8.2,1.7c3.5,3.5,1.7,8.2,1.7,8.2"/>
		
			<polygon fill="none" stroke="#363636" stroke-width="2" stroke-linecap="round" stroke-linejoin="round" stroke-miterlimit="10" points="
			36.1,11.1 46,11.1 53.1,18.1 53.1,28 		"/>
		
			<line fill="none" stroke="#363636" stroke-width="2" stroke-linejoin="round" stroke-miterlimit="10" x1="48.1" y1="8.9" x2="46" y2="11.1"/>
		
			<line fill="none" stroke="#363636" stroke-width="2" stroke-linejoin="round" stroke-miterlimit="10" x1="55.2" y1="16" x2="53.1" y2="18.1"/>
		
			<line fill="none" stroke="#363636" stroke-width="2" stroke-linecap="square" stroke-linejoin="round" stroke-miterlimit="10" x1="48.7" y1="5.3" x2="58.7" y2="15.3"/>
		<rect y="0" fill="none" width="64" height="64"/>
	</g>
	<g>
		<rect x="-74.1" y="59.9" fill="none" width="78.3" height="78.3"/>
	</g>
</g>
</svg>
