<?xml version="1.0" encoding="utf-8"?>
<!-- Generator: Adobe Illustrator 18.1.1, SVG Export Plug-In . SVG Version: 6.00 Build 0)  -->
<svg version="1.1" xmlns="http://www.w3.org/2000/svg" xmlns:xlink="http://www.w3.org/1999/xlink" x="0px" y="0px"
	 viewBox="0 0 64 64" enable-background="new 0 0 64 64" xml:space="preserve">
<g id="Layer_2" display="none">
	<rect x="-171" y="-334.5" display="inline" fill="#84C9F3" stroke="#000000" stroke-miterlimit="10" width="485" height="615.8"/>
</g>
<g id="Layer_1">
	<g>
		<rect x="-74.1" y="-74.1" fill="none" width="78.3" height="78.3"/>
	</g>
	<g>
		<g>
			<path fill="none" stroke="#363636" stroke-width="2" stroke-linecap="round" stroke-linejoin="round" stroke-miterlimit="10" d="
				M50.1,21c-1.2,1.2-3.1,1.2-4.2,0"/>
			<path fill="none" stroke="#363636" stroke-width="2" stroke-linecap="round" stroke-linejoin="round" stroke-miterlimit="10" d="
				M38.1,21c-0.7,0.7-1.6,1-2.5,0.9"/>
			<path fill="none" stroke="#363636" stroke-width="2" stroke-linecap="round" stroke-linejoin="round" stroke-miterlimit="10" d="
				M46,27c-0.1,0.9-1.3,1.5-2.2,1.3c-1,1-2.6,1-3.5,0c-0.9,0.2-2.1-0.4-2.2-1.3"/>
			<path fill="none" stroke="#363636" stroke-width="2" stroke-linecap="round" stroke-linejoin="round" stroke-miterlimit="10" d="
				M35.8,34.5c3.4-3.4,8.9-3.4,12.2,0"/>
			<path fill="none" stroke="#363636" stroke-width="2" stroke-linecap="round" stroke-linejoin="round" stroke-miterlimit="10" d="
				M28,21V10c0-1.1,0.9-2,2-2h24c1.1,0,2,0.9,2,2v19.8c0,1.4-0.5,2.8-1.4,3.8l-6.8,8.2C46.7,43.2,45,44,43.2,44H40
				c-1.5,0-2.9-0.6-4-1.5"/>
			<path fill="none" stroke="#363636" stroke-width="2" stroke-linecap="round" stroke-linejoin="round" stroke-miterlimit="10" d="
				M29.2,33.6"/>
		</g>
		<g>
			<path fill="none" stroke="#363636" stroke-width="2" stroke-linecap="round" stroke-linejoin="round" stroke-miterlimit="10" d="
				M34.4,46.7l-6.8,8.2C26.4,56.2,24.7,57,23,57h-3.2c-1.9,0-3.7-0.9-4.8-2.4l-6-8c-0.8-1-1.2-2.3-1.2-3.6V23c0-1.1,0.9-2,2-2h24
				c1.1,0,2,0.9,2,2v19.8C35.8,44.2,35.3,45.6,34.4,46.7z"/>
			<path fill="none" stroke="#363636" stroke-width="2" stroke-linecap="round" stroke-linejoin="round" stroke-miterlimit="10" d="
				M13.6,34c1.2-1.2,3.1-1.2,4.2,0"/>
			<path fill="none" stroke="#363636" stroke-width="2" stroke-linecap="round" stroke-linejoin="round" stroke-miterlimit="10" d="
				M25.6,34c1.2-1.2,3.1-1.2,4.2,0"/>
			<path fill="none" stroke="#363636" stroke-width="2" stroke-linecap="round" stroke-linejoin="round" stroke-miterlimit="10" d="
				M25.8,40c-0.1,0.9-1.3,1.5-2.2,1.3c-1,1-2.6,1-3.5,0c-0.9,0.2-2.1-0.4-2.2-1.3"/>
			<path fill="none" stroke="#363636" stroke-width="2" stroke-linecap="round" stroke-linejoin="round" stroke-miterlimit="10" d="
				M27.8,44.5c-3.4,3.4-8.9,3.4-12.2,0"/>
		</g>
		<rect fill="none" width="64" height="64"/>
	</g>
</g>
</svg>
