<?xml version="1.0" encoding="utf-8"?>
<!-- Generator: Adobe Illustrator 18.1.1, SVG Export Plug-In . SVG Version: 6.00 Build 0)  -->
<svg version="1.1" xmlns="http://www.w3.org/2000/svg" xmlns:xlink="http://www.w3.org/1999/xlink" x="0px" y="0px"
	 viewBox="0 0 64 64" enable-background="new 0 0 64 64" xml:space="preserve">
<g id="Layer_2" display="none">
	<rect x="-104" y="-133.5" display="inline" fill="#84C9F3" stroke="#000000" stroke-miterlimit="10" width="485" height="615.8"/>
</g>
<g id="Layer_1">
	<g>
		<circle fill="#363636" cx="12" cy="24" r="2"/>
		<circle fill="#363636" cx="17" cy="24" r="2"/>
		<g>
			<path fill="#363636" d="M51,18c3.3,0,6,2.7,6,6v24c0,3.3-2.7,6-6,6H13c-3.3,0-6-2.7-6-6V24c0-3.3,2.7-6,6-6H51 M51,16H13
				c-4.4,0-8,3.6-8,8v24c0,4.4,3.6,8,8,8h38c4.4,0,8-3.6,8-8V24C59,19.6,55.4,16,51,16L51,16z"/>
		</g>
		<g>
			<path fill="#363636" d="M38,22c7.7,0,14,6.3,14,14s-6.3,14-14,14s-14-6.3-14-14S30.3,22,38,22 M38,20c-8.8,0-16,7.2-16,16
				s7.2,16,16,16s16-7.2,16-16S46.8,20,38,20L38,20z"/>
		</g>
		<g>
			<path fill="#363636" d="M38,26c5.5,0,10,4.5,10,10s-4.5,10-10,10s-10-4.5-10-10S32.5,26,38,26 M38,24c-6.6,0-12,5.4-12,12
				s5.4,12,12,12s12-5.4,12-12S44.6,24,38,24L38,24z"/>
		</g>
		<rect x="28" y="9" fill="none" stroke="#363636" stroke-width="2" stroke-miterlimit="10" width="16" height="8"/>
		<line fill="none" stroke="#363636" stroke-width="2" stroke-miterlimit="10" x1="32" y1="12" x2="32" y2="17"/>
		<line fill="none" stroke="#363636" stroke-width="2" stroke-miterlimit="10" x1="36" y1="12" x2="36" y2="17"/>
		<line fill="none" stroke="#363636" stroke-width="2" stroke-miterlimit="10" x1="40" y1="12" x2="40" y2="17"/>
		<line fill="none" stroke="#363636" stroke-width="2" stroke-miterlimit="10" x1="13" y1="15" x2="21" y2="15"/>
		<rect y="0" fill="none" width="64" height="64"/>
	</g>
</g>
</svg>
