<?xml version="1.0" encoding="utf-8"?>
<!-- Generator: Adobe Illustrator 18.1.1, SVG Export Plug-In . SVG Version: 6.00 Build 0)  -->
<svg version="1.1" xmlns="http://www.w3.org/2000/svg" xmlns:xlink="http://www.w3.org/1999/xlink" x="0px" y="0px"
	 viewBox="0 0 64 64" enable-background="new 0 0 64 64" xml:space="preserve">
<g id="Layer_2" display="none">
	<rect x="-171" y="-267.5" display="inline" fill="#84C9F3" stroke="#000000" stroke-miterlimit="10" width="485" height="615.8"/>
</g>
<g id="Layer_1">
	<g>
		<rect x="-74.1" y="-7.1" fill="none" width="78.3" height="78.3"/>
	</g>
	<g>
		<path fill="none" stroke="#363636" stroke-width="2" stroke-linecap="round" stroke-linejoin="round" stroke-miterlimit="10" d="
			M43,37H14c0,5,3.6,9.3,8.7,11.1c0.8,0.3,1.3,1,1.3,1.9v3h18V41.4C42.7,40.1,43,38.6,43,37z"/>
		
			<line fill="none" stroke="#363636" stroke-width="2" stroke-linecap="round" stroke-linejoin="round" stroke-miterlimit="10" x1="18" y1="53" x2="45" y2="53"/>
		
			<line fill="none" stroke="#363636" stroke-width="2" stroke-linecap="round" stroke-linejoin="round" stroke-miterlimit="10" x1="14" y1="33" x2="34" y2="33"/>
		<path fill="none" stroke="#363636" stroke-width="2" stroke-linecap="round" stroke-linejoin="round" stroke-miterlimit="10" d="
			M46,33h-8V20c0-1.7,1.3-3,3-3h6c1.7,0,3,1.3,3,3v9C50,31.2,48.2,33,46,33z"/>
		<circle fill="#363636" cx="44" cy="13" r="2"/>
		<rect y="0" fill="none" width="64" height="64"/>
	</g>
</g>
</svg>
