<?xml version="1.0" encoding="utf-8"?>
<!-- Generator: Adobe Illustrator 18.1.1, SVG Export Plug-In . SVG Version: 6.00 Build 0)  -->
<svg version="1.1" xmlns="http://www.w3.org/2000/svg" xmlns:xlink="http://www.w3.org/1999/xlink" x="0px" y="0px"
	 viewBox="0 0 64 64" enable-background="new 0 0 64 64" xml:space="preserve">
<g id="Layer_2" display="none">
	<rect x="-37" y="-267.5" display="inline" fill="#84C9F3" stroke="#000000" stroke-miterlimit="10" width="485" height="615.8"/>
</g>
<g id="Layer_1">
	<g>
		<path fill="none" stroke="#363636" stroke-width="2" stroke-linecap="round" stroke-miterlimit="10" d="M55,35.3l3.3-11.2
			c0.3-1.1-0.3-2.2-1.4-2.5L55,21"/>
		<path fill="none" stroke="#363636" stroke-width="2" stroke-linecap="round" stroke-miterlimit="10" d="M29.6,49l17.8,5.2
			c1.1,0.3,2.2-0.3,2.5-1.4L51,49"/>
		<path fill="none" stroke="#363636" stroke-width="2" stroke-linecap="round" stroke-miterlimit="10" d="M13,15l1.1-3.9
			c0.3-1.1,1.4-1.7,2.5-1.4L34.4,15"/>
		<path fill="none" stroke="#363636" stroke-width="2" stroke-linecap="round" stroke-miterlimit="10" d="M9,28.7L5.7,39.9
			C5.4,41,6,42.1,7.1,42.4L9,43"/>
		
			<line fill="none" stroke="#363636" stroke-width="2" stroke-linecap="round" stroke-miterlimit="10" x1="13" y1="15" x2="34.4" y2="15"/>
		<path fill="none" stroke="#363636" stroke-width="2" stroke-linecap="round" stroke-miterlimit="10" d="M9,28.7V17
			c0-1.1,0.9-2,2-2h2"/>
		
			<line fill="none" stroke="#363636" stroke-width="2" stroke-linecap="round" stroke-miterlimit="10" x1="9" y1="28.7" x2="9" y2="43"/>
		
			<line fill="none" stroke="#363636" stroke-width="2" stroke-linecap="round" stroke-miterlimit="10" x1="55" y1="21" x2="55" y2="35.3"/>
		<path fill="none" stroke="#363636" stroke-width="2" stroke-linecap="round" stroke-miterlimit="10" d="M9,43v4c0,1.1,0.9,2,2,2
			h18.6"/>
		<path fill="none" stroke="#363636" stroke-width="2" stroke-linecap="round" stroke-miterlimit="10" d="M34.4,15H53
			c1.1,0,2,0.9,2,2v4"/>
		<path fill="none" stroke="#363636" stroke-width="2" stroke-linecap="round" stroke-miterlimit="10" d="M51,49h2c1.1,0,2-0.9,2-2
			V35.3"/>
		
			<line fill="none" stroke="#363636" stroke-width="2" stroke-linecap="round" stroke-miterlimit="10" x1="29.6" y1="49" x2="51" y2="49"/>
		<polyline fill="none" stroke="#363636" stroke-width="2" stroke-linecap="round" stroke-miterlimit="10" points="13,41 23,31 
			29,37 42,24 51,33 		"/>
		<circle fill="none" stroke="#363636" stroke-width="2" stroke-linecap="round" stroke-miterlimit="10" cx="19" cy="24" r="3"/>
	</g>
	<g>
		<rect x="59.9" y="-7.1" fill="none" width="78.3" height="78.3"/>
	</g>
</g>
</svg>
