<?xml version="1.0" encoding="utf-8"?>
<!-- Generator: Adobe Illustrator 18.1.1, SVG Export Plug-In . SVG Version: 6.00 Build 0)  -->
<svg version="1.1" xmlns="http://www.w3.org/2000/svg" xmlns:xlink="http://www.w3.org/1999/xlink" x="0px" y="0px"
	 viewBox="0 0 64 64" enable-background="new 0 0 64 64" xml:space="preserve">
<g id="Layer_2" display="none">
	<rect x="-37" y="-200.5" display="inline" fill="#84C9F3" stroke="#000000" stroke-miterlimit="10" width="485" height="615.8"/>
</g>
<g id="Layer_1">
	<g>
		<path fill="none" stroke="#363636" stroke-width="2" stroke-linecap="round" stroke-miterlimit="10" d="M27,9c-7.2,0-13,5.8-13,13
			v6"/>
		<path fill="none" stroke="#363636" stroke-width="2" stroke-linecap="round" stroke-miterlimit="10" d="M37,9c7.2,0,13,5.8,13,13
			v6"/>
		<path fill="none" stroke="#363636" stroke-width="2" stroke-linecap="round" stroke-linejoin="round" stroke-miterlimit="10" d="
			M32,7L32,7c-1.1,0-2,0.9-2,2v16c0,0-8.3-3.2-13,0c-4.5,3-6.2,9.6-10,25"/>
		<path fill="none" stroke="#363636" stroke-width="2" stroke-linecap="round" stroke-linejoin="round" stroke-miterlimit="10" d="
			M34,41v-2h0c0,0,0,0,0-0.1c0-1.1-0.9-2-2-2s-2,0.9-2,2c0,0,0,0,0,0.1h0v2l-6,10h8h8L34,41z"/>
		<circle fill="#363636" cx="24" cy="51" r="2"/>
		<circle fill="#363636" cx="40" cy="51" r="2"/>
		<path fill="none" stroke="#363636" stroke-width="2" stroke-linecap="round" stroke-linejoin="round" stroke-miterlimit="10" d="
			M29,29v5c0,0-5.4,3.8-10.2,0.2c-2.5-5.8,3.3-7.8,6.2-7.2S29,29,29,29z"/>
		<path fill="none" stroke="#363636" stroke-width="2" stroke-linecap="round" stroke-linejoin="round" stroke-miterlimit="10" d="
			M25,39l-7,2c0,0-2.8-0.4-2.3-3.9"/>
		
			<line fill="none" stroke="#363636" stroke-width="2" stroke-linecap="round" stroke-linejoin="round" stroke-miterlimit="10" x1="21" y1="45" x2="18" y2="41"/>
		<path fill="none" stroke="#363636" stroke-width="2" stroke-linecap="round" stroke-linejoin="round" stroke-miterlimit="10" d="
			M32,7L32,7c1.1,0,2,0.9,2,2v16c0,0,8.3-3.2,13,0c4.5,3,6.2,9.6,10,25"/>
		<path fill="none" stroke="#363636" stroke-width="2" stroke-linecap="round" stroke-linejoin="round" stroke-miterlimit="10" d="
			M35,29v5c0,0,5.4,3.8,10.2,0.2c2.5-5.8-3.3-7.8-6.2-7.2S35,29,35,29z"/>
		<path fill="none" stroke="#363636" stroke-width="2" stroke-linecap="round" stroke-linejoin="round" stroke-miterlimit="10" d="
			M39,39l7,2c0,0,2.8-0.4,2.3-3.9"/>
		
			<line fill="none" stroke="#363636" stroke-width="2" stroke-linecap="round" stroke-linejoin="round" stroke-miterlimit="10" x1="43" y1="46" x2="46" y2="41"/>
		
			<line fill="none" stroke="#363636" stroke-width="2" stroke-linejoin="round" stroke-miterlimit="10" x1="30" y1="46" x2="30" y2="51"/>
		
			<line fill="none" stroke="#363636" stroke-width="2" stroke-linejoin="round" stroke-miterlimit="10" x1="34" y1="46" x2="34" y2="51"/>
		<path fill="none" stroke="#363636" stroke-width="2" stroke-linecap="round" stroke-miterlimit="10" d="M57,50c0,3.3-11.2,5-25,5
			S7,53.3,7,50"/>
		<rect fill="none" width="64" height="64"/>
	</g>
	<g>
		<rect x="60.9" y="60.9" fill="none" width="76.1" height="76.1"/>
	</g>
</g>
</svg>
