<?xml version="1.0" encoding="utf-8"?>
<!-- Generator: Adobe Illustrator 18.1.1, SVG Export Plug-In . SVG Version: 6.00 Build 0)  -->
<svg version="1.1" xmlns="http://www.w3.org/2000/svg" xmlns:xlink="http://www.w3.org/1999/xlink" x="0px" y="0px"
	 viewBox="0 0 64 64" enable-background="new 0 0 64 64" xml:space="preserve">
<g id="Layer_2" display="none">
	<rect x="-104" y="-536.2" display="inline" fill="#84C9F3" stroke="#000000" stroke-miterlimit="10" width="485" height="615.8"/>
</g>
<g id="Layer_1">
	<g>
		<path fill="none" stroke="#363636" stroke-width="2" stroke-linecap="round" stroke-miterlimit="10" d="M52,53
			c-2.6-3-4.1-7.2-5-12.2V38c0-3.6,5-2.9,5-7c0-4.1-6-2.9-6-5.3c0-9.4-4.6-17-14-17s-14,7.6-14,17c0,2.4-6,1.3-6,5.3
			c0,4.1,5,3.4,5,7v2.8c-0.9,5-2.4,9.2-5,12.2"/>
		<path fill="#363636" d="M28,22c-1.1,0-2,0.9-2,2v6c0,1.1,0.9,2,2,2s2-0.9,2-2v-6C30,22.9,29.1,22,28,22z"/>
		<path fill="#363636" d="M36,22c-1.1,0-2,0.9-2,2v6c0,1.1,0.9,2,2,2s2-0.9,2-2v-6C38,22.9,37.1,22,36,22z"/>
		<g>
			<path fill="#363636" d="M32,37c1.1,0,2,0.9,2,2s-0.9,2-2,2s-2-0.9-2-2S30.9,37,32,37 M32,35c-2.2,0-4,1.8-4,4s1.8,4,4,4
				s4-1.8,4-4S34.2,35,32,35L32,35z"/>
		</g>
		<path fill="none" stroke="#363636" stroke-width="2" stroke-linecap="round" stroke-linejoin="round" stroke-miterlimit="10" d="
			M15,55c2.5-1.3,6.4-0.6,8.9,1.1c0.7,0.5,1.6,0.4,2.3-0.1c1.8-1.3,3.6-2,5.8-2"/>
		<path fill="none" stroke="#363636" stroke-width="2" stroke-linecap="round" stroke-linejoin="round" stroke-miterlimit="10" d="
			M49,55c-2.5-1.3-6.4-0.6-8.9,1.1c-0.7,0.5-1.6,0.4-2.3-0.1c-1.8-1.3-3.6-2-5.8-2"/>
		<rect y="0" fill="none" width="64" height="64"/>
	</g>
</g>
</svg>
