<?xml version="1.0" encoding="utf-8"?>
<!-- Generator: Adobe Illustrator 18.1.1, SVG Export Plug-In . SVG Version: 6.00 Build 0)  -->
<svg version="1.1" xmlns="http://www.w3.org/2000/svg" xmlns:xlink="http://www.w3.org/1999/xlink" x="0px" y="0px"
	 viewBox="0 0 64 64" enable-background="new 0 0 64 64" xml:space="preserve">
<g id="Layer_2" display="none">
	<rect x="-37" y="-401.5" display="inline" fill="#84C9F3" stroke="#000000" stroke-miterlimit="10" width="485" height="615.8"/>
</g>
<g id="Layer_1">
	<g>
		<g>
			<path fill="#363636" d="M46,12c5,0,9,4,9,9c0,5-4,9-9,9c-0.6,0-1.1-0.1-1.6-0.2c1.8,2.5,2.9,5.6,2.9,8.9C47.3,47.2,40.4,54,32,54
				s-15.3-6.8-15.3-15.3c0-3.3,1.1-6.4,2.9-8.9C19.1,29.9,18.6,30,18,30c-5,0-9-4-9-9c0-5,4-9,9-9s9,4,9,9c0,1.3-0.3,2.5-0.8,3.6
				c1.8-0.7,3.7-1.1,5.8-1.1s4,0.4,5.8,1.1C37.3,23.5,37,22.3,37,21C37,16,41,12,46,12 M46,10c-6.1,0-11,4.9-11,11
				c0,0.3,0,0.5,0,0.8c-1-0.2-2-0.3-3-0.3s-2,0.1-3,0.3c0-0.3,0-0.5,0-0.8c0-6.1-4.9-11-11-11S7,14.9,7,21c0,5.4,4,10,9.2,10.9
				c-0.9,2.2-1.4,4.5-1.4,6.9C14.7,48.3,22.5,56,32,56s17.3-7.7,17.3-17.3c0-2.4-0.5-4.7-1.4-6.9C53,31,57,26.4,57,21
				C57,14.9,52.1,10,46,10L46,10z"/>
		</g>
		<circle fill="#363636" cx="32" cy="45" r="2"/>
		<path fill="none" stroke="#363636" stroke-width="2" stroke-linecap="round" stroke-linejoin="round" stroke-miterlimit="10" d="
			M22,40.2c0,0,1.2-7.4,4-9.6c3.7-2.9,5.4-0.3,6.2,1.4"/>
		<path fill="none" stroke="#363636" stroke-width="2" stroke-linecap="round" stroke-linejoin="round" stroke-miterlimit="10" d="
			M42,40.2c0,0-0.8-6.5-3.5-9.6c-3-3.5-5.4-0.3-6.2,1.4"/>
		<rect fill="none" width="64" height="64"/>
	</g>
</g>
</svg>
