<?xml version="1.0" encoding="utf-8"?>
<!-- Generator: Adobe Illustrator 18.1.1, SVG Export Plug-In . SVG Version: 6.00 Build 0)  -->
<svg version="1.1" xmlns="http://www.w3.org/2000/svg" xmlns:xlink="http://www.w3.org/1999/xlink" x="0px" y="0px"
	 viewBox="0 0 64 64" enable-background="new 0 0 64 64" xml:space="preserve">
<g id="Layer_2" display="none">
	<rect x="-238" y="-200.5" display="inline" fill="#84C9F3" stroke="#000000" stroke-miterlimit="10" width="485" height="615.8"/>
</g>
<g id="Layer_1">
	<g>
		<path fill="none" stroke="#363636" stroke-width="2" stroke-linecap="round" stroke-linejoin="round" stroke-miterlimit="10" d="
			M44,55H20c-2.2,0-4-1.8-4-4V21l4,2l4-2l4,2l4-2l4,2l4-2l4,2l4-2v30C48,53.2,46.2,55,44,55z"/>
		
			<line fill="none" stroke="#363636" stroke-width="2" stroke-linecap="round" stroke-linejoin="round" stroke-miterlimit="10" x1="24" y1="25" x2="24" y2="51"/>
		
			<line fill="none" stroke="#363636" stroke-width="2" stroke-linecap="round" stroke-linejoin="round" stroke-miterlimit="10" x1="32" y1="25" x2="32" y2="51"/>
		
			<line fill="none" stroke="#363636" stroke-width="2" stroke-linecap="round" stroke-linejoin="round" stroke-miterlimit="10" x1="40" y1="25" x2="40" y2="51"/>
		<path fill="none" stroke="#363636" stroke-width="2" stroke-linecap="round" stroke-linejoin="round" stroke-miterlimit="10" d="
			M46,18c0-1.7-1.3-3-3-3c0,0-0.1,0-0.1,0c0.1-0.3,0.1-0.7,0.1-1c0-2.8-2.2-5-5-5c-2.6,0-4.8,2-5,4.6c-0.6-0.7-1.5-1.1-2.5-1.1
			c-1.6,0-3,1.1-3.4,2.7C26.2,13.9,24.7,13,23,13c-2.8,0-5,2.2-5,5"/>
		<rect fill="none" width="64" height="64"/>
	</g>
</g>
</svg>
