<?xml version="1.0" encoding="utf-8"?>
<!-- Generator: Adobe Illustrator 18.1.1, SVG Export Plug-In . SVG Version: 6.00 Build 0)  -->
<svg version="1.1" xmlns="http://www.w3.org/2000/svg" xmlns:xlink="http://www.w3.org/1999/xlink" x="0px" y="0px"
	 viewBox="0 0 64 64" enable-background="new 0 0 64 64" xml:space="preserve">
<g id="Layer_2" display="none">
	<rect x="-37" y="-536.2" display="inline" fill="#84C9F3" stroke="#000000" stroke-miterlimit="10" width="485" height="615.8"/>
</g>
<g id="Layer_1">
	<g>
		<path fill="none" stroke="#363636" stroke-width="2" stroke-linecap="round" stroke-linejoin="round" stroke-miterlimit="10" d="
			M27,40c-1.7,0-3-1.3-3-3s1.3-3,3-3h4c1.7,0,3,1.3,3,3s-1.3,3-3,3H27z"/>
		<path fill="none" stroke="#363636" stroke-width="2" stroke-linecap="round" stroke-linejoin="round" stroke-miterlimit="10" d="
			M57.9,49.9C57.1,34.8,48,28,48,28v-3.1c-5.8-0.6-10.8-4.1-13.6-8.9H16v16l1.1,0c1.9,0,3.4,1.7,3,3.6C20,36.2,20,36.8,20,37.5
			c0.2,3.7,3.5,6.5,7.3,6.5h3c3.8,0,6.8-2.2,7.6-5.4c0.2-0.7,0.2-1.4,0.2-2.1c-0.1-1.1,0.7-2.1,1.8-2.2c1.5,0,2.5,0.5,4.2,2.7
			c2.4,3.1,2.5,9.2,1.7,12.5c-0.3,1.3,0.7,2.5,1.9,2.5h8.3C57.1,52,58,51,57.9,49.9z"/>
		
			<polyline fill="none" stroke="#363636" stroke-width="2" stroke-linecap="round" stroke-linejoin="round" stroke-miterlimit="10" points="
			13,19 10,19 6,17 6,26 13,26 		"/>
		
			<line fill="none" stroke="#363636" stroke-width="2" stroke-linecap="round" stroke-linejoin="round" stroke-miterlimit="10" x1="41" y1="19" x2="43" y2="17"/>
		
			<polyline fill="none" stroke="#363636" stroke-width="2" stroke-linecap="round" stroke-linejoin="round" stroke-miterlimit="10" points="
			25,20 33,20 33,28 25,28 		"/>
		
			<line fill="none" stroke="#363636" stroke-width="2" stroke-linecap="round" stroke-linejoin="round" stroke-miterlimit="10" x1="25" y1="24" x2="30" y2="24"/>
		
			<line fill="none" stroke="#363636" stroke-width="2" stroke-linecap="round" stroke-miterlimit="10" x1="9" y1="30" x2="13" y2="30"/>
		<rect y="0" fill="none" width="64" height="64"/>
	</g>
</g>
</svg>
