<?xml version="1.0" encoding="utf-8"?>
<!-- Generator: Adobe Illustrator 18.1.1, SVG Export Plug-In . SVG Version: 6.00 Build 0)  -->
<svg version="1.1" xmlns="http://www.w3.org/2000/svg" xmlns:xlink="http://www.w3.org/1999/xlink" x="0px" y="0px"
	 viewBox="0 0 64 64" enable-background="new 0 0 64 64" xml:space="preserve">
<g id="Layer_2" display="none">
	<rect x="-37" y="-267.5" display="inline" fill="#84C9F3" stroke="#000000" stroke-miterlimit="10" width="485" height="615.8"/>
</g>
<g id="Layer_1">
	<g>
		<g>
			<path fill="#363636" d="M32,30c1.1,0,2,0.9,2,2s-0.9,2-2,2c-1.1,0-2-0.9-2-2S30.9,30,32,30 M32,28c-2.2,0-4,1.8-4,4s1.8,4,4,4
				s4-1.8,4-4S34.2,28,32,28L32,28z"/>
		</g>
		<g>
			<circle fill="#363636" cx="41" cy="32" r="2"/>
		</g>
		<g>
			<circle fill="#363636" cx="23" cy="32" r="2"/>
		</g>
		<path fill="none" stroke="#363636" stroke-width="2" stroke-linecap="round" stroke-linejoin="round" stroke-miterlimit="10" d="
			M57,39l-1-4l1-3l-1-3l1-4c-3.3,0-6-2.7-6-6H13c0,3.3-2.7,6-6,6l1,4l-1,3l1,3l-1,4c3.3,0,6,2.7,6,6h38C51,41.7,53.7,39,57,39z"/>
		<line fill="none" stroke="#363636" stroke-width="2" stroke-miterlimit="10" x1="17" y1="24" x2="47" y2="24"/>
		<line fill="none" stroke="#363636" stroke-width="2" stroke-miterlimit="10" x1="17" y1="40" x2="47" y2="40"/>
		<rect fill="none" width="64" height="64"/>
	</g>
	<g>
		<rect x="60.9" y="-6.1" fill="none" width="76.1" height="76.1"/>
	</g>
</g>
</svg>
