<?xml version="1.0" encoding="utf-8"?>
<!-- Generator: Adobe Illustrator 18.1.1, SVG Export Plug-In . SVG Version: 6.00 Build 0)  -->
<svg version="1.1" xmlns="http://www.w3.org/2000/svg" xmlns:xlink="http://www.w3.org/1999/xlink" x="0px" y="0px"
	 viewBox="0 0 64 64" enable-background="new 0 0 64 64" xml:space="preserve">
<g id="Layer_2" display="none">
	<rect x="-37" y="-468.5" display="inline" fill="#84C9F3" stroke="#000000" stroke-miterlimit="10" width="485" height="615.8"/>
</g>
<g id="Layer_1">
	<g>
		<path fill="none" stroke="#363636" stroke-width="2" stroke-linecap="round" stroke-linejoin="round" stroke-miterlimit="10" d="
			M42,43c0,0,16-7.2,16-20c0-5-4-9-9-9c-2.8,0-5.4,1.3-7,3.3c-1.6-2-4.2-3.3-7-3.3c-5,0-9,4-9,9C26,35.8,42,43,42,43z"/>
		<path fill="none" stroke="#363636" stroke-width="2" stroke-linecap="round" stroke-linejoin="round" stroke-miterlimit="10" d="
			M26,24.5c-1.6,0.6-3,1.6-4,2.8c-1.6-2-4.2-3.3-7-3.3c-5,0-9,4-9,9c0,12.8,16,20,16,20s10.5-4.7,14.5-13.3"/>
	</g>
</g>
</svg>
