<?xml version="1.0" encoding="utf-8"?>
<!-- Generator: Adobe Illustrator 18.1.1, SVG Export Plug-In . SVG Version: 6.00 Build 0)  -->
<svg version="1.1" xmlns="http://www.w3.org/2000/svg" xmlns:xlink="http://www.w3.org/1999/xlink" x="0px" y="0px"
	 viewBox="0 0 64 64" enable-background="new 0 0 64 64" xml:space="preserve">
<g id="Layer_2" display="none">
	<rect x="-372" y="-401.5" display="inline" fill="#84C9F3" stroke="#000000" stroke-miterlimit="10" width="485" height="615.8"/>
</g>
<g id="Layer_1">
	<g>
		<path fill="none" stroke="#363636" stroke-width="2" stroke-linecap="round" stroke-linejoin="round" stroke-miterlimit="10" d="
			M8.3,33.7c4.1-4.1,10.7-4.1,14.8,0c1.8,1.8,2.8,4.1,3,6.5"/>
		<g>
			<path fill="#363636" d="M8.3,32.8c0.2,0,0.5,0.1,0.6,0.3c0.4,0.4,0.4,0.9,0,1.3c-3.7,3.7-3.7,9.8,0,13.5c1.9,1.9,4.3,2.8,6.8,2.8
				c3.7,0,7.3-2.1,9-6.3c0.4-0.9,0.4-1.9,0.5-2.9c0-0.5,0.4-0.8,0.9-0.8c0,0,0,0,0,0c0.5,0,0.9,0.5,0.9,1C27,42.8,26.8,44,26.4,45
				l2.7,2.7c1.1,1.1,1.1,2.8,0,3.9L26,54.6c-0.5,0.5-1.2,0.8-1.9,0.8s-1.4-0.3-1.9-0.8l-2.8-2.8c-1.2,0.4-2.4,0.6-3.7,0.6
				c-2.9,0-5.8-1.1-8-3.3c-4.4-4.4-4.4-11.7,0-16.1C7.8,32.9,8,32.8,8.3,32.8 M8.3,30.8c-0.8,0-1.5,0.3-2.1,0.9
				C1,36.9,1,45.4,6.2,50.6c2.5,2.5,5.9,3.9,9.5,3.9c1.1,0,2.1-0.1,3.1-0.4l1.9,1.9c0.9,0.9,2.1,1.4,3.3,1.4s2.5-0.5,3.3-1.4
				l3.1-3.1c1.8-1.8,1.8-4.8,0-6.7l-1.8-1.8c0.2-0.9,0.4-1.8,0.4-2.7c0.1-1.6-1.2-3-2.8-3l0,0l-0.1,0c-1.5,0-2.7,1.1-2.9,2.6
				c0,0.2,0,0.3-0.1,0.5c-0.1,0.7-0.1,1.4-0.3,1.9c-1.3,3.1-4,5-7.2,5c-2,0-3.9-0.8-5.4-2.2c-3-3-3-7.8,0-10.7c1.1-1.1,1.1-3,0-4.1
				C9.8,31.1,9,30.8,8.3,30.8L8.3,30.8z"/>
		</g>
		<circle fill="#363636" cx="25.3" cy="50.1" r="1.8"/>
		<g>
			<path fill="#363636" d="M55.5,13.5c0.2,0,0.5,0.1,0.7,0.3c4.6,4.6,4.6,12,0,16.6c-2.3,2.3-5.3,3.4-8.3,3.4
				c-1.3,0-2.6-0.2-3.8-0.6l-2.9,2.9c-0.6,0.6-1.3,0.8-2,0.8c-0.7,0-1.4-0.3-2-0.8L34,32.9c-1.1-1.1-1.1-2.9,0-4l2.8-2.8
				c-0.4-1.1-0.7-2.3-0.7-3.5c0-0.5,0.4-1,0.9-1c0,0,0,0,0,0c0.5,0,0.9,0.4,0.9,0.8c0.1,1,0.1,2,0.5,3c1.8,4.3,5.6,6.5,9.3,6.5
				c2.5,0,5.1-1,7-2.9c3.9-3.9,3.9-10.1,0-14c-0.4-0.4-0.4-1,0-1.3C55,13.6,55.2,13.5,55.5,13.5 M55.5,11.5c-0.8,0-1.5,0.3-2.1,0.9
				c-1.1,1.1-1.1,3,0,4.2c3.1,3.1,3.1,8.1,0,11.1c-1.5,1.5-3.5,2.3-5.6,2.3c-3.3,0-6.2-2-7.5-5.2c-0.2-0.5-0.3-1.2-0.3-1.9
				c0-0.2,0-0.3-0.1-0.5c-0.2-1.5-1.4-2.6-2.9-2.6h0l-0.1,0c-1.6,0.1-2.9,1.5-2.8,3.1c0,1,0.2,1.9,0.4,2.9l-1.9,1.9
				c-0.9,0.9-1.4,2.1-1.4,3.4c0,1.3,0.5,2.5,1.4,3.4l3.2,3.2c0.9,0.9,2.1,1.4,3.4,1.4c1.3,0,2.5-0.5,3.4-1.4l2-2
				c1.1,0.3,2.1,0.4,3.2,0.4c3.7,0,7.1-1.4,9.7-4c5.4-5.4,5.4-14.1,0-19.5C57,11.8,56.2,11.5,55.5,11.5L55.5,11.5z"/>
		</g>
		<circle fill="#363636" cx="37.8" cy="31.4" r="1.9"/>
		<path fill="none" stroke="#363636" stroke-width="2" stroke-miterlimit="10" d="M28,53.6c2.4,2.4,6.8,3.1,10.4,1.6
			c6-2.5,5.7-10.6-1.4-11.6c-5.8-0.8-4.7-6.3-3-8"/>
		<path fill="none" stroke="#363636" stroke-width="2" stroke-linecap="round" stroke-linejoin="round" stroke-miterlimit="10" d="
			M54.6,12.8C52.4,8.2,47.2,5.7,42.1,7c-3.1,0.8-5.5,2.9-6.8,5.5"/>
	</g>
</g>
</svg>
