<?xml version="1.0" encoding="utf-8"?>
<!-- Generator: Adobe Illustrator 18.1.1, SVG Export Plug-In . SVG Version: 6.00 Build 0)  -->
<svg version="1.1" xmlns="http://www.w3.org/2000/svg" xmlns:xlink="http://www.w3.org/1999/xlink" x="0px" y="0px"
	 viewBox="0 0 64 64" enable-background="new 0 0 64 64" xml:space="preserve">
<g id="Layer_2" display="none">
	<rect x="-171" y="-66.5" display="inline" fill="#84C9F3" stroke="#000000" stroke-miterlimit="10" width="485" height="615.8"/>
</g>
<g id="Layer_1">
	<g>
		<circle fill="none" stroke="#363636" stroke-width="2" stroke-miterlimit="10" cx="40" cy="31.7" r="5.7"/>
		<circle fill="#363636" cx="24" cy="31.7" r="2.3"/>
		<circle fill="#363636" cx="40" cy="31.7" r="2.3"/>
		<circle fill="none" stroke="#363636" stroke-width="2" stroke-miterlimit="10" cx="24" cy="31.7" r="5.7"/>
		<path fill="none" stroke="#363636" stroke-width="2" stroke-linecap="round" stroke-miterlimit="10" d="M49.2,25.3
			c0-8.1-5.4-15.5-13.4-17.3C25,5.6,14.8,13.8,14.8,24.4v7.8c0,3.5,0.5,6.9,1.5,10.2c0,0,2.1,7.3,2.6,7.7l7.3,7.3
			c0.4,0.4,1,0.7,1.6,0.7H32h4.2c0.6,0,1.2-0.2,1.6-0.7l7.3-7.3c0.4-0.4,2.6-7.7,2.6-7.7c1-3.3,1.5-6.7,1.5-10.2L49.2,25.3z"/>
		
			<line fill="none" stroke="#363636" stroke-width="2" stroke-linecap="square" stroke-miterlimit="10" x1="25.1" y1="45.5" x2="25.1" y2="47.8"/>
		
			<line fill="none" stroke="#363636" stroke-width="2" stroke-linecap="square" stroke-miterlimit="10" x1="29.7" y1="45.5" x2="29.7" y2="47.8"/>
		
			<line fill="none" stroke="#363636" stroke-width="2" stroke-linecap="square" stroke-miterlimit="10" x1="34.3" y1="45.5" x2="34.3" y2="47.8"/>
		
			<line fill="none" stroke="#363636" stroke-width="2" stroke-linecap="square" stroke-miterlimit="10" x1="38.9" y1="45.5" x2="38.9" y2="47.8"/>
		<rect x="-4.7" y="-2.7" fill="none" width="73.5" height="73.5"/>
	</g>
</g>
</svg>
