<?xml version="1.0" encoding="utf-8"?>
<!-- Generator: Adobe Illustrator 18.1.1, SVG Export Plug-In . SVG Version: 6.00 Build 0)  -->
<svg version="1.1" xmlns="http://www.w3.org/2000/svg" xmlns:xlink="http://www.w3.org/1999/xlink" x="0px" y="0px"
	 viewBox="0 0 64 64" enable-background="new 0 0 64 64" xml:space="preserve">
<g id="Layer_2" display="none">
	<rect x="-238" y="-267.5" display="inline" fill="#84C9F3" stroke="#000000" stroke-miterlimit="10" width="485" height="615.8"/>
</g>
<g id="Layer_1">
	<g>
		<g>
			<path fill="#363636" d="M54,18v28h-6V18H54 M54,16h-6c-1.1,0-2,0.9-2,2v28c0,1.1,0.9,2,2,2h6c1.1,0,2-0.9,2-2V18
				C56,16.9,55.1,16,54,16L54,16z"/>
		</g>
		<g>
			<path fill="#363636" d="M41,18v28h-6V18H41 M41,16h-6c-1.1,0-2,0.9-2,2v28c0,1.1,0.9,2,2,2h6c1.1,0,2-0.9,2-2V18
				C43,16.9,42.1,16,41,16L41,16z"/>
		</g>
		
			<polygon fill="none" stroke="#363636" stroke-width="2" stroke-linecap="round" stroke-linejoin="round" stroke-miterlimit="10" points="
			29,32 6,16 6,48 		"/>
		<rect fill="none" width="64" height="64"/>
	</g>
</g>
</svg>
