<?xml version="1.0" encoding="utf-8"?>
<!-- Generator: Adobe Illustrator 18.1.1, SVG Export Plug-In . SVG Version: 6.00 Build 0)  -->
<svg version="1.1" xmlns="http://www.w3.org/2000/svg" xmlns:xlink="http://www.w3.org/1999/xlink" x="0px" y="0px"
	 viewBox="0 0 64 64" enable-background="new 0 0 64 64" xml:space="preserve">
<g id="Layer_2" display="none">
	<rect x="-305" y="-401.5" display="inline" fill="#84C9F3" stroke="#000000" stroke-miterlimit="10" width="485" height="615.8"/>
</g>
<g id="Layer_1">
	<g>
		<path fill="none" stroke="#363636" stroke-width="2" stroke-linecap="round" stroke-linejoin="round" stroke-miterlimit="10" d="
			M58.6,32l-2.9,1c-4.9,1.8-6.9,7.7-3.9,12.1l1.8,2.6l-3-0.9c-5-1.5-10.1,2.2-10.3,7.5l-0.1,3.1l-1.9-2.5c-3.2-4.2-9.5-4.2-12.7,0
			l-1.9,2.5l-0.1-3.1c-0.1-5.3-5.2-8.9-10.3-7.5l-3,0.9l1.8-2.6c3-4.3,1-10.3-3.9-12.1l-2.9-1l2.9-1c4.9-1.8,6.9-7.7,3.9-12.1
			l-1.8-2.6l3,0.9c5,1.5,10.1-2.2,10.3-7.5l0.1-3.1l1.9,2.5c3.2,4.2,9.5,4.2,12.7,0l1.9-2.5l0.1,3.1c0.1,5.3,5.2,8.9,10.3,7.5l3-0.9
			l-1.8,2.6c-3,4.3-1,10.3,3.9,12.1L58.6,32z"/>
		<path fill="none" stroke="#363636" stroke-width="2" stroke-linecap="round" stroke-linejoin="round" stroke-miterlimit="10" d="
			M35.9,44.2c-1.3-0.3-2.6-0.5-3.9-0.5s-2.7,0.2-3.9,0.5c-1.7-2.1-3.9-3.7-6.5-4.7c-0.1-1.3-0.3-2.6-0.8-3.9c-0.4-1.3-1-2.5-1.7-3.6
			c0.7-1.1,1.3-2.3,1.7-3.6c0.4-1.3,0.7-2.6,0.8-3.9c2.5-1,4.8-2.6,6.5-4.7c1.3,0.3,2.6,0.5,3.9,0.5s2.7-0.2,3.9-0.5
			c1.7,2.1,3.9,3.7,6.5,4.7c0.1,1.3,0.3,2.6,0.8,3.9c0.4,1.3,1,2.5,1.7,3.6c-0.7,1.1-1.3,2.3-1.7,3.6c-0.4,1.3-0.7,2.6-0.8,3.9
			C39.9,40.5,37.7,42.2,35.9,44.2z"/>
		
			<circle fill="none" stroke="#363636" stroke-width="2" stroke-linecap="round" stroke-linejoin="round" stroke-miterlimit="10" cx="32" cy="32" r="2"/>
		<rect fill="none" width="64" height="64"/>
	</g>
</g>
</svg>
