<?xml version="1.0" encoding="utf-8"?>
<!-- Generator: Adobe Illustrator 18.1.1, SVG Export Plug-In . SVG Version: 6.00 Build 0)  -->
<svg version="1.1" xmlns="http://www.w3.org/2000/svg" xmlns:xlink="http://www.w3.org/1999/xlink" x="0px" y="0px"
	 viewBox="0 0 64 64" enable-background="new 0 0 64 64" xml:space="preserve">
<g id="Layer_2" display="none">
	<rect x="-104" y="-267.5" display="inline" fill="#84C9F3" stroke="#000000" stroke-miterlimit="10" width="485" height="615.8"/>
</g>
<g id="Layer_1">
	<g>
		<path fill="none" stroke="#363636" stroke-width="2" stroke-linecap="round" stroke-miterlimit="10" d="M52,27.1
			c0-11.1-9-20-20-20s-20,9-20,20c0,14.2,9,30.8,20,30.8S52,41.2,52,27.1z"/>
		<path fill="none" stroke="#363636" stroke-width="2" stroke-linecap="round" stroke-miterlimit="10" d="M27.7,38.1
			c-2.1,2.1-5.2,2.6-8.4-0.6s-4.1-7.6-1.9-9.7s6.5-1.3,9.7,1.9S29.8,36,27.7,38.1z"/>
		<path fill="none" stroke="#363636" stroke-width="2" stroke-linecap="round" stroke-miterlimit="10" d="M36.3,38.1
			c2.1,2.1,5.2,2.6,8.4-0.6c3.2-3.2,4.1-7.6,1.9-9.7s-6.5-1.3-9.7,1.9C33.7,32.9,34.2,36,36.3,38.1z"/>
		<rect x="-6.1" y="-6.1" fill="none" width="76.1" height="76.1"/>
	</g>
</g>
</svg>
