<?xml version="1.0" encoding="utf-8"?>
<!-- Generator: Adobe Illustrator 18.1.1, SVG Export Plug-In . SVG Version: 6.00 Build 0)  -->
<svg version="1.1" xmlns="http://www.w3.org/2000/svg" xmlns:xlink="http://www.w3.org/1999/xlink" x="0px" y="0px"
	 viewBox="0 0 64 64" enable-background="new 0 0 64 64" xml:space="preserve">
<g id="Layer_2" display="none">
	<rect x="-238" y="-66.5" display="inline" fill="#84C9F3" stroke="#000000" stroke-miterlimit="10" width="485" height="615.8"/>
</g>
<g id="Layer_1">
	<g>
		<rect x="-71.7" y="-2.7" fill="none" width="73.5" height="73.5"/>
	</g>
	<g>
		<path fill="none" stroke="#363636" stroke-width="2" stroke-linecap="round" stroke-linejoin="round" stroke-miterlimit="10" d="
			M22,43.6L15.4,44c-3.9,0.2-7.4-2.5-8.3-6.3l-0.7-3.2c-0.5-2.3,1.1-4.6,3.5-4.8c1.9-0.2,4.4-0.3,7.6-0.3c3.2,0,5.7,0.1,7.5,0.3
			c2.4,0.2,4.1,2.5,3.5,4.9l-1,4.4C26.9,41.6,24.7,43.5,22,43.6z"/>
		<path fill="none" stroke="#363636" stroke-width="2" stroke-linecap="round" stroke-linejoin="round" stroke-miterlimit="10" d="
			M42.3,43.6L49,44c3.9,0.2,7.4-2.5,8.3-6.3l0.7-3.2c0.5-2.3-1.1-4.6-3.5-4.8c-1.9-0.2-4.4-0.3-7.6-0.3c-3.2,0-5.7,0.1-7.5,0.3
			c-2.4,0.2-4.1,2.5-3.5,4.9l1,4.4C37.4,41.6,39.6,43.5,42.3,43.6z"/>
		<path fill="none" stroke="#363636" stroke-width="2" stroke-linecap="round" stroke-linejoin="round" stroke-miterlimit="10" d="
			M28.7,33.4c0-1.1,0.9-2,3.7-2c2.8,0,3.3,0.9,3.3,2"/>
		
			<line fill="#FFFFFF" stroke="#363636" stroke-width="2" stroke-linecap="round" stroke-linejoin="round" stroke-miterlimit="10" x1="22.7" y1="18" x2="11.7" y2="29"/>
		
			<line fill="#FFFFFF" stroke="#363636" stroke-width="2" stroke-linecap="round" stroke-linejoin="round" stroke-miterlimit="10" x1="41.7" y1="18" x2="52.7" y2="29"/>
		
			<line fill="#FFFFFF" stroke="#363636" stroke-width="2" stroke-linecap="round" stroke-linejoin="round" stroke-miterlimit="10" x1="17.3" y1="33" x2="12.3" y2="38"/>
		
			<line fill="#FFFFFF" stroke="#363636" stroke-width="2" stroke-linecap="round" stroke-linejoin="round" stroke-miterlimit="10" x1="16.7" y1="40" x2="23.7" y2="33"/>
		
			<line fill="#FFFFFF" stroke="#363636" stroke-width="2" stroke-linecap="round" stroke-linejoin="round" stroke-miterlimit="10" x1="46" y1="33" x2="42" y2="37"/>
		
			<line fill="#FFFFFF" stroke="#363636" stroke-width="2" stroke-linecap="round" stroke-linejoin="round" stroke-miterlimit="10" x1="53.2" y1="33" x2="46.7" y2="39.5"/>
		<rect fill="none" width="64" height="64"/>
	</g>
</g>
</svg>
