<?xml version="1.0" encoding="utf-8"?>
<!-- Generator: Adobe Illustrator 18.1.1, SVG Export Plug-In . SVG Version: 6.00 Build 0)  -->
<svg version="1.1" xmlns="http://www.w3.org/2000/svg" xmlns:xlink="http://www.w3.org/1999/xlink" x="0px" y="0px"
	 viewBox="0 0 64 64" enable-background="new 0 0 64 64" xml:space="preserve">
<g id="Layer_2" display="none">
	<rect x="-238" y="-468.5" display="inline" fill="#84C9F3" stroke="#000000" stroke-miterlimit="10" width="485" height="615.8"/>
</g>
<g id="Layer_1">
	<g>
		<path fill="none" stroke="#373636" stroke-width="2" stroke-linecap="round" stroke-linejoin="round" stroke-miterlimit="10" d="
			M19.1,54.3c3.2-0.1,8.5-2.3,12.4-5.4c5.8-4.6,11.8-12.7,10.9-18.9c-2,1.9-3.5,1.8-4.2,0.3c-0.6-1.4,1-4.1,4.8-6.8
			c3.8-2.7,6.4-5.5,7.5-11.3C44.9,19,39.4,19,31.3,22c-7.4,2.7-19,8.5-23.2,20.3"/>
		<path fill="none" stroke="#373636" stroke-width="2" stroke-linecap="round" stroke-linejoin="round" stroke-miterlimit="10" d="
			M16.1,40.3c0.2-0.9,0.6-1.7,1-2.3c1-1.6,2.6-3.4,5.1-3.2s2.9-3.3,7.2-2.6c-2.8,2.5,0.4,5.3-0.8,10.3c-0.7,2.8-3,4.5-5.5,4.8"/>
		<g>
			<path fill="#373636" d="M12.9,45.1c1.1,0,2,0.4,2.8,1.2c1.5,1.5,1.5,4,0,5.6C15,52.6,14,53,12.9,53c-1.1,0-2-0.4-2.8-1.2
				c-1.5-1.5-1.5-4,0-5.6C10.9,45.5,11.9,45.1,12.9,45.1 M12.9,43.1c-1.5,0-3,0.6-4.2,1.7c-2.3,2.3-2.3,6.1,0,8.4
				c1.2,1.2,2.7,1.7,4.2,1.7s3-0.6,4.2-1.7c2.3-2.3,2.3-6.1,0-8.4C16,43.7,14.5,43.1,12.9,43.1L12.9,43.1z"/>
		</g>
		<g>
			<g>
				
					<line fill="none" stroke="#373636" stroke-width="2" stroke-linecap="round" stroke-linejoin="round" x1="44.1" y1="8.3" x2="43.8" y2="8.6"/>
				
					<line fill="none" stroke="#373636" stroke-width="2" stroke-linecap="round" stroke-linejoin="round" stroke-dasharray="0.5651,4.5208" x1="40.6" y1="11.8" x2="38.6" y2="13.8"/>
				
					<line fill="none" stroke="#373636" stroke-width="2" stroke-linecap="round" stroke-linejoin="round" x1="37" y1="15.4" x2="36.6" y2="15.8"/>
			</g>
		</g>
		<g>
			<g>
				
					<line fill="none" stroke="#373636" stroke-width="2" stroke-linecap="round" stroke-linejoin="round" x1="27.1" y1="17.3" x2="27.5" y2="16.9"/>
				
					<line fill="none" stroke="#373636" stroke-width="2" stroke-linecap="round" stroke-linejoin="round" stroke-dasharray="0.5235,4.188" x1="30.4" y1="13.9" x2="32.3" y2="12.1"/>
				
					<line fill="none" stroke="#373636" stroke-width="2" stroke-linecap="round" stroke-linejoin="round" x1="33.8" y1="10.6" x2="34.1" y2="10.3"/>
			</g>
		</g>
		<g>
			<g>
				
					<line fill="none" stroke="#373636" stroke-width="2" stroke-linecap="round" stroke-linejoin="round" x1="48.1" y1="29.3" x2="48.5" y2="28.9"/>
				
					<line fill="none" stroke="#373636" stroke-width="2" stroke-linecap="round" stroke-linejoin="round" stroke-dasharray="0.6067,4.8535" x1="51.9" y1="25.5" x2="54.1" y2="23.3"/>
				
					<line fill="none" stroke="#373636" stroke-width="2" stroke-linecap="round" stroke-linejoin="round" x1="55.8" y1="21.6" x2="56.1" y2="21.3"/>
			</g>
		</g>
		<rect fill="none" width="64" height="64"/>
	</g>
</g>
</svg>
