<?xml version="1.0" encoding="utf-8"?>
<!-- Generator: Adobe Illustrator 18.1.1, SVG Export Plug-In . SVG Version: 6.00 Build 0)  -->
<svg version="1.1" xmlns="http://www.w3.org/2000/svg" xmlns:xlink="http://www.w3.org/1999/xlink" x="0px" y="0px"
	 viewBox="0 0 64 64" enable-background="new 0 0 64 64" xml:space="preserve">
<g id="Layer_2" display="none">
	<rect x="-104" y="-401.5" display="inline" fill="#84C9F3" stroke="#000000" stroke-miterlimit="10" width="485" height="615.8"/>
</g>
<g id="Layer_1">
	<g>
		<g>
			<path fill="#363636" d="M32,7c13.8,0,25,11.2,25,25S45.8,57,32,57S7,45.8,7,32S18.2,7,32,7 M32,5C17.1,5,5,17.1,5,32
				s12.1,27,27,27s27-12.1,27-27S46.9,5,32,5L32,5z"/>
		</g>
		<g>
			<path fill="#363636" d="M32,30c1.1,0,2,0.9,2,2s-0.9,2-2,2s-2-0.9-2-2S30.9,30,32,30 M32,28c-2.2,0-4,1.8-4,4s1.8,4,4,4
				s4-1.8,4-4S34.2,28,32,28L32,28z"/>
		</g>
		<g>
			<path fill="#363636" d="M32,24c4.4,0,8,3.6,8,8s-3.6,8-8,8s-8-3.6-8-8S27.6,24,32,24 M32,22c-5.5,0-10,4.5-10,10s4.5,10,10,10
				s10-4.5,10-10S37.5,22,32,22L32,22z"/>
		</g>
		<rect fill="none" width="64" height="64"/>
	</g>
</g>
</svg>
