<?xml version="1.0" encoding="utf-8"?>
<!-- Generator: Adobe Illustrator 18.1.1, SVG Export Plug-In . SVG Version: 6.00 Build 0)  -->
<svg version="1.1" xmlns="http://www.w3.org/2000/svg" xmlns:xlink="http://www.w3.org/1999/xlink" x="0px" y="0px"
	 viewBox="0 0 64 64" enable-background="new 0 0 64 64" xml:space="preserve">
<g id="Layer_2" display="none">
	<rect x="-37" y="-133.5" display="inline" fill="#84C9F3" stroke="#000000" stroke-miterlimit="10" width="485" height="615.8"/>
</g>
<g id="Layer_1">
	<g>
		
			<line fill="#FFFFFF" stroke="#363636" stroke-width="2" stroke-linecap="round" stroke-miterlimit="10" x1="9.9" y1="8" x2="9.9" y2="56"/>
		<g>
			<line fill="#FFFFFF" x1="13.9" y1="8" x2="13.9" y2="56"/>
			<g>
				
					<line fill="none" stroke="#363636" stroke-width="2" stroke-linecap="round" stroke-miterlimit="10" x1="13.9" y1="8" x2="13.9" y2="8"/>
				
					<line fill="none" stroke="#363636" stroke-width="2" stroke-linecap="round" stroke-miterlimit="10" stroke-dasharray="0,4" x1="13.9" y1="12" x2="13.9" y2="54"/>
				
					<line fill="none" stroke="#363636" stroke-width="2" stroke-linecap="round" stroke-miterlimit="10" x1="13.9" y1="56" x2="13.9" y2="56"/>
			</g>
		</g>
		<g>
			<line fill="#FFFFFF" x1="50" y1="8" x2="50" y2="56"/>
			<g>
				
					<line fill="none" stroke="#363636" stroke-width="2" stroke-linecap="round" stroke-miterlimit="10" x1="50" y1="8" x2="50" y2="8"/>
				
					<line fill="none" stroke="#363636" stroke-width="2" stroke-linecap="round" stroke-miterlimit="10" stroke-dasharray="0,4" x1="50" y1="12" x2="50" y2="54"/>
				
					<line fill="none" stroke="#363636" stroke-width="2" stroke-linecap="round" stroke-miterlimit="10" x1="50" y1="56" x2="50" y2="56"/>
			</g>
		</g>
		
			<line fill="#FFFFFF" stroke="#363636" stroke-width="2" stroke-linecap="round" stroke-miterlimit="10" x1="54" y1="8" x2="54" y2="56"/>
		<g>
			<path fill="#363636" d="M44.9,37c0.1,0,0.1,0.1,0.1,0.1v16.8c0,0.1-0.1,0.1-0.1,0.1H19.1c-0.1,0-0.1-0.1-0.1-0.1V37.1
				c0-0.1,0.1-0.1,0.1-0.1H44.9 M44.9,35H19.1C18,35,17,36,17,37.1v16.8c0,1.2,1,2.1,2.1,2.1h25.8c1.2,0,2.1-1,2.1-2.1V37.1
				C47,36,46,35,44.9,35L44.9,35z"/>
		</g>
		<g>
			<path fill="#363636" d="M44.9,10c0.1,0,0.1,0.1,0.1,0.1v16.8c0,0.1-0.1,0.1-0.1,0.1H19.1c-0.1,0-0.1-0.1-0.1-0.1V10.1
				c0-0.1,0.1-0.1,0.1-0.1H44.9 M44.9,8H19.1C18,8,17,9,17,10.1v16.8c0,1.2,1,2.1,2.1,2.1h25.8c1.2,0,2.1-1,2.1-2.1V10.1
				C47,9,46,8,44.9,8L44.9,8z"/>
		</g>
		<rect fill="none" width="64" height="64"/>
	</g>
</g>
</svg>
