<?xml version="1.0" encoding="utf-8"?>
<!-- Generator: Adobe Illustrator 18.1.1, SVG Export Plug-In . SVG Version: 6.00 Build 0)  -->
<svg version="1.1" xmlns="http://www.w3.org/2000/svg" xmlns:xlink="http://www.w3.org/1999/xlink" x="0px" y="0px"
	 viewBox="0 0 64 64" enable-background="new 0 0 64 64" xml:space="preserve">
<g id="Layer_2" display="none">
	<rect x="-37" y="-334.5" display="inline" fill="#84C9F3" stroke="#000000" stroke-miterlimit="10" width="485" height="615.8"/>
</g>
<g id="Layer_1">
	<g>
		<rect x="60.9" y="-73.1" fill="none" width="76.1" height="76.1"/>
	</g>
	<g>
		<g>
			<path fill="#363636" d="M22,18c1.1,0,2,0.9,2,2s-0.9,2-2,2s-2-0.9-2-2S20.9,18,22,18 M22,16c-2.2,0-4,1.8-4,4s1.8,4,4,4
				s4-1.8,4-4S24.2,16,22,16L22,16z"/>
		</g>
		<g>
			<path fill="#363636" d="M42,18c1.1,0,2,0.9,2,2s-0.9,2-2,2s-2-0.9-2-2S40.9,18,42,18 M42,16c-2.2,0-4,1.8-4,4s1.8,4,4,4
				s4-1.8,4-4S44.2,16,42,16L42,16z"/>
		</g>
		<path fill="none" stroke="#363636" stroke-width="2" stroke-linecap="round" stroke-linejoin="round" stroke-miterlimit="10" d="
			M51.8,21.3C51.4,22,51,23,50.6,24.4c-3.5,12-8.4,7.7-10.6,5.6s-3.1-5-8-5s-5.8,2.9-8,5s-7.1,6.4-10.6-5.6C13,23,12.6,22,12.2,21.3
			C12.1,22.2,12,23.1,12,24c0,14.3,8.8,28,20,28s20-13.8,20-28C52,23.1,51.9,22.2,51.8,21.3z"/>
		<g>
			<path fill="none" stroke="#363636" stroke-width="2" stroke-linecap="round" stroke-linejoin="round" stroke-miterlimit="10" d="
				M36,42h-8c-2.2,0-4-1.8-4-4s1.8-4,4-4h8c2.2,0,4,1.8,4,4S38.2,42,36,42z"/>
		</g>
		
			<line fill="none" stroke="#363636" stroke-width="2" stroke-linecap="round" stroke-linejoin="round" stroke-miterlimit="10" x1="28" y1="35" x2="28" y2="41"/>
		
			<line fill="none" stroke="#363636" stroke-width="2" stroke-linecap="round" stroke-linejoin="round" stroke-miterlimit="10" x1="32" y1="35" x2="32" y2="41"/>
		
			<line fill="none" stroke="#363636" stroke-width="2" stroke-linecap="round" stroke-linejoin="round" stroke-miterlimit="10" x1="36" y1="35" x2="36" y2="41"/>
		<rect fill="none" width="64" height="64"/>
	</g>
</g>
</svg>
