<?xml version="1.0" encoding="utf-8"?>
<!-- Generator: Adobe Illustrator 18.1.1, SVG Export Plug-In . SVG Version: 6.00 Build 0)  -->
<svg version="1.1" xmlns="http://www.w3.org/2000/svg" xmlns:xlink="http://www.w3.org/1999/xlink" x="0px" y="0px"
	 viewBox="0 0 64 64" enable-background="new 0 0 64 64" xml:space="preserve">
<g id="Layer_2" display="none">
	<rect x="-372" y="-267.5" display="inline" fill="#84C9F3" stroke="#000000" stroke-miterlimit="10" width="485" height="615.8"/>
</g>
<g id="Layer_1">
	<g>
		<g>
			<path fill="#363636" d="M32,7c0.5,0,1.1,0,1.6,0C46.1,7.8,56.2,17.9,57,30.4c0.4,7-2,13.6-6.7,18.7C45.4,54.2,39,57,32,57
				c-5.3,0-10.3-1.6-14.5-4.7C17.8,52,18,51.5,18,51h5c1.7,0,3-1.3,3-3c0-1.7-1.3-3-3-3h-2v-1c0-1.3-0.8-2.4-2-2.8
				c0-0.1,0-0.1,0-0.2v-1c0-1.7-1.3-3-3-3h-5.2c-0.4-1.2-1.5-2-2.8-2H7.2C7.1,34,7,33,7,32C7,18.2,18.2,7,32,7 M32,5
				C17.1,5,5,17.1,5,32c0,1.4,0.1,2.8,0.3,4.2c0.1,0.5,0.5,0.8,1,0.8H8c0.6,0,1,0.4,1,1s0.4,1,1,1h6c0.6,0,1,0.4,1,1v1h-1v1
				c0,0.6,0.4,1,1,1h1c0.6,0,1,0.4,1,1v1h-1v1c0,0.6,0.4,1,1,1h4c0.6,0,1,0.4,1,1s-0.4,1-1,1h-6c-0.6,0-1,0.4-1,1v1
				c-1.1,0-1.7,1.5-0.8,2.2C19.8,56.8,25.7,59,32,59c15.5,0,27.9-13,26.9-28.7C58.1,16.8,47.2,5.9,33.7,5.1C33.1,5,32.6,5,32,5L32,5
				z"/>
		</g>
		<circle fill="none" stroke="#363636" stroke-width="2" stroke-linecap="round" stroke-miterlimit="10" cx="39" cy="21" r="7"/>
		<g>
			<circle fill="#363636" cx="39" cy="21" r="2"/>
		</g>
		
			<line fill="#FFFFFF" stroke="#363636" stroke-width="2" stroke-linecap="round" stroke-miterlimit="10" x1="7" y1="32" x2="57" y2="32"/>
		<rect fill="none" width="64" height="64"/>
	</g>
</g>
</svg>
