<?xml version="1.0" encoding="utf-8"?>
<!-- Generator: Adobe Illustrator 18.1.1, SVG Export Plug-In . SVG Version: 6.00 Build 0)  -->
<svg version="1.1" xmlns="http://www.w3.org/2000/svg" xmlns:xlink="http://www.w3.org/1999/xlink" x="0px" y="0px"
	 viewBox="0 0 64 64" enable-background="new 0 0 64 64" xml:space="preserve">
<g id="Layer_2" display="none">
	<rect x="-171" y="-267.5" display="inline" fill="#84C9F3" stroke="#000000" stroke-miterlimit="10" width="485" height="615.8"/>
</g>
<g id="Layer_1">
	<g>
		<rect x="-73.1" y="-6.1" fill="none" width="76.1" height="76.1"/>
	</g>
	<g>
		<path fill="none" stroke="#363636" stroke-width="2" stroke-linecap="round" stroke-linejoin="round" stroke-miterlimit="10" d="
			M42.6,47.4l-30-30c-7.4,7.4-6.5,20.4-6.5,20.4l10,10"/>
		<circle fill="#363636" cx="14" cy="30" r="2"/>
		<circle fill="#363636" cx="20.4" cy="36.4" r="2"/>
		<circle fill="#363636" cx="26.7" cy="42.7" r="2"/>
		
			<rect x="25.4" y="17.6" transform="matrix(0.7071 0.7071 -0.7071 0.7071 25.3977 -13.1353)" fill="none" stroke="#363636" stroke-width="2" stroke-linecap="round" stroke-linejoin="round" stroke-miterlimit="10" width="6.3" height="13"/>
		
			<line fill="none" stroke="#363636" stroke-width="2" stroke-linecap="round" stroke-linejoin="round" stroke-miterlimit="10" x1="30.1" y1="22.1" x2="30.5" y2="22.5"/>
		
			<polyline fill="none" stroke="#363636" stroke-width="2" stroke-linecap="round" stroke-linejoin="round" stroke-miterlimit="10" points="
			56,48 48,40 41.6,46.4 		"/>
		
			<line fill="none" stroke="#363636" stroke-width="2" stroke-linecap="round" stroke-linejoin="round" stroke-miterlimit="10" x1="49.4" y1="35.8" x2="58.8" y2="45.2"/>
		<g>
			<path fill="none" stroke="#363636" stroke-width="2" stroke-linecap="round" stroke-linejoin="round" stroke-miterlimit="10" d="
				M5,50c0,0,3,3,6.8,3s6.8-3,6.8-3s3,3,6.8,3s6.8-3,6.8-3s3,3,6.8,3s6.8-3,6.8-3s3,3,6.8,3s6.8-3,6.8-3"/>
		</g>
		<path fill="none" stroke="#363636" stroke-width="2" stroke-linecap="round" stroke-linejoin="round" stroke-miterlimit="10" d="
			M48,15c-2.1,0-3.9,0.9-5.2,2.3c1.9,0.7,3.2,2.5,3.2,4.7s-1.3,3.9-3.2,4.7c1.3,1.4,3.1,2.3,5.2,2.3c3.9,0,7-3.1,7-7
			C55,18.1,51.9,15,48,15z"/>
		
			<polyline fill="none" stroke="#363636" stroke-width="2" stroke-linecap="round" stroke-linejoin="round" stroke-miterlimit="10" points="
			15,14 20.5,19.5 18.5,21.5 		"/>
		<rect fill="none" width="64" height="64"/>
	</g>
</g>
</svg>
