<?xml version="1.0" encoding="utf-8"?>
<!-- Generator: Adobe Illustrator 18.1.1, SVG Export Plug-In . SVG Version: 6.00 Build 0)  -->
<svg version="1.1" xmlns="http://www.w3.org/2000/svg" xmlns:xlink="http://www.w3.org/1999/xlink" x="0px" y="0px"
	 viewBox="0 0 64 64" enable-background="new 0 0 64 64" xml:space="preserve">
<g id="Layer_2" display="none">
	<rect x="-104" y="-468.5" display="inline" fill="#84C9F3" stroke="#000000" stroke-miterlimit="10" width="485" height="615.8"/>
</g>
<g id="Layer_1">
	<g>
		
			<polyline fill="none" stroke="#363636" stroke-width="2" stroke-linecap="round" stroke-linejoin="round" stroke-miterlimit="10" points="
			10,52 24,52 21,49 		"/>
		
			<polyline fill="none" stroke="#363636" stroke-width="2" stroke-linecap="round" stroke-linejoin="round" stroke-miterlimit="10" points="
			54,52 40,52 43,49 		"/>
		<path fill="none" stroke="#363636" stroke-width="2" stroke-linecap="round" stroke-linejoin="round" stroke-miterlimit="10" d="
			M28,36v-4c-2.3,0-6.3-1.3-7.3-3.2C20.1,28.9,19.6,29,19,29c-3.3,0-6-2.7-6-6s2.7-6,6-6c0.8,0,1.6,0.2,2.4,0.5
			c2-3.8,6-6.5,10.6-6.5s8.6,2.6,10.6,6.5c0.7-0.3,1.5-0.5,2.4-0.5c3.3,0,6,2.7,6,6s-2.7,6-6,6c-0.6,0-1.1-0.1-1.7-0.2
			c-1,1.9-5,3.2-7.3,3.2v4"/>
		
			<line fill="none" stroke="#363636" stroke-width="2" stroke-linecap="round" stroke-linejoin="round" stroke-miterlimit="10" x1="32" y1="44" x2="32" y2="52"/>
		<path fill="none" stroke="#363636" stroke-width="2" stroke-linecap="round" stroke-linejoin="round" stroke-miterlimit="10" d="
			M37.7,27c-3.1,3.1-8.2,3.1-11.3,0"/>
		
			<line fill="none" stroke="#363636" stroke-width="2" stroke-linecap="round" stroke-linejoin="round" stroke-miterlimit="10" x1="23" y1="39" x2="41" y2="39"/>
		
			<line fill="none" stroke="#363636" stroke-width="2" stroke-linecap="round" stroke-linejoin="round" stroke-miterlimit="10" x1="28" y1="42" x2="28" y2="52"/>
		
			<line fill="none" stroke="#363636" stroke-width="2" stroke-linecap="round" stroke-linejoin="round" stroke-miterlimit="10" x1="36" y1="42" x2="36" y2="52"/>
		<rect fill="none" width="64" height="64"/>
	</g>
</g>
</svg>
