<?xml version="1.0" encoding="utf-8"?>
<!-- Generator: Adobe Illustrator 18.1.1, SVG Export Plug-In . SVG Version: 6.00 Build 0)  -->
<svg version="1.1" id="Layer_1" xmlns="http://www.w3.org/2000/svg" xmlns:xlink="http://www.w3.org/1999/xlink" x="0px" y="0px"
	 viewBox="0 0 64 64" enable-background="new 0 0 64 64" xml:space="preserve">
<g>
	<rect x="-75" y="-6" fill="none" width="80" height="80"/>
</g>
<g>
	<path fill="none" stroke="#363636" stroke-width="2" stroke-linecap="round" stroke-linejoin="round" stroke-miterlimit="10" d="
		M49,34c0,12.2-9.8,22-22,22S5,46.2,5,34H49z"/>
	
		<circle fill="none" stroke="#363636" stroke-width="2" stroke-linecap="round" stroke-linejoin="round" stroke-miterlimit="10" cx="54.5" cy="40" r="5.5"/>
	<path fill="none" stroke="#363636" stroke-width="2" stroke-linecap="round" stroke-linejoin="round" stroke-miterlimit="10" d="
		M17.5,27c0,0-2.5-1.8-2.5-4s2.5-4,2.5-4s2.5-1.8,2.5-4s-2.5-4-2.5-4"/>
	<path fill="none" stroke="#363636" stroke-width="2" stroke-linecap="round" stroke-linejoin="round" stroke-miterlimit="10" d="
		M27.5,27c0,0-2.5-1.8-2.5-4s2.5-4,2.5-4s2.5-1.8,2.5-4s-2.5-4-2.5-4"/>
	<path fill="none" stroke="#363636" stroke-width="2" stroke-linecap="round" stroke-linejoin="round" stroke-miterlimit="10" d="
		M37.5,27c0,0-2.5-1.8-2.5-4s2.5-4,2.5-4s2.5-1.8,2.5-4s-2.5-4-2.5-4"/>
	
		<line fill="#FFFFFF" stroke="#363636" stroke-width="2" stroke-linecap="round" stroke-linejoin="round" stroke-miterlimit="10" x1="5" y1="56" x2="49" y2="56"/>
	<rect fill="none" width="64" height="64"/>
</g>
</svg>
