<?xml version="1.0" encoding="utf-8"?>
<!-- Generator: Adobe Illustrator 18.1.1, SVG Export Plug-In . SVG Version: 6.00 Build 0)  -->
<svg version="1.1" xmlns="http://www.w3.org/2000/svg" xmlns:xlink="http://www.w3.org/1999/xlink" x="0px" y="0px"
	 viewBox="0 0 64 64" enable-background="new 0 0 64 64" xml:space="preserve">
<g id="Layer_2" display="none">
	
		<rect x="-347.8" y="-230.8" display="inline" fill="#00ACEC" stroke="#000000" stroke-miterlimit="10" width="434.7" height="584"/>
</g>
<g id="Layer_1">
	<g>
		<rect x="-72.9" y="-72.9" fill="none" width="75.7" height="75.7"/>
	</g>
	<g>
		<g>
			<path fill="#363636" d="M52.3,21c0.1,0.8,0.2,1.7,0.2,2.5c0,9.9-7.1,18.2-16.4,20.1c0.3,0.6,0.4,1.2,0.4,1.9
				c0,1.5-0.8,2.9-1.9,3.7c0.2,0.1,0.3,0.3,0.4,0.6C35,50,36.5,56,42,56h1.5H49c0.6,0,1,0.4,1,1s-0.4,1-1,1h-5.5H32H20.5H16
				c-0.6,0-1-0.4-1-1s0.4-1,1-1h4.5H22c5.5,0,7-6.2,7-6.2c0.1-0.2,0.2-0.4,0.4-0.6c-1.2-0.8-1.9-2.2-1.9-3.7c0-0.7,0.2-1.3,0.4-1.9
				c-9.4-1.9-16.4-10.2-16.4-20.1c0-0.8,0.1-1.7,0.2-2.5H52.3 M52.3,19H11.7c-1,0-1.9,0.8-2,1.8c-0.1,1-0.2,1.9-0.2,2.7
				c0,10,6.6,18.7,16,21.5c0,0.2,0,0.3,0,0.5c0,1.5,0.5,3,1.5,4.1c-0.3,1-1.7,4.4-5,4.4h-1.5H16c-1.7,0-3,1.3-3,3s1.3,3,3,3h4.5H32
				h11.5H49c1.7,0,3-1.3,3-3s-1.3-3-3-3h-5.5H42c-3.3,0-4.7-3.3-5-4.4c1-1.2,1.5-2.6,1.5-4.1c0-0.2,0-0.3,0-0.5
				c9.4-2.8,16-11.6,16-21.5c0-0.8-0.1-1.7-0.2-2.7C54.2,19.8,53.3,19,52.3,19L52.3,19z"/>
		</g>
		<g>
			<path fill="none" stroke="#363636" stroke-width="2" stroke-linecap="round" stroke-linejoin="round" stroke-miterlimit="10" d="
				M41.8,16c-0.9-4.6-5-8-9.8-8s-8.9,3.4-9.8,8"/>
		</g>
		<g>
			
				<path fill="#FFFFFF" stroke="#363636" stroke-width="2" stroke-linecap="round" stroke-linejoin="round" stroke-miterlimit="10" d="
				M43.3,17c-1.3-0.6-2.8-1-4.3-1s-3,0.4-4.3,1"/>
			<path fill="none" stroke="#363636" stroke-width="2" stroke-linecap="round" stroke-linejoin="round" stroke-miterlimit="10" d="
				M32.2,33.4C34,35,36.4,36,39,36c5.5,0,10-4.5,10-10c0-1-0.2-2.1-0.5-3"/>
		</g>
		<g>
			
				<path fill="#FFFFFF" stroke="#363636" stroke-width="2" stroke-linecap="round" stroke-linejoin="round" stroke-miterlimit="10" d="
				M29.3,17c-1.3-0.6-2.8-1-4.3-1s-3,0.4-4.3,1"/>
			<path fill="none" stroke="#363636" stroke-width="2" stroke-linecap="round" stroke-linejoin="round" stroke-miterlimit="10" d="
				M15.5,23c-0.3,0.9-0.5,2-0.5,3c0,5.5,4.5,10,10,10s10-4.5,10-10c0-1-0.2-2.1-0.5-3"/>
		</g>
		
			<line fill="#FFFFFF" stroke="#363636" stroke-width="2" stroke-linecap="round" stroke-linejoin="round" stroke-miterlimit="10" x1="54" y1="6" x2="48" y2="17"/>
		<rect fill="none" width="64" height="64"/>
	</g>
</g>
</svg>
