<?xml version="1.0" encoding="utf-8"?>
<!-- Generator: Adobe Illustrator 18.1.1, SVG Export Plug-In . SVG Version: 6.00 Build 0)  -->
<svg version="1.1" xmlns="http://www.w3.org/2000/svg" xmlns:xlink="http://www.w3.org/1999/xlink" x="0px" y="0px"
	 viewBox="0 0 64 64" enable-background="new 0 0 64 64" xml:space="preserve">
<g id="Layer_2" display="none">
	
		<rect x="-280.8" y="-431.8" display="inline" fill="#00ACEC" stroke="#000000" stroke-miterlimit="10" width="434.7" height="584"/>
</g>
<g id="Layer_1">
	<g>
		<g>
			<path fill="#363636" d="M50.5,13c0.5,0,0.8,0,0.8,0s0.5,3.7-2.1,6.4c-1.9,1.9-4.4,2.2-5.6,2.2c-0.5,0-0.8,0-0.8,0
				s-0.5-3.7,2.1-6.4C46.8,13.2,49.3,13,50.5,13 M50.5,11C50.5,11,50.5,11,50.5,11c-1.6,0-4.6,0.4-7,2.7c-3.3,3.3-2.7,7.9-2.7,8.1
				c0.1,0.9,0.8,1.6,1.7,1.7c0.1,0,0.5,0.1,1,0.1c1.6,0,4.6-0.4,7-2.7c3.3-3.3,2.7-7.9,2.7-8.1c-0.1-0.9-0.8-1.6-1.7-1.7
				C51.5,11,51.1,11,50.5,11L50.5,11z"/>
		</g>
		
			<line fill="none" stroke="#363636" stroke-width="2" stroke-linecap="round" stroke-linejoin="round" stroke-miterlimit="10" x1="54.8" y1="9.5" x2="52" y2="12.3"/>
		<g>
			<path fill="#363636" d="M43.3,27.7c3.7,0,6,3,6,3s-2.3,3-6,3c-3.7,0-6-3-6-3S39.6,27.7,43.3,27.7 M43.3,25.7
				c-4.7,0-7.5,3.6-7.6,3.8c-0.5,0.7-0.5,1.7,0,2.4c0.1,0.2,2.9,3.8,7.6,3.8c4.7,0,7.5-3.6,7.6-3.8c0.5-0.7,0.5-1.7,0-2.4
				C50.8,29.4,48,25.7,43.3,25.7L43.3,25.7z"/>
		</g>
		
			<line fill="none" stroke="#363636" stroke-width="2" stroke-linecap="round" stroke-linejoin="round" stroke-miterlimit="10" x1="54.3" y1="30.7" x2="50.3" y2="30.7"/>
		<g>
			<path fill="#363636" d="M34.1,37c3.7,0,6,3,6,3s-2.3,3-6,3c-3.7,0-6-3-6-3S30.3,37,34.1,37 M34.1,35c-4.7,0-7.5,3.6-7.6,3.8
				c-0.5,0.7-0.5,1.7,0,2.4c0.1,0.2,2.9,3.8,7.6,3.8c4.7,0,7.5-3.6,7.6-3.8c0.5-0.7,0.5-1.7,0-2.4C41.5,38.6,38.7,35,34.1,35
				L34.1,35z"/>
		</g>
		
			<line fill="none" stroke="#363636" stroke-width="2" stroke-linecap="round" stroke-linejoin="round" stroke-miterlimit="10" x1="45.1" y1="40" x2="41.1" y2="40"/>
		<g>
			<path fill="#363636" d="M33.6,15c0,0,3,2.3,3,6s-3,6-3,6s-3-2.3-3-6S33.6,15,33.6,15 M33.6,13c-0.4,0-0.9,0.1-1.2,0.4
				c-0.2,0.1-3.8,2.9-3.8,7.6s3.6,7.5,3.8,7.6c0.4,0.3,0.8,0.4,1.2,0.4s0.9-0.1,1.2-0.4c0.2-0.1,3.8-2.9,3.8-7.6s-3.6-7.5-3.8-7.6
				C34.4,13.1,34,13,33.6,13L33.6,13z"/>
		</g>
		
			<line fill="none" stroke="#363636" stroke-width="2" stroke-linecap="round" stroke-linejoin="round" stroke-miterlimit="10" x1="33.6" y1="10" x2="33.6" y2="14"/>
		<g>
			<path fill="#363636" d="M24.3,24.2c0,0,3,2.3,3,6c0,3.7-3,6-3,6s-3-2.3-3-6C21.3,26.5,24.3,24.2,24.3,24.2 M24.3,22.2
				c-0.4,0-0.9,0.1-1.2,0.4c-0.2,0.1-3.8,2.9-3.8,7.6c0,4.7,3.6,7.5,3.8,7.6c0.4,0.3,0.8,0.4,1.2,0.4s0.9-0.1,1.2-0.4
				c0.2-0.1,3.8-2.9,3.8-7.6c0-4.7-3.6-7.5-3.8-7.6C25.2,22.4,24.8,22.2,24.3,22.2L24.3,22.2z"/>
		</g>
		
			<line fill="none" stroke="#363636" stroke-width="2" stroke-linecap="round" stroke-linejoin="round" stroke-miterlimit="10" x1="24.3" y1="19.2" x2="24.3" y2="23.2"/>
		<g>
			<path fill="#363636" d="M24.9,46.1c3.7,0,6,3,6,3s-2.3,3-6,3s-6-3-6-3S21.2,46.1,24.9,46.1 M24.9,44.1c-4.7,0-7.5,3.6-7.6,3.8
				c-0.5,0.7-0.5,1.7,0,2.4c0.1,0.2,2.9,3.8,7.6,3.8s7.5-3.6,7.6-3.8c0.5-0.7,0.5-1.7,0-2.4C32.4,47.7,29.6,44.1,24.9,44.1
				L24.9,44.1z"/>
		</g>
		
			<line fill="none" stroke="#363636" stroke-width="2" stroke-linecap="round" stroke-linejoin="round" stroke-miterlimit="10" x1="35.9" y1="49.1" x2="31.9" y2="49.1"/>
		<g>
			<path fill="#363636" d="M15.2,33.4c0,0,3,2.3,3,6c0,3.7-3,6-3,6s-3-2.3-3-6C12.2,35.7,15.2,33.4,15.2,33.4 M15.2,31.4
				c-0.4,0-0.9,0.1-1.2,0.4c-0.2,0.1-3.8,2.9-3.8,7.6c0,4.7,3.6,7.5,3.8,7.6c0.4,0.3,0.8,0.4,1.2,0.4s0.9-0.1,1.2-0.4
				c0.2-0.1,3.8-2.9,3.8-7.6c0-4.7-3.6-7.5-3.8-7.6C16,31.5,15.6,31.4,15.2,31.4L15.2,31.4z"/>
		</g>
		
			<line fill="none" stroke="#363636" stroke-width="2" stroke-linecap="round" stroke-linejoin="round" stroke-miterlimit="10" x1="15.2" y1="28.4" x2="15.2" y2="32.4"/>
		
			<line fill="none" stroke="#363636" stroke-width="2" stroke-linecap="round" stroke-linejoin="round" stroke-miterlimit="10" x1="11" y1="53.3" x2="14.6" y2="49.6"/>
		<rect fill="none" width="64" height="64"/>
	</g>
</g>
</svg>
