<?xml version="1.0" encoding="utf-8"?>
<!-- Generator: Adobe Illustrator 18.1.1, SVG Export Plug-In . SVG Version: 6.00 Build 0)  -->
<svg version="1.1" xmlns="http://www.w3.org/2000/svg" xmlns:xlink="http://www.w3.org/1999/xlink" x="0px" y="0px"
	 viewBox="0 0 64 64" enable-background="new 0 0 64 64" xml:space="preserve">
<g id="Layer_2" display="none">
	<rect x="-79.8" y="-503.8" display="inline" fill="#00ACEC" stroke="#000000" stroke-miterlimit="10" width="434.7" height="584"/>
</g>
<g id="Layer_1">
	<g>
		<path fill="none" stroke="#363636" stroke-width="2" stroke-linecap="round" stroke-linejoin="round" stroke-miterlimit="10" d="
			M32,19.7c-1.6-0.4-3.3-0.7-5-0.7C16,19,7,28,7,39"/>
		<path fill="none" stroke="#363636" stroke-width="2" stroke-linecap="round" stroke-linejoin="round" stroke-miterlimit="10" d="
			M16.6,40.9c-0.5,1.2-1.5,2.2-2.7,2.7"/>
		<path fill="none" stroke="#363636" stroke-width="2" stroke-linecap="round" stroke-linejoin="round" stroke-miterlimit="10" d="
			M12,44c-2.8,0-5-2.2-5-5"/>
		<path fill="none" stroke="#363636" stroke-width="2" stroke-linecap="round" stroke-linejoin="round" stroke-miterlimit="10" d="
			M21.6,26.3c-0.5-0.8-1.3-1.3-2.3-1.3c-1.5,0-2.8,1.2-2.8,2.8c0,0.3,0.1,0.6,0.2,0.9c-2.7,0.6-4.7,3-4.7,5.8c0,2.9,2.1,5.3,4.8,5.9
			"/>
		<path fill="none" stroke="#363636" stroke-width="2" stroke-linecap="round" stroke-linejoin="round" stroke-miterlimit="10" d="
			M17,39c0-4.8,1.7-9.3,4.6-12.7"/>
		<path fill="none" stroke="#363636" stroke-width="2" stroke-linecap="round" stroke-linejoin="round" stroke-miterlimit="10" d="
			M21.6,26.3c2.6-3.2,6.3-5.6,10.4-6.6"/>
		<path fill="none" stroke="#363636" stroke-width="2" stroke-linecap="round" stroke-linejoin="round" stroke-miterlimit="10" d="
			M16.6,40.9c-0.5,1.2-1.5,2.2-2.7,2.7"/>
		<path fill="none" stroke="#363636" stroke-width="2" stroke-linecap="round" stroke-linejoin="round" stroke-miterlimit="10" d="
			M32,19.7c1.6-0.4,3.3-0.7,5-0.7c11,0,20,9,20,20c0,2.8-2.2,5-5,5H12"/>
		<path fill="none" stroke="#363636" stroke-width="2" stroke-linecap="round" stroke-linejoin="round" stroke-miterlimit="10" d="
			M16.8,40.4c-0.1,0.2-0.1,0.4-0.2,0.6"/>
		<path fill="none" stroke="#363636" stroke-width="2" stroke-linecap="round" stroke-linejoin="round" stroke-miterlimit="10" d="
			M16.8,40.4c0.1-0.4,0.2-0.9,0.2-1.4"/>
		<path fill="none" stroke="#363636" stroke-width="2" stroke-linecap="round" stroke-linejoin="round" stroke-miterlimit="10" d="
			M13.9,43.6C13.3,43.9,12.7,44,12,44"/>
	</g>
</g>
</svg>
