<?xml version="1.0" encoding="utf-8"?>
<!-- Generator: Adobe Illustrator 18.1.1, SVG Export Plug-In . SVG Version: 6.00 Build 0)  -->
<svg version="1.1" xmlns="http://www.w3.org/2000/svg" xmlns:xlink="http://www.w3.org/1999/xlink" x="0px" y="0px"
	 viewBox="0 0 64 64" enable-background="new 0 0 64 64" xml:space="preserve">
<g id="Layer_2" display="none">
	
		<rect x="-213.8" y="-502.5" display="inline" fill="#00ACEC" stroke="#000000" stroke-miterlimit="10" width="434.7" height="584"/>
</g>
<g id="Layer_1">
	<g>
		<path fill="none" stroke="#363636" stroke-width="2" stroke-linecap="round" stroke-linejoin="round" stroke-miterlimit="10" d="
			M52.8,22.8C51.9,16.8,47,12,41,11.1c-3.3-0.5-6.4,0.2-9,1.7c-2.6-1.5-5.7-2.2-9-1.7c-6,0.9-10.9,5.6-11.8,11.7
			c-0.8,5.2,1.3,9.9,4.8,12.9v14.2c0,1.7,1.4,3.1,3.1,3.1h25.8c1.7,0,3.1-1.4,3.1-3.1V35.7C51.6,32.7,53.6,28,52.8,22.8z"/>
		<path fill="none" stroke="#363636" stroke-width="2" stroke-linecap="round" stroke-linejoin="round" stroke-miterlimit="10" d="
			M29.5,39.4l-4.9-4.9c-1.4-1.4-1.4-3.6,0-5l4.9-4.9c1.4-1.4,3.6-1.4,5,0l4.9,4.9c1.4,1.4,1.4,3.6,0,5l-4.9,4.9
			C33.1,40.8,30.9,40.8,29.5,39.4z"/>
		<rect y="0" fill="none" width="64" height="64"/>
	</g>
</g>
</svg>
