<?xml version="1.0" encoding="utf-8"?>
<!-- Generator: Adobe Illustrator 18.1.1, SVG Export Plug-In . SVG Version: 6.00 Build 0)  -->
<svg version="1.1" id="Layer_1" xmlns="http://www.w3.org/2000/svg" xmlns:xlink="http://www.w3.org/1999/xlink" x="0px" y="0px"
	 viewBox="0 0 64 64" enable-background="new 0 0 64 64" xml:space="preserve">
<g>
	<rect x="-72.9" y="-72.9" fill="none" width="75.7" height="75.7"/>
</g>
<g>
	<rect x="-72.9" y="-5.9" fill="none" width="75.7" height="75.7"/>
</g>
<g>
	<path fill="none" stroke="#363636" stroke-width="2" stroke-linecap="round" stroke-linejoin="round" stroke-miterlimit="10" d="
		M55.9,29c1.2,0,2.1,1,2,2.2C56.8,44.5,45.6,55,32,55S7.2,44.5,6.1,31.2C6,30,6.9,29,8.1,29H55.9z"/>
	<path fill="none" stroke="#363636" stroke-width="2" stroke-linecap="round" stroke-linejoin="round" stroke-miterlimit="10" d="
		M54,26c0-2.2-1.8-4-4-4c-0.4,0-0.7,0.1-1.1,0.2c-0.4-1.8-2-3.2-3.9-3.2c-1.2,0-2.3,0.6-3,1.4c0-0.1,0-0.3,0-0.4c0-1.7-1.3-3-3-3
		c0,0-0.1,0-0.1,0c0.1-0.3,0.1-0.7,0.1-1c0-2.2-1.8-4-4-4s-4,1.8-4,4c0,0.3,0,0.6,0.1,0.9C30.6,16.3,29.8,16,29,16c-1.7,0-3,1.3-3,3
		c0,0.2,0-0.2,0,0c-0.1-0.1-0.4,0-0.5,0c-0.2-2-1.4-3-3.5-3c-2.2,0-4,1.8-4,4c-1.5,0-2.8,1.1-3,2.6c-0.6-0.4-1.3-0.6-2-0.6
		c-2.2,0-4,1.8-4,4"/>
	<path fill="none" stroke="#363636" stroke-width="2" stroke-linecap="round" stroke-linejoin="round" stroke-miterlimit="10" d="
		M22,23c0-2.2,1.8-4,4-4s4,1.8,4,4"/>
	<rect fill="none" width="64" height="64"/>
</g>
</svg>
