<?xml version="1.0" encoding="utf-8"?>
<!-- Generator: Adobe Illustrator 18.1.1, SVG Export Plug-In . SVG Version: 6.00 Build 0)  -->
<svg version="1.1" xmlns="http://www.w3.org/2000/svg" xmlns:xlink="http://www.w3.org/1999/xlink" x="0px" y="0px"
	 viewBox="0 0 64 64" enable-background="new 0 0 64 64" xml:space="preserve">
<g id="Layer_2" display="none">
	
		<rect x="-280.8" y="-364.8" display="inline" fill="#00ACEC" stroke="#000000" stroke-miterlimit="10" width="434.7" height="584"/>
</g>
<g id="Layer_1">
	<g>
		<g>
			<g>
				<path fill="#363636" d="M32,46.2v9c0,0.6-0.4,1-1,1s-1-0.4-1-1v-9H32 M32,44.2h-2c-1.1,0-2,0.9-2,2v9c0,1.7,1.3,3,3,3s3-1.3,3-3
					v-9C34,45.1,33.1,44.2,32,44.2L32,44.2z"/>
			</g>
		</g>
		<path fill="none" stroke="#363636" stroke-width="2" stroke-linecap="round" stroke-linejoin="round" stroke-miterlimit="10" d="
			M31,9c-6.1,0-11,4.9-11,11v25h22V20C42,13.9,37.1,9,31,9z"/>
		<path fill="none" stroke="#363636" stroke-width="2" stroke-linecap="round" stroke-linejoin="round" stroke-miterlimit="10" d="
			M27,22c1.7,0,3,1.3,3,3v8c0,1.1,0.9,2,2,2c1.1,0,2-0.9,2-2v-7c0-1.1,0.9-2,2-2s2,0.9,2,2v2c0,1.1,0.9,2,2,2s2-0.9,2-2"/>
		<rect fill="none" width="64" height="64"/>
	</g>
</g>
</svg>
