<?xml version="1.0" encoding="utf-8"?>
<!-- Generator: Adobe Illustrator 18.1.1, SVG Export Plug-In . SVG Version: 6.00 Build 0)  -->
<svg version="1.1" id="Layer_1" xmlns="http://www.w3.org/2000/svg" xmlns:xlink="http://www.w3.org/1999/xlink" x="0px" y="0px"
	 viewBox="0 0 64 64" enable-background="new 0 0 64 64" xml:space="preserve">
<g>
	<path fill="none" stroke="#363636" stroke-width="2" stroke-linecap="round" stroke-linejoin="round" stroke-miterlimit="10" d="
		M30,27H14v16c0,1.7,1.3,3,3,3l0,0c1.1,0,2,0.9,2,2c0,1.1,0.9,2,2,2h9h9c1.1,0,2-0.9,2-2c0-1.1,0.9-2,2-2l0,0c1.7,0,3-1.3,3-3V27H30
		z"/>
	
		<line fill="#FFFFFF" stroke="#363636" stroke-width="2" stroke-linecap="round" stroke-linejoin="round" stroke-miterlimit="10" x1="8" y1="54" x2="52" y2="54"/>
	
		<circle fill="none" stroke="#363636" stroke-width="2" stroke-linecap="round" stroke-linejoin="round" stroke-miterlimit="10" cx="51.5" cy="36" r="5.5"/>
	<path fill="none" stroke="#363636" stroke-width="2" stroke-linecap="round" stroke-linejoin="round" stroke-miterlimit="10" d="
		M25.5,22c0,0-2.5-1.8-2.5-4s2.5-4,2.5-4s2.5-1.8,2.5-4s-2.5-4-2.5-4"/>
	<path fill="none" stroke="#363636" stroke-width="2" stroke-linecap="round" stroke-linejoin="round" stroke-miterlimit="10" d="
		M35.5,22c0,0-2.5-1.8-2.5-4s2.5-4,2.5-4s2.5-1.8,2.5-4s-2.5-4-2.5-4"/>
	<rect fill="none" width="64" height="64"/>
</g>
</svg>
