<?xml version="1.0" encoding="utf-8"?>
<!-- Generator: Adobe Illustrator 18.1.1, SVG Export Plug-In . SVG Version: 6.00 Build 0)  -->
<svg version="1.1" xmlns="http://www.w3.org/2000/svg" xmlns:xlink="http://www.w3.org/1999/xlink" x="0px" y="0px"
	 viewBox="0 0 64 64" enable-background="new 0 0 64 64" xml:space="preserve">
<g id="Layer_2" display="none">
	
		<rect x="-146.8" y="-502.5" display="inline" fill="#00ACEC" stroke="#000000" stroke-miterlimit="10" width="434.7" height="584"/>
</g>
<g id="Layer_1">
	<g>
		
			<circle fill="none" stroke="#363636" stroke-width="2" stroke-linecap="round" stroke-linejoin="round" stroke-miterlimit="10" cx="32" cy="32" r="25"/>
		
			<circle fill="none" stroke="#363636" stroke-width="2" stroke-linecap="round" stroke-linejoin="round" stroke-miterlimit="10" cx="32" cy="32" r="7"/>
		<path fill="none" stroke="#363636" stroke-width="2" stroke-linecap="round" stroke-linejoin="round" stroke-miterlimit="10" d="
			M21.2,17.7c0.1-0.1,0.3-0.2,0.4-0.3c1-0.8,1.8-1.9,2.7-2.8c1.6-1.5,3.6-2.7,5.8-2.8c2.2-0.1,4.6,1,5.4,3.1c0.6,1.6,1.7,3,3.2,3.9
			c1.8,1,3.8,0.7,5.8,1.1c4,0.8,7.2,4.8,6.5,9c-0.4,2.3-2.2,4.7-1.4,7.2c0.4,1.1,1.3,2,1.7,3c0.4,1.2,0.3,2.5-0.1,3.6
			c-1.1,2.6-3.9,4.4-6.7,4c-2-0.2-4-1.4-6-1c-3.5,0.8-4.7,6.1-8.8,5.3c-1.2-0.2-2.2-1-2.8-2.1c-0.4-0.9-0.6-1.9-1.1-2.7
			c-0.9-1.4-2.9-1.9-4.6-1.8c-1.7,0-3.5,0.3-5.1-0.2c-1.6-0.5-3-1.8-3.5-3.4s-0.3-3.4,0.6-4.8c0.8-1.2,2-2,2.6-3.4
			c0.6-1.6,0-3.4-0.7-4.9c-0.8-1.8-1.7-3.6-1.2-5.6c0.4-1.6,1.4-3.3,3-3.8c0.5-0.1,1.1-0.2,1.6-0.2C19.5,18.3,20.4,18.2,21.2,17.7z"
			/>
		<circle fill="#363636" cx="29.5" cy="17.5" r="1.5"/>
		<circle fill="#363636" cx="23.5" cy="25.5" r="1.5"/>
		<circle fill="#363636" cx="17.5" cy="38.5" r="1.5"/>
		<circle fill="#363636" cx="30.5" cy="43.5" r="1.5"/>
		<circle fill="#363636" cx="46.5" cy="41.5" r="1.5"/>
		<circle fill="#363636" cx="43.5" cy="26.5" r="1.5"/>
		<rect y="0" fill="none" width="64" height="64"/>
	</g>
</g>
</svg>
