<?xml version="1.0" encoding="utf-8"?>
<!-- Generator: Adobe Illustrator 18.1.1, SVG Export Plug-In . SVG Version: 6.00 Build 0)  -->
<svg version="1.1" xmlns="http://www.w3.org/2000/svg" xmlns:xlink="http://www.w3.org/1999/xlink" x="0px" y="0px"
	 viewBox="0 0 64 64" enable-background="new 0 0 64 64" xml:space="preserve">
<g id="Layer_2" display="none">
	
		<rect x="-146.8" y="-364.8" display="inline" fill="#00ACEC" stroke="#000000" stroke-miterlimit="10" width="434.7" height="584"/>
</g>
<g id="Layer_1">
	<g>
		<g>
			<path fill="#363636" d="M41,19v6h4.6c2.5,0,4.4,2,4.4,4.4v11.1c0,2.5-2,4.4-4.4,4.4H41v5.6c0,1.3-1.1,2.4-2.4,2.4H19.4
				c-1.3,0-2.4-1.1-2.4-2.4V19H41 M41,41h4.4c0.9,0,1.6-0.7,1.6-1.6v-8.8c0-0.9-0.7-1.6-1.6-1.6H41V41 M41,17H17c-1.1,0-2,0.9-2,2
				v31.6c0,2.4,2,4.4,4.4,4.4h19.1c2.4,0,4.4-2,4.4-4.4V47h2.6c3.5,0,6.4-2.9,6.4-6.4V29.4c0-3.5-2.9-6.4-6.4-6.4H43v-4
				C43,17.9,42.1,17,41,17L41,17z M43,31h2v8h-2V31L43,31z"/>
		</g>
		
			<path fill="#FFFFFF" stroke="#363636" stroke-width="2" stroke-linecap="round" stroke-linejoin="round" stroke-miterlimit="10" d="
			M22,46c0,1.7-1.3,3-3,3"/>
		
			<path fill="#FFFFFF" stroke="#363636" stroke-width="2" stroke-linecap="round" stroke-linejoin="round" stroke-miterlimit="10" d="
			M19,24c1.7,0,3,1.3,3,3"/>
		
			<path fill="#FFFFFF" stroke="#363636" stroke-width="2" stroke-linecap="round" stroke-linejoin="round" stroke-miterlimit="10" d="
			M36,27c0-1.7,1.3-3,3-3"/>
		
			<path fill="#FFFFFF" stroke="#363636" stroke-width="2" stroke-linecap="round" stroke-linejoin="round" stroke-miterlimit="10" d="
			M39,49c-1.7,0-3-1.3-3-3"/>
		<path fill="none" stroke="#363636" stroke-width="2" stroke-linecap="round" stroke-linejoin="round" stroke-miterlimit="10" d="
			M26,46c0,1.7,1.3,3,3,3s3-1.3,3-3"/>
		<path fill="none" stroke="#363636" stroke-width="2" stroke-linecap="round" stroke-linejoin="round" stroke-miterlimit="10" d="
			M32,27c0-1.7-1.3-3-3-3s-3,1.3-3,3"/>
		<rect fill="none" width="64" height="64"/>
		<path fill="none" stroke="#363636" stroke-width="2" stroke-linecap="round" stroke-linejoin="round" stroke-miterlimit="10" d="
			M42.1,19c2.2,0,1.9-1.8,1.9-4c0-2.2-1.8-4-4-4c-0.2,0-0.4,0-0.7,0.1C38.2,8.7,35.8,7,33,7c-1.2,0-2.3,0.3-3.3,0.8
			C29.3,6.7,28.2,6,27,6c-0.8,0-1.5,0.3-2,0.8C23.7,6.3,22.4,6,21,6c-5.5,0-10,4.5-10,10c0,0.3,0,1,0,1v19c0,2.8,2.2,5,5,5"/>
	</g>
</g>
</svg>
