<?xml version="1.0" encoding="utf-8"?>
<!-- Generator: Adobe Illustrator 18.1.1, SVG Export Plug-In . SVG Version: 6.00 Build 0)  -->
<svg version="1.1" xmlns="http://www.w3.org/2000/svg" xmlns:xlink="http://www.w3.org/1999/xlink" x="0px" y="0px"
	 viewBox="0 0 64 64" enable-background="new 0 0 64 64" xml:space="preserve">
<g id="Layer_2" display="none">
	
		<rect x="-213.8" y="-297.8" display="inline" fill="#00ACEC" stroke="#000000" stroke-miterlimit="10" width="434.7" height="584"/>
</g>
<g id="Layer_1">
	<g>
		
			<line fill="#FFFFFF" stroke="#363636" stroke-width="2" stroke-linecap="round" stroke-linejoin="round" stroke-miterlimit="10" x1="9" y1="48" x2="57" y2="48"/>
		
			<polyline fill="none" stroke="#363636" stroke-width="2" stroke-linecap="round" stroke-linejoin="round" stroke-miterlimit="10" points="
			15,44 51,44 51,29 		"/>
		
			<polyline fill="none" stroke="#363636" stroke-width="2" stroke-linecap="round" stroke-linejoin="round" stroke-miterlimit="10" points="
			51,25 51,21 15,21 		"/>
		<path fill="none" stroke="#363636" stroke-width="2" stroke-linecap="round" stroke-miterlimit="10" d="M47.3,35.9l-5-1.9l-5,1.9
			c-0.2,0.1-0.5,0.1-0.7,0l-5-1.9l-5,1.9c-0.1,0-0.2,0.1-0.3,0.1s-0.2,0-0.3-0.1l-5-1.9l-5,1.9"/>
		<path fill="none" stroke="#363636" stroke-width="2" stroke-linecap="round" stroke-miterlimit="10" d="M47.3,30.9l-5-1.9l-5,1.9
			c-0.2,0.1-0.5,0.1-0.7,0l-5-1.9l-5,1.9c-0.1,0-0.2,0.1-0.3,0.1s-0.2,0-0.3-0.1l-5-1.9l-5,1.9"/>
		
			<line fill="none" stroke="#363636" stroke-width="2" stroke-linecap="round" stroke-miterlimit="10" x1="16" y1="39" x2="16" y2="44"/>
		
			<line fill="none" stroke="#363636" stroke-width="2" stroke-linecap="round" stroke-miterlimit="10" x1="16" y1="21" x2="16" y2="27"/>
		
			<circle fill="none" stroke="#363636" stroke-width="2" stroke-linecap="round" stroke-miterlimit="10" cx="32" cy="17.5" r="3.5"/>
		<rect fill="none" width="64" height="64"/>
	</g>
</g>
</svg>
