<?xml version="1.0" encoding="utf-8"?>
<!-- Generator: Adobe Illustrator 18.1.1, SVG Export Plug-In . SVG Version: 6.00 Build 0)  -->
<svg version="1.1" id="Layer_1" xmlns="http://www.w3.org/2000/svg" xmlns:xlink="http://www.w3.org/1999/xlink" x="0px" y="0px"
	 viewBox="0 0 64 64" enable-background="new 0 0 64 64" xml:space="preserve">
<g>
	
		<line fill="none" stroke="#363636" stroke-width="2" stroke-linecap="round" stroke-miterlimit="10" x1="9" y1="43" x2="55" y2="43"/>
	
		<polyline fill="none" stroke="#363636" stroke-width="2" stroke-linecap="round" stroke-linejoin="round" stroke-miterlimit="10" points="
		11,46 15,50 35,50 39,46 43,50 49,50 53,46 	"/>
	<path fill="none" stroke="#363636" stroke-width="2" stroke-linecap="round" stroke-linejoin="round" stroke-miterlimit="10" d="
		M22,36c0,0,3-2.5,3-5.5S22,25,22,25s-3-2.5-3-5.5s3-5.5,3-5.5"/>
	<path fill="none" stroke="#363636" stroke-width="2" stroke-linecap="round" stroke-linejoin="round" stroke-miterlimit="10" d="
		M32,36c0,0,3-2.5,3-5.5S32,25,32,25s-3-2.5-3-5.5s3-5.5,3-5.5"/>
	<path fill="none" stroke="#363636" stroke-width="2" stroke-linecap="round" stroke-linejoin="round" stroke-miterlimit="10" d="
		M42,36c0,0,3-2.5,3-5.5S42,25,42,25s-3-2.5-3-5.5s3-5.5,3-5.5"/>
	<rect fill="none" width="64" height="64"/>
</g>
</svg>
