<?xml version="1.0" encoding="utf-8"?>
<!-- Generator: Adobe Illustrator 18.1.1, SVG Export Plug-In . SVG Version: 6.00 Build 0)  -->
<svg version="1.1" id="Layer_1" xmlns="http://www.w3.org/2000/svg" xmlns:xlink="http://www.w3.org/1999/xlink" x="0px" y="0px"
	 viewBox="0 0 64 64" enable-background="new 0 0 64 64" xml:space="preserve">
<g>
	<g>
		<path fill="#363636" d="M46,12c0,0,0.5,9.8-3.2,19c-3.1,7.6-3,17.8-2.9,21H40c0.6,0,1,0.4,1,1s-0.4,1-1,1H24c-0.6,0-1-0.4-1-1
			s0.4-1,1-1h0.1c0.1-3.2,0.2-13.4-2.9-21C17.5,21.8,18,12,18,12h14H46 M46,10H32H18c-1.1,0-1.9,0.8-2,1.9c0,0.4-0.5,10.4,3.3,19.8
			c2.6,6.5,2.8,15.1,2.8,18.9C21.4,51.2,21,52.1,21,53c0,1.7,1.3,3,3,3h16c1.7,0,3-1.3,3-3c0-0.9-0.4-1.8-1.1-2.3
			c-0.1-3.9,0.2-12.5,2.8-18.9c3.8-9.5,3.3-19.4,3.3-19.8C47.9,10.8,47,10,46,10L46,10z"/>
	</g>
	<path fill="none" stroke="#363636" stroke-width="2" stroke-linejoin="round" stroke-miterlimit="10" d="M26.4,28.2l-2.8-2.8
		c-0.8-0.8-0.8-2,0-2.8l2.8-2.8c0.8-0.8,2-0.8,2.8,0l2.8,2.8c0.8,0.8,0.8,2,0,2.8l-2.8,2.8C28.5,29,27.2,29,26.4,28.2z"/>
	<path fill="none" stroke="#363636" stroke-width="2" stroke-linecap="round" stroke-linejoin="round" stroke-miterlimit="10" d="
		M35,20h4c1.1,0,2,0.9,2,2v4c0,1.1-0.9,2-2,2h-4"/>
	<rect fill="none" width="64" height="64"/>
</g>
</svg>
