<?xml version="1.0" encoding="utf-8"?>
<!-- Generator: Adobe Illustrator 18.1.1, SVG Export Plug-In . SVG Version: 6.00 Build 0)  -->
<svg version="1.1" xmlns="http://www.w3.org/2000/svg" xmlns:xlink="http://www.w3.org/1999/xlink" x="0px" y="0px"
	 viewBox="0 0 64 64" enable-background="new 0 0 64 64" xml:space="preserve">
<g id="Layer_2" display="none">
	<rect x="-12.8" y="-431.8" display="inline" fill="#00ACEC" stroke="#000000" stroke-miterlimit="10" width="434.7" height="584"/>
</g>
<g id="Layer_1">
	<g>
		<g>
			<g>
				<path fill="#363636" d="M33.2,29.4l1.4,1.4L13.3,52.1l-1.4-1.4L33.2,29.4 M33.2,27.4c-0.5,0-1,0.2-1.4,0.6L10.5,49.3
					c-0.4,0.4-0.6,0.9-0.6,1.4c0,0.5,0.2,1,0.6,1.4l1.4,1.4c0.4,0.4,0.9,0.6,1.4,0.6c0.5,0,1-0.2,1.4-0.6L36,32.2
					c0.4-0.4,0.6-0.9,0.6-1.4c0-0.5-0.2-1-0.6-1.4L34.6,28C34.2,27.6,33.7,27.4,33.2,27.4L33.2,27.4z"/>
			</g>
		</g>
		<path fill="none" stroke="#363636" stroke-width="2" stroke-linecap="round" stroke-linejoin="round" stroke-miterlimit="10" d="
			M53.3,27.1L53.3,27.1c2.7-4.6,2.1-10.6-1.8-14.6s-10-4.6-14.6-1.8l0,0C35.8,9.5,34.2,9.8,33,11c-1.2,1.2-1.5,2.7-0.3,3.9l0,0
			c-2.7,4.6-2.1,10.6,1.8,14.6s10,4.6,14.6,1.8l0,0c1.2,1.2,2.7,0.9,3.9-0.3C54.2,29.8,54.5,28.2,53.3,27.1z"/>
		
			<line fill="#FFFFFF" stroke="#363636" stroke-width="2" stroke-linecap="round" stroke-linejoin="round" stroke-miterlimit="10" x1="39.5" y1="13.2" x2="50.8" y2="24.5"/>
		
			<line fill="#FFFFFF" stroke="#363636" stroke-width="2" stroke-linecap="round" stroke-linejoin="round" stroke-miterlimit="10" x1="35.2" y1="17.5" x2="46.5" y2="28.8"/>
		<rect x="0" fill="none" width="64" height="64"/>
	</g>
</g>
</svg>
