<?xml version="1.0" encoding="utf-8"?>
<!-- Generator: Adobe Illustrator 18.1.1, SVG Export Plug-In . SVG Version: 6.00 Build 0)  -->
<svg version="1.1" id="Layer_1" xmlns="http://www.w3.org/2000/svg" xmlns:xlink="http://www.w3.org/1999/xlink" x="0px" y="0px"
	 viewBox="0 0 64 64" enable-background="new 0 0 64 64" xml:space="preserve">
<g>
	<circle fill="none" stroke="#363636" stroke-width="2" stroke-miterlimit="10" cx="30" cy="10" r="2"/>
	<path fill="none" stroke="#363636" stroke-width="2" stroke-miterlimit="10" d="M43,20v31c0,2.2-1.8,4-4,4H21c-2.2,0-4-1.8-4-4
		c0,0,0-23.2,0-26s-3-5-3-5"/>
	<path fill="none" stroke="#363636" stroke-width="2" stroke-miterlimit="10" d="M21,49v-2h18v2c0,1.1-0.9,2-2,2H23
		C21.9,51,21,50.1,21,49z"/>
	<path fill="none" stroke="#363636" stroke-width="2" stroke-miterlimit="10" d="M30,12c-8.8,0-13,3.4-13,4v1h26v-1
		C43,15.4,38.8,12,30,12z"/>
	<line fill="none" stroke="#363636" stroke-width="2" stroke-miterlimit="10" x1="30" y1="21" x2="30" y2="46"/>
	<path fill="none" stroke="#363636" stroke-width="2" stroke-miterlimit="10" d="M46,25h2c1.1,0,2,0.9,2,2v13c0,1.1-0.9,2-2,2h-2"/>
	<rect fill="none" width="64" height="64"/>
</g>
<g>
	<rect x="-72.9" y="61.1" fill="none" width="75.7" height="75.7"/>
</g>
</svg>
