<?xml version="1.0" encoding="utf-8"?>
<!-- Generator: Adobe Illustrator 18.1.1, SVG Export Plug-In . SVG Version: 6.00 Build 0)  -->
<svg version="1.1" id="Layer_1" xmlns="http://www.w3.org/2000/svg" xmlns:xlink="http://www.w3.org/1999/xlink" x="0px" y="0px"
	 viewBox="0 0 64 64" enable-background="new 0 0 64 64" xml:space="preserve">
<g>
	<path fill="none" stroke="#363636" stroke-width="2" stroke-linecap="round" stroke-linejoin="round" stroke-miterlimit="10" d="
		M41.6,34.8c7-4,12.6-11.6,14.6-19.1c1.2-4.4-2.6-6.5-5.2-3.8l-16,16"/>
	<path fill="none" stroke="#363636" stroke-width="2" stroke-linecap="round" stroke-linejoin="round" stroke-miterlimit="10" d="
		M26,36.8L13.3,49.5c-1.4,1.4-1.2,3.7,0.3,5.3l0.7,0.7c1.7,1.7,4.2,1.7,5.5,0.1L31,41.8"/>
	<g>
		<path fill="none" stroke="#363636" stroke-width="2" stroke-linecap="round" stroke-linejoin="round" stroke-miterlimit="10" d="
			M7.1,17.5c5.3,10.1,13.1,16.6,17.7,12l22.2,25c1.5,1.8,4.2,1.9,5.9,0.2l0,0c1.7-1.7,1.6-4.4-0.2-5.9l-25-22.2
			c4.6-4.6-1.9-12.4-12-17.7"/>
		
			<line fill="#FFFFFF" stroke="#363636" stroke-width="2" stroke-linecap="round" stroke-linejoin="round" stroke-miterlimit="10" x1="9.9" y1="14.7" x2="19.1" y2="23.8"/>
		
			<line fill="#FFFFFF" stroke="#363636" stroke-width="2" stroke-linecap="round" stroke-linejoin="round" stroke-miterlimit="10" x1="12.8" y1="11.8" x2="22" y2="21"/>
	</g>
	<rect fill="none" width="64" height="64"/>
</g>
</svg>
