<?xml version="1.0" encoding="utf-8"?>
<!-- Generator: Adobe Illustrator 18.1.1, SVG Export Plug-In . SVG Version: 6.00 Build 0)  -->
<svg version="1.1" id="Layer_1" xmlns="http://www.w3.org/2000/svg" xmlns:xlink="http://www.w3.org/1999/xlink" x="0px" y="0px"
	 viewBox="0 0 64 64" enable-background="new 0 0 64 64" xml:space="preserve">
<g>
	<path fill="none" stroke="#363636" stroke-width="2" stroke-linecap="round" stroke-miterlimit="10" d="M49.8,7.1H32H14.2
		c0,0-3.6,10.4-3.6,21.3c0,11.8,9.5,21.3,21.3,21.3s21.3-9.5,21.3-21.3C53.3,17.5,49.8,7.1,49.8,7.1z"/>
	<path fill="none" stroke="#363636" stroke-width="2" stroke-linecap="round" stroke-miterlimit="10" d="M46,28.4
		c1.5,0,2.6,1.3,2.3,2.8C47,39,40.2,45,32,45s-15-6-16.3-13.8c-0.2-1.4,0.9-2.8,2.3-2.8H46z"/>
	
		<line fill="none" stroke="#363636" stroke-width="2" stroke-linecap="round" stroke-miterlimit="10" x1="32" y1="49.8" x2="32" y2="58"/>
	
		<line fill="none" stroke="#363636" stroke-width="2" stroke-linecap="round" stroke-miterlimit="10" x1="13.1" y1="58" x2="50.9" y2="58"/>
	<rect x="-5.9" y="-5.9" fill="none" width="75.7" height="75.7"/>
</g>
<g>
	<rect x="-5.9" y="61.1" fill="none" width="75.7" height="75.7"/>
</g>
</svg>
