<?xml version="1.0" encoding="utf-8"?>
<!-- Generator: Adobe Illustrator 18.1.1, SVG Export Plug-In . SVG Version: 6.00 Build 0)  -->
<svg version="1.1" id="Layer_1" xmlns="http://www.w3.org/2000/svg" xmlns:xlink="http://www.w3.org/1999/xlink" x="0px" y="0px"
	 viewBox="0 0 64 64" enable-background="new 0 0 64 64" xml:space="preserve">
<g>
	<g>
		<g>
			<path fill="#363636" d="M51.6,31c0.6,0,1,0.4,1,1s-0.4,1-1,1H12.4c-0.6,0-1-0.4-1-1s0.4-1,1-1H51.6 M51.6,29H12.4
				c-1.7,0-3,1.3-3,3s1.3,3,3,3h39.2c1.7,0,3-1.3,3-3S53.2,29,51.6,29L51.6,29z"/>
		</g>
	</g>
	
		<line fill="none" stroke="#363636" stroke-width="2" stroke-linecap="round" stroke-linejoin="round" stroke-miterlimit="10" x1="11" y1="26" x2="53" y2="26"/>
	<g>
		<path fill="none" stroke="#363636" stroke-width="2" stroke-linecap="round" stroke-linejoin="round" stroke-miterlimit="10" d="
			M11,37.5c2.6,0,2.6,1,5.2,1c2.6,0,2.6-1,5.2-1c2.6,0,2.6,1,5.2,1c2.6,0,2.6-1,5.2-1c2.6,0,2.6,1,5.2,1c2.6,0,2.6-1,5.3-1
			c2.6,0,2.6,1,5.3,1s2.6-1,5.3-1"/>
	</g>
	<path fill="none" stroke="#363636" stroke-width="2" stroke-linecap="round" stroke-linejoin="round" stroke-miterlimit="10" d="
		M49,48H15c-2.2,0-4-1.8-4-4v-2h42v2C53,46.2,51.2,48,49,48z"/>
	<path fill="none" stroke="#363636" stroke-width="2" stroke-linecap="round" stroke-linejoin="round" stroke-miterlimit="10" d="
		M53,26H11v-2c0-4.4,3.6-8,8-8h26c4.4,0,8,3.6,8,8V26z"/>
	<rect fill="none" width="64" height="64"/>
</g>
<g>
	<rect x="-5.9" y="61.1" fill="none" width="75.7" height="75.7"/>
</g>
</svg>
