<?xml version="1.0" encoding="utf-8"?>
<!-- Generator: Adobe Illustrator 18.1.1, SVG Export Plug-In . SVG Version: 6.00 Build 0)  -->
<svg version="1.1" id="Layer_1" xmlns="http://www.w3.org/2000/svg" xmlns:xlink="http://www.w3.org/1999/xlink" x="0px" y="0px"
	 viewBox="0 0 64 64" enable-background="new 0 0 64 64" xml:space="preserve">
<g>
	<path fill="none" stroke="#363636" stroke-width="2" stroke-linecap="round" stroke-miterlimit="10" d="M23,15.3"/>
	<path fill="none" stroke="#363636" stroke-width="2" stroke-linecap="round" stroke-miterlimit="10" d="M23,15.3
		c0.1-5.1,4.3-9.3,9.5-9.3c4.9,0,9,3.8,9.5,8.6"/>
	<polygon fill="none" stroke="#363636" stroke-width="2" stroke-linecap="round" stroke-miterlimit="10" points="19,29 32,58 45,29 
		32,29 	"/>
	<path fill="none" stroke="#363636" stroke-width="2" stroke-linecap="round" stroke-miterlimit="10" d="M42,14.6c3,1.6,5,4.8,5,8.4
		c0,1-0.2,2.1-0.5,3"/>
	<path fill="none" stroke="#363636" stroke-width="2" stroke-linecap="round" stroke-miterlimit="10" d="M30.2,16.9
		c1.7-2.1,4.4-3.4,7.3-3.4c1.6,0,3.1,0.4,4.5,1.1"/>
	<path fill="none" stroke="#363636" stroke-width="2" stroke-linecap="round" stroke-miterlimit="10" d="M30.2,16.9"/>
	<path fill="none" stroke="#363636" stroke-width="2" stroke-linecap="round" stroke-miterlimit="10" d="M32.4,26
		c0.4-0.9,0.6-1.9,0.6-3c0-2.4-1.1-4.6-2.8-6.1"/>
	<path fill="none" stroke="#363636" stroke-width="2" stroke-linecap="round" stroke-miterlimit="10" d="M30.2,16.9
		C28.8,15.7,27,15,25,15c-0.7,0-1.4,0.1-2,0.3"/>
	<path fill="none" stroke="#363636" stroke-width="2" stroke-linecap="round" stroke-miterlimit="10" d="M23,15.3
		c-3.5,0.9-6,4-6,7.7c0,1.1,0.2,2.1,0.6,3"/>
</g>
</svg>
