<?xml version="1.0" encoding="utf-8"?>
<!-- Generator: Adobe Illustrator 18.1.1, SVG Export Plug-In . SVG Version: 6.00 Build 0)  -->
<svg version="1.1" xmlns="http://www.w3.org/2000/svg" xmlns:xlink="http://www.w3.org/1999/xlink" x="0px" y="0px"
	 viewBox="0 0 64 64" enable-background="new 0 0 64 64" xml:space="preserve">
<g id="Layer_2" display="none">
	
		<rect x="-146.8" y="-297.8" display="inline" fill="#00ACEC" stroke="#000000" stroke-miterlimit="10" width="434.7" height="584"/>
</g>
<g id="Layer_1">
	<g>
		<path fill="none" stroke="#363636" stroke-width="2" stroke-linecap="round" stroke-linejoin="round" stroke-miterlimit="10" d="
			M46.8,35.6c1.1,0,3.4,0.6,4,1.6c0.8,1.3,2.3,2.2,4,2c1.7-0.2,3.1-1.6,3.4-3.4c0.2-1.5-0.5-2.9-1.6-3.7c1.1-0.8,1.8-2.2,1.6-3.7
			c-0.2-1.7-1.6-3.1-3.4-3.4c-1.7-0.2-3.2,0.6-4,2c-0.5,0.9-2.9,1.6-4,1.6"/>
		<path fill="none" stroke="#363636" stroke-width="2" stroke-linecap="round" stroke-linejoin="round" stroke-miterlimit="10" d="
			M17.2,28.4c-1.1,0-3-0.6-3.5-1.6c-0.8-1.3-2.3-2.2-4-2c-1.7,0.2-3.1,1.6-3.4,3.4C6.1,29.8,6.8,31.2,8,32c-1.1,0.8-1.8,2.2-1.6,3.7
			c0.2,1.7,1.6,3.1,3.4,3.4c1.7,0.2,3.2-0.6,4-2c0.5-0.9,2.4-1.6,3.5-1.6"/>
		<path fill="none" stroke="#363636" stroke-width="2" stroke-linecap="round" stroke-linejoin="round" stroke-miterlimit="10" d="
			M41.2,46.4L41.2,46.4c-4.5,0.6-13.9,0.6-18.3,0l0,0c-3.3-0.5-5.7-2.8-5.7-5.5V23.1c0-2.7,2.4-5.1,5.7-5.5l0,0
			c4.5-0.6,13.9-0.6,18.3,0l0,0c3.3,0.5,5.7,2.8,5.7,5.5v17.9C46.8,43.7,44.4,46,41.2,46.4z"/>
		<rect x="3" y="3" fill="none" width="58" height="58"/>
	</g>
</g>
</svg>
