<?xml version="1.0" encoding="utf-8"?>
<!-- Generator: Adobe Illustrator 18.1.1, SVG Export Plug-In . SVG Version: 6.00 Build 0)  -->
<svg version="1.1" id="Layer_1" xmlns="http://www.w3.org/2000/svg" xmlns:xlink="http://www.w3.org/1999/xlink" x="0px" y="0px"
	 viewBox="0 0 64 64" enable-background="new 0 0 64 64" xml:space="preserve">
<g>
	<path fill="none" stroke="#363636" stroke-width="2" stroke-linecap="round" stroke-linejoin="round" stroke-miterlimit="10" d="
		M37,38.1V35H27v3.1c0,2.4-0.7,4.7-2,6.7c-1.2,1.8-1.8,4-1.3,6.4c0.7,3.6,3.7,6.4,7.3,6.8c5.1,0.6,9.5-3.4,9.5-8.4
		c0-1.7-0.5-3.4-1.4-4.7C37.7,42.8,37,40.5,37,38.1z"/>
	<path fill="none" stroke="#363636" stroke-width="2" stroke-linecap="round" stroke-linejoin="round" stroke-miterlimit="10" d="
		M52.5,23.7c-3.5-1.5-6.3-4.3-7.9-7.7C42.4,11.3,37.6,8,32,8c-5.6,0-10.4,3.3-12.7,8.1c-1.6,3.4-4.4,6.2-7.9,7.7
		C8,25.2,6,27.1,6,29.2C6,34,17.6,35,32,35s26-1,26-5.8C58,27.1,56,25.2,52.5,23.7z"/>
	<rect fill="none" width="64" height="64"/>
</g>
</svg>
