<?xml version="1.0" encoding="utf-8"?>
<!-- Generator: Adobe Illustrator 18.1.1, SVG Export Plug-In . SVG Version: 6.00 Build 0)  -->
<svg version="1.1" xmlns="http://www.w3.org/2000/svg" xmlns:xlink="http://www.w3.org/1999/xlink" x="0px" y="0px"
	 viewBox="0 0 64 64" enable-background="new 0 0 64 64" xml:space="preserve">
<g id="Layer_2" display="none">
	
		<rect x="-347.8" y="-297.8" display="inline" fill="#00ACEC" stroke="#000000" stroke-miterlimit="10" width="434.7" height="584"/>
</g>
<g id="Layer_1">
	<g>
		<circle fill="none" stroke="#363636" stroke-width="2" stroke-miterlimit="10" cx="25" cy="43" r="8"/>
		<path fill="none" stroke="#363636" stroke-width="2" stroke-miterlimit="10" d="M31.5,38.4c1.5-2,3.8-3.4,6.5-3.4c4.4,0,8,3.6,8,8
			s-3.6,8-8,8c-2.7,0-5.1-1.4-6.6-3.4"/>
		<path fill="none" stroke="#363636" stroke-width="2" stroke-linecap="round" stroke-linejoin="round" stroke-miterlimit="10" d="
			M32,19c0,0,3.4,6,10,6s10-6,10-6s-3.4-6-10-6S32,19,32,19z"/>
		
			<line fill="none" stroke="#363636" stroke-width="2" stroke-linecap="round" stroke-linejoin="round" stroke-miterlimit="10" x1="22" y1="19" x2="42" y2="19"/>
		<path fill="none" stroke="#363636" stroke-width="2" stroke-linecap="round" stroke-linejoin="round" stroke-miterlimit="10" d="
			M32,19c0,0-3.4,6-10,6s-10-6-10-6s3.4-6,10-6S32,19,32,19z"/>
		<rect fill="none" width="64" height="64"/>
		
			<polyline fill="none" stroke="#363636" stroke-width="2" stroke-linecap="round" stroke-linejoin="round" stroke-miterlimit="10" points="
			27.2,35.2 32,19 36,35.3 		"/>
	</g>
</g>
</svg>
