<?xml version="1.0" encoding="utf-8"?>
<!-- Generator: Adobe Illustrator 18.1.1, SVG Export Plug-In . SVG Version: 6.00 Build 0)  -->
<svg version="1.1" xmlns="http://www.w3.org/2000/svg" xmlns:xlink="http://www.w3.org/1999/xlink" x="0px" y="0px"
	 viewBox="0 0 64 64" enable-background="new 0 0 64 64" xml:space="preserve">
<g id="Layer_2" display="none">
	
		<rect x="-280.8" y="-230.8" display="inline" fill="#00ACEC" stroke="#000000" stroke-miterlimit="10" width="434.7" height="584"/>
</g>
<g id="Layer_1">
	<g>
		<rect x="-5.9" y="-72.9" fill="none" width="75.7" height="75.7"/>
	</g>
	<g>
		
			<rect x="16" y="44" fill="none" stroke="#363636" stroke-width="2" stroke-linecap="round" stroke-linejoin="round" stroke-miterlimit="10" width="32" height="12"/>
		<path fill="none" stroke="#363636" stroke-width="2" stroke-linecap="round" stroke-linejoin="round" stroke-miterlimit="10" d="
			M47,12c-2.1,0-4,0.8-5.4,2.1C40.3,10,36.5,7,32,7s-8.3,3-9.6,7.1C21,12.8,19.1,12,17,12c-4.4,0-8,3.6-8,8s3.6,8,8,8
			c3.2,0,6-1.9,7.3-4.7c1.8,2.2,4.6,3.7,7.7,3.7s5.9-1.4,7.7-3.7c1.3,2.8,4,4.7,7.3,4.7c4.4,0,8-3.6,8-8S51.4,12,47,12z"/>
		
			<line fill="none" stroke="#363636" stroke-width="2" stroke-linecap="round" stroke-linejoin="round" stroke-miterlimit="10" x1="18" y1="31" x2="18" y2="44"/>
		
			<line fill="none" stroke="#363636" stroke-width="2" stroke-linecap="round" stroke-linejoin="round" stroke-miterlimit="10" x1="46" y1="31" x2="46" y2="44"/>
		<rect fill="none" width="64" height="64"/>
	</g>
</g>
</svg>
