<?xml version="1.0" encoding="utf-8"?>
<!-- Generator: Adobe Illustrator 18.1.1, SVG Export Plug-In . SVG Version: 6.00 Build 0)  -->
<svg version="1.1" id="Layer_1" xmlns="http://www.w3.org/2000/svg" xmlns:xlink="http://www.w3.org/1999/xlink" x="0px" y="0px"
	 viewBox="0 0 64 64" enable-background="new 0 0 64 64" xml:space="preserve">
<g>
	<path fill="none" stroke="#363636" stroke-width="2" stroke-linecap="round" stroke-linejoin="round" stroke-miterlimit="10" d="
		M32,15H13l1.4,15c0,0,3.2,1.9,3.7,7c0.6,5.1,1.9,14,1.9,14h12h12c0,0,1.3-8.9,1.9-14c0.6-5.1,3.7-7,3.7-7L51,15H32z"/>
	<g>
		<path fill="#363636" d="M40,43v2H24v-2H40 M40,41H24c-1.1,0-2,0.9-2,2v2c0,1.1,0.9,2,2,2h16c1.1,0,2-0.9,2-2v-2
			C42,41.9,41.1,41,40,41L40,41z"/>
	</g>
	<path fill="none" stroke="#363636" stroke-width="2" stroke-linecap="round" stroke-linejoin="round" stroke-miterlimit="10" d="
		M27,34c0-2.2,2.2-4,5-4s5,1.8,5,4"/>
	<path fill="none" stroke="#363636" stroke-width="2" stroke-linecap="round" stroke-linejoin="round" stroke-miterlimit="10" d="
		M41,34c0-2.2,1.2-4,4-4"/>
	<path fill="none" stroke="#363636" stroke-width="2" stroke-linecap="round" stroke-linejoin="round" stroke-miterlimit="10" d="
		M19,30c2.8,0,4,1.8,4,4"/>
	<rect fill="none" width="64" height="64"/>
</g>
<g>
	<rect x="61.1" y="61.1" fill="none" width="75.7" height="75.7"/>
</g>
</svg>
