<?xml version="1.0" encoding="utf-8"?>
<!-- Generator: Adobe Illustrator 18.1.1, SVG Export Plug-In . SVG Version: 6.00 Build 0)  -->
<svg version="1.1" xmlns="http://www.w3.org/2000/svg" xmlns:xlink="http://www.w3.org/1999/xlink" x="0px" y="0px"
	 viewBox="0 0 64 64" enable-background="new 0 0 64 64" xml:space="preserve">
<g id="Layer_2" display="none">
	<rect x="-79.8" y="-431.8" display="inline" fill="#00ACEC" stroke="#000000" stroke-miterlimit="10" width="434.7" height="584"/>
</g>
<g id="Layer_1">
	<g>
		
			<polygon fill="none" stroke="#363636" stroke-width="2" stroke-linecap="round" stroke-linejoin="round" stroke-miterlimit="10" points="
			41,55 23,55 21,44 43,44 		"/>
		<path fill="none" stroke="#363636" stroke-width="2" stroke-linecap="round" stroke-linejoin="round" stroke-miterlimit="10" d="
			M43.2,44H20.8c-2.2,0-3.7-1.9-4-4.1L16,35h32l-1,5C46.8,42.2,45.3,44,43.2,44z"/>
		<path fill="none" stroke="#363636" stroke-width="2" stroke-linecap="round" stroke-linejoin="round" stroke-miterlimit="10" d="
			M18,35c-3-4.4-0.2-10.1,3.5-11.3c-0.9-4.6,1.3-8.3,5.2-9.6c2.9-0.9,4.3-4,4.4-6.1c7.9,1.6,8.9,9.4,8.7,10.5
			c5.1,1.4,8.9,8.7,5.2,16.5"/>
		<path fill="none" stroke="#363636" stroke-width="2" stroke-linecap="round" stroke-linejoin="round" stroke-miterlimit="10" d="
			M25,25c3.1,1.2,8.6,0,12-3"/>
		<rect fill="none" width="64" height="64"/>
	</g>
</g>
</svg>
