<?xml version="1.0" encoding="utf-8"?>
<!-- Generator: Adobe Illustrator 18.1.1, SVG Export Plug-In . SVG Version: 6.00 Build 0)  -->
<svg version="1.1" id="Layer_1" xmlns="http://www.w3.org/2000/svg" xmlns:xlink="http://www.w3.org/1999/xlink" x="0px" y="0px"
	 viewBox="0 0 64 64" enable-background="new 0 0 64 64" xml:space="preserve">
<g>
	<rect x="-72.9" y="-5.9" fill="none" width="75.7" height="75.7"/>
</g>
<g>
	<path fill="none" stroke="#363636" stroke-width="2" stroke-linecap="round" stroke-linejoin="round" stroke-miterlimit="10" d="
		M21.9,34.9l-3.2,3.2c-1.1,1.1-2.6,1.4-4.1,1c-2.1-0.6-4.4,0.1-5.9,2c-1.5,1.9-1.5,4.7,0,6.7c1.3,1.7,3.4,2.4,5.3,2.1
		c-0.3,1.9,0.4,4,2.1,5.3c1.9,1.5,4.7,1.5,6.7,0c1.9-1.5,2.6-3.8,2-5.9c-0.4-1.5-0.1-3,1-4.1L29,42"/>
	<path fill="none" stroke="#363636" stroke-width="2" stroke-linecap="round" stroke-linejoin="round" stroke-miterlimit="10" d="
		M51.6,33.6c6-6,5.9-15.9-0.5-21.7C45.3,6.7,36.4,6.7,30.8,12c-3.7,3.4-5.2,8.2-4.7,12.8c0.3,2.5-0.5,5-2.3,6.8l-2.9,2.9l2.8,1.4
		l1.4,2.8l2.8,1.4l1.4,2.8l2.9-2.9c1.8-1.8,4.3-2.6,6.9-2.3C43.6,38.4,48.2,37,51.6,33.6z"/>
	<circle fill="#363636" cx="49" cy="20" r="2"/>
	<circle fill="#363636" cx="47.1" cy="28.2" r="2"/>
	<rect fill="none" width="64" height="64"/>
</g>
<g>
	<rect x="-72.9" y="61.1" fill="none" width="75.7" height="75.7"/>
</g>
</svg>
