<?xml version="1.0" encoding="utf-8"?>
<!-- Generator: Adobe Illustrator 18.1.1, SVG Export Plug-In . SVG Version: 6.00 Build 0)  -->
<svg version="1.1" xmlns="http://www.w3.org/2000/svg" xmlns:xlink="http://www.w3.org/1999/xlink" x="0px" y="0px"
	 viewBox="0 0 64 64" enable-background="new 0 0 64 64" xml:space="preserve">
<g id="Layer_2" display="none">
	<rect x="-12.8" y="-297.8" display="inline" fill="#00ACEC" stroke="#000000" stroke-miterlimit="10" width="434.7" height="584"/>
</g>
<g id="Layer_1">
	<g>
		<path fill="none" stroke="#363636" stroke-width="2" stroke-linecap="round" stroke-linejoin="round" stroke-miterlimit="10" d="
			M37,17.2V10H27v7.2c0,1.6-1.2,3-2.8,3.3L21,21c-3.4,0.6-6,3.5-6,7v24c0,1.1,0.9,2,2,2h30c1.1,0,2-0.9,2-2V28c0-3.5-2.5-6.5-6-7
			l-3.3-0.5C38.2,20.2,37,18.8,37,17.2z"/>
		
			<rect x="26" y="9" fill="none" stroke="#363636" stroke-width="2" stroke-linecap="round" stroke-linejoin="round" stroke-miterlimit="10" width="12" height="6"/>
		<path fill="none" stroke="#363636" stroke-width="2" stroke-linecap="round" stroke-linejoin="round" stroke-miterlimit="10" d="
			M27.1,36.9c-2.7-2.7-2.7-7.2,0-9.9s7.2-2.7,9.9,0s2.7,7.2,0,9.9"/>
		<circle fill="#363636" cx="29.5" cy="32.4" r="1.5"/>
		<circle fill="#363636" cx="34.5" cy="32.4" r="1.5"/>
		
			<line fill="none" stroke="#363636" stroke-width="2" stroke-linecap="round" stroke-linejoin="round" stroke-miterlimit="10" x1="30" y1="37.9" x2="30" y2="39.9"/>
		
			<line fill="none" stroke="#363636" stroke-width="2" stroke-linecap="round" stroke-linejoin="round" stroke-miterlimit="10" x1="34" y1="37.9" x2="34" y2="39.9"/>
		
			<line fill="none" stroke="#363636" stroke-width="2" stroke-linecap="round" stroke-linejoin="round" stroke-miterlimit="10" x1="23" y1="42" x2="41" y2="49"/>
		
			<line fill="none" stroke="#363636" stroke-width="2" stroke-linecap="round" stroke-linejoin="round" stroke-miterlimit="10" x1="41" y1="42" x2="23" y2="49"/>
		<rect x="0" fill="none" width="64" height="64"/>
	</g>
</g>
</svg>
