<?xml version="1.0" encoding="utf-8"?>
<!-- Generator: Adobe Illustrator 18.1.1, SVG Export Plug-In . SVG Version: 6.00 Build 0)  -->
<svg version="1.1" id="Layer_1" xmlns="http://www.w3.org/2000/svg" xmlns:xlink="http://www.w3.org/1999/xlink" x="0px" y="0px"
	 viewBox="0 0 64 64" enable-background="new 0 0 64 64" xml:space="preserve">
<g>
	<circle fill="none" stroke="#363636" stroke-width="2" stroke-miterlimit="10" cx="32" cy="41" r="2"/>
	
		<polyline fill="none" stroke="#363636" stroke-width="2" stroke-linecap="round" stroke-linejoin="round" stroke-miterlimit="10" points="
		59,25 46,28 43,54 21,54 18,28 5,25 	"/>
	
		<line fill="none" stroke="#363636" stroke-width="2" stroke-linecap="round" stroke-linejoin="round" stroke-miterlimit="10" x1="22" y1="28" x2="42" y2="28"/>
	<path fill="none" stroke="#363636" stroke-width="2" stroke-linecap="round" stroke-linejoin="round" stroke-miterlimit="10" d="
		M24.5,22c0,0-2.5-1.8-2.5-4s2.5-4,2.5-4s2.5-1.8,2.5-4s-2.5-4-2.5-4"/>
	<path fill="none" stroke="#363636" stroke-width="2" stroke-linecap="round" stroke-linejoin="round" stroke-miterlimit="10" d="
		M32.5,22c0,0-2.5-1.8-2.5-4s2.5-4,2.5-4s2.5-1.8,2.5-4s-2.5-4-2.5-4"/>
	<path fill="none" stroke="#363636" stroke-width="2" stroke-linecap="round" stroke-linejoin="round" stroke-miterlimit="10" d="
		M40.5,22c0,0-2.5-1.8-2.5-4s2.5-4,2.5-4s2.5-1.8,2.5-4s-2.5-4-2.5-4"/>
	<rect fill="none" width="64" height="64"/>
</g>
<g>
	<rect x="61.1" y="-5.9" fill="none" width="75.7" height="75.7"/>
</g>
<g>
	<rect x="61.1" y="61.1" fill="none" width="75.7" height="75.7"/>
</g>
</svg>
