<?xml version="1.0" encoding="utf-8"?>
<!-- Generator: Adobe Illustrator 18.1.1, SVG Export Plug-In . SVG Version: 6.00 Build 0)  -->
<svg version="1.1" xmlns="http://www.w3.org/2000/svg" xmlns:xlink="http://www.w3.org/1999/xlink" x="0px" y="0px"
	 viewBox="0 0 64 64" enable-background="new 0 0 64 64" xml:space="preserve">
<g id="Layer_2" display="none">
	<rect x="-79.8" y="-297.8" display="inline" fill="#00ACEC" stroke="#000000" stroke-miterlimit="10" width="434.7" height="584"/>
</g>
<g id="Layer_1">
	<g>
		
			<circle fill="none" stroke="#363636" stroke-width="2" stroke-linecap="round" stroke-linejoin="round" stroke-miterlimit="10" cx="32.5" cy="31.5" r="25.5"/>
		<g>
			<path fill="none" stroke="#363636" stroke-width="2" stroke-linecap="round" stroke-linejoin="round" stroke-miterlimit="10" d="
				M45.3,21.1c-3-3.7-7.6-6.1-12.8-6.1c-6,0-11.3,3.2-14.2,8.1"/>
			<path fill="none" stroke="#363636" stroke-width="2" stroke-linecap="round" stroke-linejoin="round" stroke-miterlimit="10" d="
				M18.3,39.9c2.9,4.8,8.1,8.1,14.2,8.1c5,0,9.5-2.2,12.5-5.8"/>
		</g>
		<path fill="none" stroke="#363636" stroke-width="2" stroke-linecap="round" stroke-linejoin="round" stroke-miterlimit="10" d="
			M36,22c-8,0-14.1,4.2-16,7l-6-6v17l6-6c1.9,2.8,8,7,16,7c11.9,0,16-9,16-9S47.9,22,36,22z"/>
		
			<line fill="none" stroke="#363636" stroke-width="2" stroke-linecap="round" stroke-linejoin="round" stroke-miterlimit="10" x1="42" y1="30" x2="45" y2="33"/>
		
			<line fill="none" stroke="#363636" stroke-width="2" stroke-linecap="round" stroke-linejoin="round" stroke-miterlimit="10" x1="45" y1="30" x2="42" y2="33"/>
		
			<polyline fill="none" stroke="#363636" stroke-width="2" stroke-linecap="round" stroke-linejoin="round" stroke-miterlimit="10" points="
			36,30 31,28 31,35 36,33 		"/>
		<rect fill="none" width="64" height="64"/>
	</g>
</g>
</svg>
