<?xml version="1.0" encoding="utf-8"?>
<!-- Generator: Adobe Illustrator 18.1.1, SVG Export Plug-In . SVG Version: 6.00 Build 0)  -->
<svg version="1.1" xmlns="http://www.w3.org/2000/svg" xmlns:xlink="http://www.w3.org/1999/xlink" x="0px" y="0px"
	 viewBox="0 0 64 64" enable-background="new 0 0 64 64" xml:space="preserve">
<g id="Layer_2" display="none">
	<rect x="-37" y="-334.5" display="inline" fill="#84C9F3" stroke="#000000" stroke-miterlimit="10" width="485" height="560"/>
</g>
<g id="Layer_1">
	<g>
		<path fill="none" stroke="#363636" stroke-width="2" stroke-linecap="round" stroke-linejoin="round" stroke-miterlimit="10" d="
			M38.3,29H26c-2.2,0-4-1.8-4-4V12c0-2.2,1.8-4,4-4h12.3c2.2,0,3.7,1.8,3.7,4v13C42,27.2,40.5,29,38.3,29z"/>
		<path fill="none" stroke="#363636" stroke-width="2" stroke-linecap="round" stroke-linejoin="round" stroke-miterlimit="10" d="
			M26,53H13c-2.2,0-4-1.8-4-4V37c0-2.2,1.8-4,4-4h13c2.2,0,4,1.8,4,4v12C30,51.2,28.2,53,26,53z"/>
		<path fill="none" stroke="#363636" stroke-width="2" stroke-linecap="round" stroke-linejoin="round" stroke-miterlimit="10" d="
			M51,53H38c-2.2,0-4-1.8-4-4V37c0-2.2,1.8-4,4-4h13c2.2,0,4,1.8,4,4v12C55,51.2,53.2,53,51,53z"/>
		
			<polyline fill="none" stroke="#363636" stroke-width="2" stroke-linecap="round" stroke-linejoin="round" stroke-miterlimit="10" points="
			27,23 32,13 37,23 		"/>
		
			<line fill="#FFFFFF" stroke="#363636" stroke-width="2" stroke-linecap="round" stroke-linejoin="round" stroke-miterlimit="10" x1="29" y1="20" x2="35" y2="20"/>
		<path fill="none" stroke="#363636" stroke-width="2" stroke-linecap="round" stroke-linejoin="round" stroke-miterlimit="10" d="
			M48.2,46.9c-2.1,2.1-5.4,2.1-7.5,0c-2.1-2.1-2.1-5.4,0-7.5c2.1-2.1,5.4-2.1,7.5,0"/>
		<path fill="none" stroke="#363636" stroke-width="2" stroke-linecap="round" stroke-linejoin="round" stroke-miterlimit="10" d="
			M21,42h-1c1.1,0,2-0.9,2-2c0-1.1-0.9-2-2-2h-5v10h6c1.7,0,3-1.3,3-3S22.7,42,21,42z"/>
		
			<line fill="#FFFFFF" stroke="#363636" stroke-width="2" stroke-linecap="round" stroke-linejoin="round" stroke-miterlimit="10" x1="18" y1="42" x2="20" y2="42"/>
		<rect fill="none" width="64" height="64"/>
	</g>
	<g>
		<rect x="-19" y="48" fill="none" width="102" height="102"/>
	</g>
</g>
</svg>
