<?xml version="1.0" encoding="utf-8"?>
<!-- Generator: Adobe Illustrator 18.1.1, SVG Export Plug-In . SVG Version: 6.00 Build 0)  -->
<svg version="1.1" xmlns="http://www.w3.org/2000/svg" xmlns:xlink="http://www.w3.org/1999/xlink" x="0px" y="0px"
	 viewBox="0 0 64 64" enable-background="new 0 0 64 64" xml:space="preserve">
<g id="Layer_2" display="none">
	<rect x="-372" y="-200.5" display="inline" fill="#84C9F3" stroke="#000000" stroke-miterlimit="10" width="485" height="560"/>
</g>
<g id="Layer_1">
	<g>
		<rect x="-73" y="-73" fill="none" width="76" height="76"/>
	</g>
	<g>
		<path fill="none" stroke="#363636" stroke-width="2" stroke-linecap="round" stroke-miterlimit="10" d="M58,17.6V47
			c0,1.1-0.9,2-2,2H8c-1.1,0-2-0.9-2-2V17.6"/>
		<line fill="none" stroke="#363636" stroke-width="2" stroke-miterlimit="10" x1="26" y1="51" x2="36" y2="51"/>
		<path fill="none" stroke="#363636" stroke-width="2" stroke-linecap="round" stroke-linejoin="round" stroke-miterlimit="10" d="
			M10,45c9.9,0,18-5.3,22,0V14.6c-4-5.3-12.1,0-22,0V45z"/>
		<path fill="none" stroke="#363636" stroke-width="2" stroke-linecap="round" stroke-linejoin="round" stroke-miterlimit="10" d="
			M54,45c-9.9,0-18-5.3-22,0V14.6c4-5.3,12.1,0,22,0V45z"/>
		<rect fill="none" width="64" height="64"/>
	</g>
	<g>
		<rect x="-72.8" y="61.2" fill="none" width="75.6" height="75.6"/>
	</g>
</g>
</svg>
