<?xml version="1.0" encoding="utf-8"?>
<!-- Generator: Adobe Illustrator 18.1.1, SVG Export Plug-In . SVG Version: 6.00 Build 0)  -->
<svg version="1.1" xmlns="http://www.w3.org/2000/svg" xmlns:xlink="http://www.w3.org/1999/xlink" x="0px" y="0px"
	 viewBox="0 0 64 64" enable-background="new 0 0 64 64" xml:space="preserve">
<g id="Layer_2" display="none">
	<rect x="-238" y="-468.5" display="inline" fill="#84C9F3" stroke="#000000" stroke-miterlimit="10" width="485" height="560"/>
</g>
<g id="Layer_1">
	<g>
		<rect x="60" y="-74" fill="none" width="78" height="78"/>
	</g>
	<g>
		<path fill="none" stroke="#363636" stroke-width="2" stroke-linejoin="round" stroke-miterlimit="10" d="M46.5,41.5
			c-2.5,0-4.5-2-4.5-4.5s2-4.5,4.5-4.5c2,0,4.5-1.3,4.5-4.5v-7h-8c-3.6,0-5.5-2-4-5s1.2-7-4-7s-5.5,4-4,7s-0.4,5-4,5h-8v7
			c0,3.2-2.5,4.5-4.5,4.5c-2.5,0-4.5,2-4.5,4.5s2,4.5,4.5,4.5c2,0,4.5,1.3,4.5,4.5v7h8c3.6,0,5.5-2,4-5s-1.2-7,4-7s5.5,4,4,7
			s0.4,5,4,5h8v-7C51,42.8,48.5,41.5,46.5,41.5z"/>
		<rect fill="none" width="64" height="64"/>
	</g>
</g>
</svg>
