<?xml version="1.0" encoding="utf-8"?>
<!-- Generator: Adobe Illustrator 18.1.1, SVG Export Plug-In . SVG Version: 6.00 Build 0)  -->
<svg version="1.1" xmlns="http://www.w3.org/2000/svg" xmlns:xlink="http://www.w3.org/1999/xlink" x="0px" y="0px"
	 viewBox="0 0 64 64" enable-background="new 0 0 64 64" xml:space="preserve">
<g id="Layer_2" display="none">
	<rect x="-37" y="-133.5" display="inline" fill="#84C9F3" stroke="#000000" stroke-miterlimit="10" width="485" height="560"/>
</g>
<g id="Layer_1">
	<g>
		<path fill="none" stroke="#363636" stroke-width="2" stroke-linecap="round" stroke-linejoin="round" stroke-miterlimit="10" d="
			M49,14.7V10c0,0-3.1,0.6-8-2c-0.2-0.1-0.5-0.2-0.7-0.3C37.8,6.6,35,6,32,6s-5.8,0.6-8.3,1.7C23.5,7.8,23.2,7.9,23,8
			c-4.9,2.6-8,2-8,2v4.7c-2.5,3.5-4,7.7-4,12.3c0,17.7,6.3,31,14,31c1.6,0,3.2-0.7,4.7-1.8l2.3,2.3l2.3-2.3c1.5,1.2,3,1.8,4.7,1.8
			c7.7,0,14-13.3,14-31C53,22.4,51.5,18.2,49,14.7z"/>
		<path fill="none" stroke="#363636" stroke-width="2" stroke-linecap="round" stroke-linejoin="round" stroke-miterlimit="10" d="
			M32,35c3.5-3.1,4.7-5.5,4-7.2s-4-2-4-2s-3.3,0.3-4,2S28.5,31.9,32,35z"/>
		<circle fill="#363636" cx="23" cy="24" r="2"/>
		<circle fill="#363636" cx="41" cy="24" r="2"/>
		<polyline fill="none" stroke="#363636" stroke-width="2" stroke-linecap="round" stroke-miterlimit="10" points="19,40 23,44 
			27,40 		"/>
		<polyline fill="none" stroke="#363636" stroke-width="2" stroke-linecap="round" stroke-miterlimit="10" points="37,40 41,44 
			45,40 		"/>
		<polyline fill="none" stroke="#363636" stroke-width="2" stroke-linecap="round" stroke-miterlimit="10" points="28,46 32,50 
			36,46 		"/>
		<rect fill="none" width="64" height="64"/>
		<path fill="none" stroke="#363636" stroke-width="2" stroke-linecap="round" stroke-linejoin="round" stroke-miterlimit="10" d="
			M33.2,33.9c1.5,0.7,3.1,1.1,4.8,1.1c6.1,0,11-4.9,11-11s-4.9-11-11-11c-2.2,0-4.3,0.7-6,1.8c-1.7-1.1-3.8-1.8-6-1.8
			c-6.1,0-11,4.9-11,11s4.9,11,11,11c1.6,0,3.2-0.4,4.6-1"/>
	</g>
	<g>
		<rect x="57" y="-8" fill="none" width="84" height="84"/>
	</g>
</g>
</svg>
