<?xml version="1.0" encoding="utf-8"?>
<!-- Generator: Adobe Illustrator 18.1.1, SVG Export Plug-In . SVG Version: 6.00 Build 0)  -->
<svg version="1.1" xmlns="http://www.w3.org/2000/svg" xmlns:xlink="http://www.w3.org/1999/xlink" x="0px" y="0px"
	 viewBox="0 0 64 64" enable-background="new 0 0 64 64" xml:space="preserve">
<g id="Layer_2" display="none">
	<rect x="-238" y="-267.5" display="inline" fill="#84C9F3" stroke="#000000" stroke-miterlimit="10" width="485" height="560"/>
</g>
<g id="Layer_1">
	<g>
		<rect x="-76" y="-9" fill="none" width="82" height="82"/>
	</g>
	<g>
		<path fill="none" stroke="#363636" stroke-width="2" stroke-linecap="round" stroke-linejoin="round" stroke-miterlimit="10" d="
			M47,24.4c0-4.2-6.7-7.6-15-7.6s-15,3.4-15,7.6c0,0.2,0,0.4,0.1,0.6H17v19h0.1c0.5,7.8,7,14,14.9,14s14.4-6.2,14.9-14H47V25h-0.1
			C47,24.8,47,24.6,47,24.4z"/>
		
			<line fill="#FFFFFF" stroke="#363636" stroke-width="2" stroke-linecap="round" stroke-linejoin="round" stroke-miterlimit="10" x1="32" y1="18" x2="32" y2="21.9"/>
		
			<line fill="#FFFFFF" stroke="#363636" stroke-width="2" stroke-linecap="round" stroke-linejoin="round" stroke-miterlimit="10" x1="18" y1="35" x2="46" y2="35"/>
		<g>
			<g>
				<path fill="#363636" d="M32,23c0.6,0,1,0.4,1,1v4c0,0.6-0.4,1-1,1s-1-0.4-1-1v-4C31,23.4,31.4,23,32,23 M32,21c-1.7,0-3,1.3-3,3
					v4c0,1.7,1.3,3,3,3s3-1.3,3-3v-4C35,22.3,33.7,21,32,21L32,21z"/>
			</g>
		</g>
		<path fill="none" stroke="#363636" stroke-width="2" stroke-linecap="round" stroke-linejoin="round" stroke-miterlimit="10" d="
			M32,16.5c0-1.5-0.6-2.8-2.7-3.2C27.9,12.9,18.6,15,20,9c1.1-5,8.9-3.5,18.8,3.9c6.9,5.2,11.2,2.4,12.5-0.6c1.4-3.1-2.6-5.6-4-6.1"
			/>
		<rect fill="none" width="64" height="64"/>
		
			<line fill="#FFFFFF" stroke="#363636" stroke-width="2" stroke-linecap="round" stroke-linejoin="round" stroke-miterlimit="10" x1="32" y1="30.8" x2="32" y2="34.8"/>
	</g>
	<g>
		<rect x="61.2" y="-5.8" fill="none" width="75.6" height="75.6"/>
	</g>
</g>
</svg>
