<?xml version="1.0" encoding="utf-8"?>
<!-- Generator: Adobe Illustrator 18.1.1, SVG Export Plug-In . SVG Version: 6.00 Build 0)  -->
<svg version="1.1" xmlns="http://www.w3.org/2000/svg" xmlns:xlink="http://www.w3.org/1999/xlink" x="0px" y="0px"
	 viewBox="0 0 64 64" enable-background="new 0 0 64 64" xml:space="preserve">
<g id="Layer_2" display="none">
	<rect x="-305" y="-468.5" display="inline" fill="#84C9F3" stroke="#000000" stroke-miterlimit="10" width="485" height="560"/>
</g>
<g id="Layer_1">
	<g>
		<rect x="-7" y="-74" fill="none" width="78" height="78"/>
	</g>
	<g>
		<path fill="none" stroke="#363636" stroke-width="2" stroke-linecap="round" stroke-miterlimit="10" d="M54,34
			c-0.1-12.1-9.9-21.9-22-21.9S10.1,21.9,10,34H6v12h52V34H54z M21.7,34c0-5.6,4.5-10,10.1-10C37.5,24,42,28.4,42,34H21.7z"/>
		<line fill="none" stroke="#363636" stroke-width="2" stroke-miterlimit="10" x1="12" y1="43" x2="12" y2="45"/>
		<line fill="none" stroke="#363636" stroke-width="2" stroke-miterlimit="10" x1="16" y1="43" x2="16" y2="45"/>
		<line fill="none" stroke="#363636" stroke-width="2" stroke-miterlimit="10" x1="20" y1="43" x2="20" y2="45"/>
		<line fill="none" stroke="#363636" stroke-width="2" stroke-miterlimit="10" x1="24" y1="43" x2="24" y2="45"/>
		<line fill="none" stroke="#363636" stroke-width="2" stroke-miterlimit="10" x1="28" y1="43" x2="28" y2="45"/>
		<line fill="none" stroke="#363636" stroke-width="2" stroke-miterlimit="10" x1="36" y1="43" x2="36" y2="45"/>
		<line fill="none" stroke="#363636" stroke-width="2" stroke-miterlimit="10" x1="40" y1="43" x2="40" y2="45"/>
		<line fill="none" stroke="#363636" stroke-width="2" stroke-miterlimit="10" x1="44" y1="43" x2="44" y2="45"/>
		<line fill="none" stroke="#363636" stroke-width="2" stroke-miterlimit="10" x1="48" y1="43" x2="48" y2="45"/>
		<line fill="none" stroke="#363636" stroke-width="2" stroke-miterlimit="10" x1="32" y1="43" x2="32" y2="45"/>
		<line fill="none" stroke="#363636" stroke-width="2" stroke-miterlimit="10" x1="52" y1="43" x2="52" y2="45"/>
		<rect fill="none" width="64" height="64"/>
	</g>
</g>
</svg>
