<?xml version="1.0" encoding="utf-8"?>
<!-- Generator: Adobe Illustrator 18.1.1, SVG Export Plug-In . SVG Version: 6.00 Build 0)  -->
<svg version="1.1" xmlns="http://www.w3.org/2000/svg" xmlns:xlink="http://www.w3.org/1999/xlink" x="0px" y="0px"
	 viewBox="0 0 64 64" enable-background="new 0 0 64 64" xml:space="preserve">
<g id="Layer_2" display="none">
	<rect x="-305" y="-334.5" display="inline" fill="#84C9F3" stroke="#000000" stroke-miterlimit="10" width="485" height="560"/>
</g>
<g id="Layer_1">
	<g>
		<rect x="-5.8" y="-72.8" fill="none" width="75.6" height="75.6"/>
	</g>
	<g>
		<g>
			<circle fill="#363636" cx="32" cy="26" r="2"/>
		</g>
		<g>
			<circle fill="#363636" cx="51" cy="26" r="2"/>
		</g>
		<circle fill="none" stroke="#363636" stroke-width="2" stroke-miterlimit="10" cx="32" cy="26" r="15"/>
		<path fill="none" stroke="#363636" stroke-width="2" stroke-miterlimit="10" d="M51,26c0,10.5-8.5,19-19,19"/>
		<path fill="none" stroke="#363636" stroke-width="2" stroke-miterlimit="10" d="M42,53H22c-1.1,0-2-0.9-2-2v-4c0-1.1,0.9-2,2-2h20
			c1.1,0,2,0.9,2,2v4C44,52.1,43.1,53,42,53z"/>
		<rect fill="none" width="64" height="64"/>
	</g>
	<g>
		<rect x="-7" y="60" fill="none" width="78" height="78"/>
	</g>
</g>
</svg>
