<?xml version="1.0" encoding="utf-8"?>
<!-- Generator: Adobe Illustrator 18.1.1, SVG Export Plug-In . SVG Version: 6.00 Build 0)  -->
<svg version="1.1" xmlns="http://www.w3.org/2000/svg" xmlns:xlink="http://www.w3.org/1999/xlink" x="0px" y="0px"
	 viewBox="0 0 64 64" enable-background="new 0 0 64 64" xml:space="preserve">
<g id="Layer_2" display="none">
	<rect x="-372" y="-66.5" display="inline" fill="#84C9F3" stroke="#000000" stroke-miterlimit="10" width="485" height="560"/>
</g>
<g id="Layer_1">
	<g>
		<g>
			<path fill="#363636" d="M32,22c5.5,0,10,4.5,10,10s-4.5,10-10,10c-5.5,0-10-4.5-10-10S26.5,22,32,22 M32,20c-6.6,0-12,5.4-12,12
				s5.4,12,12,12s12-5.4,12-12S38.6,20,32,20L32,20z"/>
		</g>
		
			<line fill="#FFFFFF" stroke="#363636" stroke-width="2" stroke-linecap="round" stroke-linejoin="round" stroke-miterlimit="10" x1="32" y1="3" x2="32" y2="15"/>
		<g>
			<line fill="#FFFFFF" x1="22.1" y1="4.7" x2="26.2" y2="16"/>
			<g>
				<g>
					<path fill="#363636" d="M24.2,13.5l0.7,1.9c0.2,0.5,0.8,0.8,1.3,0.6c0.5-0.2,0.8-0.8,0.6-1.3l-0.7-1.9
						c-0.2-0.5-0.8-0.8-1.3-0.6S24,13,24.2,13.5z"/>
				</g>
				<circle fill="#363636" cx="23.8" cy="9.4" r="1"/>
				<circle fill="#363636" cx="22.4" cy="5.7" r="1"/>
			</g>
		</g>
		
			<line fill="#FFFFFF" stroke="#363636" stroke-width="2" stroke-linecap="round" stroke-linejoin="round" stroke-miterlimit="10" x1="13.4" y1="9.8" x2="21.1" y2="19"/>
		<g>
			<line fill="#FFFFFF" x1="6.9" y1="17.5" x2="17.3" y2="23.5"/>
			<g>
				<g>
					<path fill="#363636" d="M14.2,22.9l1.7,1c0.5,0.3,1.1,0.1,1.4-0.4c0.3-0.5,0.1-1.1-0.4-1.4l-1.7-1c-0.5-0.3-1.1-0.1-1.4,0.4
						C13.5,22,13.7,22.6,14.2,22.9z"/>
				</g>
				<circle fill="#363636" cx="11.2" cy="20" r="1"/>
				<circle fill="#363636" cx="7.8" cy="18" r="1"/>
			</g>
		</g>
		
			<line fill="#FFFFFF" stroke="#363636" stroke-width="2" stroke-linecap="round" stroke-linejoin="round" stroke-miterlimit="10" x1="3.4" y1="27" x2="15.3" y2="29"/>
		<g>
			<line fill="#FFFFFF" x1="3.4" y1="37" x2="15.3" y2="35"/>
			<g>
				<g>
					<path fill="#363636" d="M12.5,36.5l2-0.3c0.5-0.1,0.9-0.6,0.8-1.2c-0.1-0.5-0.6-0.9-1.2-0.8l-2,0.3c-0.5,0.1-0.9,0.6-0.8,1.2
						S11.9,36.6,12.5,36.5z"/>
				</g>
				<circle fill="#363636" cx="8.4" cy="36.2" r="1"/>
				<circle fill="#363636" cx="4.4" cy="36.9" r="1"/>
			</g>
		</g>
		
			<line fill="#FFFFFF" stroke="#363636" stroke-width="2" stroke-linecap="round" stroke-linejoin="round" stroke-miterlimit="10" x1="6.9" y1="46.5" x2="17.3" y2="40.5"/>
		<g>
			<line fill="#FFFFFF" x1="13.4" y1="54.2" x2="21.1" y2="45"/>
			<g>
				<g>
					<path fill="#363636" d="M19.9,48l1.3-1.5c0.4-0.4,0.3-1.1-0.1-1.4c-0.4-0.4-1.1-0.3-1.4,0.1l-1.3,1.5c-0.4,0.4-0.3,1.1,0.1,1.4
						C18.9,48.4,19.6,48.4,19.9,48z"/>
				</g>
				<circle fill="#363636" cx="16.6" cy="50.4" r="1"/>
				<circle fill="#363636" cx="14" cy="53.4" r="1"/>
			</g>
		</g>
		
			<line fill="#FFFFFF" stroke="#363636" stroke-width="2" stroke-linecap="round" stroke-linejoin="round" stroke-miterlimit="10" x1="22.1" y1="59.3" x2="26.2" y2="48"/>
		<g>
			<line fill="#FFFFFF" x1="32" y1="61" x2="32" y2="49"/>
			<g>
				<g>
					<path fill="#363636" d="M33,52v-2c0-0.6-0.4-1-1-1s-1,0.4-1,1v2c0,0.6,0.4,1,1,1S33,52.6,33,52z"/>
				</g>
				<circle fill="#363636" cx="32" cy="56" r="1"/>
				<circle fill="#363636" cx="32" cy="60" r="1"/>
			</g>
		</g>
		
			<line fill="#FFFFFF" stroke="#363636" stroke-width="2" stroke-linecap="round" stroke-linejoin="round" stroke-miterlimit="10" x1="41.9" y1="59.3" x2="37.8" y2="48"/>
		<g>
			<line fill="#FFFFFF" x1="50.6" y1="54.2" x2="42.9" y2="45"/>
			<g>
				<g>
					<path fill="#363636" d="M45.6,46.7l-1.3-1.5c-0.4-0.4-1-0.5-1.4-0.1c-0.4,0.4-0.5,1-0.1,1.4l1.3,1.5c0.4,0.4,1,0.5,1.4,0.1
						C45.9,47.7,46,47.1,45.6,46.7z"/>
				</g>
				<circle fill="#363636" cx="47.4" cy="50.4" r="1"/>
				<circle fill="#363636" cx="50" cy="53.4" r="1"/>
			</g>
		</g>
		
			<line fill="#FFFFFF" stroke="#363636" stroke-width="2" stroke-linecap="round" stroke-linejoin="round" stroke-miterlimit="10" x1="57.1" y1="46.5" x2="46.7" y2="40.5"/>
		<g>
			<line fill="#FFFFFF" x1="60.6" y1="37" x2="48.7" y2="35"/>
			<g>
				<g>
					<path fill="#363636" d="M51.9,34.5l-2-0.3c-0.5-0.1-1.1,0.3-1.2,0.8c-0.1,0.5,0.3,1.1,0.8,1.2l2,0.3c0.5,0.1,1.1-0.3,1.2-0.8
						C52.8,35.1,52.4,34.6,51.9,34.5z"/>
				</g>
				<circle fill="#363636" cx="55.6" cy="36.2" r="1"/>
				<circle fill="#363636" cx="59.6" cy="36.9" r="1"/>
			</g>
		</g>
		
			<line fill="#FFFFFF" stroke="#363636" stroke-width="2" stroke-linecap="round" stroke-linejoin="round" stroke-miterlimit="10" x1="60.6" y1="27" x2="48.7" y2="29"/>
		<g>
			<line fill="#FFFFFF" x1="57.1" y1="17.5" x2="46.7" y2="23.5"/>
			<g>
				<g>
					<path fill="#363636" d="M48.8,21.1l-1.7,1c-0.5,0.3-0.6,0.9-0.4,1.4c0.3,0.5,0.9,0.6,1.4,0.4l1.7-1c0.5-0.3,0.6-0.9,0.4-1.4
						C49.9,21,49.3,20.9,48.8,21.1z"/>
				</g>
				<circle fill="#363636" cx="52.8" cy="20" r="1"/>
				<circle fill="#363636" cx="56.2" cy="18" r="1"/>
			</g>
		</g>
		
			<line fill="#FFFFFF" stroke="#363636" stroke-width="2" stroke-linecap="round" stroke-linejoin="round" stroke-miterlimit="10" x1="50.6" y1="9.8" x2="42.9" y2="19"/>
		<g>
			<line fill="#FFFFFF" x1="41.9" y1="4.7" x2="37.8" y2="16"/>
			<g>
				<g>
					<path fill="#363636" d="M37.9,12.9l-0.7,1.9c-0.2,0.5,0.1,1.1,0.6,1.3c0.5,0.2,1.1-0.1,1.3-0.6l0.7-1.9
						c0.2-0.5-0.1-1.1-0.6-1.3C38.7,12.1,38.1,12.3,37.9,12.9z"/>
				</g>
				<circle fill="#363636" cx="40.2" cy="9.4" r="1"/>
				<circle fill="#363636" cx="41.6" cy="5.7" r="1"/>
			</g>
		</g>
		<rect fill="none" width="64" height="64"/>
	</g>
	<g>
		<rect x="-73" y="61" fill="none" width="76" height="76"/>
	</g>
</g>
</svg>
