<?xml version="1.0" encoding="utf-8"?>
<!-- Generator: Adobe Illustrator 18.1.1, SVG Export Plug-In . SVG Version: 6.00 Build 0)  -->
<svg version="1.1" xmlns="http://www.w3.org/2000/svg" xmlns:xlink="http://www.w3.org/1999/xlink" x="0px" y="0px"
	 viewBox="0 0 64 64" enable-background="new 0 0 64 64" xml:space="preserve">
<g id="Layer_2" display="none">
	<rect x="-171" y="-468.5" display="inline" fill="#84C9F3" stroke="#000000" stroke-miterlimit="10" width="485" height="560"/>
</g>
<g id="Layer_1">
	<g>
		
			<rect x="22.8" y="39" fill="none" stroke="#363636" stroke-width="2" stroke-linecap="round" stroke-miterlimit="10" width="8" height="6.7"/>
		<path fill="none" stroke="#363636" stroke-width="2" stroke-linecap="round" stroke-miterlimit="10" d="M40.8,42l-8,9.3h-15
			c-1.1,0-2,0.9-2,2V56c0,1.1,0.9,2,2,2h26c1.1,0,2-0.9,2-2v-4.7C45.8,47.5,43.3,44.4,40.8,42z"/>
		<polyline fill="none" stroke="#363636" stroke-width="2" stroke-linecap="round" stroke-miterlimit="10" points="16.8,35 34.8,35 
			40.8,42 26.8,42 		"/>
		
			<rect x="25.2" y="13.5" transform="matrix(0.866 0.5 -0.5 0.866 13.9987 -11.8961)" fill="none" stroke="#363636" stroke-width="2" stroke-linecap="round" stroke-miterlimit="10" width="8" height="13.3"/>
		
			<rect x="31.4" y="7.6" transform="matrix(0.866 0.5 -0.5 0.866 10.226 -15.6688)" fill="none" stroke="#363636" stroke-width="2" stroke-linecap="round" stroke-miterlimit="10" width="6" height="7.4"/>
		
			<line fill="none" stroke="#363636" stroke-width="2" stroke-linecap="round" stroke-miterlimit="10" x1="19.8" y1="22.4" x2="31.9" y2="29.4"/>
		<line fill="none" stroke="#363636" stroke-width="2" stroke-miterlimit="10" x1="21.9" y1="24.8" x2="19.9" y2="28.2"/>
		<line fill="none" stroke="#363636" stroke-width="2" stroke-miterlimit="10" x1="25.4" y1="26.8" x2="24.9" y2="27.6"/>
		<line fill="none" stroke="#363636" stroke-width="2" stroke-miterlimit="10" x1="28.8" y1="28.8" x2="27.8" y2="30.5"/>
		<path fill="none" stroke="#363636" stroke-width="2" stroke-linecap="round" stroke-linejoin="round" stroke-miterlimit="10" d="
			M40.8,42c3-6.8,0.8-17.2-7-22l2.2-3.6C47.8,23.3,55,35.9,45.8,52"/>
		<rect fill="none" width="64" height="64"/>
	</g>
</g>
</svg>
