<?xml version="1.0" encoding="utf-8"?>
<!-- Generator: Adobe Illustrator 18.1.1, SVG Export Plug-In . SVG Version: 6.00 Build 0)  -->
<svg version="1.1" xmlns="http://www.w3.org/2000/svg" xmlns:xlink="http://www.w3.org/1999/xlink" x="0px" y="0px"
	 viewBox="0 0 64 64" enable-background="new 0 0 64 64" xml:space="preserve">
<g id="Layer_2" display="none">
	<rect x="-171" y="-334.5" display="inline" fill="#84C9F3" stroke="#000000" stroke-miterlimit="10" width="485" height="560"/>
</g>
<g id="Layer_1">
	<g>
		<rect x="-9" y="-76" fill="none" width="82" height="82"/>
	</g>
	<g>
		<g>
			<circle fill="#363636" cx="32" cy="33.7" r="2"/>
		</g>
		<circle fill="none" stroke="#363636" stroke-width="2" stroke-linecap="round" stroke-miterlimit="10" cx="32" cy="33.7" r="18"/>
		
			<line fill="none" stroke="#363636" stroke-width="2" stroke-linecap="round" stroke-miterlimit="10" x1="32" y1="19.7" x2="32" y2="21.7"/>
		
			<line fill="none" stroke="#363636" stroke-width="2" stroke-linecap="round" stroke-miterlimit="10" x1="18" y1="33.7" x2="20" y2="33.7"/>
		
			<line fill="none" stroke="#363636" stroke-width="2" stroke-linecap="round" stroke-miterlimit="10" x1="32" y1="47.7" x2="32" y2="45.7"/>
		
			<line fill="none" stroke="#363636" stroke-width="2" stroke-linecap="round" stroke-miterlimit="10" x1="46" y1="33.7" x2="44" y2="33.7"/>
		
			<line fill="none" stroke="#363636" stroke-width="2" stroke-linecap="round" stroke-miterlimit="10" x1="19" y1="46.7" x2="15" y2="50.7"/>
		
			<line fill="none" stroke="#363636" stroke-width="2" stroke-linecap="round" stroke-miterlimit="10" x1="45" y1="46.7" x2="49" y2="50.7"/>
		<path fill="none" stroke="#363636" stroke-width="2" stroke-linecap="round" stroke-miterlimit="10" d="M11.5,27.3
			C9.2,25,10.4,19.9,14.3,16s9-5.2,11.3-2.8"/>
		<path fill="none" stroke="#363636" stroke-width="2" stroke-linecap="round" stroke-miterlimit="10" d="M38.4,13.2
			c2.3-2.3,7.4-1.1,11.3,2.8s5.2,9,2.8,11.3"/>
		<rect fill="none" width="64" height="64"/>
	</g>
</g>
</svg>
