<?xml version="1.0" encoding="utf-8"?>
<!-- Generator: Adobe Illustrator 18.1.1, SVG Export Plug-In . SVG Version: 6.00 Build 0)  -->
<svg version="1.1" xmlns="http://www.w3.org/2000/svg" xmlns:xlink="http://www.w3.org/1999/xlink" x="0px" y="0px"
	 viewBox="0 0 64 64" enable-background="new 0 0 64 64" xml:space="preserve">
<g id="Layer_2" display="none">
	<rect x="-37" y="-66.5" display="inline" fill="#84C9F3" stroke="#000000" stroke-miterlimit="10" width="485" height="615.8"/>
</g>
<g id="Layer_1">
	<g>
		<g>
			<path fill="#363636" d="M12,11v43H8V11H12 M12,9H8c-1.1,0-2,0.9-2,2v43c0,1.1,0.9,2,2,2h4c1.1,0,2-0.9,2-2V11C14,9.9,13.1,9,12,9
				L12,9z"/>
		</g>
		<g>
			<path fill="#363636" d="M56,11v43h-4V11H56 M56,9h-4c-1.1,0-2,0.9-2,2v43c0,1.1,0.9,2,2,2h4c1.1,0,2-0.9,2-2V11
				C58,9.9,57.1,9,56,9L56,9z"/>
		</g>
		<g>
			<path fill="#363636" d="M18,12c1.1,0,2,0.9,2,2s-0.9,2-2,2s-2-0.9-2-2S16.9,12,18,12 M18,10c-2.2,0-4,1.8-4,4s1.8,4,4,4
				s4-1.8,4-4S20.2,10,18,10L18,10z"/>
		</g>
		<g>
			<path fill="#363636" d="M24,12c1.1,0,2,0.9,2,2s-0.9,2-2,2s-2-0.9-2-2S22.9,12,24,12 M24,10c-2.2,0-4,1.8-4,4s1.8,4,4,4
				s4-1.8,4-4S26.2,10,24,10L24,10z"/>
		</g>
		<g>
			<path fill="#363636" d="M43,12c1.1,0,2,0.9,2,2s-0.9,2-2,2s-2-0.9-2-2S41.9,12,43,12 M43,10c-2.2,0-4,1.8-4,4s1.8,4,4,4
				s4-1.8,4-4S45.2,10,43,10L43,10z"/>
		</g>
		<g>
			<path fill="#363636" d="M46,22c1.1,0,2,0.9,2,2s-0.9,2-2,2s-2-0.9-2-2S44.9,22,46,22 M46,20c-2.2,0-4,1.8-4,4s1.8,4,4,4
				s4-1.8,4-4S48.2,20,46,20L46,20z"/>
		</g>
		<g>
			<path fill="#363636" d="M40,22c1.1,0,2,0.9,2,2s-0.9,2-2,2s-2-0.9-2-2S38.9,22,40,22 M40,20c-2.2,0-4,1.8-4,4s1.8,4,4,4
				s4-1.8,4-4S42.2,20,40,20L40,20z"/>
		</g>
		<g>
			<path fill="#363636" d="M34,22c1.1,0,2,0.9,2,2s-0.9,2-2,2s-2-0.9-2-2S32.9,22,34,22 M34,20c-2.2,0-4,1.8-4,4s1.8,4,4,4
				s4-1.8,4-4S36.2,20,34,20L34,20z"/>
		</g>
		<g>
			<path fill="#363636" d="M18,32c1.1,0,2,0.9,2,2s-0.9,2-2,2s-2-0.9-2-2S16.9,32,18,32 M18,30c-2.2,0-4,1.8-4,4s1.8,4,4,4
				s4-1.8,4-4S20.2,30,18,30L18,30z"/>
		</g>
		<g>
			<path fill="#363636" d="M24,32c1.1,0,2,0.9,2,2s-0.9,2-2,2s-2-0.9-2-2S22.9,32,24,32 M24,30c-2.2,0-4,1.8-4,4s1.8,4,4,4
				s4-1.8,4-4S26.2,30,24,30L24,30z"/>
		</g>
		<g>
			<path fill="#363636" d="M30,32c1.1,0,2,0.9,2,2s-0.9,2-2,2s-2-0.9-2-2S28.9,32,30,32 M30,30c-2.2,0-4,1.8-4,4s1.8,4,4,4
				s4-1.8,4-4S32.2,30,30,30L30,30z"/>
		</g>
		<g>
			<path fill="#363636" d="M30,42c1.1,0,2,0.9,2,2s-0.9,2-2,2s-2-0.9-2-2S28.9,42,30,42 M30,40c-2.2,0-4,1.8-4,4s1.8,4,4,4
				s4-1.8,4-4S32.2,40,30,40L30,40z"/>
		</g>
		<g>
			<path fill="#363636" d="M36,42c1.1,0,2,0.9,2,2s-0.9,2-2,2s-2-0.9-2-2S34.9,42,36,42 M36,40c-2.2,0-4,1.8-4,4s1.8,4,4,4
				s4-1.8,4-4S38.2,40,36,40L36,40z"/>
		</g>
		<g>
			<path fill="#363636" d="M46,42c1.1,0,2,0.9,2,2s-0.9,2-2,2s-2-0.9-2-2S44.9,42,46,42 M46,40c-2.2,0-4,1.8-4,4s1.8,4,4,4
				s4-1.8,4-4S48.2,40,46,40L46,40z"/>
		</g>
	</g>

		<line fill="none" stroke="#363636" stroke-width="2" stroke-linecap="round" stroke-linejoin="round" stroke-miterlimit="10" x1="27.4" y1="14" x2="40" y2="14"/>

		<line fill="none" stroke="#363636" stroke-width="2" stroke-linecap="round" stroke-linejoin="round" stroke-miterlimit="10" x1="46" y1="14" x2="50.7" y2="14"/>

		<line fill="none" stroke="#363636" stroke-width="2" stroke-linecap="round" stroke-linejoin="round" stroke-miterlimit="10" x1="31" y1="24" x2="13.4" y2="24"/>

		<line fill="none" stroke="#363636" stroke-width="2" stroke-linecap="round" stroke-linejoin="round" stroke-miterlimit="10" x1="33.4" y1="34" x2="50.7" y2="34"/>

		<line fill="none" stroke="#363636" stroke-width="2" stroke-linecap="round" stroke-linejoin="round" stroke-miterlimit="10" x1="42.7" y1="44" x2="39.4" y2="44"/>

		<line fill="none" stroke="#363636" stroke-width="2" stroke-linecap="round" stroke-linejoin="round" stroke-miterlimit="10" x1="26.6" y1="44" x2="13.4" y2="44"/>
</g>
</svg>
