<?xml version="1.0" encoding="utf-8"?>
<!-- Generator: Adobe Illustrator 18.1.1, SVG Export Plug-In . SVG Version: 6.00 Build 0)  -->
<svg version="1.1" xmlns="http://www.w3.org/2000/svg" xmlns:xlink="http://www.w3.org/1999/xlink" x="0px" y="0px"
	 viewBox="0 0 64 64" enable-background="new 0 0 64 64" xml:space="preserve">
<g id="Layer_2" display="none">
	<rect x="-305" y="-267.5" display="inline" fill="#84C9F3" stroke="#000000" stroke-miterlimit="10" width="485" height="560"/>
</g>
<g id="Layer_1">
	<g>
		
			<polygon fill="none" stroke="#363636" stroke-width="2" stroke-linecap="round" stroke-linejoin="round" stroke-miterlimit="10" points="
			35.5,6 35.5,22.6 52.1,22.6 		"/>
		<path fill="none" stroke="#363636" stroke-width="2" stroke-linecap="round" stroke-linejoin="round" stroke-miterlimit="10" d="
			M35.5,6H11.9v34.2c0.1,0,0.3,0,0.4,0c2.1,0,4,1,5.2,2.6c0.7-0.3,1.5-0.5,2.4-0.5c3.6,0,6.5,2.9,6.5,6.5c0,0.6-0.1,1.2-0.3,1.8
			c2.1,1.1,3.5,3.3,3.5,5.8c0,0.5-0.1,1.1-0.2,1.6h22.6V22.6L35.5,6z"/>
		<rect x="-5.8" y="-5.8" fill="none" width="75.6" height="75.6"/>
	</g>
</g>
</svg>
