<?xml version="1.0" encoding="utf-8"?>
<!-- Generator: Adobe Illustrator 18.1.1, SVG Export Plug-In . SVG Version: 6.00 Build 0)  -->
<svg version="1.1" xmlns="http://www.w3.org/2000/svg" xmlns:xlink="http://www.w3.org/1999/xlink" x="0px" y="0px"
	 viewBox="0 0 64 64" enable-background="new 0 0 64 64" xml:space="preserve">
<g id="Layer_2" display="none">
	<rect x="-171" y="-133.5" display="inline" fill="#84C9F3" stroke="#000000" stroke-miterlimit="10" width="485" height="560"/>
</g>
<g id="Layer_1">
	<g>
		<rect x="-77" y="-8" fill="none" width="84" height="84"/>
	</g>
	<g>
		<path fill="none" stroke="#363636" stroke-width="2" stroke-linecap="round" stroke-miterlimit="10" d="M54,29.5V47
			c0,1.1-0.9,2-2,2H12c-1.1,0-2-0.9-2-2V29.5"/>
		<path fill="none" stroke="#363636" stroke-width="2" stroke-linecap="round" stroke-miterlimit="10" d="M10,29.5
			c-0.6-0.6-1-1.4-1-2.2v-4.4c0-1.7,1.3-3,3-3h4.1"/>
		<path fill="none" stroke="#363636" stroke-width="2" stroke-linecap="round" stroke-miterlimit="10" d="M10,29.5
			c0.2,0.1,0.3,0.3,0.5,0.4L28,37.3"/>
		<path fill="none" stroke="#363636" stroke-width="2" stroke-linecap="round" stroke-miterlimit="10" d="M54,29.5
			c-0.2,0.1-0.3,0.3-0.5,0.4L36,37.3"/>
		<path fill="none" stroke="#363636" stroke-width="2" stroke-linecap="round" stroke-miterlimit="10" d="M54,29.5
			c0.6-0.6,1-1.4,1-2.2v-4.4c0-1.7-1.3-3-3-3h-4.1"/>
		
			<line fill="none" stroke="#363636" stroke-width="2" stroke-linecap="round" stroke-miterlimit="10" x1="47.9" y1="19.9" x2="16.1" y2="19.9"/>
		<path fill="none" stroke="#363636" stroke-width="2" stroke-linecap="round" stroke-miterlimit="10" d="M36,37.3v-1.7
			c0-1.1-0.9-2-2-2h-4c-1.1,0-2,0.9-2,2v1.7"/>
		<path fill="none" stroke="#363636" stroke-width="2" stroke-linecap="round" stroke-miterlimit="10" d="M36,37.3V40
			c0,1.1-0.9,2-2,2h-4c-1.1,0-2-0.9-2-2v-2.7"/>
		<path fill="none" stroke="#363636" stroke-width="2" stroke-linecap="round" stroke-miterlimit="10" d="M25,16.9c0-2.2,1.8-4,4-4
			h6c2.2,0,4,1.8,4,4"/>
	</g>
</g>
</svg>
