<?xml version="1.0" encoding="utf-8"?>
<!-- Generator: Adobe Illustrator 18.1.1, SVG Export Plug-In . SVG Version: 6.00 Build 0)  -->
<svg version="1.1" xmlns="http://www.w3.org/2000/svg" xmlns:xlink="http://www.w3.org/1999/xlink" x="0px" y="0px"
	 viewBox="0 0 64 64" enable-background="new 0 0 64 64" xml:space="preserve">
<g id="Layer_2" display="none">
	<rect x="-37" y="-200.5" display="inline" fill="#84C9F3" stroke="#000000" stroke-miterlimit="10" width="485" height="560"/>
</g>
<g id="Layer_1">
	<g>
		<rect x="57" y="-75" fill="none" width="84" height="84"/>
	</g>
	<g>
		
			<polyline fill="none" stroke="#363636" stroke-width="2" stroke-linecap="round" stroke-linejoin="round" stroke-miterlimit="10" points="
			20,17 20,10 39.2,10 53,24 53,54 20,54 20,43 		"/>
		
			<polygon fill="none" stroke="#363636" stroke-width="2" stroke-linecap="round" stroke-linejoin="round" stroke-miterlimit="10" points="
			39.2,10 39.2,24 53,24 		"/>
		<path fill="none" stroke="#363636" stroke-width="2" stroke-linecap="round" stroke-linejoin="round" stroke-miterlimit="10" d="
			M32.8,33.3l1.4,9.9l-9.9-1.4L10.2,27.7c-1.6-1.6-1.6-4.1,0-5.7l2.8-2.8c1.6-1.6,4.1-1.6,5.7,0L32.8,33.3z"/>
		
			<line fill="none" stroke="#363636" stroke-width="2" stroke-linecap="round" stroke-linejoin="round" stroke-miterlimit="10" x1="13.7" y1="26.9" x2="17.9" y2="22.7"/>
		
			<line fill="none" stroke="#363636" stroke-width="2" stroke-linecap="round" stroke-linejoin="round" stroke-miterlimit="10" x1="16.5" y1="29.8" x2="20.8" y2="25.5"/>
		
			<line fill="none" stroke="#363636" stroke-width="2" stroke-linecap="round" stroke-linejoin="round" stroke-miterlimit="10" x1="19.4" y1="28.4" x2="27.8" y2="36.8"/>
		<polygon fill="#363636" points="30,41.8 32.8,39 34.2,43.2 		"/>
		<rect fill="none" width="64" height="64"/>
	</g>
</g>
</svg>
