<?xml version="1.0" encoding="utf-8"?>
<!-- Generator: Adobe Illustrator 18.1.1, SVG Export Plug-In . SVG Version: 6.00 Build 0)  -->
<svg version="1.1" xmlns="http://www.w3.org/2000/svg" xmlns:xlink="http://www.w3.org/1999/xlink" x="0px" y="0px"
	 viewBox="0 0 64 64" enable-background="new 0 0 64 64" xml:space="preserve">
<g id="Layer_2" display="none">
	<rect x="-104" y="-200.5" display="inline" fill="#84C9F3" stroke="#000000" stroke-miterlimit="10" width="485" height="560"/>
</g>
<g id="Layer_1">
	<g>
		<rect x="-10" y="-75" fill="none" width="84" height="84"/>
	</g>
	<g>
		<circle fill="#363636" cx="50" cy="36" r="2"/>
		<path fill="none" stroke="#363636" stroke-width="2" stroke-linecap="round" stroke-linejoin="round" stroke-miterlimit="10" d="
			M8,32v19c0,1.1,0.9,2,2,2h8V43h28v10h8c1.1,0,2-0.9,2-2V32c0-1.1-0.9-2-2-2H10C8.9,30,8,30.9,8,32z"/>
		
			<line fill="none" stroke="#363636" stroke-width="2" stroke-linecap="round" stroke-linejoin="round" stroke-miterlimit="10" x1="19" y1="52" x2="45" y2="52"/>
		
			<rect x="19" y="10" fill="none" stroke="#363636" stroke-width="2" stroke-linecap="round" stroke-linejoin="round" stroke-miterlimit="10" width="26" height="20"/>
		<rect fill="none" width="64" height="64"/>
		
			<polyline fill="none" stroke="#363636" stroke-width="2" stroke-linecap="round" stroke-linejoin="round" stroke-miterlimit="10" points="
			45.3,20 49,20 49,30 15,30 15,20 18.8,20 		"/>
	</g>
	<g>
		<rect x="58" y="58" fill="none" width="82" height="82"/>
	</g>
</g>
</svg>
