<?xml version="1.0" encoding="utf-8"?>
<!-- Generator: Adobe Illustrator 18.1.1, SVG Export Plug-In . SVG Version: 6.00 Build 0)  -->
<svg version="1.1" xmlns="http://www.w3.org/2000/svg" xmlns:xlink="http://www.w3.org/1999/xlink" x="0px" y="0px"
	 viewBox="0 0 64 64" enable-background="new 0 0 64 64" xml:space="preserve">
<g id="Layer_2" display="none">
	<rect x="-238" y="-401.5" display="inline" fill="#84C9F3" stroke="#000000" stroke-miterlimit="10" width="485" height="560"/>
</g>
<g id="Layer_1">
	<g>
		<path fill="none" stroke="#363636" stroke-width="2" stroke-linecap="round" stroke-miterlimit="10" d="M46.5,7.6l9.9,9.9
			c0.8,0.8,0.8,2,0,2.8L20.3,56.4c-0.8,0.8-2,0.8-2.8,0l-9.9-9.9c-0.8-0.8-0.8-2,0-2.8L43.7,7.6C44.4,6.8,45.7,6.8,46.5,7.6z"/>
		
			<line fill="none" stroke="#363636" stroke-width="2" stroke-linecap="round" stroke-miterlimit="10" x1="13.3" y1="45.1" x2="10.4" y2="42.2"/>
		
			<line fill="none" stroke="#363636" stroke-width="2" stroke-linecap="round" stroke-miterlimit="10" x1="15.4" y1="40.1" x2="14" y2="38.7"/>
		
			<line fill="none" stroke="#363636" stroke-width="2" stroke-linecap="round" stroke-miterlimit="10" x1="18.9" y1="36.6" x2="17.5" y2="35.2"/>
		
			<line fill="none" stroke="#363636" stroke-width="2" stroke-linecap="round" stroke-miterlimit="10" x1="23.9" y1="34.5" x2="21" y2="31.6"/>
		
			<line fill="none" stroke="#363636" stroke-width="2" stroke-linecap="round" stroke-miterlimit="10" x1="26" y1="29.5" x2="24.6" y2="28.1"/>
		
			<line fill="none" stroke="#363636" stroke-width="2" stroke-linecap="round" stroke-miterlimit="10" x1="29.5" y1="26" x2="28.1" y2="24.6"/>
		
			<line fill="none" stroke="#363636" stroke-width="2" stroke-linecap="round" stroke-miterlimit="10" x1="34.5" y1="23.8" x2="31.6" y2="21"/>
		
			<line fill="none" stroke="#363636" stroke-width="2" stroke-linecap="round" stroke-miterlimit="10" x1="36.6" y1="18.9" x2="35.2" y2="17.5"/>
		
			<line fill="none" stroke="#363636" stroke-width="2" stroke-linecap="round" stroke-miterlimit="10" x1="40.1" y1="15.4" x2="38.7" y2="13.9"/>
		
			<line fill="none" stroke="#363636" stroke-width="2" stroke-linecap="round" stroke-miterlimit="10" x1="45.1" y1="13.2" x2="42.3" y2="10.4"/>
		<rect fill="none" width="64" height="64"/>
	</g>
	<g>
		<rect x="60" y="-7" fill="none" width="78" height="78"/>
	</g>
</g>
</svg>
