<?xml version="1.0" encoding="utf-8"?>
<!-- Generator: Adobe Illustrator 18.1.1, SVG Export Plug-In . SVG Version: 6.00 Build 0)  -->
<svg version="1.1" xmlns="http://www.w3.org/2000/svg" xmlns:xlink="http://www.w3.org/1999/xlink" x="0px" y="0px"
	 viewBox="0 0 64 64" enable-background="new 0 0 64 64" xml:space="preserve">
<g id="Layer_2" display="none">
	<rect x="-238" y="-334.5" display="inline" fill="#84C9F3" stroke="#000000" stroke-miterlimit="10" width="485" height="560"/>
</g>
<g id="Layer_1">
	<g>
		<rect x="-76" y="-76" fill="none" width="82" height="82"/>
	</g>
	<g>
		<rect x="61.2" y="-72.8" fill="none" width="75.6" height="75.6"/>
	</g>
	<g>
		<polyline fill="none" stroke="#363636" stroke-width="2" stroke-linecap="round" stroke-miterlimit="10" points="15,32.7 15,50 
			49,50 49,32.7 		"/>
		<path fill="none" stroke="#363636" stroke-width="2" stroke-linecap="round" stroke-miterlimit="10" d="M15,32.7
			c0.3,0.2,0.6,0.3,1,0.3h2.9"/>
		<path fill="none" stroke="#363636" stroke-width="2" stroke-linecap="round" stroke-miterlimit="10" d="M49,32.7
			c0.6-0.3,1-1,1-1.7V19c0-1.1-0.9-2-2-2H16c-1.1,0-2,0.9-2,2v12c0,0.7,0.4,1.4,1,1.7"/>
		<path fill="none" stroke="#363636" stroke-width="2" stroke-linecap="round" stroke-miterlimit="10" d="M18.9,33"/>
		<path fill="none" stroke="#363636" stroke-width="2" stroke-linecap="round" stroke-miterlimit="10" d="M25,33"/>
		
			<line fill="none" stroke="#363636" stroke-width="2" stroke-linecap="round" stroke-miterlimit="10" x1="25" y1="33" x2="39" y2="33"/>
		<path fill="none" stroke="#363636" stroke-width="2" stroke-linecap="round" stroke-miterlimit="10" d="M39,33"/>
		<path fill="none" stroke="#363636" stroke-width="2" stroke-linecap="round" stroke-miterlimit="10" d="M45.1,33"/>
		<path fill="none" stroke="#363636" stroke-width="2" stroke-linecap="round" stroke-miterlimit="10" d="M45.1,33H48
			c0.4,0,0.7-0.1,1-0.3"/>
		<path fill="none" stroke="#363636" stroke-width="2" stroke-linecap="round" stroke-miterlimit="10" d="M25,33v1c0,1.1-0.9,2-2,2
			h-2.1c-1.1,0-2-0.9-2-2v-1"/>
		<polyline fill="none" stroke="#363636" stroke-width="2" stroke-linecap="round" stroke-miterlimit="10" points="25,33 25,30 
			18.9,30 18.9,33 		"/>
		<path fill="none" stroke="#363636" stroke-width="2" stroke-linecap="round" stroke-miterlimit="10" d="M45.1,33v1
			c0,1.1-0.9,2-2,2H41c-1.1,0-2-0.9-2-2v-1"/>
		<polyline fill="none" stroke="#363636" stroke-width="2" stroke-linecap="round" stroke-miterlimit="10" points="45.1,33 45.1,30 
			39,30 39,33 		"/>
		<path fill="none" stroke="#363636" stroke-width="2" stroke-linecap="round" stroke-miterlimit="10" d="M25,14c0-1.7,1.3-3,3-3h8
			c1.7,0,3,1.3,3,3"/>
	</g>
	<g>
		<rect x="60" y="60" fill="none" width="78" height="78"/>
	</g>
</g>
</svg>
