<?xml version="1.0" encoding="utf-8"?>
<!-- Generator: Adobe Illustrator 18.1.1, SVG Export Plug-In . SVG Version: 6.00 Build 0)  -->
<svg version="1.1" xmlns="http://www.w3.org/2000/svg" xmlns:xlink="http://www.w3.org/1999/xlink" x="0px" y="0px"
	 viewBox="0 0 64 64" enable-background="new 0 0 64 64" xml:space="preserve">
<g id="Layer_2" display="none">
	<rect x="-305" y="-133.5" display="inline" fill="#84C9F3" stroke="#000000" stroke-miterlimit="10" width="485" height="560"/>
</g>
<g id="Layer_1">
	<g>
		<path fill="none" stroke="#363636" stroke-width="2" stroke-linecap="round" stroke-linejoin="round" stroke-miterlimit="10" d="
			M9.4,32v-8.3c12,0,22.6,7.1,22.6,7.1v28.5c0,0-10.5-7.1-22.6-7.1v-5.9"/>
		<g>
			<path fill="#363636" d="M9.4,36.8c1.3,0,2.4,1.1,2.4,2.4s-1.1,2.4-2.4,2.4c-1.3,0-2.4-1.1-2.4-2.4S8.1,36.8,9.4,36.8 M9.4,34.8
				c-2.4,0-4.4,2-4.4,4.4s2,4.4,4.4,4.4c2.4,0,4.4-2,4.4-4.4S11.8,34.8,9.4,34.8L9.4,34.8z"/>
		</g>
		<g>
			<circle fill="#363636" cx="26.1" cy="21.3" r="2.4"/>
		</g>
		<g>
			<circle fill="#363636" cx="37.9" cy="21.3" r="2.4"/>
		</g>
		<path fill="none" stroke="#363636" stroke-width="2" stroke-linecap="round" stroke-linejoin="round" stroke-miterlimit="10" d="
			M54.6,32v-8.3c-12,0-22.6,7.1-22.6,7.1v28.5c0,0,10.5-7.1,22.6-7.1v-5.9"/>
		<g>
			<path fill="#363636" d="M54.6,36.8c1.3,0,2.4,1.1,2.4,2.4s-1.1,2.4-2.4,2.4c-1.3,0-2.4-1.1-2.4-2.4S53.3,36.8,54.6,36.8
				 M54.6,34.8c-2.4,0-4.4,2-4.4,4.4s2,4.4,4.4,4.4c2.4,0,4.4-2,4.4-4.4S57,34.8,54.6,34.8L54.6,34.8z"/>
		</g>
		<path fill="none" stroke="#363636" stroke-width="2" stroke-linecap="round" stroke-linejoin="round" stroke-miterlimit="10" d="
			M45.2,21.2c0-4.4-2.2-8.3-5.5-10.7c0.5-2.2-0.3-4.9-1.8-5.8C36.9,6.4,34.4,8,32,8c-7.3,0-13.2,5.9-13.2,13.2"/>
		<rect x="-6" y="-6" fill="none" width="76" height="76"/>
	</g>
</g>
</svg>
