<?xml version="1.0" encoding="utf-8"?>
<!-- Generator: Adobe Illustrator 18.1.1, SVG Export Plug-In . SVG Version: 6.00 Build 0)  -->
<svg version="1.1" xmlns="http://www.w3.org/2000/svg" xmlns:xlink="http://www.w3.org/1999/xlink" x="0px" y="0px"
	 viewBox="0 0 64 64" enable-background="new 0 0 64 64" xml:space="preserve">
<g id="Layer_2" display="none">
	<rect x="-171" y="-66.5" display="inline" fill="#84C9F3" stroke="#000000" stroke-miterlimit="10" width="485" height="560"/>
</g>
<g id="Layer_1">
	<g>
		<path fill="none" stroke="#363636" stroke-width="2" stroke-linecap="round" stroke-linejoin="round" stroke-miterlimit="10" d="
			M38.9,33l-8.5-8.5L48.8,6.1c0.8-0.8,2-0.8,2.8,0l5.7,5.7c0.8,0.8,0.8,2,0,2.8L38.9,33z"/>
		
			<rect x="22.3" y="25.7" transform="matrix(0.7071 0.7071 -0.7071 0.7071 33.5589 -8.6873)" fill="none" stroke="#363636" stroke-width="2" stroke-linecap="round" stroke-linejoin="round" stroke-miterlimit="10" width="10" height="20.9"/>
		
			<polygon fill="none" stroke="#363636" stroke-width="2" stroke-linecap="round" stroke-linejoin="round" stroke-miterlimit="10" points="
			22,45.7 19.9,43.6 17.7,41.4 11.4,43.6 6.4,54.2 7.8,55.6 9.3,57 19.9,52.1 		"/>
		<circle fill="#363636" cx="14.9" cy="48.5" r="2"/>
		<circle fill="#363636" cx="43.9" cy="33.7" r="2"/>
		
			<polyline fill="none" stroke="#363636" stroke-width="2" stroke-linecap="round" stroke-linejoin="round" stroke-miterlimit="10" points="
			55.2,16.7 58,19.6 43.9,33.7 		"/>
		<rect fill="none" width="64" height="64"/>
	</g>
	<g>
		<rect x="-77" y="59" fill="none" width="84" height="84"/>
	</g>
</g>
</svg>
