<?xml version="1.0" encoding="utf-8"?>
<!-- Generator: Adobe Illustrator 18.1.1, SVG Export Plug-In . SVG Version: 6.00 Build 0)  -->
<svg version="1.1" xmlns="http://www.w3.org/2000/svg" xmlns:xlink="http://www.w3.org/1999/xlink" x="0px" y="0px"
	 viewBox="0 0 64 64" enable-background="new 0 0 64 64" xml:space="preserve">
<g id="Layer_2" display="none">
	<rect x="-104" y="-66.5" display="inline" fill="#84C9F3" stroke="#000000" stroke-miterlimit="10" width="485" height="560"/>
</g>
<g id="Layer_1">
	<g>
		<g>
			<path fill="#363636" d="M17,22c5.5,0,10,4.5,10,10s-4.5,10-10,10S7,37.5,7,32S11.5,22,17,22 M17,20c-6.6,0-12,5.4-12,12
				s5.4,12,12,12s12-5.4,12-12S23.6,20,17,20L17,20z"/>
		</g>
		<g>
			<path fill="#363636" d="M47,22c5.5,0,10,4.5,10,10s-4.5,10-10,10s-10-4.5-10-10S41.5,22,47,22 M47,20c-6.6,0-12,5.4-12,12
				s5.4,12,12,12s12-5.4,12-12S53.6,20,47,20L47,20z"/>
		</g>
		<path fill="none" stroke="#363636" stroke-width="2" stroke-linecap="round" stroke-linejoin="round" stroke-miterlimit="10" d="
			M28,32c0-2.2,1.8-4,4-4s4,1.8,4,4"/>
		
			<line fill="#FFFFFF" stroke="#363636" stroke-width="2" stroke-linecap="round" stroke-linejoin="round" stroke-miterlimit="10" x1="19.1" y1="25.6" x2="10.6" y2="34.1"/>
		
			<line fill="#FFFFFF" stroke="#363636" stroke-width="2" stroke-linecap="round" stroke-linejoin="round" stroke-miterlimit="10" x1="23.4" y1="29.9" x2="14.9" y2="38.4"/>
		
			<line fill="#FFFFFF" stroke="#363636" stroke-width="2" stroke-linecap="round" stroke-linejoin="round" stroke-miterlimit="10" x1="49.5" y1="25.6" x2="41" y2="34.1"/>
		
			<line fill="#FFFFFF" stroke="#363636" stroke-width="2" stroke-linecap="round" stroke-linejoin="round" stroke-miterlimit="10" x1="53.7" y1="29.9" x2="45.2" y2="38.4"/>
		<rect fill="none" width="64" height="64"/>
	</g>
	<g>
		<rect x="-10" y="59" fill="none" width="84" height="84"/>
	</g>
</g>
</svg>
