<?xml version="1.0" encoding="utf-8"?>
<!-- Generator: Adobe Illustrator 18.1.1, SVG Export Plug-In . SVG Version: 6.00 Build 0)  -->
<svg version="1.1" xmlns="http://www.w3.org/2000/svg" xmlns:xlink="http://www.w3.org/1999/xlink" x="0px" y="0px"
	 viewBox="0 0 64 64" enable-background="new 0 0 64 64" xml:space="preserve">
<g id="Layer_2" display="none">
	<rect x="-305" y="-200.5" display="inline" fill="#84C9F3" stroke="#000000" stroke-miterlimit="10" width="485" height="560"/>
</g>
<g id="Layer_1">
	<g>
		<rect x="-6" y="-73" fill="none" width="76" height="76"/>
	</g>
	<g>
		<path fill="none" stroke="#363636" stroke-width="2" stroke-linecap="round" stroke-linejoin="round" stroke-miterlimit="10" d="
			M21.6,37.8c0,4.4-3.6,8.1-8.1,8.1s-8.1-3.6-8.1-8.1H21.6z"/>
		<path fill="none" stroke="#363636" stroke-width="2" stroke-linecap="round" stroke-linejoin="round" stroke-miterlimit="10" d="
			M58.5,37.8c0,4.4-3.6,8.1-8.1,8.1s-8.1-3.6-8.1-8.1H58.5z"/>
		<g>
			<g>
				<path fill="#363636" d="M5.5,38.8c-0.3,0-0.5-0.1-0.7-0.3c-0.2-0.2-0.3-0.5-0.3-0.7c0-0.3,0.1-0.5,0.3-0.7c0.4-0.4,1-0.4,1.4,0
					c0.2,0.2,0.3,0.4,0.3,0.7c0,0.3-0.1,0.5-0.3,0.7C6.1,38.6,5.8,38.8,5.5,38.8z"/>
			</g>
			<g>
				<path fill="#363636" d="M6.3,36c-0.5-0.2-0.7-0.8-0.5-1.3l0,0C6,34.2,6.6,34,7.1,34.2l0,0c0.5,0.2,0.7,0.8,0.5,1.3l0,0
					c-0.2,0.4-0.5,0.6-0.9,0.6l0,0C6.6,36.1,6.4,36.1,6.3,36z M7.4,33.4c-0.5-0.2-0.7-0.8-0.5-1.3l0,0c0.2-0.5,0.8-0.7,1.3-0.5l0,0
					c0.5,0.2,0.7,0.8,0.5,1.3l0,0c-0.2,0.4-0.5,0.6-0.9,0.6l0,0C7.7,33.5,7.6,33.5,7.4,33.4z M8.6,30.8c-0.5-0.2-0.7-0.8-0.5-1.3
					l0,0c0.2-0.5,0.8-0.7,1.3-0.5l0,0c0.5,0.2,0.7,0.8,0.5,1.3l0,0c-0.2,0.4-0.5,0.6-0.9,0.6l0,0C8.9,30.9,8.7,30.8,8.6,30.8z
					 M9.7,28.1c-0.5-0.2-0.7-0.8-0.5-1.3l0,0c0.2-0.5,0.8-0.7,1.3-0.5l0,0c0.5,0.2,0.7,0.8,0.5,1.3l0,0c-0.2,0.4-0.5,0.6-0.9,0.6
					l0,0C10,28.2,9.9,28.2,9.7,28.1z M10.9,25.5c-0.5-0.2-0.7-0.8-0.5-1.3l0,0c0.2-0.5,0.8-0.7,1.3-0.5l0,0c0.5,0.2,0.7,0.8,0.5,1.3
					l0,0c-0.2,0.4-0.5,0.6-0.9,0.6l0,0C11.2,25.6,11,25.6,10.9,25.5z"/>
			</g>
			<g>
				<path fill="#363636" d="M19.6,35.5c-0.2-0.5,0-1.1,0.5-1.3l0,0c0.5-0.2,1.1,0,1.3,0.5l0,0c0.2,0.5,0,1.1-0.5,1.3l0,0
					c-0.1,0.1-0.3,0.1-0.4,0.1l0,0C20.1,36.1,19.7,35.9,19.6,35.5z M18.4,32.9c-0.2-0.5,0-1.1,0.5-1.3l0,0c0.5-0.2,1.1,0,1.3,0.5
					l0,0c0.2,0.5,0,1.1-0.5,1.3l0,0c-0.1,0.1-0.3,0.1-0.4,0.1l0,0C19,33.5,18.6,33.3,18.4,32.9z M17.3,30.3c-0.2-0.5,0-1.1,0.5-1.3
					l0,0c0.5-0.2,1.1,0,1.3,0.5l0,0c0.2,0.5,0,1.1-0.5,1.3l0,0c-0.1,0.1-0.3,0.1-0.4,0.1l0,0C17.8,30.9,17.4,30.6,17.3,30.3z
					 M16.1,27.6c-0.2-0.5,0-1.1,0.5-1.3l0,0c0.5-0.2,1.1,0,1.3,0.5l0,0c0.2,0.5,0,1.1-0.5,1.3l0,0c-0.1,0.1-0.3,0.1-0.4,0.1l0,0
					C16.7,28.2,16.3,28,16.1,27.6z M15,25c-0.2-0.5,0-1.1,0.5-1.3l0,0c0.5-0.2,1.1,0,1.3,0.5l0,0c0.2,0.5,0,1.1-0.5,1.3l0,0
					c-0.1,0.1-0.3,0.1-0.4,0.1l0,0C15.5,25.6,15.1,25.4,15,25z"/>
			</g>
			<g>
				<path fill="#363636" d="M21.6,38.8c-0.3,0-0.5-0.1-0.7-0.3c-0.2-0.2-0.3-0.5-0.3-0.7c0-0.3,0.1-0.5,0.3-0.7c0.4-0.4,1-0.4,1.4,0
					c0.2,0.2,0.3,0.4,0.3,0.7c0,0.3-0.1,0.5-0.3,0.7C22.2,38.6,21.9,38.8,21.6,38.8z"/>
			</g>
		</g>
		<g>
			<g>
				<path fill="#363636" d="M42.3,38.8c-0.3,0-0.5-0.1-0.7-0.3c-0.2-0.2-0.3-0.4-0.3-0.7c0-0.3,0.1-0.5,0.3-0.7c0.4-0.4,1-0.4,1.4,0
					c0.2,0.2,0.3,0.4,0.3,0.7c0,0.3-0.1,0.5-0.3,0.7C42.9,38.6,42.6,38.8,42.3,38.8z"/>
			</g>
			<g>
				<path fill="#363636" d="M43.1,36c-0.5-0.2-0.7-0.8-0.5-1.3l0,0c0.2-0.5,0.8-0.7,1.3-0.5l0,0c0.5,0.2,0.7,0.8,0.5,1.3l0,0
					c-0.2,0.4-0.5,0.6-0.9,0.6l0,0C43.4,36.1,43.2,36.1,43.1,36z M44.2,33.4c-0.5-0.2-0.7-0.8-0.5-1.3l0,0c0.2-0.5,0.8-0.7,1.3-0.5
					l0,0c0.5,0.2,0.7,0.8,0.5,1.3l0,0c-0.2,0.4-0.5,0.6-0.9,0.6l0,0C44.5,33.5,44.4,33.5,44.2,33.4z M45.4,30.8
					c-0.5-0.2-0.7-0.8-0.5-1.3l0,0c0.2-0.5,0.8-0.7,1.3-0.5l0,0c0.5,0.2,0.7,0.8,0.5,1.3l0,0c-0.2,0.4-0.5,0.6-0.9,0.6l0,0
					C45.7,30.9,45.5,30.8,45.4,30.8z M46.5,28.1c-0.5-0.2-0.7-0.8-0.5-1.3l0,0c0.2-0.5,0.8-0.7,1.3-0.5l0,0c0.5,0.2,0.7,0.8,0.5,1.3
					l0,0c-0.2,0.4-0.5,0.6-0.9,0.6l0,0C46.8,28.2,46.7,28.2,46.5,28.1z M47.7,25.5c-0.5-0.2-0.7-0.8-0.5-1.3l0,0
					c0.2-0.5,0.8-0.7,1.3-0.5l0,0c0.5,0.2,0.7,0.8,0.5,1.3l0,0c-0.2,0.4-0.5,0.6-0.9,0.6l0,0C48,25.6,47.8,25.6,47.7,25.5z"/>
			</g>
			<g>
				<path fill="#363636" d="M56.4,35.5c-0.2-0.5,0-1.1,0.5-1.3l0,0c0.5-0.2,1.1,0,1.3,0.5l0,0c0.2,0.5,0,1.1-0.5,1.3l0,0
					c-0.1,0-0.3,0.1-0.4,0.1l0,0C56.9,36.1,56.6,35.9,56.4,35.5z M55.2,32.9c-0.2-0.5,0-1.1,0.5-1.3l0,0c0.5-0.2,1.1,0,1.3,0.5l0,0
					c0.2,0.5,0,1.1-0.5,1.3l0,0c-0.1,0.1-0.3,0.1-0.4,0.1l0,0C55.8,33.5,55.4,33.3,55.2,32.9z M54.1,30.3c-0.2-0.5,0-1.1,0.5-1.3
					l0,0c0.5-0.2,1.1,0,1.3,0.5l0,0c0.2,0.5,0,1.1-0.5,1.3l0,0c-0.1,0.1-0.3,0.1-0.4,0.1l0,0C54.6,30.9,54.3,30.6,54.1,30.3z
					 M52.9,27.6c-0.2-0.5,0-1.1,0.5-1.3l0,0c0.5-0.2,1.1,0,1.3,0.5l0,0c0.2,0.5,0,1.1-0.5,1.3l0,0c-0.1,0.1-0.3,0.1-0.4,0.1l0,0
					C53.5,28.2,53.1,28,52.9,27.6z M51.8,25c-0.2-0.5,0-1.1,0.5-1.3l0,0c0.5-0.2,1.1,0,1.3,0.5l0,0c0.2,0.5,0,1.1-0.5,1.3l0,0
					c-0.1,0.1-0.3,0.1-0.4,0.1l0,0C52.3,25.6,52,25.4,51.8,25z"/>
			</g>
			<g>
				<path fill="#363636" d="M58.5,38.8c-0.3,0-0.5-0.1-0.7-0.3c-0.2-0.2-0.3-0.4-0.3-0.7c0-0.3,0.1-0.5,0.3-0.7c0.4-0.4,1-0.4,1.4,0
					c0.2,0.2,0.3,0.4,0.3,0.7c0,0.3-0.1,0.5-0.3,0.7C59,38.6,58.7,38.8,58.5,38.8z"/>
			</g>
		</g>
		<g>
			<path fill="#363636" d="M32,9c1.3,0,2.3,1,2.3,2.3s-1,2.3-2.3,2.3s-2.3-1-2.3-2.3S30.7,9,32,9 M32,7c-2.4,0-4.3,1.9-4.3,4.3
				s1.9,4.3,4.3,4.3s4.3-1.9,4.3-4.3S34.4,7,32,7L32,7z"/>
		</g>
		<g>
			<path fill="#363636" d="M50.4,17c1.3,0,2.3,1,2.3,2.3s-1,2.3-2.3,2.3s-2.3-1-2.3-2.3S49.1,17,50.4,17 M50.4,15
				c-2.4,0-4.3,1.9-4.3,4.3s1.9,4.3,4.3,4.3s4.3-1.9,4.3-4.3S52.8,15,50.4,15L50.4,15z"/>
		</g>
		<g>
			<path fill="#363636" d="M13.6,17c1.3,0,2.3,1,2.3,2.3s-1,2.3-2.3,2.3s-2.3-1-2.3-2.3S12.3,17,13.6,17 M13.6,15
				c-2.4,0-4.3,1.9-4.3,4.3s1.9,4.3,4.3,4.3s4.3-1.9,4.3-4.3S16,15,13.6,15L13.6,15z"/>
		</g>
		<path fill="none" stroke="#363636" stroke-width="2" stroke-linecap="round" stroke-linejoin="round" stroke-miterlimit="10" d="
			M45.8,57.3H18.2l4.4-6.1c0.9-1.2,2.3-1.9,3.7-1.9h11.4c1.5,0,2.9,0.7,3.7,1.9L45.8,57.3z"/>
		
			<line fill="#FFFFFF" stroke="#363636" stroke-width="2" stroke-linecap="round" stroke-linejoin="round" stroke-miterlimit="10" x1="32" y1="48.1" x2="32" y2="14.7"/>
		
			<line fill="none" stroke="#363636" stroke-width="2" stroke-linecap="round" stroke-miterlimit="10" x1="18.2" y1="19.3" x2="45.8" y2="19.3"/>
	</g>
	<g>
		<rect x="-5.8" y="61.2" fill="none" width="75.6" height="75.6"/>
	</g>
</g>
</svg>
