<?xml version="1.0" encoding="utf-8"?>
<!-- Generator: Adobe Illustrator 18.1.1, SVG Export Plug-In . SVG Version: 6.00 Build 0)  -->
<svg version="1.1" xmlns="http://www.w3.org/2000/svg" xmlns:xlink="http://www.w3.org/1999/xlink" x="0px" y="0px"
	 viewBox="0 0 64 64" enable-background="new 0 0 64 64" xml:space="preserve">
<g id="Layer_2" display="none">
	<rect x="-372" y="-334.5" display="inline" fill="#84C9F3" stroke="#000000" stroke-miterlimit="10" width="485" height="560"/>
</g>
<g id="Layer_1">
	<g>
		<rect x="-72.8" y="-72.8" fill="none" width="75.6" height="75.6"/>
	</g>
	<g>
		<path fill="none" stroke="#363636" stroke-width="2" stroke-linecap="round" stroke-linejoin="round" stroke-miterlimit="10" d="
			M32,6C17.6,6,6,17.6,6,32c0,5.6,1.8,10.9,4.9,15.1L10,54l6.9-0.9C21.1,56.2,26.4,58,32,58c14.4,0,26-11.6,26-26
			C58,17.6,46.4,6,32,6z"/>
		
			<polyline fill="none" stroke="#363636" stroke-width="2" stroke-linecap="round" stroke-linejoin="round" stroke-miterlimit="10" points="
			21,38 26,38 21,43 26,43 		"/>
		
			<polyline fill="none" stroke="#363636" stroke-width="2" stroke-linecap="round" stroke-linejoin="round" stroke-miterlimit="10" points="
			29.5,29.5 34.5,29.5 29.5,34.5 34.5,34.5 		"/>
		
			<polyline fill="none" stroke="#363636" stroke-width="2" stroke-linecap="round" stroke-linejoin="round" stroke-miterlimit="10" points="
			38,21 43,21 38,26 43,26 		"/>
		<rect fill="none" width="64" height="64"/>
	</g>
	<g>
		<rect x="-74" y="60" fill="none" width="78" height="78"/>
	</g>
</g>
</svg>
