<?xml version="1.0" encoding="utf-8"?>
<!-- Generator: Adobe Illustrator 18.1.1, SVG Export Plug-In . SVG Version: 6.00 Build 0)  -->
<svg version="1.1" xmlns="http://www.w3.org/2000/svg" xmlns:xlink="http://www.w3.org/1999/xlink" x="0px" y="0px"
	 viewBox="0 0 64 64" enable-background="new 0 0 64 64" xml:space="preserve">
<g id="Layer_2" display="none">
	<rect x="-104" y="-401.5" display="inline" fill="#84C9F3" stroke="#000000" stroke-miterlimit="10" width="485" height="560"/>
</g>
<g id="Layer_1">
	<g>
		<rect x="-86" y="-19" fill="none" width="102" height="102"/>
	</g>
	<g>
		<g>
			<circle fill="#363636" cx="32" cy="32" r="2"/>
		</g>
		<g>
			<path fill="none" stroke="#363636" stroke-width="2" stroke-miterlimit="10" d="M36.9,19.5c-0.9-5.3-4.5-9.5-9.1-11.5l4.5,25.5
				C35.9,30,37.8,24.8,36.9,19.5z"/>
		</g>
		<path fill="none" stroke="#363636" stroke-width="2" stroke-miterlimit="10" d="M41,48.4c0.9,4.9-1.1,8-4.3,8.6s-6.6-1.6-7.5-6.5
			c-0.9-4.9,1.1-9.3,4.3-9.9S40.1,43.5,41,48.4z"/>
		<line fill="none" stroke="#363636" stroke-width="2" stroke-miterlimit="10" x1="32" y1="32" x2="33.5" y2="40.6"/>
		<g>
			<path fill="none" stroke="#363636" stroke-width="2" stroke-miterlimit="10" d="M19.5,36.9c-5.3-0.9-9.5-4.5-11.5-9.1l25.5,4.5
				C30,35.9,24.8,37.8,19.5,36.9z"/>
		</g>
		<path fill="none" stroke="#363636" stroke-width="2" stroke-miterlimit="10" d="M48.6,40c4.9,0.9,7.9-0.6,8.4-3.4
			c0.5-2.7-1.8-5.6-6.7-6.5c-4.9-0.9-9.3,0.6-9.7,3.4C40.1,36.2,43.7,39.1,48.6,40z"/>
		<line fill="none" stroke="#363636" stroke-width="2" stroke-miterlimit="10" x1="32" y1="32" x2="40.6" y2="33.5"/>
		<rect fill="none" width="64" height="64"/>
	</g>
</g>
</svg>
