<?xml version="1.0" encoding="utf-8"?>
<!-- Generator: Adobe Illustrator 18.1.1, SVG Export Plug-In . SVG Version: 6.00 Build 0)  -->
<svg version="1.1" xmlns="http://www.w3.org/2000/svg" xmlns:xlink="http://www.w3.org/1999/xlink" x="0px" y="0px"
	 viewBox="0 0 64 64" enable-background="new 0 0 64 64" xml:space="preserve">
<g id="Layer_2" display="none">
	<rect x="-305" y="-200.5" display="inline" fill="#84C9F3" stroke="#000000" stroke-miterlimit="10" width="485" height="615.8"/>
</g>
<g id="Layer_1">
	<g>
		<g>
			<circle fill="#363636" cx="12" cy="24" r="2"/>
		</g>
		<g>
			<circle fill="#363636" cx="17" cy="24" r="2"/>
		</g>
		<g>
			<path fill="#363636" d="M51,18c3.3,0,6,2.7,6,6v24c0,3.3-2.7,6-6,6H13c-3.3,0-6-2.7-6-6V24c0-3.3,2.7-6,6-6H51 M51,16H13
				c-4.4,0-8,3.6-8,8v24c0,4.4,3.6,8,8,8h38c4.4,0,8-3.6,8-8V24C59,19.6,55.4,16,51,16L51,16z"/>
		</g>
		<g>
			<path fill="#363636" d="M38,22c7.7,0,14,6.3,14,14s-6.3,14-14,14s-14-6.3-14-14S30.3,22,38,22 M38,20c-8.8,0-16,7.2-16,16
				c0,8.8,7.2,16,16,16s16-7.2,16-16C54,27.2,46.8,20,38,20L38,20z"/>
		</g>
		<g>
			<path fill="#363636" d="M38,26c5.5,0,10,4.5,10,10s-4.5,10-10,10s-10-4.5-10-10S32.5,26,38,26 M38,24c-6.6,0-12,5.4-12,12
				c0,6.6,5.4,12,12,12s12-5.4,12-12C50,29.4,44.6,24,38,24L38,24z"/>
		</g>
		<g>
			<path fill="#363636" d="M45,18H27V8h18V18z M29,16h14v-6H29V16z"/>
		</g>
		<g>
			<rect x="31" y="12" fill="#363636" width="2" height="5"/>
		</g>
		<g>
			<rect x="35" y="12" fill="#363636" width="2" height="5"/>
		</g>
		<g>
			<rect x="39" y="12" fill="#363636" width="2" height="5"/>
		</g>
		<g>
			<rect x="13" y="14" fill="#363636" width="8" height="2"/>
		</g>
		<g>
			<rect fill="none" width="64" height="64"/>
		</g>
	</g>
</g>
</svg>
