<?xml version="1.0" encoding="utf-8"?>
<!-- Generator: Adobe Illustrator 18.1.1, SVG Export Plug-In . SVG Version: 6.00 Build 0)  -->
<svg version="1.1" xmlns="http://www.w3.org/2000/svg" xmlns:xlink="http://www.w3.org/1999/xlink" x="0px" y="0px"
	 viewBox="0 0 64 64" enable-background="new 0 0 64 64" xml:space="preserve">
<g id="Layer_2" display="none">
	<rect x="-104" y="-267.5" display="inline" fill="#84C9F3" stroke="#000000" stroke-miterlimit="10" width="485" height="615.8"/>
</g>
<g id="Layer_1">
	<g>
		<polygon fill="none" stroke="#363636" stroke-width="2" stroke-linejoin="round" stroke-miterlimit="10" points="32,58.5 54,45.3 
			52,38.3 59,38.3 58,26.3 54,22.3 32,54.3 10,22.3 6,26.3 5,38.3 12,38.3 10,45.3 		"/>
		<circle fill="#363636" cx="32" cy="29.3" r="2"/>
		<circle fill="#363636" cx="32" cy="39.3" r="2"/>
		<g>
			<path fill="none" stroke="#363636" stroke-width="2" stroke-linejoin="round" stroke-miterlimit="10" d="M36.7,17.9l3.9,2
				c1.8,1,3.9-0.6,3.9-3v-6.2c0-2.3-2.1-3.9-3.9-3l-3.9,2"/>
			<path fill="none" stroke="#363636" stroke-width="2" stroke-linejoin="round" stroke-miterlimit="10" d="M36.7,17.9"/>
			<path fill="none" stroke="#363636" stroke-width="2" stroke-linejoin="round" stroke-miterlimit="10" d="M36.7,9.8"/>
			<path fill="none" stroke="#363636" stroke-width="2" stroke-linejoin="round" stroke-miterlimit="10" d="M27.3,9.8"/>
			<path fill="none" stroke="#363636" stroke-width="2" stroke-linejoin="round" stroke-miterlimit="10" d="M27.3,9.8l-3.9-2
				c-1.8-1-3.9,0.6-3.9,3V17c0,2.3,2.1,3.9,3.9,3l3.9-2"/>
			<path fill="none" stroke="#363636" stroke-width="2" stroke-linejoin="round" stroke-miterlimit="10" d="M27.3,17.9"/>
			<path fill="none" stroke="#363636" stroke-width="2" stroke-linejoin="round" stroke-miterlimit="10" d="M36.7,17.9
				c0.5-0.6,0.8-1.4,0.8-2.3v-3.6c0-0.9-0.3-1.6-0.8-2.3"/>
			<path fill="none" stroke="#363636" stroke-width="2" stroke-linejoin="round" stroke-miterlimit="10" d="M27.3,9.8
				c-0.5,0.6-0.8,1.4-0.8,2.3v3.6c0,0.9,0.3,1.6,0.8,2.3"/>
			<path fill="none" stroke="#363636" stroke-width="2" stroke-linejoin="round" stroke-miterlimit="10" d="M27.3,9.8
				C28,8.9,29,8.3,30.2,8.3h3.6c1.2,0,2.3,0.6,2.9,1.5"/>
			<path fill="none" stroke="#363636" stroke-width="2" stroke-linejoin="round" stroke-miterlimit="10" d="M36.7,17.9
				c-0.7,0.9-1.7,1.5-2.9,1.5h-3.6c-1.2,0-2.3-0.6-2.9-1.5"/>
		</g>
	</g>
</g>
</svg>
