<?xml version="1.0" encoding="utf-8"?>
<!-- Generator: Adobe Illustrator 18.1.1, SVG Export Plug-In . SVG Version: 6.00 Build 0)  -->
<svg version="1.1" xmlns="http://www.w3.org/2000/svg" xmlns:xlink="http://www.w3.org/1999/xlink" x="0px" y="0px"
	 viewBox="0 0 64 64" enable-background="new 0 0 64 64" xml:space="preserve">
<g id="Layer_2" display="none">
	<rect x="-171" y="-66.5" display="inline" fill="#84C9F3" stroke="#000000" stroke-miterlimit="10" width="485" height="615.8"/>
</g>
<g id="Layer_1">
	<g>
		<g>
			<g>
				<line fill="#FFFFFF" x1="9.9" y1="8" x2="9.9" y2="56"/>
			</g>
			<g>
				<path fill="#363636" d="M9.9,57c-0.6,0-1-0.4-1-1V8c0-0.6,0.4-1,1-1s1,0.4,1,1v48C10.9,56.6,10.4,57,9.9,57z"/>
			</g>
		</g>
		<g>
			<path fill="#363636" d="M13.2,7.3C13,7.5,12.9,7.7,12.9,8c0,0.3,0.1,0.5,0.3,0.7C13.4,8.9,13.6,9,13.9,9c0.3,0,0.5-0.1,0.7-0.3
				c0.2-0.2,0.3-0.5,0.3-0.7c0-0.3-0.1-0.5-0.3-0.7C14.2,6.9,13.5,6.9,13.2,7.3z"/>
			<path fill="#363636" d="M13.9,23c-0.6,0-1,0.4-1,1c0,0.5,0.4,1,1,1c0.5,0,1-0.5,1-1C14.9,23.4,14.4,23,13.9,23z"/>
			<path fill="#363636" d="M13.9,19c-0.6,0-1,0.4-1,1c0,0.5,0.4,1,1,1c0.5,0,1-0.5,1-1C14.9,19.4,14.4,19,13.9,19z"/>
			<path fill="#363636" d="M13.9,15c-0.6,0-1,0.4-1,1c0,0.5,0.4,1,1,1c0.5,0,1-0.5,1-1C14.9,15.4,14.4,15,13.9,15z"/>
			<path fill="#363636" d="M13.9,27c-0.6,0-1,0.4-1,1c0,0.5,0.4,1,1,1c0.5,0,1-0.5,1-1C14.9,27.4,14.4,27,13.9,27z"/>
			<path fill="#363636" d="M13.9,11c-0.6,0-1,0.4-1,1c0,0.5,0.4,1,1,1c0.5,0,1-0.5,1-1C14.9,11.4,14.4,11,13.9,11z"/>
			<path fill="#363636" d="M13.9,47c-0.6,0-1,0.4-1,1c0,0.5,0.4,1,1,1c0.5,0,1-0.5,1-1C14.9,47.4,14.4,47,13.9,47z"/>
			<path fill="#363636" d="M13.9,43c-0.6,0-1,0.4-1,1c0,0.5,0.4,1,1,1c0.5,0,1-0.5,1-1C14.9,43.4,14.4,43,13.9,43z"/>
			<path fill="#363636" d="M13.9,39c-0.6,0-1,0.4-1,1c0,0.5,0.4,1,1,1c0.5,0,1-0.5,1-1C14.9,39.4,14.4,39,13.9,39z"/>
			<path fill="#363636" d="M13.9,31c-0.6,0-1,0.4-1,1c0,0.5,0.4,1,1,1c0.5,0,1-0.5,1-1C14.9,31.4,14.4,31,13.9,31z"/>
			<path fill="#363636" d="M13.9,35c-0.6,0-1,0.4-1,1c0,0.5,0.4,1,1,1c0.5,0,1-0.5,1-1C14.9,35.4,14.4,35,13.9,35z"/>
			<path fill="#363636" d="M13.9,51c-0.6,0-1,0.4-1,1c0,0.5,0.4,1,1,1c0.5,0,1-0.5,1-1C14.9,51.4,14.4,51,13.9,51z"/>
			<path fill="#363636" d="M13.2,55.3c-0.2,0.2-0.3,0.4-0.3,0.7c0,0.3,0.1,0.5,0.3,0.7c0.2,0.2,0.4,0.3,0.7,0.3
				c0.3,0,0.5-0.1,0.7-0.3c0.2-0.2,0.3-0.5,0.3-0.7c0-0.3-0.1-0.5-0.3-0.7C14.2,54.9,13.5,54.9,13.2,55.3z"/>
			<path fill="#363636" d="M50,9c0.3,0,0.5-0.1,0.7-0.3C50.9,8.5,51,8.3,51,8c0-0.3-0.1-0.5-0.3-0.7c-0.4-0.4-1.1-0.4-1.4,0
				C49.1,7.5,49,7.7,49,8c0,0.3,0.1,0.5,0.3,0.7C49.5,8.9,49.7,9,50,9z"/>
			<circle fill="#363636" cx="50" cy="20" r="1"/>
			<circle fill="#363636" cx="50" cy="24" r="1"/>
			<circle fill="#363636" cx="50" cy="28" r="1"/>
			<circle fill="#363636" cx="50" cy="16" r="1"/>
			<circle fill="#363636" cx="50" cy="12" r="1"/>
			<circle fill="#363636" cx="50" cy="48" r="1"/>
			<circle fill="#363636" cx="50" cy="44" r="1"/>
			<circle fill="#363636" cx="50" cy="52" r="1"/>
			<circle fill="#363636" cx="50" cy="40" r="1"/>
			<circle fill="#363636" cx="50" cy="32" r="1"/>
			<circle fill="#363636" cx="50" cy="36" r="1"/>
			<path fill="#363636" d="M49.3,55.3C49.1,55.5,49,55.7,49,56c0,0.3,0.1,0.5,0.3,0.7c0.2,0.2,0.4,0.3,0.7,0.3
				c0.3,0,0.5-0.1,0.7-0.3c0.2-0.2,0.3-0.4,0.3-0.7c0-0.3-0.1-0.5-0.3-0.7C50.3,54.9,49.7,54.9,49.3,55.3z"/>
		</g>
		<g>
			<g>
				<line fill="#FFFFFF" x1="54" y1="8" x2="54" y2="56"/>
			</g>
			<g>
				<path fill="#363636" d="M54,57c-0.6,0-1-0.4-1-1V8c0-0.6,0.4-1,1-1s1,0.4,1,1v48C55,56.6,54.6,57,54,57z"/>
			</g>
		</g>
		<g>
			<g>
				<path fill="none" d="M19.1,55c-0.6,0-1.1-0.5-1.1-1.1V37.1c0-0.6,0.5-1.1,1.1-1.1h25.8c0.6,0,1.1,0.5,1.1,1.1v16.8
					c0,0.6-0.5,1.1-1.1,1.1H19.1z"/>
			</g>
			<g>
				<path fill="#363636" d="M44.9,37c0.1,0,0.1,0.1,0.1,0.1v16.8c0,0.1-0.1,0.1-0.1,0.1H19.1c-0.1,0-0.1-0.1-0.1-0.1V37.1
					c0-0.1,0.1-0.1,0.1-0.1H44.9 M44.9,35H19.1C18,35,17,36,17,37.1v16.8c0,1.2,1,2.1,2.1,2.1h25.8c1.2,0,2.1-1,2.1-2.1V37.1
					C47,36,46,35,44.9,35L44.9,35z"/>
			</g>
		</g>
		<g>
			<g>
				<path fill="none" d="M19.1,28c-0.6,0-1.1-0.5-1.1-1.1V10.1C18,9.5,18.5,9,19.1,9h25.8c0.6,0,1.1,0.5,1.1,1.1v16.8
					c0,0.6-0.5,1.1-1.1,1.1H19.1z"/>
			</g>
			<g>
				<path fill="#363636" d="M44.9,10c0.1,0,0.1,0.1,0.1,0.1v16.8c0,0.1-0.1,0.1-0.1,0.1H19.1c-0.1,0-0.1-0.1-0.1-0.1V10.1
					c0-0.1,0.1-0.1,0.1-0.1H44.9 M44.9,8H19.1C18,8,17,9,17,10.1v16.8c0,1.2,1,2.1,2.1,2.1h25.8c1.2,0,2.1-1,2.1-2.1V10.1
					C47,9,46,8,44.9,8L44.9,8z"/>
			</g>
		</g>
		<g>
			<rect y="0" fill="none" width="64" height="64"/>
		</g>
	</g>
</g>
</svg>
