<?xml version="1.0" encoding="utf-8"?>
<!-- Generator: Adobe Illustrator 18.1.1, SVG Export Plug-In . SVG Version: 6.00 Build 0)  -->
<svg version="1.1" xmlns="http://www.w3.org/2000/svg" xmlns:xlink="http://www.w3.org/1999/xlink" x="0px" y="0px"
	 viewBox="0 0 64 64" enable-background="new 0 0 64 64" xml:space="preserve">
<g id="Layer_2" display="none">
	<rect x="-372" y="-66.5" display="inline" fill="#84C9F3" stroke="#000000" stroke-miterlimit="10" width="485" height="615.8"/>
</g>
<g id="Layer_1">
	<g>
		<path fill="none" stroke="#363636" stroke-width="2" stroke-linecap="round" stroke-linejoin="round" stroke-miterlimit="10" d="
			M34.1,9.1L38.6,23c0.3,0.9,1.2,1.6,2.1,1.6h14.6c2.2,0,3.1,2.8,1.3,4.1l-11.8,8.6c-0.8,0.6-1.1,1.6-0.8,2.5l4.5,13.9
			c0.7,2.1-1.7,3.8-3.5,2.5l-11.8-8.6c-0.8-0.6-1.9-0.6-2.6,0l-11.8,8.6c-1.8,1.3-4.1-0.4-3.5-2.5l4.5-13.9c0.3-0.9,0-1.9-0.8-2.5
			L7.3,28.6c-1.8-1.3-0.9-4.1,1.3-4.1h14.6c1,0,1.8-0.6,2.1-1.6l4.5-13.9C30.5,7.1,33.5,7.1,34.1,9.1z"/>
		
			<circle fill="none" stroke="#363636" stroke-width="2" stroke-linecap="round" stroke-linejoin="round" stroke-miterlimit="10" cx="32" cy="34.5" r="6.8"/>
		<rect y="0" fill="none" width="64" height="64"/>
	</g>
</g>
</svg>
