<?xml version="1.0" encoding="utf-8"?>
<!-- Generator: Adobe Illustrator 18.1.1, SVG Export Plug-In . SVG Version: 6.00 Build 0)  -->
<svg version="1.1" xmlns="http://www.w3.org/2000/svg" xmlns:xlink="http://www.w3.org/1999/xlink" x="0px" y="0px"
	 viewBox="0 0 64 64" enable-background="new 0 0 64 64" xml:space="preserve">
<g id="Layer_2" display="none">
	<rect x="-305" y="-133.5" display="inline" fill="#84C9F3" stroke="#000000" stroke-miterlimit="10" width="485" height="615.8"/>
</g>
<g id="Layer_1">
	<g>
		
			<line fill="#FFFFFF" stroke="#363636" stroke-width="2" stroke-linecap="round" stroke-miterlimit="10" x1="55.1" y1="11.9" x2="56.5" y2="13.4"/>
		
			<line fill="#FFFFFF" stroke="#363636" stroke-width="2" stroke-linecap="round" stroke-miterlimit="10" x1="50.8" y1="7.7" x2="52.2" y2="9.1"/>
		
			<line fill="#FFFFFF" stroke="#363636" stroke-width="2" stroke-linecap="round" stroke-miterlimit="10" x1="52.2" y1="14.8" x2="53.6" y2="16.2"/>
		
			<line fill="#FFFFFF" stroke="#363636" stroke-width="2" stroke-linecap="round" stroke-miterlimit="10" x1="48" y1="10.5" x2="49.4" y2="12"/>
		<g>
			<path fill="#363636" d="M25.4,36.8c0.5,0,1,0.2,1.4,0.6c0.8,0.8,0.8,2,0,2.8c-0.4,0.4-0.9,0.6-1.4,0.6c-0.5,0-1-0.2-1.4-0.6
				c-0.8-0.8-0.8-2,0-2.8C24.3,37,24.9,36.8,25.4,36.8 M25.4,34.8c-1.1,0-2.1,0.4-2.8,1.2c-0.8,0.8-1.2,1.8-1.2,2.8s0.4,2.1,1.2,2.8
				c0.8,0.8,1.8,1.2,2.8,1.2c1.1,0,2.1-0.4,2.8-1.2c0.8-0.8,1.2-1.8,1.2-2.8s-0.4-2.1-1.2-2.8C27.4,35.2,26.4,34.8,25.4,34.8
				L25.4,34.8z"/>
		</g>
		
			<rect x="41" y="3.1" transform="matrix(0.7071 0.7071 -0.7071 0.7071 27.5563 -24.2424)" fill="none" stroke="#363636" stroke-width="2" stroke-miterlimit="10" width="4" height="36"/>
		
			<line fill="#FFFFFF" stroke="#363636" stroke-width="2" stroke-linecap="round" stroke-miterlimit="10" x1="18.3" y1="41.6" x2="22.5" y2="45.9"/>
		<rect fill="none" width="64" height="64"/>
		<path fill="none" stroke="#363636" stroke-width="2" stroke-linecap="round" stroke-linejoin="round" stroke-miterlimit="10" d="
			M38.4,22.5c-4.1-2.7-9.5-2.4-12.8,1c-0.9,0.9-1.6,2-2.1,3.1c-0.9,2.3-3.1,3.7-5.5,3.8c-2.7,0.1-5.1,1.1-7,3
			C6.4,38,7.2,46.1,12.6,51.5s13.6,6.2,18.2,1.6c1.9-1.9,2.9-4.4,3-7c0.1-2.4,1.5-4.6,3.8-5.5c1.1-0.5,2.2-1.2,3.1-2.1
			c3.4-3.4,3.7-8.7,1-12.8"/>
	</g>
</g>
</svg>
