<?xml version="1.0" encoding="utf-8"?>
<!-- Generator: Adobe Illustrator 18.1.1, SVG Export Plug-In . SVG Version: 6.00 Build 0)  -->
<svg version="1.1" xmlns="http://www.w3.org/2000/svg" xmlns:xlink="http://www.w3.org/1999/xlink" x="0px" y="0px"
	 viewBox="0 0 64 64" enable-background="new 0 0 64 64" xml:space="preserve">
<g id="Layer_2" display="none">
	<rect x="-238" y="-133.5" display="inline" fill="#84C9F3" stroke="#000000" stroke-miterlimit="10" width="485" height="615.8"/>
</g>
<g id="Layer_1">
	<g>
		<g>
			<path fill="#363636" d="M43.1,7c6.6,0,12,5.4,12,12s-5.4,12-12,12s-12-5.4-12-12S36.5,7,43.1,7 M43.1,5c-7.7,0-14,6.3-14,14
				c0,7.7,6.3,14,14,14c7.7,0,14-6.3,14-14C57.1,11.3,50.8,5,43.1,5L43.1,5z"/>
		</g>
		<circle fill="#363636" cx="29.1" cy="33" r="2"/>
		<circle fill="#363636" cx="24.1" cy="38" r="2"/>
		<path fill="none" stroke="#363636" stroke-width="2" stroke-linecap="round" stroke-miterlimit="10" d="M11.1,50c0,0-0.2,0.2-2,2
			c-2.7,2.7-0.5,7.4,6.4,5.9C28,55.3,29.2,50,37.1,48c8.2-2,11.9,0.5,18,9"/>
		
			<line fill="none" stroke="#363636" stroke-width="2" stroke-linecap="round" stroke-miterlimit="10" x1="34.1" y1="16" x2="40.1" y2="10"/>
		
			<line fill="none" stroke="#363636" stroke-width="2" stroke-linecap="round" stroke-miterlimit="10" x1="34.1" y1="22" x2="46.1" y2="10"/>
		
			<line fill="none" stroke="#363636" stroke-width="2" stroke-linecap="round" stroke-miterlimit="10" x1="36.1" y1="26" x2="50.1" y2="12"/>
		
			<line fill="none" stroke="#363636" stroke-width="2" stroke-linecap="round" stroke-miterlimit="10" x1="40.1" y1="28" x2="52.1" y2="16"/>
		
			<line fill="none" stroke="#363636" stroke-width="2" stroke-linecap="round" stroke-miterlimit="10" x1="46.1" y1="28" x2="52.1" y2="22"/>
		<rect fill="none" width="64" height="64"/>
		<path fill="none" stroke="#363636" stroke-width="2" stroke-miterlimit="10" d="M30.2,20.4L13.1,37c-0.6,0.6-0.6,1.7,0,2.3l0,0
			l-4,8.7l4,4l9-3.7l0,0c0.6,0.6,1.7,0.6,2.3,0L41.2,32"/>
	</g>
</g>
</svg>
