<?xml version="1.0" encoding="utf-8"?>
<!-- Generator: Adobe Illustrator 18.1.1, SVG Export Plug-In . SVG Version: 6.00 Build 0)  -->
<svg version="1.1" xmlns="http://www.w3.org/2000/svg" xmlns:xlink="http://www.w3.org/1999/xlink" x="0px" y="0px"
	 viewBox="0 0 64 64" enable-background="new 0 0 64 64" xml:space="preserve">
<g id="Layer_2" display="none">
	<rect x="-238" y="-66.5" display="inline" fill="#84C9F3" stroke="#000000" stroke-miterlimit="10" width="485" height="615.8"/>
</g>
<g id="Layer_1">
	<g>
		<path fill="none" stroke="#363636" stroke-width="2" stroke-miterlimit="10" d="M43,44H21c-2.2,0-4-1.8-4-4V28c0-2.2,1.8-4,4-4h22
			c2.2,0,4,1.8,4,4v12C47,42.2,45.2,44,43,44z"/>
		
			<line fill="#FFFFFF" stroke="#363636" stroke-width="2" stroke-linecap="round" stroke-miterlimit="10" x1="32" y1="44" x2="21.4" y2="54.6"/>
		
			<line fill="#FFFFFF" stroke="#363636" stroke-width="2" stroke-linecap="round" stroke-miterlimit="10" x1="32" y1="44" x2="32" y2="59"/>
		
			<line fill="#FFFFFF" stroke="#363636" stroke-width="2" stroke-linecap="round" stroke-miterlimit="10" x1="32" y1="44" x2="42.6" y2="54.6"/>
		<g>
			<path fill="none" stroke="#363636" stroke-width="2" stroke-linecap="round" stroke-linejoin="round" stroke-miterlimit="10" d="
				M50.3,25c1.9-2.1,3.1-4.9,3.1-8c0-6.6-5.4-12-12-12c-3.8,0-7.2,1.8-9.4,4.6C29.8,6.8,26.4,5,22.6,5c-6.6,0-12,5.4-12,12
				c0,3.1,1.2,5.9,3.1,8"/>
		</g>
		
			<polyline fill="none" stroke="#363636" stroke-width="2" stroke-linecap="round" stroke-linejoin="round" stroke-miterlimit="10" points="
			47.2,31.9 54,29 54,40 47.3,37.6 		"/>
	</g>
</g>
</svg>
