<?xml version="1.0" encoding="utf-8"?>
<!-- Generator: Adobe Illustrator 18.1.1, SVG Export Plug-In . SVG Version: 6.00 Build 0)  -->
<svg version="1.1" xmlns="http://www.w3.org/2000/svg" xmlns:xlink="http://www.w3.org/1999/xlink" x="0px" y="0px"
	 viewBox="0 0 64 64" enable-background="new 0 0 64 64" xml:space="preserve">
<g id="Layer_2" display="none">
	<rect x="-37" y="-267.5" display="inline" fill="#84C9F3" stroke="#000000" stroke-miterlimit="10" width="485" height="615.8"/>
</g>
<g id="Layer_1">
	<g>
		<path fill="none" stroke="#363636" stroke-width="2" stroke-linecap="round" stroke-linejoin="round" stroke-miterlimit="10" d="
			M28,21V10c0-1.1,0.9-2,2-2h24c1.1,0,2,0.9,2,2v19.8c0,1.4-0.5,2.8-1.4,3.8l-6.8,8.2C46.7,43.2,45,44,43.2,44H40
			c-1.6,0-3.1-0.6-4.2-1.8"/>
		<path fill="none" stroke="#363636" stroke-width="2" stroke-linecap="round" stroke-linejoin="round" stroke-miterlimit="10" d="
			M45.9,21c1.2,1.2,3.1,1.2,4.2,0"/>
		
			<line fill="none" stroke="#363636" stroke-width="2" stroke-linecap="round" stroke-linejoin="round" stroke-miterlimit="10" x1="33.9" y1="21" x2="33.9" y2="21"/>
		<path fill="none" stroke="#363636" stroke-width="2" stroke-linecap="round" stroke-linejoin="round" stroke-miterlimit="10" d="
			M38.1,21c-0.7,0.7-1.8,1-2.8,0.8"/>
		<path fill="none" stroke="#363636" stroke-width="2" stroke-linecap="round" stroke-linejoin="round" stroke-miterlimit="10" d="
			M46,27c-0.1,0.9-1.3,1.5-2.2,1.3c-1,1-2.6,1-3.5,0c-0.9,0.2-2.1-0.4-2.2-1.3"/>
		<path fill="none" stroke="#363636" stroke-width="2" stroke-linecap="round" stroke-linejoin="round" stroke-miterlimit="10" d="
			M48,34.5c-3.4-3.4-8.9-3.4-12.2,0"/>
		
			<line fill="none" stroke="#363636" stroke-width="2" stroke-linecap="round" stroke-linejoin="round" stroke-miterlimit="10" x1="35.8" y1="34.5" x2="35.8" y2="34.5"/>
		
			<line fill="none" stroke="#363636" stroke-width="2" stroke-linecap="round" stroke-linejoin="round" stroke-miterlimit="10" x1="35.8" y1="42.2" x2="35.8" y2="34.5"/>
		<path fill="none" stroke="#363636" stroke-width="2" stroke-linecap="round" stroke-linejoin="round" stroke-miterlimit="10" d="
			M28,21H9.8c-1.1,0-2,0.9-2,2v20c0,1.3,0.4,2.6,1.2,3.6l6,8c1.1,1.5,2.9,2.4,4.8,2.4H23c1.8,0,3.5-0.8,4.6-2.2l6.8-8.2
			c0.9-1.1,1.4-2.4,1.4-3.8v-0.6"/>
		<path fill="none" stroke="#363636" stroke-width="2" stroke-linecap="round" stroke-linejoin="round" stroke-miterlimit="10" d="
			M35.4,21.8c-0.3-0.5-0.9-0.8-1.5-0.8"/>
		<path fill="none" stroke="#363636" stroke-width="2" stroke-linecap="round" stroke-linejoin="round" stroke-miterlimit="10" d="
			M35.4,21.8c0.3,0.3,0.4,0.7,0.4,1.2v11.5"/>
		<path fill="none" stroke="#363636" stroke-width="2" stroke-linecap="round" stroke-linejoin="round" stroke-miterlimit="10" d="
			M33.9,21c0,0-0.1,0-0.1,0H28"/>
		<path fill="none" stroke="#363636" stroke-width="2" stroke-linecap="round" stroke-linejoin="round" stroke-miterlimit="10" d="
			M13.6,34c1.2-1.2,3.1-1.2,4.2,0"/>
		<path fill="none" stroke="#363636" stroke-width="2" stroke-linecap="round" stroke-linejoin="round" stroke-miterlimit="10" d="
			M25.6,34c0.9-0.9,2.3-1.1,3.5-0.5"/>
		<path fill="none" stroke="#363636" stroke-width="2" stroke-linecap="round" stroke-linejoin="round" stroke-miterlimit="10" d="
			M29.1,33.5c0.3,0.1,0.5,0.3,0.8,0.5"/>
		<path fill="none" stroke="#363636" stroke-width="2" stroke-linecap="round" stroke-linejoin="round" stroke-miterlimit="10" d="
			M25.8,40c-0.1,0.9-1.3,1.5-2.2,1.3c-1,1-2.6,1-3.5,0c-0.9,0.2-2.1-0.4-2.2-1.3"/>
		<path fill="none" stroke="#363636" stroke-width="2" stroke-linecap="round" stroke-linejoin="round" stroke-miterlimit="10" d="
			M27.8,44.5c-3.4,3.4-8.9,3.4-12.2,0"/>
	</g>
</g>
</svg>
