<?xml version="1.0" encoding="utf-8"?>
<!-- Generator: Adobe Illustrator 18.1.1, SVG Export Plug-In . SVG Version: 6.00 Build 0)  -->
<svg version="1.1" xmlns="http://www.w3.org/2000/svg" xmlns:xlink="http://www.w3.org/1999/xlink" x="0px" y="0px"
	 viewBox="0 0 64 64" enable-background="new 0 0 64 64" xml:space="preserve">
<g id="Layer_2" display="none">
	<rect x="-37" y="-200.5" display="inline" fill="#84C9F3" stroke="#000000" stroke-miterlimit="10" width="485" height="615.8"/>
</g>
<g id="Layer_1">
	<g>
		
			<rect x="14" y="47" fill="none" stroke="#363636" stroke-width="2" stroke-linecap="round" stroke-miterlimit="10" width="36" height="10"/>
		
			<line fill="#FFFFFF" stroke="#363636" stroke-width="2" stroke-linecap="square" stroke-miterlimit="10" x1="13" y1="47" x2="51" y2="47"/>
		
			<line fill="#FFFFFF" stroke="#363636" stroke-width="2" stroke-linecap="square" stroke-miterlimit="10" x1="16" y1="43" x2="48" y2="43"/>
		
			<line fill="#FFFFFF" stroke="#363636" stroke-width="2" stroke-linecap="square" stroke-miterlimit="10" x1="13" y1="57" x2="51" y2="57"/>
		<path fill="none" stroke="#363636" stroke-width="2" stroke-linecap="round" stroke-linejoin="round" stroke-miterlimit="10" d="
			M48.1,39c1-1.4,2.4-6.7-4-10.5c-5.8-3.4-14-11.4-13.6-20.5c-1.5,2.5-11.5,20-13,22.5c7.7-4.9,18.7-1.9,24.6,1.5c4.5,2.6,2,7,2,7
			H48.1z"/>
		
			<line fill="#FFFFFF" stroke="#363636" stroke-width="2" stroke-linecap="round" stroke-linejoin="round" stroke-miterlimit="10" x1="23" y1="38" x2="23" y2="40"/>
		
			<line fill="none" stroke="#363636" stroke-width="2" stroke-linecap="round" stroke-linejoin="round" stroke-miterlimit="10" x1="22" y1="39" x2="13" y2="39"/>
		<rect fill="none" width="64" height="64"/>
	</g>
</g>
</svg>
