<?xml version="1.0" encoding="utf-8"?>
<!-- Generator: Adobe Illustrator 18.1.1, SVG Export Plug-In . SVG Version: 6.00 Build 0)  -->
<svg version="1.1" xmlns="http://www.w3.org/2000/svg" xmlns:xlink="http://www.w3.org/1999/xlink" x="0px" y="0px"
	 viewBox="0 0 64 64" enable-background="new 0 0 64 64" xml:space="preserve">
<g id="Layer_2" display="none">
	<rect x="-171" y="-200.5" display="inline" fill="#84C9F3" stroke="#000000" stroke-miterlimit="10" width="485" height="615.8"/>
</g>
<g id="Layer_1">
	<g>
		<path fill="none" stroke="#363636" stroke-width="2" stroke-linecap="round" stroke-linejoin="round" stroke-miterlimit="10" d="
			M55,54H9c-1.1,0-2-0.9-2-2V21c0-1.1,0.9-2,2-2h46c1.1,0,2,0.9,2,2v31C57,53.1,56.1,54,55,54z"/>
		
			<polyline fill="none" stroke="#363636" stroke-width="2" stroke-linecap="round" stroke-linejoin="round" stroke-miterlimit="10" points="
			22,9 32,19 42,9 		"/>
		<path fill="none" stroke="#363636" stroke-width="2" stroke-linecap="round" stroke-linejoin="round" stroke-miterlimit="10" d="
			M28,49.5c-6.6,0-13.2-0.9-15.3-1.3c-0.4-0.1-0.7-0.4-0.8-0.8C11.6,45.6,11,40.6,11,36c0-4.5,0.6-9.4,0.9-11.2
			c0.1-0.5,0.4-0.8,0.9-0.9c2.2-0.2,8.8-0.4,15.2-0.4"/>
		<path fill="none" stroke="#363636" stroke-width="2" stroke-linecap="round" stroke-linejoin="round" stroke-miterlimit="10" d="
			M28,49.5c6.6,0,13.2-0.9,15.3-1.3c0.4-0.1,0.7-0.4,0.8-0.8C44.4,45.6,45,40.6,45,36c0-4.5-0.6-9.4-0.9-11.2
			c-0.1-0.5-0.4-0.8-0.9-0.9c-2.2-0.2-8.8-0.4-15.2-0.4"/>
		<circle fill="#363636" cx="51" cy="27" r="2"/>
		<circle fill="#363636" cx="51" cy="33" r="2"/>
		<rect fill="none" width="64" height="64"/>
	</g>
</g>
</svg>
