<?xml version="1.0" encoding="utf-8"?>
<!-- Generator: Adobe Illustrator 18.1.1, SVG Export Plug-In . SVG Version: 6.00 Build 0)  -->
<svg version="1.1" xmlns="http://www.w3.org/2000/svg" xmlns:xlink="http://www.w3.org/1999/xlink" x="0px" y="0px"
	 viewBox="0 0 64 64" enable-background="new 0 0 64 64" xml:space="preserve">
<g id="Layer_2" display="none">
	<rect x="-104" y="-200.5" display="inline" fill="#84C9F3" stroke="#000000" stroke-miterlimit="10" width="485" height="615.8"/>
</g>
<g id="Layer_1">
	<g>
		<circle fill="none" stroke="#363636" stroke-width="2" stroke-linecap="round" stroke-miterlimit="10" cx="32" cy="32" r="26"/>
		<g>
			<path fill="#363636" d="M32,11.9c1.4,0,2.8,0.1,4.2,0.4c0.3,0.1,0.4,0.3,0.5,0.4c0.1,0.2,0.2,0.5,0.1,0.8L32.8,24
				c-0.2,0.5-0.6,0.6-0.8,0.6c-0.2,0-0.6-0.1-0.8-0.6l-3.9-10.6c-0.1-0.3-0.1-0.5,0.1-0.8c0.1-0.1,0.2-0.3,0.5-0.4
				C29.2,12,30.6,11.9,32,11.9 M32,9.9c-1.6,0-3.1,0.2-4.6,0.5c-1.7,0.4-2.7,2.2-2,3.8l3.9,10.6c0.5,1.3,1.6,1.9,2.7,1.9
				s2.2-0.6,2.7-1.9l3.9-10.6c0.6-1.6-0.3-3.5-2-3.8C35.1,10,33.6,9.9,32,9.9L32,9.9z"/>
		</g>
		<g>
			<path fill="#363636" d="M17.6,18.3c0.3,0,0.5,0.1,0.7,0.3l7.2,8.7c0.3,0.4,0.2,0.7,0.1,0.9c-0.1,0.1-0.3,0.5-0.8,0.5
				c-0.1,0-0.1,0-0.2,0l-11.1-1.9c-0.3,0-0.5-0.2-0.6-0.4c-0.1-0.1-0.2-0.4-0.1-0.7c0.4-1.3,1-2.6,1.7-3.8c0.7-1.2,1.5-2.4,2.5-3.4
				C17.2,18.3,17.4,18.3,17.6,18.3 M17.6,16.3c-0.8,0-1.5,0.3-2.1,0.9c-1,1.1-1.9,2.4-2.7,3.7c-0.8,1.4-1.4,2.8-1.9,4.2
				c-0.5,1.7,0.6,3.4,2.3,3.7l11.1,1.9c0.2,0,0.3,0,0.5,0c2.3,0,3.8-2.8,2.2-4.7l-7.2-8.7C19.3,16.6,18.4,16.3,17.6,16.3L17.6,16.3z
				"/>
		</g>
		<g>
			<path fill="#363636" d="M24.8,35.3c0.5,0,0.7,0.4,0.8,0.5c0.1,0.2,0.2,0.6-0.1,0.9l-7.2,8.7c-0.2,0.2-0.4,0.3-0.7,0.3
				c-0.2,0-0.4,0-0.6-0.3c-0.9-1-1.8-2.2-2.5-3.4c-0.7-1.2-1.3-2.5-1.7-3.8c-0.1-0.3,0-0.5,0.1-0.7c0.1-0.2,0.4-0.4,0.6-0.4
				l11.1-1.9C24.7,35.3,24.8,35.3,24.8,35.3 M24.8,33.3c-0.2,0-0.3,0-0.5,0l-11.1,1.9c-1.7,0.3-2.8,2-2.3,3.7
				c0.5,1.4,1.1,2.8,1.9,4.2c0.8,1.4,1.7,2.6,2.7,3.7c0.6,0.6,1.3,0.9,2.1,0.9c0.8,0,1.7-0.4,2.2-1.1L27,38
				C28.6,36.1,27.2,33.3,24.8,33.3L24.8,33.3z"/>
		</g>
		<g>
			<path fill="#363636" d="M32,39.4c0.2,0,0.6,0.1,0.8,0.6l3.9,10.6c0.1,0.3,0.1,0.5-0.1,0.8c-0.1,0.1-0.2,0.3-0.5,0.4
				c-1.4,0.3-2.8,0.4-4.2,0.4s-2.8-0.1-4.2-0.4c-0.3-0.1-0.4-0.3-0.5-0.4c-0.1-0.2-0.2-0.5-0.1-0.8L31.2,40
				C31.4,39.5,31.8,39.4,32,39.4 M32,37.4c-1.1,0-2.2,0.6-2.7,1.9l-3.9,10.6c-0.6,1.6,0.3,3.5,2,3.8c1.5,0.3,3,0.5,4.6,0.5
				s3.1-0.2,4.6-0.5c1.7-0.4,2.7-2.2,2-3.8l-3.9-10.6C34.2,38,33.1,37.4,32,37.4L32,37.4z"/>
		</g>
		<g>
			<path fill="#363636" d="M39.2,35.3c0.1,0,0.1,0,0.2,0l11.1,1.9c0.3,0,0.5,0.2,0.6,0.4c0.1,0.1,0.2,0.4,0.1,0.7
				c-0.4,1.3-1,2.6-1.7,3.8c-0.7,1.2-1.5,2.4-2.5,3.4c-0.2,0.2-0.4,0.3-0.6,0.3c-0.3,0-0.5-0.1-0.7-0.3l-7.2-8.7
				c-0.3-0.4-0.2-0.7-0.1-0.9C38.4,35.7,38.7,35.3,39.2,35.3 M39.2,33.3c-2.3,0-3.8,2.8-2.2,4.7l7.2,8.7c0.6,0.7,1.4,1.1,2.2,1.1
				c0.8,0,1.5-0.3,2.1-0.9c1-1.1,1.9-2.4,2.7-3.7c0.8-1.4,1.4-2.8,1.9-4.2c0.5-1.7-0.6-3.4-2.3-3.7l-11.1-1.9
				C39.5,33.3,39.3,33.3,39.2,33.3L39.2,33.3z"/>
		</g>
		<g>
			<path fill="#363636" d="M46.4,18.3c0.2,0,0.4,0,0.6,0.3c0.9,1,1.8,2.2,2.5,3.4c0.7,1.2,1.3,2.5,1.7,3.8c0.1,0.3,0,0.5-0.1,0.7
				c-0.1,0.2-0.4,0.4-0.6,0.4l-11.1,1.9c-0.1,0-0.1,0-0.2,0c-0.5,0-0.7-0.4-0.8-0.5c-0.1-0.2-0.2-0.6,0.1-0.9l7.2-8.7
				C45.9,18.4,46.1,18.3,46.4,18.3 M46.4,16.3c-0.8,0-1.7,0.4-2.2,1.1L37,26c-1.6,1.9-0.2,4.7,2.2,4.7c0.2,0,0.3,0,0.5,0l11.1-1.9
				c1.7-0.3,2.8-2,2.3-3.7c-0.5-1.4-1.1-2.8-1.9-4.2c-0.8-1.4-1.7-2.6-2.7-3.7C47.9,16.6,47.2,16.3,46.4,16.3L46.4,16.3z"/>
		</g>
		<circle fill="#363636" cx="32" cy="32" r="2"/>
		<rect fill="none" width="64" height="64"/>
	</g>
</g>
</svg>
