<?xml version="1.0" encoding="utf-8"?>
<!-- Generator: Adobe Illustrator 18.1.1, SVG Export Plug-In . SVG Version: 6.00 Build 0)  -->
<svg version="1.1" xmlns="http://www.w3.org/2000/svg" xmlns:xlink="http://www.w3.org/1999/xlink" x="0px" y="0px"
	 viewBox="0 0 64 64" enable-background="new 0 0 64 64" xml:space="preserve">
<g id="Layer_2" display="none">
	<rect x="-372" y="-133.5" display="inline" fill="#84C9F3" stroke="#000000" stroke-miterlimit="10" width="485" height="615.8"/>
</g>
<g id="Layer_1">
	<g>
		<g>
			<g>
				<path fill="none" d="M48.6,40c-0.2,0-0.3,0-0.5-0.1L38.8,35l-9.3,4.9C29.4,40,29.2,40,29,40c-0.2,0-0.4-0.1-0.6-0.2
					c-0.3-0.2-0.5-0.6-0.4-1l1.8-10.4l-7.5-7.3c-0.3-0.3-0.4-0.7-0.3-1c0.1-0.4,0.4-0.6,0.8-0.7l10.4-1.5l4.7-9.4
					c0.2-0.3,0.5-0.6,0.9-0.6l0,0c0.4,0,0.7,0.2,0.9,0.6l4.7,9.4l10.4,1.5c0.4,0.1,0.7,0.3,0.8,0.7c0.1,0.4,0,0.8-0.3,1l-7.5,7.3
					l1.8,10.4c0.1,0.4-0.1,0.8-0.4,1C49,39.9,48.8,40,48.6,40z"/>
			</g>
			<g>
				<path fill="#363636" d="M38.8,8.9l4.9,9.9l10.9,1.6l-7.9,7.7L48.6,39l-9.8-5.1L29,39l1.9-10.9L23,20.4l10.9-1.6L38.8,8.9
					 M38.8,6.9c-0.8,0-1.5,0.4-1.8,1.1l-4.4,9l-9.9,1.4c-0.8,0.1-1.4,0.6-1.6,1.4c-0.2,0.7,0,1.5,0.5,2.1l7.2,7l-1.7,9.9
					c-0.1,0.8,0.2,1.5,0.8,2c0.3,0.3,0.8,0.4,1.2,0.4c0.3,0,0.6-0.1,0.9-0.2l8.9-4.7l8.9,4.7c0.3,0.2,0.6,0.2,0.9,0.2
					c0.4,0,0.8-0.1,1.2-0.4c0.6-0.4,0.9-1.2,0.8-2l-1.7-9.9l7.2-7c0.5-0.5,0.7-1.3,0.5-2.1c-0.2-0.7-0.9-1.3-1.6-1.4L45,17l-4.4-9
					C40.3,7.3,39.6,6.9,38.8,6.9L38.8,6.9z"/>
			</g>
		</g>
		<g>
			<g>
				<path fill="none" d="M19.4,40.1c-0.2,0-0.3,0-0.5-0.1l-3.8-2l-3.8,2c-0.1,0.1-0.3,0.1-0.5,0.1c-0.2,0-0.4-0.1-0.6-0.2
					c-0.3-0.2-0.5-0.6-0.4-1l0.7-4.2l-3-3c-0.3-0.3-0.4-0.7-0.3-1c0.1-0.4,0.4-0.6,0.8-0.7l4.2-0.6l1.9-3.8c0.2-0.3,0.5-0.6,0.9-0.6
					s0.7,0.2,0.9,0.6l1.9,3.8l4.2,0.6c0.4,0.1,0.7,0.3,0.8,0.7c0.1,0.4,0,0.8-0.3,1l-3,3l0.7,4.2c0.1,0.4-0.1,0.8-0.4,1
					C19.8,40.1,19.6,40.1,19.4,40.1z"/>
			</g>
			<g>
				<path fill="#363636" d="M15.2,26.2l2.1,4.3l4.7,0.7l-3.4,3.3l0.8,4.7l-4.2-2.2L11,39.1l0.8-4.7l-3.4-3.3l4.7-0.7L15.2,26.2
					 M15.2,24.2c-0.8,0-1.5,0.4-1.8,1.1l-1.6,3.3l-3.7,0.5c-0.8,0.1-1.4,0.6-1.6,1.4c-0.2,0.7,0,1.5,0.5,2.1l2.7,2.6L9,38.8
					c-0.1,0.8,0.2,1.5,0.8,2c0.3,0.3,0.8,0.4,1.2,0.4c0.3,0,0.6-0.1,0.9-0.2l3.3-1.7l3.3,1.7c0.3,0.2,0.6,0.2,0.9,0.2
					c0.4,0,0.8-0.1,1.2-0.4c0.6-0.4,0.9-1.2,0.8-2l-0.6-3.7l2.7-2.6c0.5-0.5,0.7-1.3,0.5-2.1c-0.2-0.7-0.9-1.3-1.6-1.4l-3.7-0.5
					L17,25.3C16.6,24.6,15.9,24.2,15.2,24.2L15.2,24.2z"/>
			</g>
		</g>
		<g>
			<g>
				<path fill="none" d="M32.6,56c-0.2,0-0.4-0.1-0.6-0.2c-0.3-0.2-0.5-0.6-0.4-1l0.7-4.2l-3-3c-0.3-0.3-0.4-0.7-0.3-1
					c0.1-0.4,0.4-0.6,0.8-0.7l4.2-0.6l1.9-3.8c0.2-0.3,0.5-0.6,0.9-0.6l0,0c0.4,0,0.7,0.2,0.9,0.6l1.9,3.8l4.2,0.6
					c0.4,0.1,0.7,0.3,0.8,0.7c0.1,0.4,0,0.8-0.3,1l-3,3l0.7,4.2c0.1,0.4-0.1,0.8-0.4,1C41.5,55.9,41.3,56,41,56
					c-0.2,0-0.3,0-0.5-0.1l-3.8-2l-3.8,2C32.9,56,32.8,56,32.6,56z"/>
			</g>
			<g>
				<path fill="#363636" d="M36.8,42l2.1,4.3l4.7,0.7l-3.4,3.3L41,55l-4.2-2.2L32.6,55l0.8-4.7L30,47l4.7-0.7L36.8,42 M36.8,40
					c-0.8,0-1.5,0.4-1.8,1.1l-1.6,3.3L29.7,45c-0.8,0.1-1.4,0.6-1.6,1.4c-0.2,0.7,0,1.5,0.5,2.1l2.7,2.6l-0.6,3.7
					c-0.1,0.8,0.2,1.5,0.8,2c0.3,0.3,0.8,0.4,1.2,0.4c0.3,0,0.6-0.1,0.9-0.2l3.3-1.7l3.3,1.7c0.3,0.2,0.6,0.2,0.9,0.2
					c0.4,0,0.8-0.1,1.2-0.4c0.6-0.4,0.9-1.2,0.8-2L42.4,51l2.7-2.6c0.5-0.5,0.7-1.3,0.5-2.1c-0.2-0.7-0.9-1.3-1.6-1.4l-3.7-0.5
					l-1.6-3.3C38.3,40.4,37.6,40,36.8,40L36.8,40z"/>
			</g>
		</g>
		<g>
			<rect y="0" fill="none" width="64" height="64"/>
		</g>
	</g>
</g>
</svg>
