<?xml version="1.0" encoding="utf-8"?>
<!-- Generator: Adobe Illustrator 18.1.1, SVG Export Plug-In . SVG Version: 6.00 Build 0)  -->
<svg version="1.1" xmlns="http://www.w3.org/2000/svg" xmlns:xlink="http://www.w3.org/1999/xlink" x="0px" y="0px"
	 viewBox="0 0 64 64" enable-background="new 0 0 64 64" xml:space="preserve">
<g id="Layer_2" display="none">
	<rect x="-104" y="-200.5" display="inline" fill="#84C9F3" stroke="#000000" stroke-miterlimit="10" width="485" height="615.8"/>
</g>
<g id="Layer_1">
	<g>
		<g>
			<path fill="#363636" d="M32,7c4.5,0,8.8,1.2,12.7,3.5l0,0c-1.1-0.2-2.3-0.3-3.5-0.3c-11.4,0-21.2,9.3-21.8,20.6
				c-0.3,6.1,1.8,11.8,6,16.2c4.2,4.4,9.8,6.8,15.8,6.8c1.2,0,2.3-0.1,3.5-0.3c0,0,0,0,0,0C40.9,55.8,36.5,57,32,57
				c-7,0-13.4-2.8-18.2-7.9C9,44,6.6,37.4,7,30.4c0.4-6,3-11.7,7.3-16.1C18.7,10,24.4,7.4,30.5,7C31,7,31.5,7,32,7L32,7 M32,5
				c-0.5,0-1.1,0-1.6,0C16.9,5.8,5.9,16.8,5.1,30.3C4.1,46,16.5,59,32,59c5,0,9.7-1.4,13.7-3.8c1.8-1,0.9-3.7-1-3.7
				c-0.1,0-0.2,0-0.4,0c-1.1,0.2-2.1,0.3-3.2,0.3c-11.3,0-20.4-9.5-19.8-20.9c0.5-10.4,9.4-18.7,19.8-18.7c0,0,0,0,0,0
				c1.1,0,2.1,0.1,3.1,0.2c0.1,0,0.2,0,0.4,0c2,0,2.8-2.6,1-3.7C41.7,6.4,37,5,32,5L32,5z"/>
		</g>
		<g>
			<path fill="#363636" d="M44.9,40.3c-0.2,0-0.4-0.1-0.6-0.2c-0.3-0.2-0.5-0.6-0.4-1l0.9-5.4l-3.9-3.8c-0.3-0.3-0.4-0.7-0.3-1
				c0.1-0.4,0.4-0.6,0.8-0.7l5.4-0.8l2.4-4.9c0.3-0.7,1.5-0.7,1.8,0l2.4,4.9l5.4,0.8c0.4,0.1,0.7,0.3,0.8,0.7c0.1,0.4,0,0.8-0.3,1
				l-3.9,3.8l0.9,5.4c0.1,0.4-0.1,0.8-0.4,1c-0.3,0.2-0.7,0.3-1.1,0.1l-4.9-2.6l-4.9,2.6C45.2,40.3,45.1,40.3,44.9,40.3z M43.8,29.9
				l2.9,2.8c0.2,0.2,0.3,0.6,0.3,0.9l-0.7,3.9l3.5-1.9c0.3-0.2,0.6-0.2,0.9,0l3.5,1.9l-0.7-3.9c-0.1-0.3,0.1-0.7,0.3-0.9l2.9-2.8
				l-3.9-0.6c-0.3,0-0.6-0.3-0.8-0.5l-1.8-3.6l-1.8,3.6c-0.1,0.3-0.4,0.5-0.8,0.5L43.8,29.9z"/>
		</g>
		<g>
			<rect y="0" fill="none" width="64" height="64"/>
		</g>
	</g>
</g>
</svg>
