<?xml version="1.0" encoding="utf-8"?>
<!-- Generator: Adobe Illustrator 18.1.1, SVG Export Plug-In . SVG Version: 6.00 Build 0)  -->
<svg version="1.1" xmlns="http://www.w3.org/2000/svg" xmlns:xlink="http://www.w3.org/1999/xlink" x="0px" y="0px"
	 viewBox="0 0 64 64" enable-background="new 0 0 64 64" xml:space="preserve">
<g id="Layer_2" display="none">
	<rect x="-372" y="-133.5" display="inline" fill="#84C9F3" stroke="#000000" stroke-miterlimit="10" width="485" height="615.8"/>
</g>
<g id="Layer_1">
	<g>
		<polyline fill="none" stroke="#363636" stroke-width="2" stroke-linecap="round" stroke-miterlimit="10" points="30.9,26 
			46.8,10.1 53.9,17.2 38,33 		"/>
		<polyline fill="none" stroke="#363636" stroke-width="2" stroke-linecap="round" stroke-miterlimit="10" points="33,38.1 
			14.3,56.7 7.3,49.7 26,30.9 		"/>
		
			<line fill="none" stroke="#363636" stroke-width="2" stroke-linecap="square" stroke-miterlimit="10" x1="49.7" y1="7.3" x2="56.7" y2="14.3"/>
		
			<line fill="none" stroke="#363636" stroke-width="2" stroke-linecap="square" stroke-miterlimit="10" x1="18.6" y1="38.4" x2="25.6" y2="45.4"/>
		<g>
			<path fill="none" stroke="#363636" stroke-width="2" stroke-linecap="round" stroke-miterlimit="10" d="M38.3,13
				c-2-0.6-4.1-1-6.3-1c-11,0-20,9-20,20c0,2.2,0.4,4.3,1,6.3"/>
			<path fill="none" stroke="#363636" stroke-width="2" stroke-linecap="round" stroke-miterlimit="10" d="M25.7,51
				c2,0.6,4.1,1,6.3,1c11,0,20-9,20-20c0-2.2-0.4-4.3-1-6.3"/>
		</g>
		
			<line fill="none" stroke="#363636" stroke-width="2" stroke-linecap="round" stroke-miterlimit="10" x1="17.9" y1="17.9" x2="46.1" y2="46.1"/>
		<rect y="0" fill="none" width="64" height="64"/>
	</g>
</g>
</svg>
