<?xml version="1.0" encoding="utf-8"?>
<!-- Generator: Adobe Illustrator 18.1.1, SVG Export Plug-In . SVG Version: 6.00 Build 0)  -->
<svg version="1.1" xmlns="http://www.w3.org/2000/svg" xmlns:xlink="http://www.w3.org/1999/xlink" x="0px" y="0px"
	 viewBox="0 0 64 64" enable-background="new 0 0 64 64" xml:space="preserve">
<g id="Layer_2" display="none">
	<rect x="-104" y="-66.5" display="inline" fill="#84C9F3" stroke="#000000" stroke-miterlimit="10" width="485" height="615.8"/>
</g>
<g id="Layer_1">
	<g>
		
			<circle fill="none" stroke="#363636" stroke-width="2" stroke-linecap="round" stroke-linejoin="round" stroke-miterlimit="10" cx="38.5" cy="25.5" r="17.5"/>
		<path fill="none" stroke="#363636" stroke-width="2" stroke-linecap="round" stroke-linejoin="round" stroke-miterlimit="10" d="
			M51,25.5C51,18.6,45.4,13,38.5,13"/>
		<g>
			<g>
				<path fill="#363636" d="M21,41c0.5,0,1,0.2,1.4,0.6c0.8,0.8,0.8,2,0,2.8l-9,9C13,53.8,12.5,54,12,54s-1-0.2-1.4-0.6
					c-0.8-0.8-0.8-2,0-2.8l9-9C20,41.2,20.5,41,21,41 M21,39c-1.1,0-2.1,0.4-2.8,1.2l-9,9c-1.6,1.6-1.6,4.1,0,5.7
					C9.9,55.6,10.9,56,12,56s2.1-0.4,2.8-1.2l9-9c1.6-1.6,1.6-4.1,0-5.7C23.1,39.4,22.1,39,21,39L21,39z"/>
			</g>
		</g>
		<line fill="none" stroke="#363636" stroke-width="2" stroke-miterlimit="10" x1="23" y1="41" x2="26" y2="38"/>
		<rect fill="none" width="64" height="64"/>
	</g>
</g>
</svg>
