<?xml version="1.0" encoding="utf-8"?>
<!-- Generator: Adobe Illustrator 18.1.1, SVG Export Plug-In . SVG Version: 6.00 Build 0)  -->
<svg version="1.1" xmlns="http://www.w3.org/2000/svg" xmlns:xlink="http://www.w3.org/1999/xlink" x="0px" y="0px"
	 viewBox="0 0 64 64" enable-background="new 0 0 64 64" xml:space="preserve">
<g id="Layer_2" display="none">
	<rect x="-171" y="-267.5" display="inline" fill="#84C9F3" stroke="#000000" stroke-miterlimit="10" width="485" height="615.8"/>
</g>
<g id="Layer_1">
	<g>
		<g>
			<g>
				<path fill="#363636" d="M48,28c1,0,2,0.5,2.6,1.5c0.3,0.5,0.4,1,0.4,1.5c0,1,0.6,2.1,1.5,2.6c0.4,0.3,0.8,0.6,1.1,1.1
					c0.9,1.6,0.2,3.7-1.6,4.3c-0.3,0.1-0.6,0.2-0.9,0.2c-1.1,0-2.2-0.6-2.7-1.6c-0.2-0.3-0.4-0.4-0.7-0.4c-0.1,0-0.3,0-0.4,0.1
					L36,43.7l8.2,4.7c0.1,0.1,0.3,0.1,0.4,0.1c0.3,0,0.6-0.2,0.7-0.4c0.6-1,1.6-1.6,2.7-1.6c0.3,0,0.6,0.1,0.9,0.2
					c1.8,0.7,2.5,2.7,1.6,4.3c-0.3,0.5-0.7,0.9-1.1,1.1c-0.9,0.5-1.5,1.5-1.5,2.6c0,0.5-0.1,1-0.4,1.5c-0.6,1-1.6,1.5-2.6,1.5
					c-0.7,0-1.4-0.2-2-0.7c-1.1-1-1.3-2.6-0.6-3.9c0.2-0.4,0.1-0.9-0.3-1.2L32,46l-10.2,5.9c-0.4,0.2-0.5,0.8-0.3,1.2
					c0.7,1.3,0.6,3-0.6,3.9c-0.6,0.5-1.3,0.7-2,0.7c-1,0-2-0.5-2.6-1.5c-0.3-0.5-0.4-1-0.4-1.5c0-1-0.6-2.1-1.5-2.6
					c-0.4-0.3-0.8-0.6-1.1-1.1c-0.9-1.6-0.2-3.7,1.6-4.3c0.3-0.1,0.6-0.2,0.9-0.2c1.1,0,2.2,0.6,2.7,1.6c0.2,0.3,0.4,0.4,0.7,0.4
					c0.1,0,0.3,0,0.4-0.1l8.2-4.7l-11.2-6.4c-0.1-0.1-0.3-0.1-0.4-0.1c-0.3,0-0.6,0.2-0.7,0.4c-0.6,1-1.6,1.6-2.7,1.6
					c-0.3,0-0.6-0.1-0.9-0.2c-1.8-0.7-2.5-2.7-1.6-4.3c0.3-0.5,0.7-0.9,1.1-1.1c0.9-0.5,1.5-1.5,1.5-2.6c0-0.5,0.1-1,0.4-1.5
					C14,28.5,15,28,16,28c0.7,0,1.4,0.2,2,0.7c1.1,1,1.3,2.6,0.6,3.9c-0.2,0.4-0.1,0.9,0.3,1.2L32,41.4l13.2-7.6
					c0.4-0.2,0.5-0.8,0.3-1.2c-0.7-1.3-0.6-3,0.6-3.9C46.6,28.2,47.3,28,48,28 M48,26c-1.2,0-2.3,0.4-3.2,1.2
					c-1.5,1.3-2.1,3.4-1.5,5.4L32,39.1l-11.3-6.5c0.6-1.9,0.1-4.1-1.5-5.4C18.3,26.4,17.2,26,16,26c-1.8,0-3.4,1-4.3,2.5
					C11.2,29.3,11,30.1,11,31c0,0.3-0.2,0.7-0.5,0.8c-0.8,0.4-1.4,1.1-1.9,1.8c-0.7,1.3-0.9,2.8-0.4,4.2c0.5,1.4,1.6,2.5,3,3
					c0.5,0.2,1.1,0.3,1.6,0.3c1.4,0,2.8-0.6,3.8-1.7l7.3,4.2l-4.3,2.5c-1-1.1-2.3-1.7-3.8-1.7c-0.6,0-1.1,0.1-1.6,0.3
					c-1.4,0.5-2.5,1.6-3,3c-0.5,1.4-0.4,2.9,0.4,4.2c0.4,0.8,1.1,1.4,1.9,1.8c0.3,0.2,0.5,0.5,0.5,0.8c0,0.9,0.2,1.8,0.7,2.5
					c0.9,1.5,2.6,2.5,4.3,2.5c1.2,0,2.3-0.4,3.2-1.2c1.5-1.3,2.1-3.4,1.5-5.4l8.3-4.8l8.3,4.8c-0.6,1.9-0.1,4.1,1.5,5.4
					c0.9,0.8,2.1,1.2,3.2,1.2c1.8,0,3.4-1,4.3-2.5c0.4-0.8,0.7-1.6,0.7-2.5c0-0.3,0.2-0.7,0.5-0.8c0.8-0.4,1.4-1.1,1.9-1.8
					c0.7-1.3,0.9-2.8,0.4-4.2c-0.5-1.4-1.6-2.5-3-3c-0.5-0.2-1.1-0.3-1.6-0.3c-1.4,0-2.8,0.6-3.8,1.7L40,43.7l7.3-4.2
					c1,1.1,2.3,1.7,3.8,1.7c0.6,0,1.1-0.1,1.6-0.3c1.4-0.5,2.5-1.6,3-3c0.5-1.4,0.4-2.9-0.4-4.2c-0.4-0.8-1.1-1.4-1.9-1.8
					C53.2,31.7,53,31.4,53,31c0-0.9-0.2-1.8-0.7-2.5C51.4,27,49.8,26,48,26L48,26z"/>
			</g>
		</g>
		<g>
			<path fill="#363636" d="M38,33c-0.6,0-1-0.4-1-1v-2.7c0-1.6,1-3.1,2.6-3.7c4.7-1.8,7.6-5.2,7.6-8.7c0-5.6-6.8-10.1-15.2-10.1
				s-15.2,4.5-15.2,10.1c0,3.6,2.9,6.9,7.6,8.7c1.6,0.6,2.6,2,2.6,3.7V32c0,0.6-0.4,1-1,1s-1-0.4-1-1v-2.7c0-0.8-0.5-1.5-1.3-1.8
				c-5.5-2.1-8.9-6.2-8.9-10.6c0-6.7,7.7-12.1,17.2-12.1s17.2,5.4,17.2,12.1c0,4.4-3.4,8.5-8.9,10.6c-0.8,0.3-1.3,1-1.3,1.8V32
				C39,32.6,38.6,33,38,33z"/>
		</g>
		<g>
			<path fill="#363636" d="M26,16c1.1,0,2,0.9,2,2s-0.9,2-2,2s-2-0.9-2-2S24.9,16,26,16 M26,14c-2.2,0-4,1.8-4,4s1.8,4,4,4
				s4-1.8,4-4S28.2,14,26,14L26,14z"/>
		</g>
		<g>
			<path fill="#363636" d="M38,16c1.1,0,2,0.9,2,2s-0.9,2-2,2s-2-0.9-2-2S36.9,16,38,16 M38,14c-2.2,0-4,1.8-4,4s1.8,4,4,4
				s4-1.8,4-4S40.2,14,38,14L38,14z"/>
		</g>
		<g>
			<path fill="#363636" d="M30,35c-0.6,0-1-0.4-1-1v-4c0-0.6,0.4-1,1-1s1,0.4,1,1v4C31,34.6,30.6,35,30,35z"/>
		</g>
		<g>
			<path fill="#363636" d="M34,35c-0.6,0-1-0.4-1-1v-4c0-0.6,0.4-1,1-1s1,0.4,1,1v4C35,34.6,34.6,35,34,35z"/>
		</g>
		<g>
			<rect y="0" fill="none" width="64" height="64"/>
		</g>
	</g>
</g>
</svg>
