<?xml version="1.0" encoding="utf-8"?>
<!-- Generator: Adobe Illustrator 18.1.1, SVG Export Plug-In . SVG Version: 6.00 Build 0)  -->
<svg version="1.1" xmlns="http://www.w3.org/2000/svg" xmlns:xlink="http://www.w3.org/1999/xlink" x="0px" y="0px"
	 viewBox="0 0 64 64" enable-background="new 0 0 64 64" xml:space="preserve">
<g id="Layer_2" display="none">
	<rect x="-171" y="-334.5" display="inline" fill="#84C9F3" stroke="#000000" stroke-miterlimit="10" width="485" height="615.8"/>
</g>
<g id="Layer_1">
	<g>
		<path fill="none" stroke="#363636" stroke-width="2" stroke-linecap="round" stroke-linejoin="round" stroke-miterlimit="10" d="
			M55,32c0,9.4-10.3,17-23,17S9,41.4,9,32"/>
		<path fill="none" stroke="#363636" stroke-width="2" stroke-linecap="round" stroke-linejoin="round" stroke-miterlimit="10" d="
			M58,32c0-6.1-8.4-11.2-19.8-12.6C36.8,21,34.5,22,32,22s-4.8-1-6.2-2.6C14.4,20.8,6,25.9,6,32l17-3c0,0,3.8,2,9,2s9-2,9-2L58,32z"
			/>
		<path fill="none" stroke="#363636" stroke-width="2" stroke-linecap="round" stroke-linejoin="round" stroke-miterlimit="10" d="
			M46,31.2c0,2.1-6.4,5.8-14,5.8s-14-3.7-14-5.8"/>
		<rect fill="none" width="64" height="64"/>
	</g>
</g>
</svg>
