<?xml version="1.0" encoding="utf-8"?>
<!-- Generator: Adobe Illustrator 18.1.1, SVG Export Plug-In . SVG Version: 6.00 Build 0)  -->
<svg version="1.1" xmlns="http://www.w3.org/2000/svg" xmlns:xlink="http://www.w3.org/1999/xlink" x="0px" y="0px"
	 viewBox="0 0 64 64" enable-background="new 0 0 64 64" xml:space="preserve">
<g id="Layer_2" display="none">
	<rect x="-37" y="-200.5" display="inline" fill="#84C9F3" stroke="#000000" stroke-miterlimit="10" width="485" height="615.8"/>
</g>
<g id="Layer_1">
	<g>
		<path fill="none" stroke="#363636" stroke-width="2" stroke-linecap="round" stroke-linejoin="round" stroke-miterlimit="10" d="
			M54.8,40.7L45.6,36c0,0-1.5,1-6,1c-3,0-6.2-2-10.4-4.9c-1-0.6-2-1.4-3-2.1c0,0-0.1-0.1-0.1-0.1c-0.2-0.2-0.5-0.3-0.7-0.5
			c-0.4-0.3-0.8-0.5-1.2-0.8c-0.2-0.1-0.4-0.3-0.6-0.4c-0.6-0.4-1.2-0.8-1.9-1.2c-6.6-4.3-7.7-4.2-9-9c-3.9,2-6,5.4-6,10
			c0,2.3,0.2,5.8,3,8c1.6,1.8,2,4.5,2,8s0,5,0,5h4V37c7.9,0,17.4,8.9,20.1,12c0.6,0.6,1.4,1,2.2,1h15.6
			C57.6,48.4,58.2,43.2,54.8,40.7z"/>
		<rect fill="none" width="64" height="64"/>
	</g>
</g>
</svg>
