<?xml version="1.0" encoding="utf-8"?>
<!-- Generator: Adobe Illustrator 18.1.1, SVG Export Plug-In . SVG Version: 6.00 Build 0)  -->
<svg version="1.1" xmlns="http://www.w3.org/2000/svg" xmlns:xlink="http://www.w3.org/1999/xlink" x="0px" y="0px"
	 viewBox="0 0 64 64" enable-background="new 0 0 64 64" xml:space="preserve">
<g id="Layer_2" display="none">
	<rect x="-372" y="-267.5" display="inline" fill="#84C9F3" stroke="#000000" stroke-miterlimit="10" width="485" height="615.8"/>
</g>
<g id="Layer_1">
	<g>
		<path fill="none" stroke="#363636" stroke-width="2" stroke-linecap="round" stroke-miterlimit="10" d="M15.5,43
			c-3.2-3.3-5.5-7.6-5.5-12.6C10,24.1,15.1,19,21.4,19c3.1,0,6.3,1.3,8.4,3.3c2.1-2,5.3-3.3,8.4-3.3c6.3,0,11.4,5.1,11.4,11.4
			c0,11.5-12.1,19-19.8,20.6c-2.4-0.5-5.1-1.5-7.8-3"/>
		
			<line fill="none" stroke="#373636" stroke-width="2" stroke-linecap="round" stroke-linejoin="round" stroke-miterlimit="10" x1="8" y1="57" x2="27" y2="37"/>
		
			<polygon fill="none" stroke="#373636" stroke-width="2" stroke-linecap="round" stroke-linejoin="round" stroke-miterlimit="10" points="
			46,18 53,18 59,12 52,12 52,5 46,11 		"/>
		
			<line fill="none" stroke="#373636" stroke-width="2" stroke-linecap="round" stroke-linejoin="round" stroke-miterlimit="10" x1="16" y1="57" x2="8" y2="57"/>
		
			<line fill="none" stroke="#373636" stroke-width="2" stroke-linecap="round" stroke-linejoin="round" stroke-miterlimit="10" x1="8" y1="49" x2="8" y2="57"/>
		
			<line fill="none" stroke="#373636" stroke-width="2" stroke-linecap="round" stroke-linejoin="round" stroke-miterlimit="10" x1="25" y1="34" x2="30" y2="39"/>
		
			<line fill="none" stroke="#373636" stroke-width="2" stroke-linecap="round" stroke-linejoin="round" stroke-miterlimit="10" x1="46" y1="18" x2="44" y2="20"/>
		<rect y="0" fill="none" width="64" height="64"/>
	</g>
</g>
</svg>
