<?xml version="1.0" encoding="utf-8"?>
<!-- Generator: Adobe Illustrator 18.1.1, SVG Export Plug-In . SVG Version: 6.00 Build 0)  -->
<svg version="1.1" xmlns="http://www.w3.org/2000/svg" xmlns:xlink="http://www.w3.org/1999/xlink" x="0px" y="0px"
	 viewBox="0 0 64 64" enable-background="new 0 0 64 64" xml:space="preserve">
<g id="Layer_2" display="none">
	<rect x="-305" y="-334.5" display="inline" fill="#84C9F3" stroke="#000000" stroke-miterlimit="10" width="485" height="615.8"/>
</g>
<g id="Layer_1">
	<g>
		<g>
			<g>
				<path fill="#363636" d="M51.6,31c0.6,0,1,0.4,1,1s-0.4,1-1,1H12.4c-0.6,0-1-0.4-1-1s0.4-1,1-1H51.6 M51.6,29H12.4
					c-1.7,0-3,1.3-3,3s1.3,3,3,3h39.2c1.7,0,3-1.3,3-3S53.2,29,51.6,29L51.6,29z"/>
			</g>
		</g>
		<g>
			<path fill="#363636" d="M53,27H11c-0.6,0-1-0.4-1-1s0.4-1,1-1h42c0.6,0,1,0.4,1,1S53.6,27,53,27z"/>
		</g>
		<g>
			<path fill="#363636" d="M47.7,39.5c-1.5,0-2.3-0.3-3-0.6c-0.6-0.2-1.1-0.4-2.3-0.4c-1.1,0-1.7,0.2-2.3,0.4
				c-0.7,0.3-1.5,0.6-3,0.6c-1.5,0-2.3-0.3-3-0.6c-0.6-0.2-1.1-0.4-2.3-0.4c-1.1,0-1.7,0.2-2.3,0.4c-0.7,0.3-1.5,0.6-3,0.6
				s-2.3-0.3-3-0.6c-0.6-0.2-1.1-0.4-2.3-0.4s-1.7,0.2-2.3,0.4c-0.7,0.3-1.5,0.6-3,0.6s-2.3-0.3-3-0.6c-0.6-0.2-1.1-0.4-2.3-0.4
				c-0.6,0-1-0.4-1-1s0.4-1,1-1c1.5,0,2.3,0.3,3,0.6c0.6,0.2,1.1,0.4,2.3,0.4s1.7-0.2,2.3-0.4c0.7-0.3,1.5-0.6,3-0.6s2.3,0.3,3,0.6
				c0.6,0.2,1.1,0.4,2.3,0.4s1.7-0.2,2.3-0.4c0.7-0.3,1.5-0.6,3-0.6c1.5,0,2.3,0.3,3,0.6c0.6,0.2,1.1,0.4,2.3,0.4
				c1.1,0,1.7-0.2,2.3-0.4c0.7-0.3,1.5-0.6,3-0.6c1.5,0,2.3,0.3,3,0.6c0.6,0.2,1.1,0.4,2.3,0.4s1.7-0.2,2.3-0.4
				c0.7-0.3,1.5-0.6,3-0.6c0.6,0,1,0.4,1,1s-0.4,1-1,1c-1.1,0-1.7,0.2-2.3,0.4C50,39.2,49.2,39.5,47.7,39.5z"/>
		</g>
		<g>
			<path fill="#363636" d="M49,49H15c-2.8,0-5-2.2-5-5v-2c0-0.6,0.4-1,1-1h42c0.6,0,1,0.4,1,1v2C54,46.8,51.8,49,49,49z M12,43v1
				c0,1.7,1.3,3,3,3h34c1.7,0,3-1.3,3-3v-1H12z"/>
		</g>
		<g>
			<path fill="#363636" d="M53,27H11c-0.6,0-1-0.4-1-1v-2c0-5,4-9,9-9h26c5,0,9,4,9,9v2C54,26.6,53.6,27,53,27z M12,25h40v-1
				c0-3.9-3.1-7-7-7H19c-3.9,0-7,3.1-7,7V25z"/>
		</g>
		<g>
			<rect fill="none" width="64" height="64"/>
		</g>
	</g>
</g>
</svg>
