<?xml version="1.0" encoding="utf-8"?>
<!-- Generator: Adobe Illustrator 18.1.1, SVG Export Plug-In . SVG Version: 6.00 Build 0)  -->
<svg version="1.1" xmlns="http://www.w3.org/2000/svg" xmlns:xlink="http://www.w3.org/1999/xlink" x="0px" y="0px"
	 viewBox="0 0 64 64" enable-background="new 0 0 64 64" xml:space="preserve">
<g id="Layer_2" display="none">
	<rect x="-37" y="-267.5" display="inline" fill="#84C9F3" stroke="#000000" stroke-miterlimit="10" width="485" height="615.8"/>
</g>
<g id="Layer_1">
	<g>
		<circle fill="#363636" cx="41" cy="11" r="2"/>
		<g>
			<path fill="#363636" d="M50,54H14c-0.5,0-0.9-0.3-1-0.8l-5-26c-0.1-0.3,0-0.6,0.2-0.8S8.7,26,9,26h46c0.3,0,0.6,0.1,0.8,0.4
				s0.3,0.5,0.2,0.8l-5,26C50.9,53.7,50.5,54,50,54z M14.8,52h34.3l4.6-24H10.2L14.8,52z"/>
		</g>
		
			<line fill="#FFFFFF" stroke="#363636" stroke-width="2" stroke-linecap="round" stroke-linejoin="round" stroke-miterlimit="10" x1="21" y1="31" x2="23" y2="48"/>
		
			<line fill="#FFFFFF" stroke="#363636" stroke-width="2" stroke-linecap="round" stroke-linejoin="round" stroke-miterlimit="10" x1="43" y1="31" x2="41" y2="48"/>
		
			<line fill="#FFFFFF" stroke="#363636" stroke-width="2" stroke-linecap="round" stroke-linejoin="round" stroke-miterlimit="10" x1="32" y1="31" x2="32" y2="48"/>
		
			<line fill="#FFFFFF" stroke="#363636" stroke-width="2" stroke-linecap="round" stroke-linejoin="round" stroke-miterlimit="10" x1="50" y1="23" x2="41" y2="11"/>
		<circle fill="#363636" cx="23" cy="11" r="2"/>
		
			<line fill="#FFFFFF" stroke="#363636" stroke-width="2" stroke-linecap="round" stroke-linejoin="round" stroke-miterlimit="10" x1="14" y1="23" x2="23" y2="11"/>
		
			<line fill="none" stroke="#363636" stroke-width="2" stroke-linecap="round" stroke-linejoin="round" stroke-miterlimit="10" x1="16" y1="40" x2="48" y2="40"/>
		<rect fill="none" width="64" height="64"/>
	</g>
</g>
</svg>
