<?xml version="1.0" encoding="utf-8"?>
<!-- Generator: Adobe Illustrator 18.1.1, SVG Export Plug-In . SVG Version: 6.00 Build 0)  -->
<svg version="1.1" xmlns="http://www.w3.org/2000/svg" xmlns:xlink="http://www.w3.org/1999/xlink" x="0px" y="0px"
	 viewBox="0 0 64 64" enable-background="new 0 0 64 64" xml:space="preserve">
<g id="Layer_2" display="none">
	<rect x="-305" y="-267.5" display="inline" fill="#84C9F3" stroke="#000000" stroke-miterlimit="10" width="485" height="615.8"/>
</g>
<g id="Layer_1">
	<g>
		<g>
			<path fill="#363636" d="M51,45l-1,0c-2,0-5.8-1.2-6.7-5H28c-5,0-9-4-9-9V21c0-5,4-9,9-9h22c5,0,9,4,9,9v10c0,4.6-3.5,8.4-8,8.9
				V45z M28,14c-3.9,0-7,3.1-7,7v10c0,3.9,3.1,7,7,7h16.9l0.1,0.9c0.4,2.8,2.6,3.7,3.9,4V38h1c3.9,0,7-3.1,7-7V21c0-3.9-3.1-7-7-7
				H28z"/>
		</g>
		<g>
			<path fill="#363636" d="M39,39c0,5-4,9-9,9h-9.2c-1,3.8-4.8,5-6.7,5l-1,0v-5.1c-4.5-0.5-8-4.3-8-8.9v-7c0-5,4-9,9-9h5.9l0.1,2h-6
				c-3.9,0-7,3.1-7,7v7c0,3.9,3.1,7,7,7h1v4.9c1.3-0.3,3.6-1.2,3.9-4l0.1-0.9H30c3.9,0,7-3.1,7-7"/>
		</g>
	</g>
</g>
</svg>
