<?xml version="1.0" encoding="utf-8"?>
<!-- Generator: Adobe Illustrator 18.1.1, SVG Export Plug-In . SVG Version: 6.00 Build 0)  -->
<svg version="1.1" xmlns="http://www.w3.org/2000/svg" xmlns:xlink="http://www.w3.org/1999/xlink" x="0px" y="0px"
	 viewBox="0 0 64 64" enable-background="new 0 0 64 64" xml:space="preserve">
<g id="Layer_2" display="none">
	<rect x="-372" y="-401.5" display="inline" fill="#84C9F3" stroke="#000000" stroke-miterlimit="10" width="485" height="615.8"/>
</g>
<g id="Layer_1">
	<g>
		<circle fill="none" stroke="#363636" stroke-width="2" stroke-linejoin="round" stroke-miterlimit="10" cx="32" cy="32" r="5"/>
		<g>
			<path fill="none" stroke="#363636" stroke-width="2" stroke-linejoin="round" stroke-miterlimit="10" d="M32,23
				c1.6,0,3.2,0.4,4.5,1.2l8-13.9C40.8,8.2,36.6,7,32,7s-8.8,1.2-12.5,3.4l8,13.9C28.8,23.4,30.4,23,32,23z"/>
		</g>
		<g>
			<path fill="none" stroke="#363636" stroke-width="2" stroke-linejoin="round" stroke-miterlimit="10" d="M24.2,36.5
				c-0.8-1.4-1.2-3-1.2-4.5L7,32c0,4.2,1.1,8.6,3.3,12.5s5.5,7,9.2,9.1l8-13.9C26.2,39,25,37.9,24.2,36.5z"/>
		</g>
		<g>
			<path fill="none" stroke="#363636" stroke-width="2" stroke-linejoin="round" stroke-miterlimit="10" d="M39.8,36.5
				c-0.8,1.4-2,2.5-3.3,3.3l8,13.9c3.7-2.1,6.9-5.2,9.2-9.1S57,36.2,57,32l-16,0C41,33.5,40.6,35.1,39.8,36.5z"/>
		</g>
		<rect fill="none" width="64" height="64"/>
	</g>
</g>
</svg>
