<?xml version="1.0" encoding="utf-8"?>
<!-- Generator: Adobe Illustrator 18.1.1, SVG Export Plug-In . SVG Version: 6.00 Build 0)  -->
<svg version="1.1" xmlns="http://www.w3.org/2000/svg" xmlns:xlink="http://www.w3.org/1999/xlink" x="0px" y="0px"
	 viewBox="0 0 64 64" enable-background="new 0 0 64 64" xml:space="preserve">
<g id="Layer_2" display="none">
	<rect x="-37" y="-66.5" display="inline" fill="#84C9F3" stroke="#000000" stroke-miterlimit="10" width="485" height="615.8"/>
</g>
<g id="Layer_1">
	<g>
		<g>
			<g>
				<path fill="#363636" d="M17,22c5.5,0,10,4.5,10,10s-4.5,10-10,10S7,37.5,7,32S11.5,22,17,22 M17,20c-6.6,0-12,5.4-12,12
					s5.4,12,12,12s12-5.4,12-12S23.6,20,17,20L17,20z"/>
			</g>
		</g>
		<g>
			<g>
				<path fill="#363636" d="M47,22c5.5,0,10,4.5,10,10s-4.5,10-10,10s-10-4.5-10-10S41.5,22,47,22 M47,20c-6.6,0-12,5.4-12,12
					s5.4,12,12,12c6.6,0,12-5.4,12-12S53.6,20,47,20L47,20z"/>
			</g>
		</g>
		<g>
			<path fill="#363636" d="M36,33c-0.6,0-1-0.4-1-1c0-1.6-1.3-3-3-3s-3,1.3-3,3c0,0.6-0.4,1-1,1s-1-0.4-1-1c0-2.8,2.2-5,5-5
				s5,2.2,5,5C37,32.5,36.5,33,36,33z"/>
		</g>
		<g>
			<line fill="#FFFFFF" x1="19.1" y1="25.6" x2="10.6" y2="34.1"/>
			<path fill="#363636" d="M10.6,35.1c-0.3,0-0.5-0.1-0.7-0.3c-0.4-0.4-0.4-1,0-1.4l8.5-8.5c0.4-0.4,1-0.4,1.4,0s0.4,1,0,1.4
				l-8.5,8.5C11.1,35,10.9,35.1,10.6,35.1z"/>
		</g>
		<g>
			<line fill="#FFFFFF" x1="23.4" y1="29.9" x2="14.9" y2="38.4"/>
			<path fill="#363636" d="M14.9,39.4c-0.3,0-0.5-0.1-0.7-0.3c-0.4-0.4-0.4-1,0-1.4l8.5-8.5c0.4-0.4,1-0.4,1.4,0s0.4,1,0,1.4
				l-8.5,8.5C15.4,39.3,15.1,39.4,14.9,39.4z"/>
		</g>
		<g>
			<line fill="#FFFFFF" x1="49.5" y1="25.6" x2="41" y2="34.1"/>
			<path fill="#363636" d="M41,35.1c-0.3,0-0.5-0.1-0.7-0.3c-0.4-0.4-0.4-1,0-1.4l8.5-8.5c0.4-0.4,1-0.4,1.4,0s0.4,1,0,1.4l-8.5,8.5
				C41.5,35,41.3,35.1,41,35.1z"/>
		</g>
		<g>
			<line fill="#FFFFFF" x1="53.7" y1="29.9" x2="45.2" y2="38.4"/>
			<path fill="#363636" d="M45.2,39.4c-0.3,0-0.5-0.1-0.7-0.3c-0.4-0.4-0.4-1,0-1.4l8.5-8.5c0.4-0.4,1-0.4,1.4,0s0.4,1,0,1.4
				l-8.5,8.5C45.8,39.3,45.5,39.4,45.2,39.4z"/>
		</g>
	</g>
</g>
</svg>
