<?xml version="1.0" encoding="utf-8"?>
<!-- Generator: Adobe Illustrator 18.1.1, SVG Export Plug-In . SVG Version: 6.00 Build 0)  -->
<svg version="1.1" xmlns="http://www.w3.org/2000/svg" xmlns:xlink="http://www.w3.org/1999/xlink" x="0px" y="0px"
	 viewBox="0 0 64 64" enable-background="new 0 0 64 64" xml:space="preserve">
<g id="Layer_2" display="none">
	<rect x="-37" y="-401.5" display="inline" fill="#84C9F3" stroke="#000000" stroke-miterlimit="10" width="485" height="615.8"/>
</g>
<g id="Layer_1">
	<g>
		<g>
			<path fill="#363636" d="M32.1,6c0.6,0,3.5,2.7,3.5,8.4c0,1.9,0,5.1,0,8.8c1.2,0.6,4.7,2.4,7.2,3.9V26c0-0.7,0.6-1.2,1.2-1.2h0.3
				c0.7,0,1.7,0.6,1.7,1.2v2.7c4.2,2.5,8.1,5,8.7,5.4c1.4,0.8,2.3,1.6,2.3,3.5c-4.8-1.1-18.8-3.7-21.5-4.2c0,4.8,0,9.3,0,12
				c0,1.8-0.2,3.4-0.4,5c1.5,1.2,3.7,3.1,4.2,3.5c0.9,0.8,1.1,1.1,1.1,2.4c-1.3-0.2-4.6-0.5-6.6-0.7c-0.6,1.5-1.2,2.3-1.7,2.3
				c-0.5,0-1.1-0.9-1.7-2.3c-2,0.2-5.4,0.5-6.6,0.7c0-1.4,0.2-1.7,1.1-2.4c0.4-0.4,2.7-2.3,4.2-3.5c-0.2-1.5-0.4-3.2-0.4-4.9
				c0-2.7,0-7.2,0-12.1c-2.4,0.5-16.7,3.2-21.5,4.2c0-2,1-2.7,2.3-3.5c0.7-0.4,4.4-2.9,8.6-5.4V26c0-0.7,1.1-1.2,1.8-1.2h0.3
				c0.7,0,1.2,0.6,1.2,1.2v1.1c2.6-1.5,6.1-3.4,7.2-3.9c0-3.7,0-7,0-8.8C28.5,8.7,31.5,6,32.1,6 M32.1,4c-2.2,0-5.5,4.2-5.5,10.4V22
				c-1,0.5-2.4,1.3-3.9,2.1c-0.6-0.8-1.5-1.3-2.6-1.3h-0.3c-1.5,0-3.8,1.1-3.8,3.2v1.6c-2.5,1.5-4.8,3-6.2,3.9
				c-0.6,0.4-1.2,0.8-1.4,0.9c-1.7,1-3.4,2.3-3.4,5.3c0,0.6,0.3,1.2,0.7,1.6c0.4,0.3,0.8,0.4,1.3,0.4c0.1,0,0.3,0,0.4,0
				c3.9-0.9,14.1-2.8,19.1-3.8v9.6c0,1.4,0.1,2.7,0.3,4.1c-0.8,0.7-1.7,1.5-2.4,2c-0.5,0.4-0.8,0.7-1,0.8c-1.4,1.2-1.8,2-1.8,4
				c0,0.6,0.3,1.2,0.7,1.5c0.4,0.3,0.8,0.5,1.3,0.5c0.1,0,0.2,0,0.4,0c0.8-0.2,2.9-0.4,4.6-0.5c0.2,0,0.3,0,0.5-0.1
				c0.6,1.2,1.6,2.2,2.9,2.2c1.3,0,2.3-1,2.9-2.2c0.2,0,0.3,0,0.5,0c1.7,0.2,3.7,0.4,4.6,0.5c0.1,0,0.2,0,0.4,0
				c0.5,0,0.9-0.2,1.3-0.5c0.5-0.4,0.7-0.9,0.7-1.5c0-1.9-0.4-2.8-1.8-4c-0.1-0.1-0.4-0.3-0.7-0.6c-0.7-0.6-1.7-1.4-2.6-2.2
				c0.2-1.4,0.3-2.8,0.3-4.2v-9.6c5,0.9,15.2,2.9,19.1,3.8c0.1,0,0.3,0,0.4,0c0.5,0,0.9-0.2,1.3-0.4c0.5-0.4,0.7-1,0.7-1.6
				c0-2.9-1.6-4.3-3.4-5.3c-0.2-0.1-0.8-0.5-1.5-0.9c-1.4-0.9-3.8-2.4-6.2-3.9V26c0-1.9-1.9-3.2-3.7-3.2H44c-1.1,0-2,0.5-2.6,1.3
				c-1.4-0.8-2.8-1.5-3.9-2v-7.6C37.6,8.2,34.3,4,32.1,4L32.1,4z"/>
		</g>
		<g>
			<rect fill="none" width="64" height="64"/>
		</g>
	</g>
</g>
</svg>
