<?xml version="1.0" encoding="utf-8"?>
<!-- Generator: Adobe Illustrator 18.1.1, SVG Export Plug-In . SVG Version: 6.00 Build 0)  -->
<svg version="1.1" xmlns="http://www.w3.org/2000/svg" xmlns:xlink="http://www.w3.org/1999/xlink" x="0px" y="0px"
	 viewBox="0 0 64 64" enable-background="new 0 0 64 64" xml:space="preserve">
<g id="Layer_2" display="none">
	<rect x="-104" y="-133.5" display="inline" fill="#84C9F3" stroke="#000000" stroke-miterlimit="10" width="485" height="615.8"/>
</g>
<g id="Layer_1">
	<g>
		<g>
			<path fill="#363636" d="M32,7c13.8,0,25,11.2,25,25S45.8,57,32,57S7,45.8,7,32S18.2,7,32,7 M32,5C17.1,5,5,17.1,5,32
				s12.1,27,27,27s27-12.1,27-27S46.9,5,32,5L32,5z"/>
		</g>
		<g>
			<path fill="#363636" d="M32,33c-7.7,0-14-6.3-14-14S24.3,5,32,5v2c-6.6,0-12,5.4-12,12s5.4,12,12,12V33z"/>
		</g>
		<g>
			<path fill="#363636" d="M32,22c-1.7,0-3-1.3-3-3s1.3-3,3-3s3,1.3,3,3S33.7,22,32,22z M32,18c-0.6,0-1,0.4-1,1s0.4,1,1,1
				s1-0.4,1-1S32.6,18,32,18z"/>
		</g>
		<g>
			<path fill="#363636" d="M32,59v-2c6.6,0,12-5.4,12-12s-5.4-12-12-12v-2c7.7,0,14,6.3,14,14S39.7,59,32,59z"/>
		</g>
		<g>
			<path fill="#363636" d="M32,48c-1.7,0-3-1.3-3-3s1.3-3,3-3s3,1.3,3,3S33.7,48,32,48z M32,44c-0.6,0-1,0.4-1,1s0.4,1,1,1
				s1-0.4,1-1S32.6,44,32,44z"/>
		</g>
		<g>
			<rect y="0" fill="none" width="64" height="64"/>
		</g>
	</g>
</g>
</svg>
