<?xml version="1.0" encoding="utf-8"?>
<!-- Generator: Adobe Illustrator 18.1.1, SVG Export Plug-In . SVG Version: 6.00 Build 0)  -->
<svg version="1.1" xmlns="http://www.w3.org/2000/svg" xmlns:xlink="http://www.w3.org/1999/xlink" x="0px" y="0px"
	 viewBox="0 0 64 64" enable-background="new 0 0 64 64" xml:space="preserve">
<g id="Layer_2" display="none">
	<rect x="-305" y="-200.5" display="inline" fill="#84C9F3" stroke="#000000" stroke-miterlimit="10" width="485" height="615.8"/>
</g>
<g id="Layer_1">
	<g>
		
			<line fill="none" stroke="#363636" stroke-width="2" stroke-linecap="round" stroke-linejoin="round" stroke-miterlimit="10" x1="47.6" y1="23" x2="41" y2="15"/>
		
			<line fill="none" stroke="#363636" stroke-width="2" stroke-linecap="round" stroke-linejoin="round" stroke-miterlimit="10" x1="13.1" y1="27" x2="23" y2="15"/>
		<g>
			<path fill="#363636" d="M27,38H9c-0.6,0-1-0.4-1-1V27c0-0.6,0.4-1,1-1h18c0.6,0,1,0.4,1,1v10C28,37.6,27.6,38,27,38z M10,36h16
				v-8H10V36z"/>
		</g>
		<g>
			<path fill="#363636" d="M46,42c-5.5,0-10-4.5-10-10s4.5-10,10-10s10,4.5,10,10S51.5,42,46,42z M46,24c-4.4,0-8,3.6-8,8s3.6,8,8,8
				s8-3.6,8-8S50.4,24,46,24z"/>
		</g>
		<path fill="none" stroke="#363636" stroke-width="2" stroke-linecap="round" stroke-linejoin="round" stroke-miterlimit="10" d="
			M27,33c0-2.8,2.2-5,5-5s5,2.2,5,5"/>
		
			<line fill="none" stroke="#363636" stroke-width="2" stroke-linecap="round" stroke-linejoin="round" stroke-miterlimit="10" x1="50" y1="28" x2="42" y2="36"/>
		
			<line fill="none" stroke="#363636" stroke-width="2" stroke-linecap="round" stroke-linejoin="round" stroke-miterlimit="10" x1="20" y1="30" x2="16" y2="34"/>
	</g>
</g>
</svg>
