<?xml version="1.0" encoding="utf-8"?>
<!-- Generator: Adobe Illustrator 18.1.1, SVG Export Plug-In . SVG Version: 6.00 Build 0)  -->
<svg version="1.1" xmlns="http://www.w3.org/2000/svg" xmlns:xlink="http://www.w3.org/1999/xlink" x="0px" y="0px"
	 viewBox="0 0 64 64" enable-background="new 0 0 64 64" xml:space="preserve">
<g id="Layer_2" display="none">
	<rect x="-372" y="-66.5" display="inline" fill="#84C9F3" stroke="#000000" stroke-miterlimit="10" width="485" height="615.8"/>
</g>
<g id="Layer_1">
	<g>
		<g>
			<path fill="#363636" d="M14.9,45c-4.2,0-7.9-3-8.8-7.1l-0.7-3.2c-0.3-1.4,0-2.9,0.9-4c0.8-1.1,2.1-1.9,3.6-2
				c2.3-0.2,4.8-0.3,7.7-0.3c2.8,0,5.4,0.1,7.6,0.3c1.4,0.1,2.7,0.9,3.6,2c0.8,1.2,1.1,2.6,0.8,4.1l-1,4.4c-0.7,3-3.3,5.2-6.4,5.4
				L15.4,45C15.2,45,15.1,45,14.9,45z M17.5,30.4c-2.8,0-5.3,0.1-7.5,0.3c-0.9,0.1-1.6,0.5-2.1,1.2c-0.5,0.7-0.7,1.6-0.5,2.4
				l0.7,3.2c0.7,3.3,3.8,5.7,7.2,5.5l6.7-0.4c2.2-0.1,4.1-1.7,4.6-3.9l1-4.4c0.2-0.8,0-1.7-0.5-2.4c-0.5-0.7-1.3-1.1-2.1-1.2
				C22.8,30.5,20.3,30.4,17.5,30.4z"/>
		</g>
		<g>
			<path fill="#363636" d="M49.4,45C49.4,45,49.4,45,49.4,45c-0.2,0-0.3,0-0.5,0l-6.7-0.4c-3.1-0.2-5.7-2.4-6.4-5.4l-1-4.4
				c-0.3-1.4,0-2.9,0.8-4.1c0.8-1.2,2.1-1.9,3.6-2c2.2-0.2,4.8-0.3,7.6-0.3c2.8,0,5.4,0.1,7.7,0.3c1.4,0.1,2.7,0.9,3.6,2
				c0.8,1.1,1.2,2.6,0.9,4l-0.7,3.2C57.3,42,53.6,45,49.4,45z M46.8,30.4c-2.7,0-5.2,0.1-7.4,0.3c-0.9,0.1-1.6,0.5-2.1,1.2
				c-0.5,0.7-0.7,1.6-0.5,2.4l1,4.4c0.5,2.2,2.4,3.7,4.6,3.9L49,43c3.4,0.2,6.5-2.2,7.2-5.5l0.7-3.2c0.2-0.8,0-1.7-0.5-2.4
				c-0.5-0.7-1.3-1.1-2.1-1.2C52.1,30.5,49.6,30.4,46.8,30.4z"/>
		</g>
		<path fill="none" stroke="#363636" stroke-width="2" stroke-linecap="round" stroke-linejoin="round" stroke-miterlimit="10" d="
			M28.7,33.4c0-1.1,0.9-2,3.7-2c2.8,0,3.3,0.9,3.3,2"/>
		
			<line fill="#FFFFFF" stroke="#363636" stroke-width="2" stroke-linecap="round" stroke-linejoin="round" stroke-miterlimit="10" x1="22.7" y1="18" x2="11.7" y2="29"/>
		
			<line fill="#FFFFFF" stroke="#363636" stroke-width="2" stroke-linecap="round" stroke-linejoin="round" stroke-miterlimit="10" x1="41.7" y1="18" x2="52.7" y2="29"/>
		
			<line fill="#FFFFFF" stroke="#363636" stroke-width="2" stroke-linecap="round" stroke-linejoin="round" stroke-miterlimit="10" x1="17.3" y1="33" x2="12.3" y2="38"/>
		
			<line fill="#FFFFFF" stroke="#363636" stroke-width="2" stroke-linecap="round" stroke-linejoin="round" stroke-miterlimit="10" x1="16.7" y1="40" x2="23.7" y2="33"/>
		
			<line fill="#FFFFFF" stroke="#363636" stroke-width="2" stroke-linecap="round" stroke-linejoin="round" stroke-miterlimit="10" x1="46" y1="33" x2="42" y2="37"/>
		
			<line fill="#FFFFFF" stroke="#363636" stroke-width="2" stroke-linecap="round" stroke-linejoin="round" stroke-miterlimit="10" x1="53.2" y1="33" x2="46.7" y2="39.5"/>
		<rect y="0" fill="none" width="64" height="64"/>
	</g>
</g>
</svg>
