<?xml version="1.0" encoding="utf-8"?>
<!-- Generator: Adobe Illustrator 18.1.1, SVG Export Plug-In . SVG Version: 6.00 Build 0)  -->
<svg version="1.1" xmlns="http://www.w3.org/2000/svg" xmlns:xlink="http://www.w3.org/1999/xlink" x="0px" y="0px"
	 viewBox="0 0 64 64" enable-background="new 0 0 64 64" xml:space="preserve">
<g id="Layer_2" display="none">
	<rect x="-238" y="-66.5" display="inline" fill="#84C9F3" stroke="#000000" stroke-miterlimit="10" width="485" height="615.8"/>
</g>
<g id="Layer_1">
	<g>
		<g>
			<path fill="#363636" d="M32,58.4c-0.1,0-0.2,0-0.3,0c-6.6-2-12.2-8-13.5-12.6c-0.7,0.3-1.4,0.6-1.7,0.8c-0.3,0.2-0.6,0.2-0.9,0.1
				c-0.3-0.1-0.5-0.4-0.6-0.6c-0.8-2.8-0.4-6.7,0.1-10.5c0.4-3.3,0.9-7.8-0.4-8.1c-4.4-1.2-8-4.3-9.7-8.6C5,18.5,5,18.2,5.2,17.9
				s0.5-0.4,0.8-0.5c2.8-0.1,6.8-0.9,12.4-5.8c2-1.8,4.4-2.7,6.9-2.7c2.8,0,5.4,1.2,6.8,2.9c1.4-1.7,4-2.9,6.8-2.9
				c2.5,0,4.9,0.9,6.9,2.7c5.6,4.9,9.6,5.6,12.4,5.8c0.3,0,0.6,0.2,0.8,0.5s0.2,0.6,0.1,0.9c-1.7,4.3-5.2,7.4-9.7,8.6
				c-1.3,0.3-0.7,4.8-0.4,8.1c0.4,3.8,0.9,7.7,0.1,10.5c-0.1,0.3-0.3,0.5-0.6,0.6c-0.3,0.1-0.6,0.1-0.9-0.1c-0.3-0.2-1-0.5-1.7-0.8
				c-1.3,4.6-6.9,10.7-13.5,12.6C32.2,58.4,32.1,58.4,32,58.4z M19,43.4c0.2,0,0.4,0.1,0.5,0.2c0.3,0.2,0.4,0.4,0.5,0.7
				c0.3,3.4,5.3,9.9,12,12c6.8-2.2,11.7-8.6,12-12c0-0.3,0.2-0.6,0.5-0.7c0.3-0.2,0.6-0.2,0.9-0.1c0.5,0.2,1.2,0.4,2,0.8
				c0.3-2.4,0-5.6-0.4-8.5c-0.6-5.1-1.1-9.5,1.8-10.3c3.4-0.9,6.1-3.1,7.7-6.1c-3-0.4-7-1.6-12.1-6.1c-2.1-1.8-4.2-2.2-5.6-2.2
				c-3.3,0-5.8,2-5.8,3.4c0,0.6-0.4,1-1,1s-1-0.4-1-1c0-1.4-2.4-3.4-5.8-3.4c-2,0-3.9,0.8-5.6,2.2c-5.2,4.5-9.1,5.8-12.1,6.1
				c1.6,3,4.4,5.2,7.7,6.1c2.9,0.8,2.4,5.2,1.8,10.3c-0.3,2.9-0.7,6.1-0.4,8.5c0.7-0.3,1.5-0.6,2-0.8C18.8,43.4,18.9,43.4,19,43.4z"
				/>
		</g>
		<g>
			<path fill="#363636" d="M32,27.9c-2.9,0-4.6-1-6.8-2.2c-0.4-0.2-0.7-0.4-1.1-0.7c-0.4-0.2-0.6-0.6-0.5-1.1
				c0.1-0.4,0.4-0.7,0.9-0.8c3-0.4,6.4-3.9,6.5-4.8c0,0,0,0,0,0c0-0.5,0.5-1,1-1c0.6,0,1,0.5,1,1c0.1,0.9,3.5,4.4,6.5,4.8
				c0.4,0.1,0.8,0.4,0.9,0.8c0.1,0.4-0.1,0.9-0.5,1.1c-0.4,0.2-0.8,0.4-1.1,0.7C36.6,26.9,34.9,27.9,32,27.9z M27.1,24.5
				c1.6,0.9,2.9,1.5,4.9,1.5s3.3-0.5,4.9-1.5c-1.9-0.9-3.8-2.4-4.9-3.8C30.9,22.1,29,23.6,27.1,24.5z"/>
		</g>
		<g>
			<line fill="#FFFFFF" x1="28" y1="30.9" x2="36" y2="30.9"/>
			<path fill="#363636" d="M36,31.9h-8c-0.6,0-1-0.4-1-1s0.4-1,1-1h8c0.6,0,1,0.4,1,1S36.6,31.9,36,31.9z"/>
		</g>
	</g>
</g>
</svg>
