<?xml version="1.0" encoding="utf-8"?>
<!-- Generator: Adobe Illustrator 18.1.1, SVG Export Plug-In . SVG Version: 6.00 Build 0)  -->
<svg version="1.1" xmlns="http://www.w3.org/2000/svg" xmlns:xlink="http://www.w3.org/1999/xlink" x="0px" y="0px"
	 viewBox="0 0 64 64" enable-background="new 0 0 64 64" xml:space="preserve">
<g id="Layer_2" display="none">
	<rect x="-37" y="-66.5" display="inline" fill="#84C9F3" stroke="#000000" stroke-miterlimit="10" width="485" height="615.8"/>
</g>
<g id="Layer_1">
	<g>
		<path fill="none" stroke="#363636" stroke-width="2" stroke-linecap="round" stroke-linejoin="round" stroke-miterlimit="10" d="
			M18.9,25.1c0-7.2,5.8-13,12.9-13.2c7.4-0.1,13.4,6.1,13.4,13.5"/>
		<path fill="none" stroke="#363636" stroke-width="2" stroke-linecap="round" stroke-linejoin="round" stroke-miterlimit="10" d="
			M18.9,31.9c0,3.4-2.5,6.3-5.7,6.9c-0.7,0.1-1.2,0.8-1.2,1.5v4.6h20.1h20.1v-4.6c0-0.7-0.5-1.4-1.2-1.5c-3.3-0.6-5.7-3.4-5.7-6.9"
			/>
		
			<line fill="none" stroke="#363636" stroke-width="2" stroke-linecap="round" stroke-linejoin="round" stroke-miterlimit="10" x1="18.1" y1="28.9" x2="46" y2="28.9"/>
		<path fill="none" stroke="#363636" stroke-width="2" stroke-linecap="round" stroke-linejoin="round" stroke-miterlimit="10" d="
			M37.5,47.5c0,3-2.4,5.4-5.4,5.4s-5.4-2.4-5.4-5.4"/>
		<rect x="0.1" y="-0.1" fill="none" width="64" height="64"/>
	</g>
</g>
</svg>
