<?xml version="1.0" encoding="utf-8"?>
<!-- Generator: Adobe Illustrator 18.1.1, SVG Export Plug-In . SVG Version: 6.00 Build 0)  -->
<svg version="1.1" xmlns="http://www.w3.org/2000/svg" xmlns:xlink="http://www.w3.org/1999/xlink" x="0px" y="0px"
	 viewBox="0 0 64 64" enable-background="new 0 0 64 64" xml:space="preserve">
<g id="Layer_2" display="none">
	<rect x="-171" y="-133.5" display="inline" fill="#84C9F3" stroke="#000000" stroke-miterlimit="10" width="485" height="615.8"/>
</g>
<g id="Layer_1">
	<g>
		<g>
			<path fill="#363636" d="M32,7c13.8,0,25,11.2,25,25S45.8,57,32,57C18.2,57,7,45.8,7,32S18.2,7,32,7 M32,5C17.1,5,5,17.1,5,32
				s12.1,27,27,27c14.9,0,27-12.1,27-27S46.9,5,32,5L32,5z"/>
		</g>
		<g>
			<path fill="#363636" d="M32,13c10.5,0,19,8.5,19,19s-8.5,19-19,19c-10.5,0-19-8.5-19-19S21.5,13,32,13 M32,11
				c-11.6,0-21,9.4-21,21s9.4,21,21,21c11.6,0,21-9.4,21-21S43.6,11,32,11L32,11z"/>
		</g>
		<g>
			<path fill="#363636" d="M32,27.7c2.4,0,4.3,1.9,4.3,4.3s-1.9,4.3-4.3,4.3c-2.4,0-4.3-1.9-4.3-4.3S29.6,27.7,32,27.7 M32,26
				c-3.3,0-6,2.7-6,6s2.7,6,6,6c3.3,0,6-2.7,6-6S35.3,26,32,26L32,26z"/>
		</g>
		
			<line fill="none" stroke="#363636" stroke-width="2" stroke-linecap="round" stroke-miterlimit="10" x1="32" y1="15" x2="32" y2="23"/>
		
			<line fill="none" stroke="#363636" stroke-width="2" stroke-linecap="round" stroke-miterlimit="10" x1="21.1" y1="19" x2="26.2" y2="25.1"/>
		
			<line fill="none" stroke="#363636" stroke-width="2" stroke-linecap="round" stroke-miterlimit="10" x1="15.3" y1="29" x2="23.1" y2="30.4"/>
		
			<line fill="none" stroke="#363636" stroke-width="2" stroke-linecap="round" stroke-miterlimit="10" x1="17.3" y1="40.5" x2="24.2" y2="36.5"/>
		
			<line fill="none" stroke="#363636" stroke-width="2" stroke-linecap="round" stroke-miterlimit="10" x1="26.2" y1="48" x2="28.9" y2="40.5"/>
		
			<line fill="none" stroke="#363636" stroke-width="2" stroke-linecap="round" stroke-miterlimit="10" x1="37.8" y1="48" x2="35.1" y2="40.5"/>
		
			<line fill="none" stroke="#363636" stroke-width="2" stroke-linecap="round" stroke-miterlimit="10" x1="46.7" y1="40.5" x2="39.8" y2="36.5"/>
		
			<line fill="none" stroke="#363636" stroke-width="2" stroke-linecap="round" stroke-miterlimit="10" x1="48.7" y1="29" x2="40.9" y2="30.4"/>
		
			<line fill="none" stroke="#363636" stroke-width="2" stroke-linecap="round" stroke-miterlimit="10" x1="42.9" y1="19" x2="37.8" y2="25.1"/>
		<rect fill="none" width="64" height="64"/>
	</g>
</g>
</svg>
