<?xml version="1.0" encoding="utf-8"?>
<!-- Generator: Adobe Illustrator 18.1.1, SVG Export Plug-In . SVG Version: 6.00 Build 0)  -->
<svg version="1.1" xmlns="http://www.w3.org/2000/svg" xmlns:xlink="http://www.w3.org/1999/xlink" x="0px" y="0px"
	 viewBox="0 0 64 64" enable-background="new 0 0 64 64" xml:space="preserve">
<g id="Layer_2" display="none">
	<rect x="-171" y="-200.5" display="inline" fill="#84C9F3" stroke="#000000" stroke-miterlimit="10" width="485" height="615.8"/>
</g>
<g id="Layer_1">
	<g>
		<g>
			<path fill="#363636" d="M9,53c1.1,0,2,0.9,2,2s-0.9,2-2,2s-2-0.9-2-2S7.9,53,9,53 M9,51c-2.2,0-4,1.8-4,4s1.8,4,4,4s4-1.8,4-4
				S11.2,51,9,51L9,51z"/>
		</g>
		<g>
			<path fill="#363636" d="M55,7c1.1,0,2,0.9,2,2s-0.9,2-2,2s-2-0.9-2-2S53.9,7,55,7 M55,5c-2.2,0-4,1.8-4,4s1.8,4,4,4s4-1.8,4-4
				S57.2,5,55,5L55,5z"/>
		</g>
		
			<line fill="#FFFFFF" stroke="#363636" stroke-width="2" stroke-linecap="round" stroke-linejoin="round" stroke-miterlimit="10" x1="6" y1="44" x2="20" y2="58"/>
		
			<line fill="#FFFFFF" stroke="#363636" stroke-width="2" stroke-linecap="round" stroke-linejoin="round" stroke-miterlimit="10" x1="44" y1="6" x2="58" y2="20"/>
		
			<line fill="#FFFFFF" stroke="#363636" stroke-width="2" stroke-linecap="round" stroke-linejoin="round" stroke-miterlimit="10" x1="7" y1="45" x2="45" y2="7"/>
		
			<line fill="#FFFFFF" stroke="#363636" stroke-width="2" stroke-linecap="round" stroke-linejoin="round" stroke-miterlimit="10" x1="19" y1="57" x2="57" y2="19"/>
		<rect fill="none" width="64" height="64"/>
	</g>
</g>
</svg>
