<?xml version="1.0" encoding="utf-8"?>
<!-- Generator: Adobe Illustrator 18.1.1, SVG Export Plug-In . SVG Version: 6.00 Build 0)  -->
<svg version="1.1" xmlns="http://www.w3.org/2000/svg" xmlns:xlink="http://www.w3.org/1999/xlink" x="0px" y="0px"
	 viewBox="0 0 64 64" enable-background="new 0 0 64 64" xml:space="preserve">
<g id="Layer_2" display="none">
	<rect x="-104" y="-133.5" display="inline" fill="#84C9F3" stroke="#000000" stroke-miterlimit="10" width="485" height="615.8"/>
</g>
<g id="Layer_1">
	<g>
		
			<line fill="none" stroke="#373636" stroke-width="2" stroke-linecap="round" stroke-linejoin="round" stroke-miterlimit="10" x1="16" y1="6" x2="16" y2="43"/>
		
			<polygon fill="none" stroke="#373636" stroke-width="2" stroke-linecap="round" stroke-linejoin="round" stroke-miterlimit="10" points="
			16,43 11,48 11,58 16,53 21,58 21,48 		"/>
		
			<line fill="none" stroke="#373636" stroke-width="2" stroke-linecap="round" stroke-linejoin="round" stroke-miterlimit="10" x1="10" y1="12" x2="16" y2="6"/>
		
			<line fill="none" stroke="#373636" stroke-width="2" stroke-linecap="round" stroke-linejoin="round" stroke-miterlimit="10" x1="22" y1="12" x2="16" y2="6"/>
		
			<line fill="none" stroke="#373636" stroke-width="2" stroke-linecap="round" stroke-linejoin="round" stroke-miterlimit="10" x1="32" y1="10" x2="32" y2="54"/>
		<g>
			<path fill="#363636" d="M54,27c0.6,0,1,0.4,1,1v8c0,0.6-0.4,1-1,1s-1-0.4-1-1v-8C53,27.4,53.4,27,54,27 M54,25c-1.7,0-3,1.3-3,3
				v8c0,1.7,1.3,3,3,3s3-1.3,3-3v-8C57,26.3,55.7,25,54,25L54,25z"/>
		</g>
		<rect fill="none" width="64" height="64"/>
		<path fill="none" stroke="#373636" stroke-width="2" stroke-linecap="round" stroke-linejoin="round" stroke-miterlimit="10" d="
			M54.4,26C52,14.5,42.9,6,32,6"/>
		<path fill="none" stroke="#373636" stroke-width="2" stroke-linecap="round" stroke-linejoin="round" stroke-miterlimit="10" d="
			M32,58c10.9,0,20-8.5,22.4-20"/>
	</g>
</g>
</svg>
