<?xml version="1.0" encoding="utf-8"?>
<!-- Generator: Adobe Illustrator 18.1.1, SVG Export Plug-In . SVG Version: 6.00 Build 0)  -->
<svg version="1.1" xmlns="http://www.w3.org/2000/svg" xmlns:xlink="http://www.w3.org/1999/xlink" x="0px" y="0px"
	 viewBox="0 0 64 64" enable-background="new 0 0 64 64" xml:space="preserve">
<g id="Layer_2" display="none">
	<rect x="-238" y="-133.5" display="inline" fill="#84C9F3" stroke="#000000" stroke-miterlimit="10" width="485" height="615.8"/>
</g>
<g id="Layer_1">
	<g>
		<path fill="none" stroke="#363636" stroke-width="2" stroke-linecap="round" stroke-miterlimit="10" d="M36.9,50.1"/>
		<path fill="none" stroke="#363636" stroke-width="2" stroke-linecap="round" stroke-miterlimit="10" d="M34,29h15.8
			c-1-6.3-5.1-11.6-10.8-14.2l0-3.8C20.1,7.1,12,21.5,12,32c0,3.7,1.1,7.2,2.9,10.1L10,47c0,0,1.5,5,21,5c3.5,0,5.3-1.4,5.9-1.9"/>
		<path fill="none" stroke="#363636" stroke-width="2" stroke-linecap="round" stroke-linejoin="round" stroke-miterlimit="10" d="
			M30,31c10.4,2.4,19,3,25,3c-3.2,10.8-10,19-10,19c-10.3-3.7-17.1-10.8-20-15S25.7,30,30,31z"/>
		
			<line fill="#FFFFFF" stroke="#363636" stroke-width="2" stroke-linecap="round" stroke-linejoin="round" stroke-miterlimit="10" x1="48" y1="39" x2="40.5" y2="46.5"/>
		
			<line fill="#FFFFFF" stroke="#363636" stroke-width="2" stroke-linecap="round" stroke-linejoin="round" stroke-miterlimit="10" x1="41" y1="37" x2="35" y2="43"/>
		<circle fill="#363636" cx="29" cy="36" r="2"/>
		<rect fill="none" width="64" height="64"/>
	</g>
</g>
</svg>
