<?xml version="1.0" encoding="utf-8"?>
<!-- Generator: Adobe Illustrator 18.1.1, SVG Export Plug-In . SVG Version: 6.00 Build 0)  -->
<svg version="1.1" xmlns="http://www.w3.org/2000/svg" xmlns:xlink="http://www.w3.org/1999/xlink" x="0px" y="0px"
	 viewBox="0 0 64 64" enable-background="new 0 0 64 64" xml:space="preserve">
<g id="Layer_2" display="none">
	<rect x="-104" y="-200.5" display="inline" fill="#84C9F3" stroke="#000000" stroke-miterlimit="10" width="485" height="615.8"/>
</g>
<g id="Layer_1">
	<g>
		<path fill="none" stroke="#363636" stroke-width="2" stroke-miterlimit="10" d="M37,20h-5h-5c-2.2,0-4,1.8-4,4c0,2.2,1.8,4,4,4
			c2.6,0,5,1.8,5,4c0-2.2,2.4-4,5-4c2.2,0,4-1.8,4-4C41,21.8,39.2,20,37,20z"/>
		<path fill="none" stroke="#363636" stroke-width="2" stroke-linecap="round" stroke-miterlimit="10" d="M22,29
			c-0.6,2.5-1,5.3-1,8.2c0,6.1,4.9,11,11,11s11-4.9,11-11c0-2.9-0.3-5.7-1-8.2"/>
		<path fill="none" stroke="#363636" stroke-width="2" stroke-linecap="round" stroke-miterlimit="10" d="M28,10.2
			c-6.4,1.8-11.2,7.6-11.2,14.6H20"/>
		<path fill="none" stroke="#363636" stroke-width="2" stroke-linecap="round" stroke-miterlimit="10" d="M36,10.2
			c6.4,1.8,11.2,7.6,11.2,14.6H44"/>
		
			<line fill="none" stroke="#363636" stroke-width="2" stroke-linecap="round" stroke-miterlimit="10" x1="18" y1="31" x2="15" y2="34"/>
		<path fill="none" stroke="#363636" stroke-width="2" stroke-linecap="round" stroke-miterlimit="10" d="M29,54.7
			c-6.6-1.4-11.5-7.2-11.5-14.2"/>
		
			<line fill="none" stroke="#363636" stroke-width="2" stroke-linecap="round" stroke-miterlimit="10" x1="46" y1="31" x2="49" y2="34"/>
		<path fill="none" stroke="#363636" stroke-width="2" stroke-linecap="round" stroke-miterlimit="10" d="M35,54.7
			c6.6-1.4,11.5-7.2,11.5-14.2"/>
		<circle fill="#363636" cx="32" cy="16" r="2"/>
		
			<line fill="none" stroke="#363636" stroke-width="2" stroke-linecap="round" stroke-miterlimit="10" x1="32" y1="32" x2="32" y2="43"/>
		<rect fill="none" width="64" height="64"/>
	</g>
</g>
</svg>
