<?xml version="1.0" encoding="utf-8"?>
<!-- Generator: Adobe Illustrator 18.1.1, SVG Export Plug-In . SVG Version: 6.00 Build 0)  -->
<svg version="1.1" xmlns="http://www.w3.org/2000/svg" xmlns:xlink="http://www.w3.org/1999/xlink" x="0px" y="0px"
	 viewBox="0 0 64 64" enable-background="new 0 0 64 64" xml:space="preserve">
<g id="Layer_2" display="none">
	<rect x="-37" y="-200.5" display="inline" fill="#84C9F3" stroke="#000000" stroke-miterlimit="10" width="485" height="615.8"/>
</g>
<g id="Layer_1">
	<g>
		<path fill="none" stroke="#363636" stroke-width="2" stroke-linecap="round" stroke-linejoin="round" stroke-miterlimit="10" d="
			M51.8,13.6l-1.4-1.4c-1.2-1.2-3.1-1.2-4.2,0L12.2,46.1c-1.2,1.2-1.2,3.1,0,4.2l1.4,1.4c1.2,1.2,3.1,1.2,4.2,0l33.9-33.9
			C53,16.7,53,14.8,51.8,13.6z"/>
		<g>
			<g>
				<path fill="#363636" d="M36.2,36.2c-0.3-0.3-0.4-0.6-0.3-1l7.1-24c0.2-0.5,0.7-0.8,1.2-0.7c0.5,0.2,0.8,0.7,0.7,1.2l-7.1,24
					c-0.2,0.5-0.7,0.8-1.2,0.7C36.5,36.4,36.4,36.4,36.2,36.2z"/>
			</g>
		</g>
		<g>
			<g>
				<path fill="#363636" d="M27.8,27.8c-0.1-0.1-0.2-0.3-0.3-0.4c-0.2-0.5,0.1-1.1,0.7-1.2l24-7.1c0.5-0.2,1.1,0.1,1.2,0.7
					c0.2,0.5-0.1,1.1-0.7,1.2l-24,7.1C28.4,28.1,28,28,27.8,27.8z"/>
			</g>
		</g>
		<g>
			<path fill="none" stroke="#363636" stroke-width="2" stroke-linecap="round" stroke-linejoin="round" stroke-miterlimit="10" d="
				M38,9.2c-3.1-2.5-3.6-2.1-3.6-2.1S33,5.7,27,11.7c-6,6-4.2,7.1-4.2,7.1s-0.3,0.3,2.3,3.3"/>
			<path fill="none" stroke="#363636" stroke-width="2" stroke-linecap="round" stroke-linejoin="round" stroke-miterlimit="10" d="
				M41.9,38.5c3,2.6,3.3,2.3,3.3,2.3s1.4,1.4,7.1-4.2s4.6-7.4,4.6-7.4s0.5-0.5-2.1-3.6"/>
		</g>
	</g>
</g>
</svg>
