<?xml version="1.0" encoding="utf-8"?>
<!-- Generator: Adobe Illustrator 18.1.1, SVG Export Plug-In . SVG Version: 6.00 Build 0)  -->
<svg version="1.1" xmlns="http://www.w3.org/2000/svg" xmlns:xlink="http://www.w3.org/1999/xlink" x="0px" y="0px"
	 viewBox="0 0 64 64" enable-background="new 0 0 64 64" xml:space="preserve">
<g id="Layer_2" display="none">
	<rect x="-171" y="-267.5" display="inline" fill="#84C9F3" stroke="#000000" stroke-miterlimit="10" width="485" height="615.8"/>
</g>
<g id="Layer_1">
	<g>
		<path fill="none" stroke="#363636" stroke-width="2" stroke-linecap="round" stroke-linejoin="round" stroke-miterlimit="10" d="
			M17.9,45.2c-0.6,0.3-1.1,1-1.1,1.8c0,1.1,0.9,2,2,2s2-0.9,2-2c0-0.4-0.1-0.7-0.3-1"/>
		
			<circle fill="none" stroke="#363636" stroke-width="2" stroke-linecap="round" stroke-linejoin="round" stroke-miterlimit="10" cx="41.8" cy="47" r="2"/>
		<path fill="none" stroke="#363636" stroke-width="2" stroke-linecap="round" stroke-linejoin="round" stroke-miterlimit="10" d="
			M52,24.4c0,0.2,0,0.4,0,0.6"/>
		<path fill="none" stroke="#363636" stroke-width="2" stroke-linecap="round" stroke-linejoin="round" stroke-miterlimit="10" d="
			M51.9,23.8c0,0.2,0.1,0.4,0.1,0.6"/>
		<path fill="none" stroke="#363636" stroke-width="2" stroke-linecap="round" stroke-linejoin="round" stroke-miterlimit="10" d="
			M45,32c0.3,0,0.6,0,0.9-0.1"/>
		<path fill="none" stroke="#363636" stroke-width="2" stroke-linecap="round" stroke-linejoin="round" stroke-miterlimit="10" d="
			M46,31.9c0.5-0.1,1-0.2,1.4-0.3"/>
		<path fill="none" stroke="#363636" stroke-width="2" stroke-linecap="round" stroke-linejoin="round" stroke-miterlimit="10" d="
			M51.9,26c0,0.1,0,0.1,0,0.2"/>
		<path fill="none" stroke="#363636" stroke-width="2" stroke-linecap="round" stroke-linejoin="round" stroke-miterlimit="10" d="
			M51.7,27.1C51.7,27.2,51.6,27.2,51.7,27.1"/>
		<path fill="none" stroke="#363636" stroke-width="2" stroke-linecap="round" stroke-linejoin="round" stroke-miterlimit="10" d="
			M50.7,29c0.2-0.3,0.4-0.5,0.5-0.8"/>
		<path fill="none" stroke="#363636" stroke-width="2" stroke-linecap="round" stroke-linejoin="round" stroke-miterlimit="10" d="
			M47.4,31.6c0.7-0.2,1.3-0.6,1.9-1"/>
		<path fill="none" stroke="#363636" stroke-width="2" stroke-linecap="round" stroke-linejoin="round" stroke-miterlimit="10" d="
			M51.7,27.1c0.1-0.3,0.2-0.6,0.2-0.9"/>
		<path fill="none" stroke="#363636" stroke-width="2" stroke-linecap="round" stroke-linejoin="round" stroke-miterlimit="10" d="
			M51.9,26c0-0.3,0.1-0.7,0.1-1"/>
		<path fill="none" stroke="#363636" stroke-width="2" stroke-linecap="round" stroke-linejoin="round" stroke-miterlimit="10" d="
			M51.3,28.1c0.1-0.3,0.2-0.6,0.3-0.8"/>
		<path fill="none" stroke="#363636" stroke-width="2" stroke-linecap="round" stroke-linejoin="round" stroke-miterlimit="10" d="
			M49.3,30.5c0.5-0.4,1-0.9,1.4-1.5"/>
		<path fill="none" stroke="#363636" stroke-width="2" stroke-linecap="round" stroke-linejoin="round" stroke-miterlimit="10" d="
			M17.9,45.2c0.8,0.4,1.7,0.7,2.7,0.7"/>
		
			<line fill="none" stroke="#363636" stroke-width="2" stroke-linecap="round" stroke-linejoin="round" stroke-miterlimit="10" x1="47.4" y1="31.6" x2="47.4" y2="31.6"/>
		<path fill="none" stroke="#363636" stroke-width="2" stroke-linecap="round" stroke-linejoin="round" stroke-miterlimit="10" d="
			M49.5,37.1C49.2,37.7,49,38.4,49,39c0,3.3-2.7,6-6,6c-1.4,0-2.6-0.5-3.6-1.2C38.3,46.3,35.9,48,33,48c-3,0-5.6-1.9-6.6-4.6
			C25.2,45,23.2,46,21,46c-0.2,0-0.3,0-0.5,0"/>
		<path fill="none" stroke="#363636" stroke-width="2" stroke-linecap="round" stroke-linejoin="round" stroke-miterlimit="10" d="
			M50.7,29C50.7,29,50.7,29.1,50.7,29"/>
		
			<line fill="none" stroke="#363636" stroke-width="2" stroke-linecap="round" stroke-linejoin="round" stroke-miterlimit="10" x1="49.3" y1="30.5" x2="49.3" y2="30.5"/>
		<path fill="none" stroke="#363636" stroke-width="2" stroke-linecap="round" stroke-linejoin="round" stroke-miterlimit="10" d="
			M46,31.9c0,0-0.1,0-0.1,0"/>
		<path fill="none" stroke="#363636" stroke-width="2" stroke-linecap="round" stroke-linejoin="round" stroke-miterlimit="10" d="
			M51.3,28.1c0,0,0,0.1-0.1,0.1"/>
		<path fill="none" stroke="#363636" stroke-width="2" stroke-linecap="round" stroke-linejoin="round" stroke-miterlimit="10" d="
			M51.9,23.8C51.3,20.5,48.4,18,45,18c-2.2,0-4.2,1-5.4,2.6C38.6,17.9,36,16,33,16c-3,0-5.5,1.9-6.5,4.5c0,0-0.1,0-0.1-0.1
			C25,19,23.1,18,21,18c-2.5,0-4.7,1.3-5.9,3.3C9.3,23.1,7.1,28.9,9,34h2c0,2.4,2.1,3.8,3.1,3.8C14,38.2,14,38.6,14,39
			c0,2.7,1.6,5.1,3.9,6.2"/>
		
			<line fill="none" stroke="#363636" stroke-width="2" stroke-linecap="round" stroke-linejoin="round" stroke-miterlimit="10" x1="49.3" y1="30.5" x2="49.3" y2="30.5"/>
		
			<polyline fill="none" stroke="#363636" stroke-width="2" stroke-linecap="round" stroke-linejoin="round" stroke-miterlimit="10" points="
			47.4,31.6 47.4,31.6 47.4,31.6 		"/>
		<path fill="none" stroke="#363636" stroke-width="2" stroke-linecap="round" stroke-linejoin="round" stroke-miterlimit="10" d="
			M45.9,31.9c0,0,0.1,0,0.1,0c0,0,0,0,0,0"/>
		<path fill="none" stroke="#363636" stroke-width="2" stroke-linecap="round" stroke-linejoin="round" stroke-miterlimit="10" d="
			M47.4,31.6C47.4,31.6,47.4,31.6,47.4,31.6c0.7-0.3,1.3-0.6,1.9-1"/>
		<path fill="none" stroke="#363636" stroke-width="2" stroke-linecap="round" stroke-linejoin="round" stroke-miterlimit="10" d="
			M46,31.9c0.2,0,0.4-0.1,0.6-0.1c0,0,0.1,0,0.1,0c0.2-0.1,0.4-0.1,0.7-0.2"/>
		<path fill="none" stroke="#363636" stroke-width="2" stroke-linecap="round" stroke-linejoin="round" stroke-miterlimit="10" d="
			M45,32c0.3,0,0.5,0,0.8,0c0,0,0,0,0.1,0"/>
		<path fill="none" stroke="#363636" stroke-width="2" stroke-linecap="round" stroke-linejoin="round" stroke-miterlimit="10" d="
			M51.2,28.2c0,0,0-0.1,0.1-0.1"/>
		<path fill="none" stroke="#363636" stroke-width="2" stroke-linecap="round" stroke-linejoin="round" stroke-miterlimit="10" d="
			M51.6,27.2c-0.1,0.3-0.2,0.6-0.3,0.8"/>
		<path fill="none" stroke="#363636" stroke-width="2" stroke-linecap="round" stroke-linejoin="round" stroke-miterlimit="10" d="
			M51.9,26.2c-0.1,0.3-0.1,0.6-0.2,0.9"/>
		<path fill="none" stroke="#363636" stroke-width="2" stroke-linecap="round" stroke-linejoin="round" stroke-miterlimit="10" d="
			M51.2,28.2c-0.1,0.3-0.3,0.6-0.5,0.8"/>
		<path fill="none" stroke="#363636" stroke-width="2" stroke-linecap="round" stroke-linejoin="round" stroke-miterlimit="10" d="
			M52,25c0,0.3,0,0.7-0.1,1"/>
		<path fill="none" stroke="#363636" stroke-width="2" stroke-linecap="round" stroke-linejoin="round" stroke-miterlimit="10" d="
			M49.3,30.5c0.5-0.4,1-0.9,1.4-1.5"/>
		<path fill="none" stroke="#363636" stroke-width="2" stroke-linecap="round" stroke-linejoin="round" stroke-miterlimit="10" d="
			M45,32c-0.2,0-0.5,0-0.7,0l4.9,4.9c0.1,0.1,0.2,0.2,0.3,0.3"/>
		<path fill="none" stroke="#363636" stroke-width="2" stroke-linecap="round" stroke-linejoin="round" stroke-miterlimit="10" d="
			M50.7,29.1C50.7,29.1,50.7,29,50.7,29.1"/>
		<path fill="none" stroke="#363636" stroke-width="2" stroke-linecap="round" stroke-linejoin="round" stroke-miterlimit="10" d="
			M51.9,26.2c0-0.1,0-0.1,0-0.2"/>
		<path fill="none" stroke="#363636" stroke-width="2" stroke-linecap="round" stroke-linejoin="round" stroke-miterlimit="10" d="
			M51.6,27.2C51.6,27.2,51.7,27.2,51.6,27.2"/>
		<path fill="none" stroke="#363636" stroke-width="2" stroke-linecap="round" stroke-linejoin="round" stroke-miterlimit="10" d="
			M51.9,23.8c0,0.2,0.1,0.4,0.1,0.6"/>
		<path fill="none" stroke="#363636" stroke-width="2" stroke-linecap="round" stroke-linejoin="round" stroke-miterlimit="10" d="
			M52,25c0-0.2,0-0.4,0-0.6"/>
		<path fill="none" stroke="#363636" stroke-width="2" stroke-linecap="round" stroke-linejoin="round" stroke-miterlimit="10" d="
			M51.9,23.8C51.9,23.8,51.9,23.8,51.9,23.8c3.6,2.3,6.8,9.2,2.9,13.1c-1.5,1.5-3.8,1.5-5.3,0.3"/>
	</g>
</g>
</svg>
