<?xml version="1.0" encoding="utf-8"?>
<!-- Generator: Adobe Illustrator 18.1.1, SVG Export Plug-In . SVG Version: 6.00 Build 0)  -->
<svg version="1.1" xmlns="http://www.w3.org/2000/svg" xmlns:xlink="http://www.w3.org/1999/xlink" x="0px" y="0px"
	 viewBox="0 0 64 64" enable-background="new 0 0 64 64" xml:space="preserve">
<g id="Layer_2" display="none">
	<rect x="-171" y="-334.5" display="inline" fill="#84C9F3" stroke="#000000" stroke-miterlimit="10" width="485" height="615.8"/>
</g>
<g id="Layer_1">
	<g>
		<g>
			<circle fill="#363636" cx="20" cy="43" r="2"/>
		</g>
		<g>
			<circle fill="#363636" cx="26" cy="43" r="2"/>
		</g>
		<g>
			<circle fill="#363636" cx="32" cy="43" r="2"/>
		</g>
		<g>
			<circle fill="#363636" cx="38" cy="43" r="2"/>
		</g>
		<g>
			<circle fill="#363636" cx="23" cy="48" r="2"/>
		</g>
		<g>
			<circle fill="#363636" cx="29" cy="48" r="2"/>
		</g>
		<g>
			<circle fill="#363636" cx="35" cy="48" r="2"/>
		</g>
		<g>
			<circle fill="#363636" cx="41" cy="48" r="2"/>
		</g>
		<g>
			<circle fill="#363636" cx="44" cy="43" r="2"/>
		</g>
		<path fill="none" stroke="#363636" stroke-width="2" stroke-linecap="round" stroke-linejoin="round" stroke-miterlimit="10" d="
			M47,38l-2-4h-2.1c-0.8,3.4-5.3,4-10.9,4s-10.1-0.6-10.9-4H19l-2,4h0c-3.3,0-6,2.7-6,6v9h21h21v-9C53,40.7,50.3,38,47,38L47,38z"/>
		
			<polyline fill="none" stroke="#363636" stroke-width="2" stroke-linecap="round" stroke-linejoin="round" stroke-miterlimit="10" points="
			15,34 15,28 49,28 49,34 		"/>
		
			<line fill="none" stroke="#363636" stroke-width="2" stroke-linecap="round" stroke-linejoin="round" stroke-miterlimit="10" x1="53" y1="27" x2="53" y2="36"/>
		
			<line fill="none" stroke="#363636" stroke-width="2" stroke-linecap="round" stroke-linejoin="round" stroke-miterlimit="10" x1="11" y1="27" x2="11" y2="36"/>
		
			<polyline fill="none" stroke="#363636" stroke-width="2" stroke-linecap="round" stroke-linejoin="round" stroke-miterlimit="10" points="
			18,25 18,12 46,12 46,25 		"/>
		
			<line fill="none" stroke="#363636" stroke-width="2" stroke-linejoin="round" stroke-miterlimit="10" x1="24" y1="18" x2="40" y2="18"/>
		
			<line fill="none" stroke="#363636" stroke-width="2" stroke-linejoin="round" stroke-miterlimit="10" x1="24" y1="23" x2="40" y2="23"/>
		<rect fill="none" width="64" height="64"/>
	</g>
	<g>
		<rect x="59.5" y="59.5" fill="none" width="79.1" height="79.1"/>
	</g>
</g>
</svg>
