<?xml version="1.0" encoding="utf-8"?>
<!-- Generator: Adobe Illustrator 18.1.1, SVG Export Plug-In . SVG Version: 6.00 Build 0)  -->
<svg version="1.1" xmlns="http://www.w3.org/2000/svg" xmlns:xlink="http://www.w3.org/1999/xlink" x="0px" y="0px"
	 viewBox="0 0 64 64" enable-background="new 0 0 64 64" xml:space="preserve">
<g id="Layer_2" display="none">
	<rect x="-104" y="-334.5" display="inline" fill="#84C9F3" stroke="#000000" stroke-miterlimit="10" width="485" height="615.8"/>
</g>
<g id="Layer_1">
	<g>
		<path fill="none" stroke="#363636" stroke-width="2" stroke-linecap="round" stroke-linejoin="round" stroke-miterlimit="10" d="
			M32,54c0,0,1.6-1.2,4-2c2.1-0.7,6.3-1.7,10,0c0.4-2.6,2.7-5.6,4-7c-2.7-2.4-4.8-5.7-5-10c-0.4-6.4,3.2-8.1,5-10
			c-1.2-1.8-2.9-4.6-3-7c-4.5,0.9-7.8-2.8-10-8c-1.6,0.7-5,1-5,1s-3.4-0.3-5-1c-2.2,5.2-5.5,8.9-10,8c-0.1,2.4-1.8,5.2-3,7
			c1.8,1.9,5.4,3.6,5,10c-0.2,4.3-2.3,7.6-5,10c1.3,1.4,3.6,4.4,4,7c3.7-1.7,7.9-0.7,10,0C30.4,52.8,32,54,32,54z"/>
		
			<line fill="#FFFFFF" stroke="#363636" stroke-width="2" stroke-linecap="round" stroke-linejoin="round" stroke-miterlimit="10" x1="32" y1="20" x2="32" y2="48"/>
		<rect fill="none" width="64" height="64"/>
	</g>
</g>
</svg>
