<?xml version="1.0" encoding="utf-8"?>
<!-- Generator: Adobe Illustrator 18.1.1, SVG Export Plug-In . SVG Version: 6.00 Build 0)  -->
<svg version="1.1" xmlns="http://www.w3.org/2000/svg" xmlns:xlink="http://www.w3.org/1999/xlink" x="0px" y="0px"
	 viewBox="0 0 64 64" enable-background="new 0 0 64 64" xml:space="preserve">
<g id="Layer_2" display="none">
	<rect x="-372" y="-401.5" display="inline" fill="#84C9F3" stroke="#000000" stroke-miterlimit="10" width="485" height="615.8"/>
</g>
<g id="Layer_1">
	<g>
		<path fill="none" stroke="#363636" stroke-width="2" stroke-linecap="round" stroke-miterlimit="10" d="M45.6,54.2v-3.7
			c0-4.7-1.6-9.1-4.4-11.9l-3.1-3.2c-1.9-1.9-1.9-5,0-6.9l3.1-3.2c2.7-2.8,4.4-7.2,4.4-11.9V9.8"/>
		<path fill="none" stroke="#363636" stroke-width="2" stroke-linecap="round" stroke-miterlimit="10" d="M18.4,54.2v-3.7
			c0-4.7,1.6-9.1,4.4-11.9l3.1-3.2c1.9-1.9,1.9-5,0-6.9l-3.1-3.2c-2.7-2.8-4.4-7.2-4.4-11.9V9.8"/>
		
			<line fill="none" stroke="#363636" stroke-width="2" stroke-linecap="square" stroke-miterlimit="10" x1="15.9" y1="6" x2="48.1" y2="6"/>
		
			<line fill="none" stroke="#363636" stroke-width="2" stroke-linecap="square" stroke-miterlimit="10" x1="15.9" y1="58" x2="48.1" y2="58"/>
		<g>
			<path fill="#363636" d="M32,45.4l6.4,3.7c0.9,0.5,1.5,1.5,1.5,2.5v0.5H24.1v-0.5c0-1,0.6-2,1.5-2.5L32,45.4 M32,43.1l-7.4,4.3
				c-1.5,0.9-2.5,2.5-2.5,4.3v2.5h19.8v-2.5c0-1.8-0.9-3.4-2.5-4.3L32,43.1L32,43.1z"/>
		</g>
		<path fill="none" stroke="#363636" stroke-width="2" stroke-linecap="round" stroke-linejoin="round" stroke-miterlimit="10" d="
			M32,18.4h-4.5c-1.8,0-2.8,2-1.8,3.4l0,0c0.1,0.2,0.3,0.4,0.5,0.5l4.5,3.6c0.8,0.6,1.9,0.6,2.8,0l4.5-3.6c0.2-0.1,0.3-0.3,0.5-0.5
			l0,0c1-1.5-0.1-3.4-1.8-3.4H32z"/>
		<rect x="-7.5" y="-7.5" fill="none" width="79.1" height="79.1"/>
	</g>
	<g>
		<rect x="-74.4" y="59.6" fill="none" width="78.7" height="78.7"/>
	</g>
</g>
</svg>
