<?xml version="1.0" encoding="utf-8"?>
<!-- Generator: Adobe Illustrator 18.1.1, SVG Export Plug-In . SVG Version: 6.00 Build 0)  -->
<svg version="1.1" xmlns="http://www.w3.org/2000/svg" xmlns:xlink="http://www.w3.org/1999/xlink" x="0px" y="0px"
	 viewBox="0 0 64 64" enable-background="new 0 0 64 64" xml:space="preserve">
<g id="Layer_2" display="none">
	<rect x="-305" y="-267.5" display="inline" fill="#84C9F3" stroke="#000000" stroke-miterlimit="10" width="485" height="615.8"/>
</g>
<g id="Layer_1">
	<g>
		<path fill="none" stroke="#363636" stroke-width="2" stroke-linecap="round" stroke-linejoin="round" stroke-miterlimit="10" d="
			M37.9,28.5c-0.1-2.7,2.8-6,5.6-8.7C46.8,16.3,42.6,8.3,32,8.3c-10.3,0-14.2,8.1-14.2,13.3c0,4.3,3.1,7.8,7.1,8.5"/>
		<path fill="none" stroke="#363636" stroke-width="2" stroke-linecap="round" stroke-linejoin="round" stroke-miterlimit="10" d="
			M24.4,31.5C22,33,17.8,32.1,14,31.1c-4.7-1.2-9.5,6.4-4.2,15.6c5.1,8.9,14.1,8.2,18.6,5.6c3.7-2.1,5.2-6.6,3.8-10.5"/>
		<path fill="none" stroke="#363636" stroke-width="2" stroke-linecap="round" stroke-linejoin="round" stroke-miterlimit="10" d="
			M38.8,29.7c2.7-3.1,7.3-4,11-1.9c4.5,2.6,9.5,10,4.4,18.9c-5.3,9.2-14.4,8.8-15.6,4.2c-1-3.8-2.4-7.9-4.8-9.2"/>
		<path fill="none" stroke="#363636" stroke-width="2" stroke-linecap="round" stroke-linejoin="round" stroke-miterlimit="10" d="
			M26.8,27.8c3.7-2.6,5.2-5.5,5.2-7.9"/>
		<path fill="none" stroke="#363636" stroke-width="2" stroke-linecap="round" stroke-linejoin="round" stroke-miterlimit="10" d="
			M28.8,41.3c-3.8-1.6-7-1.5-9-0.3"/>
		<path fill="none" stroke="#363636" stroke-width="2" stroke-linecap="round" stroke-linejoin="round" stroke-miterlimit="10" d="
			M29,41.3c-0.1,0-0.1,0-0.1-0.1"/>
		<path fill="none" stroke="#363636" stroke-width="2" stroke-linecap="round" stroke-linejoin="round" stroke-miterlimit="10" d="
			M29.3,41.5c-0.1-0.1-0.2-0.1-0.4-0.1"/>
		<path fill="none" stroke="#363636" stroke-width="2" stroke-linecap="round" stroke-linejoin="round" stroke-miterlimit="10" d="
			M44.1,40.9c-2.1-1.2-3.8-4-4.3-8.5"/>
		<path fill="none" stroke="#363636" stroke-width="2" stroke-linecap="round" stroke-linejoin="round" stroke-miterlimit="10" d="
			M32.2,41.9c0.5,0,1-0.1,1.5-0.2"/>
		<path fill="none" stroke="#363636" stroke-width="2" stroke-linecap="round" stroke-linejoin="round" stroke-miterlimit="10" d="
			M29,41.3c0,0-0.1,0-0.1-0.1"/>
		<path fill="none" stroke="#363636" stroke-width="2" stroke-linecap="round" stroke-linejoin="round" stroke-miterlimit="10" d="
			M29,41.3c0.9,0.4,2,0.6,3,0.6c0.1,0,0.1,0,0.2,0"/>
		<path fill="none" stroke="#363636" stroke-width="2" stroke-linecap="round" stroke-linejoin="round" stroke-miterlimit="10" d="
			M38.8,29.7c0.8,1.2,1.2,2.7,1.2,4.2c0,3.8-2.7,7-6.2,7.8"/>
		<path fill="none" stroke="#363636" stroke-width="2" stroke-linecap="round" stroke-linejoin="round" stroke-miterlimit="10" d="
			M38.8,29.7c-0.3-0.4-0.6-0.9-0.9-1.2"/>
		<path fill="none" stroke="#363636" stroke-width="2" stroke-linecap="round" stroke-linejoin="round" stroke-miterlimit="10" d="
			M28.8,41.3C26,40,24,37.2,24,33.9c0-0.8,0.1-1.6,0.4-2.4"/>
		<path fill="none" stroke="#363636" stroke-width="2" stroke-linecap="round" stroke-linejoin="round" stroke-miterlimit="10" d="
			M37.9,28.5c-1.5-1.6-3.5-2.6-5.9-2.6c-3,0-5.7,1.7-7,4.2"/>
		<path fill="none" stroke="#363636" stroke-width="2" stroke-linecap="round" stroke-linejoin="round" stroke-miterlimit="10" d="
			M24.4,31.5c0.2-0.5,0.4-1,0.6-1.4"/>
		
			<circle fill="none" stroke="#363636" stroke-width="2" stroke-linecap="round" stroke-linejoin="round" stroke-miterlimit="10" cx="32" cy="33.9" r="2"/>
	</g>
</g>
</svg>
