<?xml version="1.0" encoding="utf-8"?>
<!-- Generator: Adobe Illustrator 18.1.1, SVG Export Plug-In . SVG Version: 6.00 Build 0)  -->
<svg version="1.1" xmlns="http://www.w3.org/2000/svg" xmlns:xlink="http://www.w3.org/1999/xlink" x="0px" y="0px"
	 viewBox="0 0 64 64" enable-background="new 0 0 64 64" xml:space="preserve">
<g id="Layer_2" display="none">
	<rect x="-104" y="-401.5" display="inline" fill="#84C9F3" stroke="#000000" stroke-miterlimit="10" width="485" height="615.8"/>
</g>
<g id="Layer_1">
	<g>
		<g>
			<path fill="#363636" d="M32,7c0.6,0,1,0.4,1,1v5h5c0.6,0,1,0.4,1,1s-0.4,1-1,1h-5v22h17c0.6,0,1,0.4,1,1s-0.4,1-1,1H33v17
				c0,0.6-0.4,1-1,1s-1-0.4-1-1V39H14c-0.6,0-1-0.4-1-1s0.4-1,1-1h17V15h-5c-0.6,0-1-0.4-1-1s0.4-1,1-1h5V8C31,7.4,31.4,7,32,7
				 M32,5c-1.7,0-3,1.3-3,3v3h-3c-1.7,0-3,1.3-3,3s1.3,3,3,3h3v18H14c-1.7,0-3,1.3-3,3s1.3,3,3,3h15v15c0,1.7,1.3,3,3,3s3-1.3,3-3
				V41h15c1.7,0,3-1.3,3-3s-1.3-3-3-3H35V17h3c1.7,0,3-1.3,3-3s-1.3-3-3-3h-3V8C35,6.3,33.7,5,32,5L32,5z"/>
		</g>
		<path fill="none" stroke="#363636" stroke-width="2" stroke-linecap="round" stroke-miterlimit="10" d="M27,21.8
			c-5.4,1.6-9.6,5.9-11.2,11.2"/>
		<path fill="none" stroke="#363636" stroke-width="2" stroke-linecap="round" stroke-miterlimit="10" d="M15.6,43.2
			c1.6,5.4,5.9,9.6,11.2,11.2"/>
		<path fill="none" stroke="#363636" stroke-width="2" stroke-linecap="round" stroke-miterlimit="10" d="M37,54.6
			c5.4-1.6,9.6-5.9,11.2-11.2"/>
		<path fill="none" stroke="#363636" stroke-width="2" stroke-linecap="round" stroke-miterlimit="10" d="M48.4,33.2
			c-1.6-5.4-5.9-9.6-11.2-11.2"/>
		<rect fill="none" width="64" height="64"/>
	</g>
</g>
</svg>
