<?xml version="1.0" encoding="utf-8"?>
<!-- Generator: Adobe Illustrator 18.1.1, SVG Export Plug-In . SVG Version: 6.00 Build 0)  -->
<svg version="1.1" xmlns="http://www.w3.org/2000/svg" xmlns:xlink="http://www.w3.org/1999/xlink" x="0px" y="0px"
	 viewBox="0 0 64 64" enable-background="new 0 0 64 64" xml:space="preserve">
<g id="Layer_2" display="none">
	<rect x="-37" y="-267.5" display="inline" fill="#84C9F3" stroke="#000000" stroke-miterlimit="10" width="485" height="615.8"/>
</g>
<g id="Layer_1">
	<g>
		<path fill="none" stroke="#363636" stroke-width="2" stroke-linecap="round" stroke-linejoin="round" stroke-miterlimit="10" d="
			M53,42c1.1,0,2-0.9,2-2v-8c0-1.1-0.9-2-2-2h-2l-3.6-11.6c-0.3-0.8-1-1.4-1.9-1.4h-22c-0.9,0-1.7,0.6-1.9,1.4L18,30h-5
			c-2.2,0-4,1.8-4,4v6c0,1.1,0.9,2,2,2"/>
		<path fill="none" stroke="#363636" stroke-width="2" stroke-linecap="round" stroke-linejoin="round" stroke-miterlimit="10" d="
			M21,21h5c1.1,0,2,0.9,2,2v5c0,1.1-0.9,2-2,2h-8"/>
		<path fill="none" stroke="#363636" stroke-width="2" stroke-linecap="round" stroke-linejoin="round" stroke-miterlimit="10" d="
			M48,21h-1c-1.1,0-2,0.9-2,2v5c0,1.1,0.9,2,2,2h4"/>
		<path fill="none" stroke="#363636" stroke-width="2" stroke-linecap="round" stroke-linejoin="round" stroke-miterlimit="10" d="
			M10,33c1.7,0,3,1.3,3,3s-1.3,3-3,3"/>
		
			<circle fill="none" stroke="#363636" stroke-width="2" stroke-linecap="round" stroke-linejoin="round" stroke-miterlimit="10" cx="19" cy="43" r="5"/>
		
			<circle fill="none" stroke="#363636" stroke-width="2" stroke-linecap="round" stroke-linejoin="round" stroke-miterlimit="10" cx="45" cy="43" r="5"/>
		
			<line fill="none" stroke="#363636" stroke-width="2" stroke-linecap="round" stroke-linejoin="round" stroke-miterlimit="10" x1="27" y1="43" x2="37" y2="43"/>
		<path fill="none" stroke="#363636" stroke-width="2" stroke-linecap="round" stroke-linejoin="round" stroke-miterlimit="10" d="
			M39,30h-5c-1.1,0-2-0.9-2-2v-5c0-1.1,0.9-2,2-2h5c1.1,0,2,0.9,2,2v5C41,29.1,40.1,30,39,30z"/>
		<rect fill="none" width="64" height="64"/>
	</g>
</g>
</svg>
