<?xml version="1.0" encoding="utf-8"?>
<!-- Generator: Adobe Illustrator 18.1.1, SVG Export Plug-In . SVG Version: 6.00 Build 0)  -->
<svg version="1.1" xmlns="http://www.w3.org/2000/svg" xmlns:xlink="http://www.w3.org/1999/xlink" x="0px" y="0px"
	 viewBox="0 0 64 64" enable-background="new 0 0 64 64" xml:space="preserve">
<g id="Layer_2" display="none">
	<rect x="-171" y="-468.5" display="inline" fill="#84C9F3" stroke="#000000" stroke-miterlimit="10" width="485" height="615.8"/>
</g>
<g id="Layer_1">
	<g>
		<rect x="59.5" y="-74.5" fill="none" width="79.1" height="79.1"/>
	</g>
	<g>
		<path fill="none" stroke="#363636" stroke-width="2" stroke-linecap="round" stroke-linejoin="round" stroke-miterlimit="10" d="
			M36.2,27.8C37.3,15.5,43,10,43,10H32H21c0,0,5.7,5.5,6.8,17.8C15.5,26.7,10,21,10,21v11v11c0,0,5.5-5.7,17.8-6.8
			C26.7,48.5,21,54,21,54h11h11c0,0-5.7-5.5-6.8-17.8C48.5,37.3,54,43,54,43V32V21C54,21,48.5,26.7,36.2,27.8z"/>
		<rect fill="none" width="64" height="64"/>
	</g>
	<g>
		<rect x="62.2" y="-4.8" fill="none" width="73.5" height="73.5"/>
	</g>
</g>
</svg>
