<?xml version="1.0" encoding="utf-8"?>
<!-- Generator: Adobe Illustrator 18.1.1, SVG Export Plug-In . SVG Version: 6.00 Build 0)  -->
<svg version="1.1" xmlns="http://www.w3.org/2000/svg" xmlns:xlink="http://www.w3.org/1999/xlink" x="0px" y="0px"
	 viewBox="0 0 64 64" enable-background="new 0 0 64 64" xml:space="preserve">
<g id="Layer_2" display="none">
	<rect x="-37" y="-133.5" display="inline" fill="#84C9F3" stroke="#000000" stroke-miterlimit="10" width="485" height="615.8"/>
</g>
<g id="Layer_1">
	<g>
		<path fill="none" stroke="#373636" stroke-width="2" stroke-linecap="round" stroke-linejoin="round" stroke-miterlimit="10" d="
			M52.7,41.3c0.1-4.9-1.8-12.1-10.4-16.1c-0.1,2.9-2.1,3.9-4.7,3.4c-2.6-0.6-3.9-3.8-2.5-8.6c1.4-4.8,1.1-8.8-4.6-13.9
			c1.2,9.2-12.5,16.7-17.8,25.9c-4.6,8.1-2.2,22.1,11.7,24.9C46.3,61.2,52.6,46.6,52.7,41.3z"/>
		<path fill="none" stroke="#373636" stroke-width="2" stroke-linecap="round" stroke-linejoin="round" stroke-miterlimit="10" d="
			M25.7,52.3c-3.1-1.1-4.6-3.3-5.1-5.1c-0.8-2.7,0.2-7.7,4.3-8.9c-0.7,2.5,0.2,4.2,2.6,4.4c2.3,0.2,4.6-2.7,1.3-5.8s-2.3-7.4,0-8.5
			c-0.3,5.5,7.1,5.1,11.7,11.6c3.8,5.4,0.5,10.9-5.7,12.6"/>
		<rect fill="none" width="64" height="64"/>
	</g>
</g>
</svg>
