<?xml version="1.0" encoding="utf-8"?>
<!-- Generator: Adobe Illustrator 18.1.1, SVG Export Plug-In . SVG Version: 6.00 Build 0)  -->
<svg version="1.1" xmlns="http://www.w3.org/2000/svg" xmlns:xlink="http://www.w3.org/1999/xlink" x="0px" y="0px"
	 viewBox="0 0 64 64" enable-background="new 0 0 64 64" xml:space="preserve">
<g id="Layer_2" display="none">
	<rect x="-305" y="-401.5" display="inline" fill="#84C9F3" stroke="#000000" stroke-miterlimit="10" width="485" height="615.8"/>
</g>
<g id="Layer_1">
	<g>
		<rect x="-74.5" y="-7.5" fill="none" width="79.1" height="79.1"/>
	</g>
	<g>
		
			<line fill="none" stroke="#363636" stroke-width="2" stroke-linecap="round" stroke-linejoin="round" stroke-miterlimit="10" x1="45" y1="36" x2="47.1" y2="24.2"/>
		<path fill="none" stroke="#363636" stroke-width="2" stroke-linecap="round" stroke-linejoin="round" stroke-miterlimit="10" d="
			M40,38v-2c0-2.8,2.2-5,5-5s5,2.2,5,5v2"/>
		<g>
			<circle fill="#363636" cx="45" cy="36" r="2"/>
		</g>
		<rect x="6" y="39" fill="none" stroke="#363636" stroke-width="2" stroke-miterlimit="10" width="52" height="6"/>
		
			<line fill="none" stroke="#363636" stroke-width="2" stroke-linecap="round" stroke-linejoin="round" stroke-miterlimit="10" x1="55.6" y1="27.7" x2="13.3" y2="20.2"/>
		<g>
			<g>
				<path fill="#363636" d="M13.3,19.2c0.1,0,0.1,0,0.2,0l4.9,0.9c0.5,0.1,0.9,0.6,0.8,1.2c-0.1,0.5-0.5,0.8-1,0.8
					c-0.1,0-0.1,0-0.2,0l-4.9-0.9c-0.5-0.1-0.9-0.6-0.8-1.2C12.4,19.6,12.8,19.2,13.3,19.2 M13.3,17.2L13.3,17.2c-1.5,0-2.7,1-3,2.5
					c-0.1,0.8,0,1.6,0.5,2.2c0.5,0.7,1.1,1.1,1.9,1.2l4.9,0.9c0.2,0,0.3,0,0.5,0c1.5,0,2.7-1,3-2.5c0.1-0.8,0-1.6-0.5-2.2
					s-1.1-1.1-1.9-1.2l-4.9-0.9C13.6,17.3,13.4,17.2,13.3,17.2L13.3,17.2z"/>
			</g>
		</g>
		<g>
			<g>
				<path fill="#363636" d="M33.8,17.8c0.1,0,0.1,0,0.2,0l3.9,0.7c0.5,0.1,0.9,0.6,0.8,1.2c-0.1,0.5-0.5,0.8-1,0.8
					c-0.1,0-0.1,0-0.2,0l-3.9-0.7c-0.5-0.1-0.9-0.6-0.8-1.2C32.9,18.1,33.3,17.8,33.8,17.8 M33.8,15.8L33.8,15.8c-1.5,0-2.7,1-3,2.5
					c-0.1,0.8,0,1.6,0.5,2.2s1.1,1.1,1.9,1.2l3.9,0.7c0.2,0,0.3,0,0.5,0c1.5,0,2.7-1,3-2.5c0.3-1.6-0.8-3.2-2.4-3.5l-3.9-0.7
					C34.2,15.8,34,15.8,33.8,15.8L33.8,15.8z"/>
			</g>
		</g>
		<line fill="#FFFFFF" stroke="#363636" stroke-width="2" stroke-miterlimit="10" x1="35.4" y1="21.1" x2="33.5" y2="31.9"/>
		<g>
			<path fill="#363636" d="M36,36v2h-6v-2H36 M36,34h-6c-1.1,0-2,0.9-2,2v2c0,1.1,0.9,2,2,2h6c1.1,0,2-0.9,2-2v-2
				C38,34.9,37.1,34,36,34L36,34z"/>
		</g>
		<rect fill="none" width="64" height="64"/>
	</g>
	<g>
		<rect x="59.5" y="-7.5" fill="none" width="79.1" height="79.1"/>
	</g>
	<g>
		<rect x="-71.8" y="62.2" fill="none" width="73.5" height="73.5"/>
	</g>
	<g>
		<rect x="-7.4" y="59.6" fill="none" width="78.7" height="78.7"/>
	</g>
</g>
</svg>
