<?xml version="1.0" encoding="utf-8"?>
<!-- Generator: Adobe Illustrator 18.1.1, SVG Export Plug-In . SVG Version: 6.00 Build 0)  -->
<svg version="1.1" xmlns="http://www.w3.org/2000/svg" xmlns:xlink="http://www.w3.org/1999/xlink" x="0px" y="0px"
	 viewBox="0 0 64 64" enable-background="new 0 0 64 64" xml:space="preserve">
<g id="Layer_2" display="none">
	<rect x="-238" y="-468.5" display="inline" fill="#84C9F3" stroke="#000000" stroke-miterlimit="10" width="485" height="615.8"/>
</g>
<g id="Layer_1">
	<g>
		<rect x="-7.5" y="-74.5" fill="none" width="79.1" height="79.1"/>
	</g>
	<g>
		<path fill="none" stroke="#363636" stroke-width="2" stroke-miterlimit="10" d="M52.7,54.6H11.3c-1.3,0-2.3-1-2.3-2.3v-41
			c0-1.3,1-2.3,2.3-2.3h39.1l4.6,4.2v39.1C55,53.6,53.9,54.6,52.7,54.6z"/>
		<path fill="none" stroke="#363636" stroke-width="2" stroke-miterlimit="10" d="M17.1,9v16.1c0,1.3,1,2.3,2.3,2.3h25.3
			c1.3,0,2.3-1,2.3-2.3V9"/>
		<rect x="35.4" y="12.5" fill="none" stroke="#363636" stroke-width="2" stroke-miterlimit="10" width="6.9" height="10.3"/>
		<rect x="-4.8" y="-4.8" fill="none" width="73.5" height="73.5"/>
	</g>
	<g>
		<rect x="59.6" y="-7.4" fill="none" width="78.7" height="78.7"/>
	</g>
</g>
</svg>
