<?xml version="1.0" encoding="utf-8"?>
<!-- Generator: Adobe Illustrator 18.1.1, SVG Export Plug-In . SVG Version: 6.00 Build 0)  -->
<svg version="1.1" xmlns="http://www.w3.org/2000/svg" xmlns:xlink="http://www.w3.org/1999/xlink" x="0px" y="0px"
	 viewBox="0 0 64 64" enable-background="new 0 0 64 64" xml:space="preserve">
<g id="Layer_2" display="none">
	<rect x="-305" y="-200.5" display="inline" fill="#84C9F3" stroke="#000000" stroke-miterlimit="10" width="485" height="615.8"/>
</g>
<g id="Layer_1">
	<g>
		<g>
			
				<polygon fill="none" stroke="#363636" stroke-width="2" stroke-linecap="round" stroke-linejoin="round" stroke-miterlimit="10" points="
				28.5,22.5 28.5,32 19.2,32 35.6,41.5 35.6,32 45,32 			"/>
		</g>
		
			<line fill="none" stroke="#363636" stroke-width="2" stroke-linecap="round" stroke-miterlimit="10" x1="12" y1="52" x2="12" y2="35.2"/>
		<g>
			<path fill="#363636" d="M12,30c1.1,0,2,0.9,2,2s-0.9,2-2,2s-2-0.9-2-2S10.9,30,12,30 M12,28c-2.2,0-4,1.8-4,4s1.8,4,4,4
				s4-1.8,4-4S14.2,28,12,28L12,28z"/>
		</g>
		
			<line fill="none" stroke="#363636" stroke-width="2" stroke-linecap="round" stroke-miterlimit="10" x1="52" y1="52" x2="52" y2="35.2"/>
		<g>
			<path fill="#363636" d="M52,30c1.1,0,2,0.9,2,2s-0.9,2-2,2s-2-0.9-2-2S50.9,30,52,30 M52,28c-2.2,0-4,1.8-4,4s1.8,4,4,4
				s4-1.8,4-4S54.2,28,52,28L52,28z"/>
		</g>
		
			<line fill="none" stroke="#363636" stroke-width="2" stroke-linecap="round" stroke-linejoin="round" stroke-miterlimit="10" x1="7" y1="52" x2="57" y2="52"/>
		<rect fill="none" width="64" height="64"/>
	</g>
</g>
</svg>
