<?xml version="1.0" encoding="utf-8"?>
<!-- Generator: Adobe Illustrator 18.1.1, SVG Export Plug-In . SVG Version: 6.00 Build 0)  -->
<svg version="1.1" xmlns="http://www.w3.org/2000/svg" xmlns:xlink="http://www.w3.org/1999/xlink" x="0px" y="0px"
	 viewBox="0 0 64 64" enable-background="new 0 0 64 64" xml:space="preserve">
<g id="Layer_2" display="none">
	<rect x="-238" y="-401.5" display="inline" fill="#84C9F3" stroke="#000000" stroke-miterlimit="10" width="485" height="615.8"/>
</g>
<g id="Layer_1">
	<g>
		<path fill="none" stroke="#373636" stroke-width="2" stroke-linecap="round" stroke-linejoin="round" stroke-miterlimit="10" d="
			M32,19.1c8.3,0,13.9,6.7,13.9,15c0,8.4-5.4,17.1-5.4,17.1l8.6,4.3c3-4.1,7.5-12.1,7.5-23.6c0-13.6-11-24.6-24.6-24.6
			S7.4,18.3,7.4,31.9c0,11.4,4.5,19.5,7.5,23.6l8.6-4.3c0,0-5.4-8.7-5.4-17.1C18.1,25.8,23.7,19.1,32,19.1z"/>
		<g>
			<g>
				<path fill="none" stroke="#373636" stroke-width="2" stroke-linecap="round" stroke-linejoin="round" d="M51.3,31.9
					c0-0.3,0-0.7,0-1"/>
				
					<path fill="none" stroke="#373636" stroke-width="2" stroke-linecap="round" stroke-linejoin="round" stroke-dasharray="2.0191,8.0764" d="
					M49.2,23.2C46,16.9,39.5,12.6,32,12.6c-8.9,0-16.4,6.1-18.6,14.3"/>
				<path fill="none" stroke="#373636" stroke-width="2" stroke-linecap="round" stroke-linejoin="round" d="M12.7,30.9
					c0,0.3,0,0.7,0,1"/>
			</g>
		</g>
		<rect x="-7.5" y="-7.5" fill="none" width="79.1" height="79.1"/>
	</g>
	<g>
		<rect x="-4.8" y="62.2" fill="none" width="73.5" height="73.5"/>
	</g>
	<g>
		<rect x="59.6" y="59.6" fill="none" width="78.7" height="78.7"/>
	</g>
</g>
</svg>
