<?xml version="1.0" encoding="utf-8"?>
<!-- Generator: Adobe Illustrator 18.1.1, SVG Export Plug-In . SVG Version: 6.00 Build 0)  -->
<svg version="1.1" xmlns="http://www.w3.org/2000/svg" xmlns:xlink="http://www.w3.org/1999/xlink" x="0px" y="0px"
	 viewBox="0 0 64 64" enable-background="new 0 0 64 64" xml:space="preserve">
<g id="Layer_2" display="none">
	<rect x="-305" y="-468.5" display="inline" fill="#84C9F3" stroke="#000000" stroke-miterlimit="10" width="485" height="615.8"/>
</g>
<g id="Layer_1">
	<g>
		<rect x="-74.5" y="-74.5" fill="none" width="79.1" height="79.1"/>
	</g>
	<g>
		<rect x="59.5" y="-74.5" fill="none" width="79.1" height="79.1"/>
	</g>
	<g>
		<rect x="-71.8" y="-4.8" fill="none" width="73.5" height="73.5"/>
	</g>
	<g>
		<path fill="none" stroke="#363636" stroke-width="2" stroke-linecap="round" stroke-miterlimit="10" d="M35.7,35.5
			c0.5-0.6,1.5-0.5,2.5,0c1,0.5,3.7,0.1,4.9-1.2c0.3-0.4,1.2,0,1.2,0"/>
		
			<line fill="none" stroke="#363636" stroke-width="2" stroke-linecap="round" stroke-miterlimit="10" x1="32" y1="40.8" x2="34.5" y2="40.8"/>
		<circle fill="#363636" cx="32" cy="28.3" r="2.5"/>
		<path fill="none" stroke="#363636" stroke-width="2" stroke-linecap="round" stroke-linejoin="round" stroke-miterlimit="10" d="
			M32,48c3.6,0,4.9-1.9,4.9-1.9l1,1"/>
		<path fill="none" stroke="#363636" stroke-width="2" stroke-linecap="round" stroke-linejoin="round" stroke-miterlimit="10" d="
			M32,56.6c7.5,0,14.8-6.1,14.8-13.5c0,4.2,0.1,9.8,3.7,9.8c3.6,0,3.9-5,2.7-8.6c-1.2-3.6,6.1-10,2.5-13.5c-2.8-2.7-4.9,0-4.9,0"/>
		<path fill="none" stroke="#363636" stroke-width="2" stroke-linecap="round" stroke-miterlimit="10" d="M28.3,35.5
			c-0.5-0.6-1.5-0.5-2.5,0c-1,0.5-3.7,0.1-4.9-1.2c-0.3-0.4-1.2,0-1.2,0"/>
		
			<line fill="none" stroke="#363636" stroke-width="2" stroke-linecap="round" stroke-miterlimit="10" x1="32" y1="40.8" x2="29.5" y2="40.8"/>
		<path fill="none" stroke="#363636" stroke-width="2" stroke-linecap="round" stroke-linejoin="round" stroke-miterlimit="10" d="
			M32,48c-3.6,0-4.9-1.9-4.9-1.9l-1,1"/>
		<path fill="none" stroke="#363636" stroke-width="2" stroke-linecap="round" stroke-linejoin="round" stroke-miterlimit="10" d="
			M32,56.6c-7.5,0-14.8-6.1-14.8-13.5c0,4.2-0.1,9.8-3.7,9.8s-3.9-5-2.7-8.6c1.2-3.6-6.1-10-2.5-13.5c2.8-2.7,4.9,0,4.9,0"/>
		<rect x="-7.4" y="-7.4" fill="none" width="78.7" height="78.7"/>
		<g>
			<path fill="#363636" d="M32,5.7c1.4,0,2.5,1.1,2.5,2.5c0,1.4-1.1,2.5-2.5,2.5s-2.5-1.1-2.5-2.5C29.5,6.8,30.6,5.7,32,5.7 M32,3.7
				c-2.5,0-4.5,2-4.5,4.5s2,4.5,4.5,4.5s4.5-2,4.5-4.5S34.5,3.7,32,3.7L32,3.7z"/>
		</g>
		<path fill="none" stroke="#363636" stroke-width="2" stroke-linecap="round" stroke-linejoin="round" stroke-miterlimit="10" d="
			M32,19.7c9.8,0,14.6,2.4,17.7,6.2c0-8.5-6-15.7-14.1-17.3"/>
		<path fill="none" stroke="#363636" stroke-width="2" stroke-linecap="round" stroke-linejoin="round" stroke-miterlimit="10" d="
			M32,19.7c-9.8,0-14.6,2.4-17.7,6.2c0-8.5,6.1-15.7,14.1-17.3"/>
	</g>
</g>
</svg>
