<?xml version="1.0" encoding="utf-8"?>
<!-- Generator: Adobe Illustrator 18.1.1, SVG Export Plug-In . SVG Version: 6.00 Build 0)  -->
<svg version="1.1" xmlns="http://www.w3.org/2000/svg" xmlns:xlink="http://www.w3.org/1999/xlink" x="0px" y="0px"
	 viewBox="0 0 64 64" enable-background="new 0 0 64 64" xml:space="preserve">
<g id="Layer_2" display="none">
	<rect x="-372" y="-66.5" display="inline" fill="#84C9F3" stroke="#000000" stroke-miterlimit="10" width="485" height="615.8"/>
</g>
<g id="Layer_1">
	<g>
		
			<line fill="none" stroke="#363636" stroke-width="2" stroke-linecap="round" stroke-miterlimit="10" x1="30" y1="32" x2="34" y2="32"/>
		
			<line fill="none" stroke="#363636" stroke-width="2" stroke-linecap="round" stroke-miterlimit="10" x1="31" y1="29" x2="33" y2="29"/>
		<circle fill="#363636" cx="27" cy="24" r="2"/>
		<circle fill="#363636" cx="37" cy="24" r="2"/>
		<path fill="none" stroke="#363636" stroke-width="2" stroke-linecap="round" stroke-linejoin="round" stroke-miterlimit="10" d="
			M23,24.9c-1-1.3-3-1.2-3,1s0.7,4.9,3,4.1c0.3,3.5,2.6,6.5,5,7"/>
		<path fill="none" stroke="#363636" stroke-width="2" stroke-linecap="round" stroke-linejoin="round" stroke-miterlimit="10" d="
			M32,36h-2l-1,12.7c-0.2,1.2,0.8,2.3,2,2.3h1"/>
		<path fill="none" stroke="#363636" stroke-width="2" stroke-linecap="round" stroke-linejoin="round" stroke-miterlimit="10" d="
			M41,24.9c1-1.3,3-1.2,3,1s-0.7,4.9-3,4.1c-0.3,3.5-2.6,6.5-5,7"/>
		<path fill="none" stroke="#363636" stroke-width="2" stroke-linecap="round" stroke-linejoin="round" stroke-miterlimit="10" d="
			M32,36h2l1,12.7c0.2,1.2-0.8,2.3-2,2.3h-1"/>
		<path fill="none" stroke="#363636" stroke-width="2" stroke-linecap="round" stroke-linejoin="round" stroke-miterlimit="10" d="
			M40,40v16c5.6,0,8,0,9-8s6-11,6-11L45,14c0,0-4.2-4-13-4s-13,4-13,4L9,37c0,0,5,3,6,11s3.4,8,9,8V40"/>
		<g>
			<g>
				<path fill="#363636" d="M32,15c0.6,0,1,0.4,1,1v3c0,0.6-0.4,1-1,1s-1-0.4-1-1v-3C31,15.4,31.4,15,32,15 M32,13c-1.7,0-3,1.3-3,3
					v3c0,1.7,1.3,3,3,3s3-1.3,3-3v-3C35,14.3,33.7,13,32,13L32,13z"/>
			</g>
		</g>
		<rect fill="none" width="64" height="64"/>
		<path fill="none" stroke="#363636" stroke-width="2" stroke-linecap="round" stroke-linejoin="round" stroke-miterlimit="10" d="
			M34.2,17.7C38.1,18,41,19,41,19"/>
		<path fill="none" stroke="#363636" stroke-width="2" stroke-linecap="round" stroke-linejoin="round" stroke-miterlimit="10" d="
			M23,19c0,0,2.9-1,6.8-1.3"/>
	</g>
</g>
</svg>
