<?xml version="1.0" encoding="utf-8"?>
<!-- Generator: Adobe Illustrator 18.1.1, SVG Export Plug-In . SVG Version: 6.00 Build 0)  -->
<svg version="1.1" xmlns="http://www.w3.org/2000/svg" xmlns:xlink="http://www.w3.org/1999/xlink" x="0px" y="0px"
	 viewBox="0 0 64 64" enable-background="new 0 0 64 64" xml:space="preserve">
<g id="Layer_2" display="none">
	<rect x="-37" y="-401.5" display="inline" fill="#84C9F3" stroke="#000000" stroke-miterlimit="10" width="485" height="615.8"/>
</g>
<g id="Layer_1">
	<g>
		<circle fill="none" stroke="#363636" stroke-width="2" stroke-miterlimit="10" cx="32" cy="32" r="11.5"/>
		<path fill="none" stroke="#363636" stroke-width="2" stroke-linecap="round" stroke-linejoin="round" stroke-miterlimit="10" d="
			M46.1,37.1L46.1,37.1c0.8,3,3.5,5.1,6.6,5.1h1.1v6.4c0,1.4-1.1,2.6-2.6,2.6H32H12.8c-1.4,0-2.6-1.1-2.6-2.6v-6.4h1.1
			c3.1,0,5.8-2.1,6.6-5.1l0,0"/>
		<g>
			<path fill="#363636" d="M32,29.4c1.4,0,2.6,1.1,2.6,2.6s-1.1,2.6-2.6,2.6s-2.6-1.1-2.6-2.6S30.6,29.4,32,29.4 M32,27.4
				c-2.5,0-4.6,2-4.6,4.6s2,4.6,4.6,4.6s4.6-2,4.6-4.6S34.5,27.4,32,27.4L32,27.4z"/>
		</g>
		<path fill="none" stroke="#363636" stroke-width="2" stroke-linecap="round" stroke-linejoin="round" stroke-miterlimit="10" d="
			M32,10.2c-18.2,0-23.8,7.7-23.8,7.7v5.5c0,1.7,1.7,2.9,3.3,2.5l7.7-2.9v-3.8c0,0,5.3-3.8,12.8-3.8"/>
		<path fill="none" stroke="#363636" stroke-width="2" stroke-linecap="round" stroke-linejoin="round" stroke-miterlimit="10" d="
			M32,10.2c18.2,0,23.8,7.7,23.8,7.7v5.5c0,1.7-1.7,2.9-3.3,2.5L44.8,23v-3.8c0,0-5.3-3.8-12.8-3.8"/>
	</g>
</g>
</svg>
