<?xml version="1.0" encoding="utf-8"?>
<!-- Generator: Adobe Illustrator 18.1.1, SVG Export Plug-In . SVG Version: 6.00 Build 0)  -->
<svg version="1.1" xmlns="http://www.w3.org/2000/svg" xmlns:xlink="http://www.w3.org/1999/xlink" x="0px" y="0px"
	 viewBox="0 0 64 64" enable-background="new 0 0 64 64" xml:space="preserve">
<g id="Layer_2" display="none">
	<rect x="-238" y="-66.5" display="inline" fill="#84C9F3" stroke="#000000" stroke-miterlimit="10" width="485" height="615.8"/>
</g>
<g id="Layer_1">
	<g>
		<circle fill="none" stroke="#363636" stroke-width="2" stroke-miterlimit="10" cx="39" cy="30" r="5"/>
		<circle fill="#363636" cx="25" cy="30" r="2"/>
		<circle fill="#363636" cx="39" cy="30" r="2"/>
		<circle fill="none" stroke="#363636" stroke-width="2" stroke-miterlimit="10" cx="25" cy="30" r="5"/>
		<path fill="none" stroke="#363636" stroke-width="2" stroke-linecap="round" stroke-miterlimit="10" d="M47,24.4
			c0-7.1-4.7-13.5-11.6-15C25.9,7.2,17,14.4,17,23.6v6.8c0,3,0.5,6,1.3,8.9c0,0,1.9,6.4,2.2,6.7l6.3,6.3c0.4,0.4,0.9,0.6,1.4,0.6H32
			h3.7c0.5,0,1-0.2,1.4-0.6l6.3-6.3c0.4-0.4,2.2-6.7,2.2-6.7c0.9-2.9,1.3-5.9,1.3-8.9L47,24.4z"/>
		
			<line fill="none" stroke="#363636" stroke-width="2" stroke-linecap="square" stroke-miterlimit="10" x1="26" y1="42" x2="26" y2="44"/>
		
			<line fill="none" stroke="#363636" stroke-width="2" stroke-linecap="square" stroke-miterlimit="10" x1="30" y1="42" x2="30" y2="44"/>
		
			<line fill="none" stroke="#363636" stroke-width="2" stroke-linecap="square" stroke-miterlimit="10" x1="34" y1="42" x2="34" y2="44"/>
		
			<line fill="none" stroke="#363636" stroke-width="2" stroke-linecap="square" stroke-miterlimit="10" x1="38" y1="42" x2="38" y2="44"/>
		<rect fill="none" width="64" height="64"/>
	</g>
</g>
</svg>
