<?xml version="1.0" encoding="utf-8"?>
<!-- Generator: Adobe Illustrator 18.1.1, SVG Export Plug-In . SVG Version: 6.00 Build 0)  -->
<svg version="1.1" xmlns="http://www.w3.org/2000/svg" xmlns:xlink="http://www.w3.org/1999/xlink" x="0px" y="0px"
	 viewBox="0 0 64 64" enable-background="new 0 0 64 64" xml:space="preserve">
<g id="Layer_2" display="none">
	<rect x="-37" y="-66.5" display="inline" fill="#84C9F3" stroke="#000000" stroke-miterlimit="10" width="485" height="615.8"/>
</g>
<g id="Layer_1">
	<g>
		<path fill="none" stroke="#363636" stroke-width="2" stroke-linecap="round" stroke-linejoin="round" stroke-miterlimit="10" d="
			M48,41.6H16v-30c0-1.1,0.9-2,2-2h28c1.1,0,2,0.9,2,2V41.6z"/>
		<path fill="none" stroke="#363636" stroke-width="2" stroke-linecap="round" stroke-linejoin="round" stroke-miterlimit="10" d="
			M43,23.1c0,3-0.4,6.2-0.6,7.3c0,0.3-0.2,0.5-0.5,0.5c-1.4,0.3-5.7,0.9-9.9,0.9s-8.6-0.6-9.9-0.9c-0.3-0.1-0.5-0.3-0.5-0.5
			c-0.2-1.1-0.6-4.3-0.6-7.3c0-3,0.4-6.2,0.6-7.3c0-0.3,0.2-0.5,0.5-0.5c1.4-0.3,5.7-0.9,9.9-0.9s8.6,0.6,9.9,0.9
			c0.3,0.1,0.5,0.3,0.5,0.5C42.6,16.9,43,20.1,43,23.1z"/>
		
			<rect x="16" y="45.6" fill="none" stroke="#363636" stroke-width="2" stroke-linecap="round" stroke-linejoin="round" stroke-miterlimit="10" width="32" height="10"/>
		<circle fill="#363636" cx="42" cy="50.6" r="2"/>
		<rect y="0.6" fill="none" width="64" height="64"/>
	</g>
</g>
</svg>
