<?xml version="1.0" encoding="utf-8"?>
<!-- Generator: Adobe Illustrator 18.1.1, SVG Export Plug-In . SVG Version: 6.00 Build 0)  -->
<svg version="1.1" xmlns="http://www.w3.org/2000/svg" xmlns:xlink="http://www.w3.org/1999/xlink" x="0px" y="0px"
	 viewBox="0 0 64 64" enable-background="new 0 0 64 64" xml:space="preserve">
<g id="Layer_2" display="none">
	<rect x="-37" y="-468.5" display="inline" fill="#84C9F3" stroke="#000000" stroke-miterlimit="10" width="485" height="615.8"/>
</g>
<g id="Layer_1">
	<g>
		<path fill="none" stroke="#363636" stroke-width="2" stroke-linecap="round" stroke-miterlimit="10" d="M32,29.1c0-3,2.3-7,9-5.2
			c9.9,2.6,13.2-6,8.1-10C43,9,33.3,11.4,27,17.1c-7.8,7.1-15.4,0.6-14-5c1.3-5.3,5.9-6.3,8-6"/>
		<circle fill="#363636" cx="45.9" cy="36.1" r="2"/>
		<circle fill="#363636" cx="45.9" cy="46.1" r="2"/>
		<circle fill="#363636" cx="40.9" cy="41.1" r="2"/>
		<circle fill="#363636" cx="50.9" cy="41.1" r="2"/>
		<path fill="none" stroke="#363636" stroke-width="2" stroke-miterlimit="10" d="M46,29.1H18c-6.6,0-12,5.4-12,12
			c0,6.6,5.4,12,12,12c4.4,0,8.3-2.4,10.4-6h7.2c2.1,3.6,5.9,6,10.4,6c6.6,0,12-5.4,12-12C58,34.4,52.6,29.1,46,29.1z"/>
		<line fill="none" stroke="#363636" stroke-width="2" stroke-miterlimit="10" x1="18" y1="46.1" x2="18" y2="36.1"/>
		<line fill="none" stroke="#363636" stroke-width="2" stroke-miterlimit="10" x1="23" y1="41.1" x2="13" y2="41.1"/>
		<rect fill="none" width="64" height="64"/>
	</g>
</g>
</svg>
