<?xml version="1.0" encoding="utf-8"?>
<!-- Generator: Adobe Illustrator 18.1.1, SVG Export Plug-In . SVG Version: 6.00 Build 0)  -->
<svg version="1.1" xmlns="http://www.w3.org/2000/svg" xmlns:xlink="http://www.w3.org/1999/xlink" x="0px" y="0px"
	 viewBox="0 0 64 64" enable-background="new 0 0 64 64" xml:space="preserve">
<g id="Layer_2" display="none">
	<rect x="-37" y="-267.5" display="inline" fill="#84C9F3" stroke="#000000" stroke-miterlimit="10" width="485" height="615.8"/>
</g>
<g id="Layer_1">
	<g>
		<path fill="none" stroke="#363636" stroke-width="2" stroke-linecap="round" stroke-linejoin="round" stroke-miterlimit="10" d="
			M32,42.9C30,51.2,24,53,24,53h8h8C40,53,34,51.2,32,42.9z"/>
		<path fill="none" stroke="#363636" stroke-width="2" stroke-linecap="round" stroke-linejoin="round" stroke-miterlimit="10" d="
			M43,29c-1.3,0-2.5,0.2-3.6,0.7C41,27.9,42,25.6,42,23c0-5.5-4.5-10-10-10s-10,4.5-10,10c0,2.6,1,4.9,2.6,6.7
			C23.5,29.2,22.3,29,21,29c-5.5,0-10,4.5-10,10c0,5.5,4.5,10,10,10c4.5,0,9.7-2.9,11-7l0,0c1.3,4.1,6.5,7,11,7c5.5,0,10-4.5,10-10
			C53,33.5,48.5,29,43,29z"/>
		<rect fill="none" width="64" height="64"/>
	</g>
</g>
</svg>
