<?xml version="1.0" encoding="utf-8"?>
<!-- Generator: Adobe Illustrator 18.1.1, SVG Export Plug-In . SVG Version: 6.00 Build 0)  -->
<svg version="1.1" xmlns="http://www.w3.org/2000/svg" xmlns:xlink="http://www.w3.org/1999/xlink" x="0px" y="0px"
	 viewBox="0 0 64 64" enable-background="new 0 0 64 64" xml:space="preserve">
<g id="Layer_2" display="none">
	<rect x="-305" y="-200.5" display="inline" fill="#84C9F3" stroke="#000000" stroke-miterlimit="10" width="485" height="615.8"/>
</g>
<g id="Layer_1">
	<g>
		<path fill="none" stroke="#363636" stroke-width="2" stroke-linecap="round" stroke-linejoin="round" stroke-miterlimit="10" d="
			M11.9,35.6C11.9,41.9,17,47,23.3,47c3.5,0,6.7-1.6,8.7-4.1c2.1,2.5,5.2,4.1,8.8,4.1c6.3,0,11.4-5.1,11.4-11.4c0-0.2,0-0.4,0-0.5
			c0-0.1,0-0.2,0-0.3C52.1,24,35.2,18.6,32,12c-3.2,6.6-20.1,12-20.1,22.8c0,0.1,0,0.2,0,0.3C11.9,35.3,11.9,35.4,11.9,35.6z"/>
		<path fill="none" stroke="#363636" stroke-width="2" stroke-linecap="round" stroke-linejoin="round" stroke-miterlimit="10" d="
			M32,42.9C30,51.2,24,53,24,53h8h8C40,53,34,51.2,32,42.9z"/>
		<rect fill="none" width="64" height="64"/>
	</g>
</g>
</svg>
