<?xml version="1.0" encoding="utf-8"?>
<!-- Generator: Adobe Illustrator 18.1.1, SVG Export Plug-In . SVG Version: 6.00 Build 0)  -->
<svg version="1.1" xmlns="http://www.w3.org/2000/svg" xmlns:xlink="http://www.w3.org/1999/xlink" x="0px" y="0px"
	 viewBox="0 0 64 64" enable-background="new 0 0 64 64" xml:space="preserve">
<g id="Layer_2" display="none">
	<rect x="-238" y="-267.5" display="inline" fill="#84C9F3" stroke="#000000" stroke-miterlimit="10" width="485" height="615.8"/>
</g>
<g id="Layer_1">
	<g>
		<rect x="-6.5" y="60.5" fill="none" width="76.9" height="76.9"/>
	</g>
	<g>
		<path fill="none" stroke="#363636" stroke-width="2" stroke-miterlimit="10" d="M32.2,10.8c0.7-0.4,1.6-0.6,2.4-0.4l23.2,6.2
			c1.6,0.4,2.6,2.1,2.1,3.7l-8.8,32.8c-0.4,1.6-2.1,2.6-3.7,2.1L31.5,51"/>
		<polyline fill="none" stroke="#363636" stroke-width="2" stroke-miterlimit="10" points="40.4,39.4 46.8,34.3 43.1,25.1 
			37.7,29.3 		"/>
		<path fill="none" stroke="#363636" stroke-width="2" stroke-miterlimit="10" d="M32.2,10.8c-0.7-0.6-1.8-0.9-2.8-0.7L6.2,16.3
			c-1.6,0.4-2.6,2.1-2.1,3.7l8.8,32.8c0.4,1.6,2.1,2.6,3.7,2.1l14.9-4"/>
		<line fill="none" stroke="#363636" stroke-width="2" stroke-miterlimit="10" x1="40.4" y1="39.4" x2="37.7" y2="29.3"/>
		<path fill="none" stroke="#363636" stroke-width="2" stroke-miterlimit="10" d="M32.2,10.8c0.4,0.4,0.8,0.9,0.9,1.5l4.6,17.1"/>
		<path fill="none" stroke="#363636" stroke-width="2" stroke-miterlimit="10" d="M40.4,39.4l1.5,5.7c0.4,1.6-0.5,3.2-2.1,3.7
			L31.5,51"/>
		<path fill="none" stroke="#363636" stroke-width="2" stroke-miterlimit="10" d="M24,38.4c-2.2-1.4-6.9-2-7.7-5c0,0,0-0.1,0-0.1
			c0-0.1,0-0.1-0.1-0.2c-0.5-2,0.7-4.1,2.7-4.7c1.1-0.3,2.3-0.1,3.2,0.6c0.5-1,1.3-1.8,2.5-2.1c0.8-0.2,1.7-0.1,2.4,0.2"/>
		<path fill="none" stroke="#363636" stroke-width="2" stroke-miterlimit="10" d="M24,38.4c0.3,0.2,0.6,0.4,0.8,0.6
			c0.5-2.4,5.5-5.7,4.6-9.1c0,0,0-0.1,0-0.1c0-0.1,0-0.1,0-0.2c-0.3-1.2-1.2-2.1-2.2-2.5"/>
	</g>
</g>
</svg>
