<?xml version="1.0" encoding="utf-8"?>
<!-- Generator: Adobe Illustrator 18.1.1, SVG Export Plug-In . SVG Version: 6.00 Build 0)  -->
<svg version="1.1" xmlns="http://www.w3.org/2000/svg" xmlns:xlink="http://www.w3.org/1999/xlink" x="0px" y="0px"
	 viewBox="0 0 64 64" enable-background="new 0 0 64 64" xml:space="preserve">
<g id="Layer_2" display="none">
	<rect x="-305" y="-401.5" display="inline" fill="#84C9F3" stroke="#000000" stroke-miterlimit="10" width="485" height="615.8"/>
</g>
<g id="Layer_1">
	<g>
		<rect x="-73.5" y="-73.5" fill="none" width="76.9" height="76.9"/>
	</g>
	<g>
		<g>
			<circle fill="#363636" cx="36" cy="33" r="2"/>
		</g>
		<g>
			<circle fill="#363636" cx="42" cy="33" r="2"/>
		</g>
		
			<rect x="17" y="6" fill="none" stroke="#363636" stroke-width="2" stroke-linecap="square" stroke-miterlimit="10" width="30.1" height="52"/>
		
			<line fill="none" stroke="#363636" stroke-width="2" stroke-linecap="round" stroke-linejoin="round" stroke-miterlimit="10" x1="18" y1="38" x2="46" y2="38"/>
		<g>
			<path fill="#363636" d="M25,25c1.1,0,2,0.9,2,2s-0.9,2-2,2s-2-0.9-2-2S23.9,25,25,25 M25,23c-2.2,0-4,1.8-4,4s1.8,4,4,4
				s4-1.8,4-4S27.2,23,25,23L25,23z"/>
		</g>
		<line fill="#FFFFFF" stroke="#363636" stroke-width="2" stroke-miterlimit="10" x1="25" y1="30.2" x2="25" y2="35"/>
		<rect fill="none" width="64" height="64"/>
		<path fill="none" stroke="#363636" stroke-width="2" stroke-linecap="round" stroke-linejoin="round" stroke-miterlimit="10" d="
			M22.1,26.6c-0.3-0.1-0.5-0.3-0.5-0.5c-0.2-1.1-0.6-4.3-0.6-7.3c0-3,0.4-6.2,0.6-7.3c0-0.3,0.2-0.5,0.5-0.5
			c1.4-0.3,5.7-0.9,9.9-0.9s8.6,0.6,9.9,0.9c0.3,0.1,0.5,0.3,0.5,0.5c0.2,1.1,0.6,4.3,0.6,7.3c0,3-0.4,6.2-0.6,7.3
			c0,0.3-0.2,0.5-0.5,0.5c-1.4,0.3-5.7,0.9-9.9,0.9c-1.4,0-2.7-0.1-4-0.1"/>
	</g>
</g>
</svg>
