<?xml version="1.0" encoding="utf-8"?>
<!-- Generator: Adobe Illustrator 18.1.1, SVG Export Plug-In . SVG Version: 6.00 Build 0)  -->
<svg version="1.1" xmlns="http://www.w3.org/2000/svg" xmlns:xlink="http://www.w3.org/1999/xlink" x="0px" y="0px"
	 viewBox="0 0 64 64" enable-background="new 0 0 64 64" xml:space="preserve">
<g id="Layer_2" display="none">
	<rect x="-171" y="-468.5" display="inline" fill="#84C9F3" stroke="#000000" stroke-miterlimit="10" width="485" height="615.8"/>
</g>
<g id="Layer_1">
	<g>
		<circle fill="#363636" cx="17" cy="17" r="2"/>
		<circle fill="#363636" cx="47" cy="17" r="2"/>
		<circle fill="#363636" cx="17" cy="47" r="2"/>
		<circle fill="#363636" cx="47" cy="47" r="2"/>
		<circle fill="#363636" cx="32" cy="40" r="2"/>
		<path fill="none" stroke="#363636" stroke-width="2" stroke-linecap="round" stroke-linejoin="round" stroke-miterlimit="10" d="
			M47,53H17c-3.3,0-6-2.7-6-6V17c0-3.3,2.7-6,6-6h30c3.3,0,6,2.7,6,6v30C53,50.3,50.3,53,47,53z"/>
		<path fill="none" stroke="#363636" stroke-width="2" stroke-miterlimit="10" d="M27.5,27.5c0-2.5,2.1-4.6,4.6-4.5
			c2.4,0.1,4.3,2,4.4,4.4c0.1,1.9-1.1,3.6-2.7,4.3c-1.1,0.5-1.8,1.6-1.8,2.8V35"/>
		<rect fill="none" width="64" height="64"/>
	</g>
</g>
</svg>
