<?xml version="1.0" encoding="utf-8"?>
<!-- Generator: Adobe Illustrator 18.1.1, SVG Export Plug-In . SVG Version: 6.00 Build 0)  -->
<svg version="1.1" xmlns="http://www.w3.org/2000/svg" xmlns:xlink="http://www.w3.org/1999/xlink" x="0px" y="0px"
	 viewBox="0 0 64 64" enable-background="new 0 0 64 64" xml:space="preserve">
<g id="Layer_2" display="none">
	<rect x="-37" y="-133.5" display="inline" fill="#84C9F3" stroke="#000000" stroke-miterlimit="10" width="485" height="615.8"/>
</g>
<g id="Layer_1">
	<g>
		<g>
			<path fill="#363636" d="M27.8,35c0.7,0,1.2,0.6,1.2,1.2v19.5c0,0.7-0.6,1.2-1.2,1.2H8.2C7.6,57,7,56.4,7,55.8V36.2
				C7,35.6,7.6,35,8.2,35H27.8 M27.8,33H8.2C6.5,33,5,34.5,5,36.2v19.5C5,57.5,6.5,59,8.2,59h19.5c1.8,0,3.2-1.5,3.2-3.2V36.2
				C31,34.5,29.5,33,27.8,33L27.8,33z"/>
		</g>
		<circle fill="#363636" cx="24" cy="40" r="2"/>
		<circle fill="#363636" cx="12" cy="52" r="2"/>
		<circle fill="#363636" cx="18" cy="46" r="2"/>
		<g>
			<path fill="#363636" d="M42,7c0.3,0,0.6,0.1,0.9,0.4l13.8,13.8c0.5,0.5,0.5,1.3,0,1.8L42.8,36.7c-0.2,0.2-0.5,0.4-0.9,0.4
				s-0.6-0.1-0.9-0.4L27.3,22.9c-0.5-0.5-0.5-1.3,0-1.8L41.1,7.4C41.3,7.1,41.6,7,42,7 M42,5c-0.8,0-1.7,0.3-2.3,1L25.9,19.7
				c-1.3,1.3-1.3,3.3,0,4.6l13.8,13.8c0.6,0.6,1.5,1,2.3,1s1.7-0.3,2.3-1L58,24.3c1.3-1.3,1.3-3.3,0-4.6L44.3,6
				C43.6,5.3,42.8,5,42,5L42,5z"/>
		</g>
		<circle fill="#363636" cx="42" cy="15" r="2"/>
		<circle fill="#363636" cx="42" cy="29.1" r="2"/>
		<circle fill="#363636" cx="49" cy="22" r="2"/>
		<circle fill="#363636" cx="34.9" cy="22" r="2"/>
		<rect fill="none" width="64" height="64"/>
	</g>
</g>
</svg>
