<?xml version="1.0" encoding="utf-8"?>
<!-- Generator: Adobe Illustrator 18.1.1, SVG Export Plug-In . SVG Version: 6.00 Build 0)  -->
<svg version="1.1" xmlns="http://www.w3.org/2000/svg" xmlns:xlink="http://www.w3.org/1999/xlink" x="0px" y="0px"
	 viewBox="0 0 64 64" enable-background="new 0 0 64 64" xml:space="preserve">
<g id="Layer_2" display="none">
	<rect x="-37" y="-334.5" display="inline" fill="#84C9F3" stroke="#000000" stroke-miterlimit="10" width="485" height="615.8"/>
</g>
<g id="Layer_1">
	<g>
		
			<circle fill="none" stroke="#363636" stroke-width="2" stroke-linecap="round" stroke-linejoin="round" stroke-miterlimit="10" cx="32" cy="32" r="13"/>
		<path fill="none" stroke="#363636" stroke-width="2" stroke-linecap="round" stroke-linejoin="round" stroke-miterlimit="10" d="
			M50,6H39c-0.6,0-1,0.4-1,1v7c5.7,1.9,10.1,6.4,12,12h7c0.6,0,1-0.4,1-1V14C58,9.6,54.4,6,50,6z"/>
		<path fill="none" stroke="#363636" stroke-width="2" stroke-linecap="round" stroke-linejoin="round" stroke-miterlimit="10" d="
			M50,38c-1.9,5.7-6.4,10.1-12,12v7c0,0.6,0.4,1,1,1h11c4.4,0,8-3.6,8-8V39c0-0.6-0.4-1-1-1H50z"/>
		<path fill="none" stroke="#363636" stroke-width="2" stroke-linecap="round" stroke-linejoin="round" stroke-miterlimit="10" d="
			M14,38H7c-0.6,0-1,0.4-1,1v11c0,4.4,3.6,8,8,8h11c0.6,0,1-0.4,1-1v-7C20.3,48.1,15.9,43.7,14,38z"/>
		<path fill="none" stroke="#363636" stroke-width="2" stroke-linecap="round" stroke-linejoin="round" stroke-miterlimit="10" d="
			M26,14V7c0-0.6-0.4-1-1-1H14c-4.4,0-8,3.6-8,8v11c0,0.6,0.4,1,1,1h7C15.9,20.3,20.3,15.9,26,14z"/>
		
			<line fill="none" stroke="#363636" stroke-width="2" stroke-linecap="round" stroke-linejoin="round" stroke-miterlimit="10" x1="6" y1="32" x2="13" y2="32"/>
		
			<line fill="none" stroke="#363636" stroke-width="2" stroke-linecap="round" stroke-linejoin="round" stroke-miterlimit="10" x1="32" y1="58" x2="32" y2="51"/>
		
			<line fill="none" stroke="#363636" stroke-width="2" stroke-linecap="round" stroke-linejoin="round" stroke-miterlimit="10" x1="58" y1="32" x2="51" y2="32"/>
		
			<line fill="none" stroke="#363636" stroke-width="2" stroke-linecap="round" stroke-linejoin="round" stroke-miterlimit="10" x1="32" y1="6" x2="32" y2="13"/>
		<rect fill="none" width="64" height="64"/>
	</g>
</g>
</svg>
