<?xml version="1.0" encoding="utf-8"?>
<!-- Generator: Adobe Illustrator 18.1.1, SVG Export Plug-In . SVG Version: 6.00 Build 0)  -->
<svg version="1.1" xmlns="http://www.w3.org/2000/svg" xmlns:xlink="http://www.w3.org/1999/xlink" x="0px" y="0px"
	 viewBox="0 0 64 64" enable-background="new 0 0 64 64" xml:space="preserve">
<g id="Layer_2" display="none">
	<rect x="-171" y="-66.5" display="inline" fill="#84C9F3" stroke="#000000" stroke-miterlimit="10" width="485" height="615.8"/>
</g>
<g id="Layer_1">
	<g>
		<g>
			<path fill="#363636" d="M32,30c1.1,0,2,0.9,2,2c0,1.1-0.9,2-2,2s-2-0.9-2-2C30,30.9,30.9,30,32,30 M32,28c-2.2,0-4,1.8-4,4
				s1.8,4,4,4s4-1.8,4-4S34.2,28,32,28L32,28z"/>
		</g>
		<g>
			<path fill="#363636" d="M16,46c1.1,0,2,0.9,2,2s-0.9,2-2,2s-2-0.9-2-2S14.9,46,16,46 M16,44c-2.2,0-4,1.8-4,4s1.8,4,4,4
				s4-1.8,4-4S18.2,44,16,44L16,44z"/>
		</g>
		<g>
			<path fill="#363636" d="M48,46c1.1,0,2,0.9,2,2s-0.9,2-2,2s-2-0.9-2-2S46.9,46,48,46 M48,44c-2.2,0-4,1.8-4,4s1.8,4,4,4
				s4-1.8,4-4S50.2,44,48,44L48,44z"/>
		</g>
		
			<line fill="none" stroke="#363636" stroke-width="2" stroke-linecap="round" stroke-linejoin="round" stroke-miterlimit="10" x1="24" y1="11" x2="24" y2="53"/>
		
			<line fill="none" stroke="#363636" stroke-width="2" stroke-linecap="round" stroke-linejoin="round" stroke-miterlimit="10" x1="40" y1="11" x2="40" y2="53"/>
		
			<line fill="none" stroke="#363636" stroke-width="2" stroke-linecap="round" stroke-linejoin="round" stroke-miterlimit="10" x1="11" y1="40" x2="53" y2="40"/>
		
			<line fill="none" stroke="#363636" stroke-width="2" stroke-linecap="round" stroke-linejoin="round" stroke-miterlimit="10" x1="11" y1="24" x2="53" y2="24"/>
		
			<line fill="none" stroke="#363636" stroke-width="2" stroke-linecap="round" stroke-miterlimit="10" x1="46" y1="30" x2="50" y2="34"/>
		
			<line fill="none" stroke="#363636" stroke-width="2" stroke-linecap="round" stroke-miterlimit="10" x1="50" y1="30" x2="46" y2="34"/>
		
			<line fill="none" stroke="#363636" stroke-width="2" stroke-linecap="round" stroke-miterlimit="10" x1="14" y1="14" x2="18" y2="18"/>
		
			<line fill="none" stroke="#363636" stroke-width="2" stroke-linecap="round" stroke-miterlimit="10" x1="18" y1="14" x2="14" y2="18"/>
		
			<line fill="none" stroke="#363636" stroke-width="2" stroke-linecap="round" stroke-miterlimit="10" x1="30" y1="14" x2="34" y2="18"/>
		
			<line fill="none" stroke="#363636" stroke-width="2" stroke-linecap="round" stroke-miterlimit="10" x1="34" y1="14" x2="30" y2="18"/>
		
			<line fill="none" stroke="#363636" stroke-width="2" stroke-linecap="round" stroke-miterlimit="10" x1="14.5" y1="30.3" x2="18" y2="33.8"/>
		
			<line fill="none" stroke="#363636" stroke-width="2" stroke-linecap="round" stroke-miterlimit="10" x1="18" y1="30.3" x2="14.5" y2="33.8"/>
		<rect fill="none" width="64" height="64"/>
	</g>
</g>
</svg>
