<?xml version="1.0" encoding="utf-8"?>
<!-- Generator: Adobe Illustrator 18.1.1, SVG Export Plug-In . SVG Version: 6.00 Build 0)  -->
<svg version="1.1" xmlns="http://www.w3.org/2000/svg" xmlns:xlink="http://www.w3.org/1999/xlink" x="0px" y="0px"
	 viewBox="0 0 64 64" enable-background="new 0 0 64 64" xml:space="preserve">
<g id="Layer_2" display="none">
	<rect x="-305" y="-267.5" display="inline" fill="#84C9F3" stroke="#000000" stroke-miterlimit="10" width="485" height="615.8"/>
</g>
<g id="Layer_1">
	<g>
		<rect x="-73.5" y="60.5" fill="none" width="76.9" height="76.9"/>
	</g>
	<g>
		<path fill="none" stroke="#363636" stroke-width="2" stroke-miterlimit="10" d="M34.9,10.1l3.7,11.4c0.4,1.2,1.6,2.1,2.9,2.1h12
			c2.9,0,4.1,3.7,1.8,5.4l-9.7,7c-1.1,0.8-1.5,2.1-1.1,3.4l3.7,11.4c0.9,2.8-2.3,5.1-4.6,3.4l-9.7-7c-1.1-0.8-2.5-0.8-3.5,0l-9.7,7
			c-2.4,1.7-5.5-0.6-4.6-3.4l3.7-11.4c0.4-1.2,0-2.6-1.1-3.4l-9.7-7c-2.4-1.7-1.1-5.4,1.8-5.4h12c1.3,0,2.5-0.8,2.9-2.1l3.7-11.4
			C30,7.3,34,7.3,34.9,10.1z"/>
		<path fill="none" stroke="#363636" stroke-width="2" stroke-miterlimit="10" d="M38.4,36.4c-3.5,3.5-9.2,3.5-12.7,0"/>
		<line fill="none" stroke="#363636" stroke-width="2" stroke-miterlimit="10" x1="29" y1="26" x2="29" y2="33"/>
		<line fill="none" stroke="#363636" stroke-width="2" stroke-miterlimit="10" x1="35" y1="26" x2="35" y2="33"/>
		<rect fill="none" width="64" height="64"/>
	</g>
</g>
</svg>
