<?xml version="1.0" encoding="utf-8"?>
<!-- Generator: Adobe Illustrator 18.1.1, SVG Export Plug-In . SVG Version: 6.00 Build 0)  -->
<svg version="1.1" xmlns="http://www.w3.org/2000/svg" xmlns:xlink="http://www.w3.org/1999/xlink" x="0px" y="0px"
	 viewBox="0 0 64 64" enable-background="new 0 0 64 64" xml:space="preserve">
<g id="Layer_2" display="none">
	<rect x="-238" y="-200.5" display="inline" fill="#84C9F3" stroke="#000000" stroke-miterlimit="10" width="485" height="615.8"/>
</g>
<g id="Layer_1">
	<g>
		<path fill="none" stroke="#363636" stroke-width="2" stroke-linecap="round" stroke-linejoin="round" stroke-miterlimit="10" d="
			M52.9,28.5c0-6.5-5.3-11.8-11.8-11.8c-3.7,0-6.9,1.7-9.1,4.3c-2.2-2.6-5.4-4.3-9.1-4.3c-6.5,0-11.8,5.3-11.8,11.8
			c0,0.2,0,0.4,0,0.6c0,0.1,0,0.2,0,0.4C11.1,40.5,28.7,46.1,32,53c3.3-6.9,20.9-12.5,20.9-23.6c0-0.1,0-0.2,0-0.4
			C52.9,28.9,52.9,28.7,52.9,28.5z"/>
		<rect fill="none" width="64" height="64"/>
	</g>
</g>
</svg>
