<?xml version="1.0" encoding="utf-8"?>
<!-- Generator: Adobe Illustrator 18.1.1, SVG Export Plug-In . SVG Version: 6.00 Build 0)  -->
<svg version="1.1" xmlns="http://www.w3.org/2000/svg" xmlns:xlink="http://www.w3.org/1999/xlink" x="0px" y="0px"
	 viewBox="0 0 64 64" enable-background="new 0 0 64 64" xml:space="preserve">
<g id="Layer_2" display="none">
	<rect x="-238" y="-133.5" display="inline" fill="#84C9F3" stroke="#000000" stroke-miterlimit="10" width="485" height="615.8"/>
</g>
<g id="Layer_1">
	<g>
		<circle fill="#363636" cx="27.4" cy="17.8" r="1.8"/>
		
			<line fill="none" stroke="#363636" stroke-width="2" stroke-linecap="round" stroke-linejoin="round" stroke-miterlimit="10" x1="13" y1="58" x2="51" y2="58"/>
		
			<line fill="none" stroke="#363636" stroke-width="2" stroke-linecap="round" stroke-linejoin="round" stroke-miterlimit="10" x1="16" y1="54" x2="48" y2="54"/>
		<path fill="none" stroke="#363636" stroke-width="2" stroke-linecap="round" stroke-linejoin="round" stroke-miterlimit="10" d="
			M14.4,18.5l10.5-6.6v-5c10.7-3.7,20.9,1.1,25.3,12.8c5.6,14.7-3.7,22.5-3.7,30.3c-7.6,0-28.3,0-28.3,0C17,47.1,18,42,22,37
			c3.8-4.9,12.1-9,11.6-11c-6.1,2.3-6.7-0.9-15.1,0.9S10.9,20.4,14.4,18.5z"/>
		<rect fill="none" width="64" height="64"/>
	</g>
</g>
</svg>
