<?xml version="1.0" encoding="utf-8"?>
<!-- Generator: Adobe Illustrator 18.1.1, SVG Export Plug-In . SVG Version: 6.00 Build 0)  -->
<svg version="1.1" xmlns="http://www.w3.org/2000/svg" xmlns:xlink="http://www.w3.org/1999/xlink" x="0px" y="0px"
	 viewBox="0 0 64 64" enable-background="new 0 0 64 64" xml:space="preserve">
<g id="Layer_2" display="none">
	<rect x="-104" y="-401.5" display="inline" fill="#84C9F3" stroke="#000000" stroke-miterlimit="10" width="485" height="615.8"/>
</g>
<g id="Layer_1">
	<g>
		<path fill="none" stroke="#363636" stroke-width="2" stroke-linecap="square" stroke-linejoin="round" stroke-miterlimit="10" d="
			M42.7,6.1c0,0-4.9,2.8-10.7,2.8S21.3,6.1,21.3,6.1L32,32L42.7,6.1z"/>
		<path fill="none" stroke="#363636" stroke-width="2" stroke-linecap="square" stroke-linejoin="round" stroke-miterlimit="10" d="
			M57.9,21.3c0,0-5.5-1.5-9.6-5.6s-5.6-9.6-5.6-9.6L32,32L57.9,21.3z"/>
		<path fill="none" stroke="#363636" stroke-width="2" stroke-linecap="square" stroke-linejoin="round" stroke-miterlimit="10" d="
			M57.9,42.7c0,0-2.8-4.9-2.8-10.7s2.8-10.7,2.8-10.7L32,32L57.9,42.7z"/>
		<path fill="none" stroke="#363636" stroke-width="2" stroke-linecap="square" stroke-linejoin="round" stroke-miterlimit="10" d="
			M42.7,57.9c0,0,1.5-5.5,5.6-9.6s9.6-5.6,9.6-5.6L32,32L42.7,57.9z"/>
		<path fill="none" stroke="#363636" stroke-width="2" stroke-linecap="square" stroke-linejoin="round" stroke-miterlimit="10" d="
			M21.3,57.9c0,0,4.9-2.8,10.7-2.8s10.7,2.8,10.7,2.8L32,32L21.3,57.9z"/>
		<path fill="none" stroke="#363636" stroke-width="2" stroke-linecap="square" stroke-linejoin="round" stroke-miterlimit="10" d="
			M6.1,42.7c0,0,5.5,1.5,9.6,5.6s5.6,9.6,5.6,9.6L32,32L6.1,42.7z"/>
		<path fill="none" stroke="#363636" stroke-width="2" stroke-linecap="square" stroke-linejoin="round" stroke-miterlimit="10" d="
			M6.1,21.3c0,0,2.8,4.9,2.8,10.7S6.1,42.7,6.1,42.7L32,32L6.1,21.3z"/>
		<path fill="none" stroke="#363636" stroke-width="2" stroke-linecap="square" stroke-linejoin="round" stroke-miterlimit="10" d="
			M21.3,6.1c0,0-1.5,5.5-5.6,9.6s-9.6,5.6-9.6,5.6L32,32L21.3,6.1z"/>
		<rect fill="none" width="64" height="64"/>
	</g>
</g>
</svg>
