<?xml version="1.0" encoding="utf-8"?>
<!-- Generator: Adobe Illustrator 18.1.1, SVG Export Plug-In . SVG Version: 6.00 Build 0)  -->
<svg version="1.1" xmlns="http://www.w3.org/2000/svg" xmlns:xlink="http://www.w3.org/1999/xlink" x="0px" y="0px"
	 viewBox="0 0 64 64" enable-background="new 0 0 64 64" xml:space="preserve">
<g id="Layer_2" display="none">
	<rect x="-305" y="-334.5" display="inline" fill="#84C9F3" stroke="#000000" stroke-miterlimit="10" width="485" height="615.8"/>
</g>
<g id="Layer_1">
	<g>
		<rect x="-73.5" y="-6.5" fill="none" width="76.9" height="76.9"/>
	</g>
	<g>
		<path fill="none" stroke="#363636" stroke-width="2" stroke-miterlimit="10" d="M31.4,15c-7,0.3-12.4,6.4-12.4,13.4L19,45
			c0,4.4,3.6,8,8,8h10c4.4,0,8-3.6,8-8V28C45,20.6,38.8,14.7,31.4,15z"/>
		
			<line fill="none" stroke="#363636" stroke-width="2" stroke-linecap="round" stroke-linejoin="round" stroke-miterlimit="10" x1="17" y1="28" x2="17" y2="40"/>
		
			<line fill="none" stroke="#363636" stroke-width="2" stroke-linecap="round" stroke-linejoin="round" stroke-miterlimit="10" x1="47" y1="28" x2="47" y2="40"/>
		<path fill="none" stroke="#363636" stroke-width="2" stroke-linecap="round" stroke-linejoin="round" stroke-miterlimit="10" d="
			M13,34v-6.1c0-10.5,8.5-19,19-19s19,8.5,19,19V34"/>
		<path fill="none" stroke="#363636" stroke-width="2" stroke-linecap="round" stroke-linejoin="round" stroke-miterlimit="10" d="
			M28.1,47C17.6,47,13,47.5,13,37l0,0"/>
		<circle fill="#363636" cx="25" cy="33" r="2"/>
		<circle fill="#363636" cx="39" cy="33" r="2"/>
		<g>
			<g>
				<path fill="#363636" d="M34,46c0.6,0,1,0.4,1,1s-0.4,1-1,1h-4c-0.6,0-1-0.4-1-1s0.4-1,1-1H34 M34,44h-4c-1.7,0-3,1.3-3,3
					s1.3,3,3,3h4c1.7,0,3-1.3,3-3S35.7,44,34,44L34,44z"/>
			</g>
		</g>
		<line fill="#FFFFFF" stroke="#363636" stroke-width="2" stroke-miterlimit="10" x1="29" y1="40" x2="35" y2="40"/>
		<rect fill="none" width="64" height="64"/>
	</g>
</g>
</svg>
