<?xml version="1.0" encoding="utf-8"?>
<!-- Generator: Adobe Illustrator 18.1.1, SVG Export Plug-In . SVG Version: 6.00 Build 0)  -->
<svg version="1.1" xmlns="http://www.w3.org/2000/svg" xmlns:xlink="http://www.w3.org/1999/xlink" x="0px" y="0px"
	 viewBox="0 0 64 64" enable-background="new 0 0 64 64" xml:space="preserve">
<g id="Layer_2" display="none">
	<rect x="-37" y="-334.5" display="inline" fill="#84C9F3" stroke="#000000" stroke-miterlimit="10" width="485" height="615.8"/>
</g>
<g id="Layer_1">
	<g>
		<path fill="none" stroke="#363636" stroke-width="2" stroke-miterlimit="10" d="M46,53H18c-1.1,0-2-0.9-2-2V15h32v36
			C48,52.1,47.1,53,46,53z"/>
		<line fill="#FFFFFF" stroke="#363636" stroke-width="2" stroke-miterlimit="10" x1="20" y1="12" x2="20" y2="18"/>
		<line fill="#FFFFFF" stroke="#363636" stroke-width="2" stroke-miterlimit="10" x1="24" y1="12" x2="24" y2="18"/>
		<line fill="#FFFFFF" stroke="#363636" stroke-width="2" stroke-miterlimit="10" x1="28" y1="12" x2="28" y2="18"/>
		<line fill="#FFFFFF" stroke="#363636" stroke-width="2" stroke-miterlimit="10" x1="32" y1="12" x2="32" y2="18"/>
		<line fill="#FFFFFF" stroke="#363636" stroke-width="2" stroke-miterlimit="10" x1="36" y1="12" x2="36" y2="18"/>
		<line fill="#FFFFFF" stroke="#363636" stroke-width="2" stroke-miterlimit="10" x1="40" y1="12" x2="40" y2="18"/>
		<line fill="#FFFFFF" stroke="#363636" stroke-width="2" stroke-miterlimit="10" x1="44" y1="12" x2="44" y2="18"/>
		<line fill="#FFFFFF" stroke="#363636" stroke-width="2" stroke-miterlimit="10" x1="23" y1="25" x2="41" y2="25"/>
		<line fill="#FFFFFF" stroke="#363636" stroke-width="2" stroke-miterlimit="10" x1="23" y1="31" x2="41" y2="31"/>
		<line fill="#FFFFFF" stroke="#363636" stroke-width="2" stroke-miterlimit="10" x1="23" y1="37" x2="41" y2="37"/>
		<line fill="#FFFFFF" stroke="#363636" stroke-width="2" stroke-miterlimit="10" x1="23" y1="43" x2="41" y2="43"/>
		<rect x="0" fill="none" width="64" height="64"/>
	</g>
</g>
</svg>
