<?xml version="1.0" encoding="utf-8"?>
<!-- Generator: Adobe Illustrator 18.1.1, SVG Export Plug-In . SVG Version: 6.00 Build 0)  -->
<svg version="1.1" xmlns="http://www.w3.org/2000/svg" xmlns:xlink="http://www.w3.org/1999/xlink" x="0px" y="0px"
	 viewBox="0 0 64 64" enable-background="new 0 0 64 64" xml:space="preserve">
<g id="Layer_2" display="none">
	<rect x="-305" y="-267.5" display="inline" fill="#84C9F3" stroke="#000000" stroke-miterlimit="10" width="485" height="615.8"/>
</g>
<g id="Layer_1">
	<g>
		<path fill="none" stroke="#363636" stroke-width="2" stroke-linecap="round" stroke-linejoin="round" stroke-miterlimit="10" d="
			M44,30L44,30c-0.3-6.3-5.5-8-12-8s-11.7,1.7-12,8.1l0-0.1C20,45.8,1.4,45.9,9,53c7.6,7.1,18.8,2.9,23,1l0,0c4.2,1.9,15.4,6.1,23-1
			C62.6,45.9,44,45.8,44,30z"/>
		<path fill="none" stroke="#363636" stroke-width="2" stroke-linecap="round" stroke-linejoin="round" stroke-miterlimit="10" d="
			M32,29c0,0-2,0.6-2,3s-6.6-0.8-7,1s-0.2,3.7,1.5,5.1c1.8,1.5,4.1-1.1,4.5-1.1s1.5,1,3,1"/>
		<path fill="none" stroke="#363636" stroke-width="2" stroke-linecap="round" stroke-linejoin="round" stroke-miterlimit="10" d="
			M32,29c0,0,2,0.6,2,3s6.6-0.8,7,1s0.2,3.7-1.5,5.1C37.7,39.6,35.4,37,35,37s-1.5,1-3,1"/>
		<path fill="none" stroke="#363636" stroke-width="2" stroke-linecap="round" stroke-linejoin="round" stroke-miterlimit="10" d="
			M51,42c-3.1-3.1-4-4.7-4-11c0-9.4-6.6-21-15-21S17,21.6,17,31c0,6.3-0.9,7.9-4,11"/>
		<path fill="none" stroke="#363636" stroke-width="2" stroke-linecap="round" stroke-linejoin="round" stroke-miterlimit="10" d="
			M28,45l2-2h4l2,2c0,0-0.5,2-4,2S28,45,28,45z"/>
		<rect fill="none" width="64" height="64"/>
	</g>
</g>
</svg>
