<?xml version="1.0" encoding="utf-8"?>
<!-- Generator: Adobe Illustrator 18.1.1, SVG Export Plug-In . SVG Version: 6.00 Build 0)  -->
<svg version="1.1" xmlns="http://www.w3.org/2000/svg" xmlns:xlink="http://www.w3.org/1999/xlink" x="0px" y="0px"
	 viewBox="0 0 64 64" enable-background="new 0 0 64 64" xml:space="preserve">
<g id="Layer_2" display="none">
	<rect x="-372" y="-200.5" display="inline" fill="#84C9F3" stroke="#000000" stroke-miterlimit="10" width="485" height="615.8"/>
</g>
<g id="Layer_1">
	<g>
		<path fill="none" stroke="#363636" stroke-width="2" stroke-miterlimit="10" d="M50,13H28c-4.4,0-8,3.6-8,8v10c0,4.4,3.6,8,8,8
			h16.1c0.6,4.9,5.9,5,5.9,5v-5c4.4,0,8-3.6,8-8V21C58,16.6,54.4,13,50,13z"/>
		<rect fill="none" width="64" height="64"/>
		<path fill="none" stroke="#363636" stroke-width="2" stroke-miterlimit="10" d="M38,39c0,4.4-3.6,8-8,8H19.9c-0.6,4.9-5.9,5-5.9,5
			v-5c-4.4,0-8-3.6-8-8v-7c0-4.4,3.6-8,8-8h6"/>
	</g>
</g>
</svg>
