<?xml version="1.0" encoding="utf-8"?>
<!-- Generator: Adobe Illustrator 18.1.1, SVG Export Plug-In . SVG Version: 6.00 Build 0)  -->
<svg version="1.1" xmlns="http://www.w3.org/2000/svg" xmlns:xlink="http://www.w3.org/1999/xlink" x="0px" y="0px"
	 viewBox="0 0 64 64" enable-background="new 0 0 64 64" xml:space="preserve">
<g id="Layer_2" display="none">
	<rect x="-37" y="-66.5" display="inline" fill="#84C9F3" stroke="#000000" stroke-miterlimit="10" width="485" height="615.8"/>
</g>
<g id="Layer_1">
	<g>
		<path fill="none" stroke="#363636" stroke-width="2" stroke-linecap="round" stroke-linejoin="round" stroke-miterlimit="10" d="
			M39.4,32.9l-8.5-8.5L49.3,6.1c0.8-0.8,2-0.8,2.8,0l5.7,5.7c0.8,0.8,0.8,2,0,2.8L39.4,32.9z"/>
		
			<rect x="22.8" y="25.6" transform="matrix(0.7071 0.7071 -0.7071 0.7071 33.6494 -9.072)" fill="none" stroke="#363636" stroke-width="2" stroke-linecap="round" stroke-linejoin="round" stroke-miterlimit="10" width="10" height="20.9"/>
		
			<polygon fill="none" stroke="#363636" stroke-width="2" stroke-linecap="round" stroke-linejoin="round" stroke-miterlimit="10" points="
			22.5,45.6 20.4,43.5 18.3,41.4 11.9,43.5 6.9,54.1 8.4,55.5 9.8,56.9 20.4,52 		"/>
		<circle fill="#363636" cx="15.4" cy="48.4" r="2"/>
		<circle fill="#363636" cx="44.4" cy="33.6" r="2"/>
		
			<polyline fill="none" stroke="#363636" stroke-width="2" stroke-linecap="round" stroke-linejoin="round" stroke-miterlimit="10" points="
			55.7,16.7 58.5,19.5 44.4,33.6 		"/>
		<rect x="0.5" y="-0.1" fill="none" width="64" height="64"/>
	</g>
</g>
</svg>
