<?xml version="1.0" encoding="utf-8"?>
<!-- Generator: Adobe Illustrator 18.1.1, SVG Export Plug-In . SVG Version: 6.00 Build 0)  -->
<svg version="1.1" xmlns="http://www.w3.org/2000/svg" xmlns:xlink="http://www.w3.org/1999/xlink" x="0px" y="0px"
	 viewBox="0 0 64 64" enable-background="new 0 0 64 64" xml:space="preserve">
<g id="Layer_2" display="none">
	<rect x="-305" y="-200.5" display="inline" fill="#84C9F3" stroke="#000000" stroke-miterlimit="10" width="485" height="615.8"/>
</g>
<g id="Layer_1">
	<g>
		<g>
			<g>
				<path fill="#363636" d="M55,8c0.3,0,0.5,0.1,0.7,0.3c0.4,0.4,0.4,1,0,1.4l-2.8,2.8c-0.2,0.2-0.5,0.3-0.7,0.3
					c-0.3,0-0.5-0.1-0.7-0.3c-0.4-0.4-0.4-1,0-1.4l2.8-2.8C54.5,8.1,54.7,8,55,8 M55,6L55,6c-0.8,0-1.6,0.3-2.1,0.9l-2.8,2.8
					c-0.6,0.6-0.9,1.3-0.9,2.1c0,0.8,0.3,1.6,0.9,2.1c0.6,0.6,1.3,0.9,2.1,0.9c0.8,0,1.6-0.3,2.1-0.9l2.8-2.8C57.7,10.6,58,9.8,58,9
					c0-0.8-0.3-1.6-0.9-2.1C56.6,6.3,55.8,6,55,6L55,6z"/>
			</g>
		</g>
		<path fill="none" stroke="#363636" stroke-width="2" stroke-miterlimit="10" d="M52.2,11.8L52.2,11.8c-1.6-1.6-4.1-1.6-5.7,0
			L20.4,38C8.4,50,6.9,54.3,6.9,54.3l1.4,1.4l1.4,1.4c0,0,4.3-1.5,16.3-13.4l26.2-26.2C53.7,15.9,53.7,13.4,52.2,11.8L52.2,11.8z"/>
		<line fill="none" stroke="#363636" stroke-width="2" stroke-miterlimit="10" x1="20.4" y1="38" x2="26" y2="43.6"/>
		<polyline fill="none" stroke="#363636" stroke-width="2" stroke-linecap="round" stroke-miterlimit="10" points="50.1,19.6 
			50.1,25.3 40.2,35.2 		"/>
		
			<line fill="#FFFFFF" stroke="#363636" stroke-width="2" stroke-linecap="round" stroke-miterlimit="10" x1="8.3" y1="55.7" x2="6.2" y2="57.8"/>
		<line fill="#FFFFFF" stroke="#363636" stroke-width="2" stroke-miterlimit="10" x1="47.2" y1="16.8" x2="43.7" y2="20.3"/>
		<rect fill="none" width="64" height="64"/>
	</g>
</g>
</svg>
