<?xml version="1.0" encoding="utf-8"?>
<!-- Generator: Adobe Illustrator 18.1.1, SVG Export Plug-In . SVG Version: 6.00 Build 0)  -->
<svg version="1.1" xmlns="http://www.w3.org/2000/svg" xmlns:xlink="http://www.w3.org/1999/xlink" x="0px" y="0px"
	 viewBox="0 0 64 64" enable-background="new 0 0 64 64" xml:space="preserve">
<g id="Layer_2" display="none">
	<rect x="-372" y="-66.5" display="inline" fill="#84C9F3" stroke="#000000" stroke-miterlimit="10" width="485" height="615.8"/>
</g>
<g id="Layer_1">
	<g>
		
			<polygon fill="none" stroke="#363636" stroke-width="2" stroke-linecap="round" stroke-linejoin="round" stroke-miterlimit="10" points="
			35,10 35,24 49,24 		"/>
		<path fill="none" stroke="#363636" stroke-width="2" stroke-linecap="round" stroke-linejoin="round" stroke-miterlimit="10" d="
			M35,10H15v28.9c0.1,0,0.2,0,0.3,0c1.8,0,3.4,0.9,4.4,2.2c0.6-0.2,1.3-0.4,2-0.4c3,0,5.5,2.5,5.5,5.5c0,0.5-0.1,1-0.2,1.5
			c1.8,0.9,3,2.8,3,4.9c0,0.5-0.1,0.9-0.2,1.3H49V24L35,10z"/>
		<rect fill="none" width="64" height="64"/>
	</g>
</g>
</svg>
