<?xml version="1.0" encoding="utf-8"?>
<!-- Generator: Adobe Illustrator 18.1.1, SVG Export Plug-In . SVG Version: 6.00 Build 0)  -->
<svg version="1.1" xmlns="http://www.w3.org/2000/svg" xmlns:xlink="http://www.w3.org/1999/xlink" x="0px" y="0px"
	 viewBox="0 0 64 64" enable-background="new 0 0 64 64" xml:space="preserve">
<g id="Layer_2" display="none">
	<rect x="-37" y="-267.5" display="inline" fill="#84C9F3" stroke="#000000" stroke-miterlimit="10" width="485" height="615.8"/>
</g>
<g id="Layer_1">
	<g>
		<path fill="none" stroke="#363636" stroke-width="2" stroke-linecap="round" stroke-linejoin="round" stroke-miterlimit="10" d="
			M42.1,9.3l12.7,12.7c1.6,1.6,1.6,4.1,0,5.7L26.5,56L8.2,37.6L36.4,9.3C38,7.8,40.5,7.8,42.1,9.3z"/>
		
			<rect x="32.4" y="16.5" transform="matrix(-0.7071 -0.7071 0.7071 -0.7071 47.4175 71.0941)" fill="none" stroke="#363636" stroke-width="2" stroke-linecap="round" stroke-linejoin="round" stroke-miterlimit="10" width="12" height="18.4"/>
		<circle fill="#363636" cx="35.7" cy="28.4" r="2"/>
		<circle fill="#363636" cx="40.7" cy="23.5" r="2"/>
		
			<line fill="none" stroke="#363636" stroke-width="2" stroke-linecap="square" stroke-miterlimit="10" x1="8.2" y1="33.4" x2="10.3" y2="31.3"/>
		
			<line fill="none" stroke="#363636" stroke-width="2" stroke-linecap="square" stroke-miterlimit="10" x1="13.1" y1="28.4" x2="15.2" y2="26.3"/>
		
			<line fill="none" stroke="#363636" stroke-width="2" stroke-linecap="square" stroke-miterlimit="10" x1="18.1" y1="23.5" x2="20.2" y2="21.4"/>
		
			<line fill="none" stroke="#363636" stroke-width="2" stroke-linecap="round" stroke-miterlimit="10" x1="23" y1="51.1" x2="32.2" y2="41.9"/>
		
			<line fill="none" stroke="#363636" stroke-width="2" stroke-linecap="round" stroke-miterlimit="10" x1="18.1" y1="46.1" x2="27.3" y2="36.9"/>
		
			<line fill="none" stroke="#363636" stroke-width="2" stroke-linecap="round" stroke-miterlimit="10" x1="13.1" y1="41.2" x2="22.3" y2="32"/>
		<rect fill="none" width="64" height="64"/>
	</g>
</g>
</svg>
