<?xml version="1.0" encoding="utf-8"?>
<!-- Generator: Adobe Illustrator 18.1.1, SVG Export Plug-In . SVG Version: 6.00 Build 0)  -->
<svg version="1.1" xmlns="http://www.w3.org/2000/svg" xmlns:xlink="http://www.w3.org/1999/xlink" x="0px" y="0px"
	 viewBox="0 0 64 64" enable-background="new 0 0 64 64" xml:space="preserve">
<g id="Layer_2" display="none">
	<rect x="-37" y="-468.5" display="inline" fill="#84C9F3" stroke="#000000" stroke-miterlimit="10" width="485" height="615.8"/>
</g>
<g id="Layer_1">
	<g>
		<path fill="none" stroke="#363636" stroke-width="2" stroke-linecap="round" stroke-linejoin="round" stroke-miterlimit="10" d="
			M42.3,15.5c-3.8,0-7.8,1.5-10.3,4l-6.2,7.6l12.3,6.2l-9.9,8.6l7.4,3.7L32,55c9.6-1.9,24.5-11.2,24.5-25.4
			C56.5,21.8,50.1,15.5,42.3,15.5z"/>
		<path fill="none" stroke="#363636" stroke-width="2" stroke-linecap="round" stroke-linejoin="round" stroke-miterlimit="10" d="
			M28.3,41.9l9.9-8.6l-12.3-6.2l6.2-7.6c-2.5-2.5-6.5-4-10.3-4c-7.8,0-14.1,6.3-14.1,14.1C7.5,43.8,22.4,53.1,32,55l3.7-9.4
			L28.3,41.9z"/>
		<rect x="-7.5" y="-7.5" fill="none" width="79" height="79"/>
	</g>
</g>
</svg>
