<?xml version="1.0" encoding="utf-8"?>
<!-- Generator: Adobe Illustrator 18.1.1, SVG Export Plug-In . SVG Version: 6.00 Build 0)  -->
<svg version="1.1" xmlns="http://www.w3.org/2000/svg" xmlns:xlink="http://www.w3.org/1999/xlink" x="0px" y="0px"
	 viewBox="0 0 64 64" enable-background="new 0 0 64 64" xml:space="preserve">
<g id="Layer_2" display="none">
	<rect x="-37" y="-133.5" display="inline" fill="#84C9F3" stroke="#000000" stroke-miterlimit="10" width="485" height="615.8"/>
</g>
<g id="Layer_1">
	<g>
		<path fill="none" stroke="#363636" stroke-width="2" stroke-linecap="round" stroke-linejoin="round" stroke-miterlimit="10" d="
			M27.8,55H13.5c-0.5,0-0.9-0.3-1-0.8l-2.1-5.6c-0.5-2.1,0.9-4.3,3-4.7c1.7-0.4,4.1-0.7,7.3-0.7s5.5,0.3,7.3,0.7
			c2.1,0.5,3.4,2.6,3,4.7l-2.1,5.6C28.7,54.7,28.3,55,27.8,55z"/>
		
			<rect x="13.3" y="35" fill="none" stroke="#363636" stroke-width="2" stroke-linecap="round" stroke-linejoin="round" stroke-miterlimit="10" width="15" height="4"/>
		<path fill="none" stroke="#363636" stroke-width="2" stroke-linecap="round" stroke-linejoin="round" stroke-miterlimit="10" d="
			M43.3,28.2l1.1-4c-0.5-0.9-0.9-1.8-1.5-2.7C36.9,10.9,28.8,4.2,25,6.4c-2.9,1.7-2.6,8,0.4,15.5l4,1.1l-2.8,1.6
			c0.7,1.6,1.6,3.2,2.5,4.9C35.1,40,43.2,46.7,47,44.5c3.2-1.8,2.5-9.2-1.3-17.7L43.3,28.2z"/>
		
			<line fill="#FFFFFF" stroke="#363636" stroke-width="2" stroke-linecap="round" stroke-linejoin="round" stroke-miterlimit="10" x1="29" y1="13.3" x2="53" y2="54.9"/>
		<rect fill="none" width="64" height="64"/>
	</g>
</g>
</svg>
