<?xml version="1.0" encoding="utf-8"?>
<!-- Generator: Adobe Illustrator 18.1.1, SVG Export Plug-In . SVG Version: 6.00 Build 0)  -->
<svg version="1.1" xmlns="http://www.w3.org/2000/svg" xmlns:xlink="http://www.w3.org/1999/xlink" x="0px" y="0px"
	 viewBox="0 0 64 64" enable-background="new 0 0 64 64" xml:space="preserve">
<g id="Layer_2" display="none">
	<rect x="-171" y="-133.5" display="inline" fill="#84C9F3" stroke="#000000" stroke-miterlimit="10" width="485" height="615.8"/>
</g>
<g id="Layer_1">
	<g>
		<g>
			<path fill="#363636" d="M55,16.8c0.8,0,1.6,0,2,0.1v2.1c-0.1,0-0.2,0-0.3,0c-0.5,0-1.4,0-2,0.1c-1.4,0.2-3.5,0.7-5.8,2
				c-2.2,1.3-4.6,3.3-6.4,6.1c-1.9,2.8-3.2,6.2-4.2,9.7C35,48.4,32.6,56,22,57c-0.7,0.1-1.4,0.1-2,0.1c-8.9,0-11.4-6.6-11-12.1l1-10
				H25l0.9,8.8c0,0.4,0.7,1.6,1.8,1.6c0.5,0,1.1-0.3,1.8-1.2c0.8-1.1,1.7-2.4,2.4-3.9c0.7-1.5,1.3-2.9,2-4.8
				c1.3-3.9,3.3-7.7,5.7-10.7c2.4-3,5.4-5.2,8.1-6.4c2.7-1.2,5.2-1.6,6.8-1.6C54.7,16.8,54.8,16.8,55,16.8 M55,14.8
				c-0.2,0-0.4,0-0.5,0c-1.8,0-4.5,0.4-7.6,1.8c-3.2,1.5-6.4,3.9-8.8,7c-2.4,3-4.5,6.9-6,11.3c-0.6,1.8-1.2,3.1-1.9,4.5
				c-0.6,1.3-1.4,2.5-2.2,3.6c0,0,0,0,0,0L27,34.8c-0.1-1-1-1.8-2-1.8H10c-1,0-1.9,0.8-2,1.8l-1,10c-0.2,2.5,0,7.1,3.2,10.5
				c2.3,2.5,5.6,3.8,9.8,3.8c0.7,0,1.5,0,2.2-0.1c12.1-1.2,14.7-10.2,18-21.7c1.2-4,2.4-6.9,3.9-9.2c1.6-2.3,3.6-4.3,5.8-5.5
				c2.2-1.2,4.1-1.6,5-1.7c0.4-0.1,1.2-0.1,1.7-0.1c0.1,0,0.2,0,0.2,0c0,0,0,0,0.1,0c0.5,0,1-0.2,1.4-0.6c0.4-0.4,0.6-0.9,0.6-1.4
				v-2.1c0-1-0.8-1.9-1.8-2C56.7,14.8,55.7,14.8,55,14.8L55,14.8z"/>
		</g>
		
			<line fill="none" stroke="#363636" stroke-width="2" stroke-linecap="round" stroke-linejoin="round" stroke-miterlimit="10" x1="39" y1="24.8" x2="42.5" y2="28.2"/>
		<path fill="none" stroke="#363636" stroke-width="2" stroke-linecap="round" stroke-linejoin="round" stroke-miterlimit="10" d="
			M25.8,6.2c-4.7,0-8.5,3.8-8.5,8.5c0,0.4,0,0.9,0.1,1.3c-3.3,0.3-5.9,3.1-5.9,6.5c0,3.6,2.9,6.5,6.5,6.5c3.4,0,6.1-2.6,6.5-5.9
			c0.4,0.1,0.8,0.1,1.3,0.1c4.7,0,8.5-3.8,8.5-8.5S30.5,6.2,25.8,6.2z"/>
		<rect fill="none" width="64" height="64"/>
	</g>
</g>
</svg>
