<?xml version="1.0" encoding="utf-8"?>
<!-- Generator: Adobe Illustrator 18.1.1, SVG Export Plug-In . SVG Version: 6.00 Build 0)  -->
<svg version="1.1" xmlns="http://www.w3.org/2000/svg" xmlns:xlink="http://www.w3.org/1999/xlink" x="0px" y="0px"
	 viewBox="0 0 64 64" enable-background="new 0 0 64 64" xml:space="preserve">
<g id="Layer_2" display="none">
	<rect x="-104" y="-267.5" display="inline" fill="#84C9F3" stroke="#000000" stroke-miterlimit="10" width="485" height="615.8"/>
</g>
<g id="Layer_1">
	<g>
		<path fill="none" stroke="#363636" stroke-width="2" stroke-linejoin="round" stroke-miterlimit="10" d="M47.7,26
			c1.4-1.6,2.3-3.7,2.3-6c0-5-4-9-9-9H23c-5,0-9,4-9,9c0,2.3,0.9,4.4,2.3,6"/>
		<path fill="none" stroke="#363636" stroke-width="2" stroke-linejoin="round" stroke-miterlimit="10" d="M50,58c0,0-4-1.7-4-6
			c-0.8,0-14,0-14,0s-13.2,0-14,0c0,4.3-4,6-4,6"/>
		<path fill="none" stroke="#363636" stroke-width="2" stroke-linejoin="round" stroke-miterlimit="10" d="M47.7,26
			c-2.8-0.2-5.7,1.8-5.7,5v7c0,1.1-0.9,2-2,2h-8h-8c-1.1,0-2-0.9-2-2v-7c0-3.3-2.9-5.2-5.7-5"/>
		<path fill="none" stroke="#363636" stroke-width="2" stroke-linejoin="round" stroke-miterlimit="10" d="M16.3,26
			c-1.7,0.1-3.4,1.1-4.3,3c-2.2,5.1,3,8.4,3,11v5c0,2.2,1.8,4,4,4h13h13c2.2,0,4-1.8,4-4v-5c0-2.6,5.2-5.9,3-11
			c-0.9-2-2.5-2.9-4.3-3"/>
		
			<line fill="none" stroke="#363636" stroke-width="2" stroke-linejoin="round" stroke-miterlimit="10" x1="25" y1="32" x2="39" y2="32"/>
	</g>
</g>
</svg>
