<?xml version="1.0" encoding="utf-8"?>
<!-- Generator: Adobe Illustrator 18.1.1, SVG Export Plug-In . SVG Version: 6.00 Build 0)  -->
<svg version="1.1" xmlns="http://www.w3.org/2000/svg" xmlns:xlink="http://www.w3.org/1999/xlink" x="0px" y="0px"
	 viewBox="0 0 64 64" enable-background="new 0 0 64 64" xml:space="preserve">
<g id="Layer_2" display="none">
	<rect x="-238" y="-133.5" display="inline" fill="#84C9F3" stroke="#000000" stroke-miterlimit="10" width="485" height="615.8"/>
</g>
<g id="Layer_1">
	<g>
		<path fill="none" stroke="#363636" stroke-width="2" stroke-linecap="round" stroke-miterlimit="10" d="M39,46L39,46
			c0-2.2,1.8-4,4-4h2.3c0.5,0,0.9-0.2,1.2-0.5l1.7-1.7c0.7-0.7,0.7-1.8,0-2.5v0c-0.9-0.9-1.2-2.4-0.5-3.6c1.7-3,2.5-6.5,2.2-10.2
			C49.3,15,42.5,8,34,7.1C33.3,7,32.7,7,32,7c-0.7,0-1.3,0-2,0.1C21.5,8,14.7,15,14.1,23.5c-0.3,3.7,0.5,7.2,2.2,10.2
			c0.6,1.2,0.4,2.6-0.5,3.6l0,0c-0.7,0.7-0.7,1.8,0,2.5l1.7,1.7c0.3,0.3,0.8,0.5,1.2,0.5H21c2.2,0,4,1.8,4,4v0"/>
		<path fill="none" stroke="#363636" stroke-width="2" stroke-linecap="round" stroke-miterlimit="10" d="M30,33
			c0.5-1.5-0.3-2.8-1.7-3.3c-1.4-0.5-4.6-0.4-6.9,0.5C19,31.1,20.3,36.5,23,36s4.2-1.4,4.1-3.5"/>
		
			<polyline fill="none" stroke="#363636" stroke-width="2" stroke-linecap="round" stroke-linejoin="round" stroke-miterlimit="10" points="
			30,41 32,38 34,41 		"/>
		<path fill="none" stroke="#363636" stroke-width="2" stroke-linecap="round" stroke-miterlimit="10" d="M34,33
			c-0.5-1.5,0.3-2.8,1.7-3.3s4.6-0.4,6.9,0.5s1.1,6.3-1.7,5.8s-4.2-1.4-4.1-3.5"/>
		
			<line fill="none" stroke="#363636" stroke-width="2" stroke-linecap="round" stroke-miterlimit="10" x1="28" y1="47" x2="28" y2="49"/>
		
			<line fill="none" stroke="#363636" stroke-width="2" stroke-linecap="round" stroke-miterlimit="10" x1="32" y1="47" x2="32" y2="49"/>
		
			<line fill="none" stroke="#363636" stroke-width="2" stroke-linecap="round" stroke-miterlimit="10" x1="36" y1="47" x2="36" y2="49"/>
		<path fill="none" stroke="#363636" stroke-width="2" stroke-linecap="round" stroke-miterlimit="10" d="M44,46v3.2
			c0,1.1-0.4,2.1-1.2,2.8l-5.2,3.8c-0.8,0.8-1.8,1.2-2.8,1.2h-5.7c-1.1,0-2.1-0.4-2.8-1.2L21.2,52c-0.8-0.8-1.2-1.8-1.2-2.8V46"/>
		<rect fill="none" width="64" height="64"/>
	</g>
</g>
</svg>
