<?xml version="1.0" encoding="utf-8"?>
<!-- Generator: Adobe Illustrator 18.1.1, SVG Export Plug-In . SVG Version: 6.00 Build 0)  -->
<svg version="1.1" xmlns="http://www.w3.org/2000/svg" xmlns:xlink="http://www.w3.org/1999/xlink" x="0px" y="0px"
	 viewBox="0 0 64 64" enable-background="new 0 0 64 64" xml:space="preserve">
<g id="Layer_2" display="none">
	<rect x="-171" y="-66.5" display="inline" fill="#84C9F3" stroke="#000000" stroke-miterlimit="10" width="485" height="615.8"/>
</g>
<g id="Layer_1">
	<g>
		<path fill="none" stroke="#363636" stroke-width="2" stroke-linecap="round" stroke-linejoin="round" stroke-miterlimit="10" d="
			M13,32v-7c10.1,0,19,6,19,6v24c0,0-8.9-6-19-6v-5"/>
		<g>
			<path fill="#363636" d="M13,36c1.1,0,2,0.9,2,2s-0.9,2-2,2s-2-0.9-2-2S11.9,36,13,36 M13,34c-2.2,0-4,1.8-4,4s1.8,4,4,4
				s4-1.8,4-4S15.2,34,13,34L13,34z"/>
		</g>
		<g>
			<circle fill="#363636" cx="27" cy="23" r="2"/>
		</g>
		<g>
			<circle fill="#363636" cx="37" cy="23" r="2"/>
		</g>
		<path fill="none" stroke="#363636" stroke-width="2" stroke-linecap="round" stroke-linejoin="round" stroke-miterlimit="10" d="
			M51,32v-7c-10.1,0-19,6-19,6v24c0,0,8.9-6,19-6v-5"/>
		<g>
			<path fill="#363636" d="M51,36c1.1,0,2,0.9,2,2s-0.9,2-2,2s-2-0.9-2-2S49.9,36,51,36 M51,34c-2.2,0-4,1.8-4,4s1.8,4,4,4
				s4-1.8,4-4S53.2,34,51,34L51,34z"/>
		</g>
		<path fill="none" stroke="#363636" stroke-width="2" stroke-linecap="round" stroke-linejoin="round" stroke-miterlimit="10" d="
			M43.1,22.9c0-3.7-1.8-7-4.6-9C38.9,12,38.2,9.7,37,9c-0.9,1.4-2.9,2.7-5,2.7c-6.1,0-11.1,5-11.1,11.1"/>
		<rect fill="none" width="64" height="64"/>
	</g>
</g>
</svg>
