<?xml version="1.0" encoding="utf-8"?>
<!-- Generator: Adobe Illustrator 18.1.1, SVG Export Plug-In . SVG Version: 6.00 Build 0)  -->
<svg version="1.1" xmlns="http://www.w3.org/2000/svg" xmlns:xlink="http://www.w3.org/1999/xlink" x="0px" y="0px"
	 viewBox="0 0 64 64" enable-background="new 0 0 64 64" xml:space="preserve">
<g id="Layer_2" display="none">
	<rect x="-171" y="-200.5" display="inline" fill="#84C9F3" stroke="#000000" stroke-miterlimit="10" width="485" height="615.8"/>
</g>
<g id="Layer_1">
	<g>
		
			<line fill="none" stroke="#363636" stroke-width="2" stroke-linecap="round" stroke-linejoin="round" stroke-miterlimit="10" x1="17" y1="56" x2="48" y2="56"/>
		
			<line fill="none" stroke="#363636" stroke-width="2" stroke-linejoin="round" stroke-miterlimit="10" x1="21" y1="52" x2="44" y2="52"/>
		<path fill="none" stroke="#363636" stroke-width="2" stroke-linejoin="round" stroke-miterlimit="10" d="M50,32H14v-7.2
			c0-4.4,3.6-8,8-8h20c4.4,0,8,3.6,8,8V32z"/>
		<path fill="none" stroke="#363636" stroke-width="2" stroke-linejoin="round" stroke-miterlimit="10" d="M10,26v-1
			c0-6.6,5.4-12,12-12h20c6.6,0,12,5.4,12,12v1"/>
		<g>
			<path fill="#363636" d="M32,8c1.1,0,2,0.9,2,2s-0.9,2-2,2s-2-0.9-2-2S30.9,8,32,8 M32,6c-2.2,0-4,1.8-4,4s1.8,4,4,4s4-1.8,4-4
				S34.2,6,32,6L32,6z"/>
		</g>
		<line fill="none" stroke="#363636" stroke-width="2" stroke-miterlimit="10" x1="32" y1="35" x2="32" y2="52"/>
		
			<line fill="none" stroke="#363636" stroke-width="2" stroke-linecap="round" stroke-miterlimit="10" stroke-dasharray="0,3" x1="47" y1="35" x2="47" y2="42"/>
		<polygon fill="none" stroke="#363636" stroke-width="2" stroke-linejoin="round" stroke-miterlimit="10" points="45,45 49,45 
			47,43 		"/>
		<rect fill="none" width="64" height="64"/>
	</g>
</g>
</svg>
