<?xml version="1.0" encoding="utf-8"?>
<!-- Generator: Adobe Illustrator 18.1.1, SVG Export Plug-In . SVG Version: 6.00 Build 0)  -->
<svg version="1.1" xmlns="http://www.w3.org/2000/svg" xmlns:xlink="http://www.w3.org/1999/xlink" x="0px" y="0px"
	 viewBox="0 0 64 64" enable-background="new 0 0 64 64" xml:space="preserve">
<g id="Layer_2" display="none">
	<rect x="-171" y="-334.5" display="inline" fill="#84C9F3" stroke="#000000" stroke-miterlimit="10" width="485" height="615.8"/>
</g>
<g id="Layer_1">
	<g>
		<path fill="none" stroke="#363636" stroke-width="2" stroke-linejoin="round" stroke-miterlimit="10" d="M27.3,21.7l-7.1-7.1
			l3.8-3.8c1.2-1.2,3.1-1.2,4.2,0l2.8,2.8c1.2,1.2,1.2,3.1,0,4.2L27.3,21.7z"/>
		<polygon fill="none" stroke="#363636" stroke-width="2" stroke-linejoin="round" stroke-miterlimit="10" points="27.3,33 
			8.9,14.6 20.3,14.6 27.3,21.7 		"/>
		<path fill="none" stroke="#363636" stroke-width="2" stroke-linejoin="round" stroke-miterlimit="10" d="M22.4,26.6
			c-2,2-5.1,2-7.1,0s-2-5.1,0-7.1"/>
		
			<rect x="19" y="54" fill="none" stroke="#363636" stroke-width="2" stroke-linejoin="round" stroke-miterlimit="10" width="26" height="4"/>
		
			<line fill="#FFFFFF" stroke="#363636" stroke-width="2" stroke-linejoin="round" stroke-miterlimit="10" x1="45" y1="31" x2="28" y2="48"/>
		
			<line fill="#FFFFFF" stroke="#363636" stroke-width="2" stroke-linejoin="round" stroke-miterlimit="10" x1="53" y1="31" x2="36" y2="48"/>
		<polygon fill="none" stroke="#363636" stroke-width="2" stroke-linejoin="round" stroke-miterlimit="10" points="32,53 28,48 
			36,48 		"/>
		<polygon fill="none" stroke="#363636" stroke-width="2" stroke-linejoin="round" stroke-miterlimit="10" points="53,31 45,31 
			49,25 		"/>
		
			<line fill="#FFFFFF" stroke="#363636" stroke-width="2" stroke-linejoin="round" stroke-miterlimit="10" x1="47" y1="29" x2="34" y2="22"/>
		
			<line fill="#FFFFFF" stroke="#363636" stroke-width="2" stroke-linejoin="round" stroke-miterlimit="10" x1="49" y1="25" x2="36" y2="18"/>
		<polygon fill="none" stroke="#363636" stroke-width="2" stroke-linejoin="round" stroke-miterlimit="10" points="36,18 34,22 
			31,18 		"/>
		<rect fill="none" width="64" height="64"/>
	</g>
</g>
</svg>
