<?xml version="1.0" encoding="utf-8"?>
<!-- Generator: Adobe Illustrator 18.1.1, SVG Export Plug-In . SVG Version: 6.00 Build 0)  -->
<svg version="1.1" xmlns="http://www.w3.org/2000/svg" xmlns:xlink="http://www.w3.org/1999/xlink" x="0px" y="0px"
	 viewBox="0 0 64 64" enable-background="new 0 0 64 64" xml:space="preserve">
<g id="Layer_2" display="none">
	<rect x="-305" y="-401.5" display="inline" fill="#84C9F3" stroke="#000000" stroke-miterlimit="10" width="485" height="615.8"/>
</g>
<g id="Layer_1">
	<g>
		<g>
			<g>
				<path fill="#363636" d="M44,10c0.6,0,1,0.4,1,1s-0.4,1-1,1H20c-0.6,0-1-0.4-1-1s0.4-1,1-1H44 M44,8H20c-1.7,0-3,1.3-3,3
					s1.3,3,3,3h24c1.7,0,3-1.3,3-3S45.7,8,44,8L44,8z"/>
			</g>
		</g>
		<path fill="none" stroke="#363636" stroke-width="2" stroke-miterlimit="10" d="M42,13l5,26c-8.8,6.6-10,17-10,17h-5h-5
			c0,0-1.2-10.4-10-17l5-26"/>
		<circle fill="none" stroke="#363636" stroke-width="2" stroke-miterlimit="10" cx="32" cy="30" r="4"/>
		<line fill="none" stroke="#363636" stroke-width="2" stroke-miterlimit="10" x1="32" y1="34" x2="32" y2="56"/>
		<rect fill="none" width="64" height="64"/>
	</g>
</g>
</svg>
