<?xml version="1.0" encoding="utf-8"?>
<!-- Generator: Adobe Illustrator 18.1.1, SVG Export Plug-In . SVG Version: 6.00 Build 0)  -->
<svg version="1.1" xmlns="http://www.w3.org/2000/svg" xmlns:xlink="http://www.w3.org/1999/xlink" x="0px" y="0px"
	 viewBox="0 0 64 64" enable-background="new 0 0 64 64" xml:space="preserve">
<g id="Layer_2" display="none">
	<rect x="-238" y="-200.5" display="inline" fill="#84C9F3" stroke="#000000" stroke-miterlimit="10" width="485" height="615.8"/>
</g>
<g id="Layer_1">
	<g>
		<g>
			<path fill="#363636" d="M55,11c1.1,0,2,0.9,2,2v30c0,1.1-0.9,2-2,2H9c-1.1,0-2-0.9-2-2V13c0-1.1,0.9-2,2-2H55 M55,9H9
				c-2.2,0-4,1.8-4,4v30c0,2.2,1.8,4,4,4h46c2.2,0,4-1.8,4-4V13C59,10.8,57.2,9,55,9L55,9z"/>
		</g>
		<circle fill="#363636" cx="32" cy="42" r="2"/>

			<line fill="#FFFFFF" stroke="#363636" stroke-width="2" stroke-linecap="round" stroke-linejoin="round" stroke-miterlimit="10" x1="9" y1="14" x2="55" y2="14"/>

			<line fill="#FFFFFF" stroke="#363636" stroke-width="2" stroke-linecap="round" stroke-linejoin="round" stroke-miterlimit="10" x1="9" y1="38" x2="55" y2="38"/>

			<line fill="#FFFFFF" stroke="#363636" stroke-width="2" stroke-linecap="round" stroke-linejoin="round" stroke-miterlimit="10" x1="21" y1="55" x2="43" y2="55"/>
		<rect y="0" fill="none" width="64" height="64"/>

			<polyline fill="none" stroke="#363636" stroke-width="2" stroke-linecap="round" stroke-linejoin="round" stroke-miterlimit="10" points="
			26.9,46.2 25,55 32,55 39,55 37.1,46.1 		"/>
	</g>
</g>
</svg>
