<?xml version="1.0" encoding="utf-8"?>
<!-- Generator: Adobe Illustrator 18.1.1, SVG Export Plug-In . SVG Version: 6.00 Build 0)  -->
<svg version="1.1" xmlns="http://www.w3.org/2000/svg" xmlns:xlink="http://www.w3.org/1999/xlink" x="0px" y="0px"
	 viewBox="0 0 64 64" enable-background="new 0 0 64 64" xml:space="preserve">
<g id="Layer_2" display="none">
	<rect x="-104" y="-200.5" display="inline" fill="#84C9F3" stroke="#000000" stroke-miterlimit="10" width="485" height="615.8"/>
</g>
<g id="Layer_1">
	<g>
		<path fill="none" stroke="#363636" stroke-width="2" stroke-linejoin="round" stroke-miterlimit="10" d="M20,32V13h38v33.3
			c0,3.7-3,6.7-6.7,6.7H12.7"/>
		<path fill="none" stroke="#363636" stroke-width="2" stroke-linejoin="round" stroke-miterlimit="10" d="M20,32H6v14.3
			C6,50,9,53,12.7,53"/>
		<path fill="none" stroke="#363636" stroke-width="2" stroke-linejoin="round" stroke-miterlimit="10" d="M20,40.4v5.9
			c0,3.7-3.6,6.7-7.3,6.7"/>
		
			<line fill="none" stroke="#363636" stroke-width="2" stroke-linejoin="round" stroke-miterlimit="10" x1="20" y1="32" x2="20" y2="40.4"/>
		
			<line fill="none" stroke="#363636" stroke-width="2" stroke-linejoin="round" stroke-miterlimit="10" x1="25" y1="19" x2="53" y2="19"/>
		
			<line fill="none" stroke="#363636" stroke-width="2" stroke-linejoin="round" stroke-miterlimit="10" x1="25" y1="24" x2="53" y2="24"/>
		
			<rect x="40" y="29" fill="none" stroke="#363636" stroke-width="2" stroke-linejoin="round" stroke-miterlimit="10" width="12" height="13"/>
		
			<line fill="none" stroke="#363636" stroke-width="2" stroke-linejoin="round" stroke-miterlimit="10" x1="25" y1="30" x2="36" y2="30"/>
		
			<line fill="none" stroke="#363636" stroke-width="2" stroke-linejoin="round" stroke-miterlimit="10" x1="34" y1="34" x2="25" y2="34"/>
		
			<line fill="none" stroke="#363636" stroke-width="2" stroke-linejoin="round" stroke-miterlimit="10" x1="25" y1="38" x2="36" y2="38"/>
		
			<line fill="none" stroke="#363636" stroke-width="2" stroke-linejoin="round" stroke-miterlimit="10" x1="27.8" y1="42" x2="25" y2="42"/>
	</g>
</g>
</svg>
