<?xml version="1.0" encoding="utf-8"?>
<!-- Generator: Adobe Illustrator 18.1.1, SVG Export Plug-In . SVG Version: 6.00 Build 0)  -->
<svg version="1.1" xmlns="http://www.w3.org/2000/svg" xmlns:xlink="http://www.w3.org/1999/xlink" x="0px" y="0px"
	 viewBox="0 0 64 64" enable-background="new 0 0 64 64" xml:space="preserve">
<g id="Layer_2" display="none">
	<rect x="-171" y="-401.5" display="inline" fill="#84C9F3" stroke="#000000" stroke-miterlimit="10" width="485" height="615.8"/>
</g>
<g id="Layer_1">
	<g>
		
			<line fill="none" stroke="#363636" stroke-width="2" stroke-linecap="round" stroke-linejoin="round" stroke-miterlimit="10" x1="32" y1="32" x2="47" y2="17"/>
		
			<polygon fill="none" stroke="#363636" stroke-width="2" stroke-linecap="round" stroke-linejoin="round" stroke-miterlimit="10" points="
			57,12 52,12 52,7 47,12 47,17 52,17 		"/>
		<g>
			<path fill="none" stroke="#363636" stroke-width="2" stroke-linecap="round" stroke-linejoin="round" stroke-miterlimit="10" d="
				M33.5,26.2c-0.5-0.1-1-0.2-1.5-0.2c-3.3,0-6,2.7-6,6s2.7,6,6,6s6-2.7,6-6c0-0.5-0.1-1.1-0.2-1.5"/>
		</g>
		<g>
			<path fill="none" stroke="#363636" stroke-width="2" stroke-linecap="round" stroke-linejoin="round" stroke-miterlimit="10" d="
				M38.8,20.9c-2-1.2-4.3-1.9-6.8-1.9c-7.2,0-13,5.8-13,13s5.8,13,13,13s13-5.8,13-13c0-2.5-0.7-4.8-1.9-6.8"/>
		</g>
		<g>
			<path fill="none" stroke="#363636" stroke-width="2" stroke-linecap="round" stroke-linejoin="round" stroke-miterlimit="10" d="
				M43.8,15.9C40.5,13.5,36.4,12,32,12c-11,0-20,9-20,20c0,11,9,20,20,20s20-9,20-20c0-4.4-1.5-8.5-3.9-11.8"/>
		</g>
		<rect fill="none" width="64" height="64"/>
	</g>
	<g>
		<rect x="60.7" y="-6.3" fill="none" width="76.7" height="76.7"/>
	</g>
</g>
</svg>
