<?xml version="1.0" encoding="utf-8"?>
<!-- Generator: Adobe Illustrator 18.1.1, SVG Export Plug-In . SVG Version: 6.00 Build 0)  -->
<svg version="1.1" xmlns="http://www.w3.org/2000/svg" xmlns:xlink="http://www.w3.org/1999/xlink" x="0px" y="0px"
	 viewBox="0 0 64 64" enable-background="new 0 0 64 64" xml:space="preserve">
<g id="Layer_2" display="none">
	<rect x="-372" y="-133.5" display="inline" fill="#84C9F3" stroke="#000000" stroke-miterlimit="10" width="485" height="615.8"/>
</g>
<g id="Layer_1">
	<g>
		<path fill="none" stroke="#363636" stroke-width="2" stroke-miterlimit="10" d="M41,10c0-2.2-4-4-9-4s-9,1.8-9,4c0,0.5,4,9,4,9h10
			C37,19,41,10.5,41,10z"/>
		<path fill="none" stroke="#363636" stroke-width="2" stroke-miterlimit="10" d="M27,19l-7.4,26.7c-0.4,1.4,0,3,1.1,4l8.5,7.8
			c1.5,1.4,3.9,1.4,5.4,0l8.5-7.8c1.1-1,1.5-2.6,1.1-4L37,19H27z"/>
		
			<line fill="none" stroke="#363636" stroke-width="2" stroke-linecap="round" stroke-miterlimit="10" x1="28" y1="29" x2="35" y2="22"/>
		
			<line fill="none" stroke="#363636" stroke-width="2" stroke-linecap="round" stroke-miterlimit="10" x1="22.5" y1="45.5" x2="37.5" y2="30.5"/>
		
			<line fill="none" stroke="#363636" stroke-width="2" stroke-linecap="round" stroke-miterlimit="10" x1="28.8" y1="52.7" x2="40.2" y2="41.2"/>
		
			<line fill="none" stroke="#363636" stroke-width="2" stroke-linecap="round" stroke-miterlimit="10" x1="27" y1="10" x2="36" y2="14"/>
		<rect y="0" fill="none" width="64" height="64"/>
	</g>
</g>
</svg>
