<?xml version="1.0" encoding="utf-8"?>
<!-- Generator: Adobe Illustrator 18.1.1, SVG Export Plug-In . SVG Version: 6.00 Build 0)  -->
<svg version="1.1" xmlns="http://www.w3.org/2000/svg" xmlns:xlink="http://www.w3.org/1999/xlink" x="0px" y="0px"
	 viewBox="0 0 64 64" enable-background="new 0 0 64 64" xml:space="preserve">
<g id="Layer_2" display="none">
	<rect x="-171" y="-66.5" display="inline" fill="#84C9F3" stroke="#000000" stroke-miterlimit="10" width="485" height="615.8"/>
</g>
<g id="Layer_1">
	<g>
		<path fill="none" stroke="#363636" stroke-width="2" stroke-linecap="round" stroke-miterlimit="10" d="M14,9V7h32
			c2.2,0,4,1.8,4,4v42c0,2.2-1.8,4-4,4H14v-2"/>
		<line fill="none" stroke="#363636" stroke-width="2" stroke-miterlimit="10" x1="12" y1="12" x2="16" y2="12"/>
		<line fill="none" stroke="#363636" stroke-width="2" stroke-miterlimit="10" x1="12" y1="17" x2="16" y2="17"/>
		<line fill="none" stroke="#363636" stroke-width="2" stroke-miterlimit="10" x1="12" y1="22" x2="16" y2="22"/>
		<line fill="none" stroke="#363636" stroke-width="2" stroke-miterlimit="10" x1="12" y1="27" x2="16" y2="27"/>
		<line fill="none" stroke="#363636" stroke-width="2" stroke-miterlimit="10" x1="12" y1="32" x2="16" y2="32"/>
		<line fill="none" stroke="#363636" stroke-width="2" stroke-miterlimit="10" x1="12" y1="37" x2="16" y2="37"/>
		<line fill="none" stroke="#363636" stroke-width="2" stroke-miterlimit="10" x1="12" y1="42" x2="16" y2="42"/>
		<line fill="none" stroke="#363636" stroke-width="2" stroke-miterlimit="10" x1="12" y1="47" x2="16" y2="47"/>
		<line fill="none" stroke="#363636" stroke-width="2" stroke-miterlimit="10" x1="12" y1="52" x2="16" y2="52"/>
		<rect y="0" fill="none" width="64" height="64"/>
	</g>
</g>
</svg>
