<?xml version="1.0" encoding="utf-8"?>
<!-- Generator: Adobe Illustrator 18.1.1, SVG Export Plug-In . SVG Version: 6.00 Build 0)  -->
<svg version="1.1" xmlns="http://www.w3.org/2000/svg" xmlns:xlink="http://www.w3.org/1999/xlink" x="0px" y="0px"
	 viewBox="0 0 64 64" enable-background="new 0 0 64 64" xml:space="preserve">
<g id="Layer_2" display="none">
	<rect x="-372" y="-200.5" display="inline" fill="#84C9F3" stroke="#000000" stroke-miterlimit="10" width="485" height="615.8"/>
</g>
<g id="Layer_1">
	<g>
		<g>
			<path fill="#363636" d="M54.7,18c1.3,0,2.3,1,2.3,2.3v26.4c0,1.3-1,2.3-2.3,2.3H9.3C8,49,7,48,7,46.7V20.3C7,19,8,18,9.3,18H54.7
				 M54.7,16H9.3C6.9,16,5,17.9,5,20.3v26.4C5,49.1,6.9,51,9.3,51h45.4c2.4,0,4.3-1.9,4.3-4.3V20.3C59,17.9,57.1,16,54.7,16L54.7,16
				z"/>
		</g>
		
			<polyline fill="none" stroke="#363636" stroke-width="2" stroke-linecap="round" stroke-linejoin="round" stroke-miterlimit="10" points="
			11,22 32,39 53,22 		"/>
		
			<line fill="none" stroke="#363636" stroke-width="2" stroke-linecap="round" stroke-linejoin="round" stroke-miterlimit="10" x1="11" y1="44" x2="24" y2="33"/>
		
			<line fill="none" stroke="#363636" stroke-width="2" stroke-linecap="round" stroke-linejoin="round" stroke-miterlimit="10" x1="53" y1="44" x2="40" y2="33"/>
		<rect y="0" fill="none" width="64" height="64"/>
	</g>
</g>
</svg>
