<?xml version="1.0" encoding="utf-8"?>
<!-- Generator: Adobe Illustrator 18.1.1, SVG Export Plug-In . SVG Version: 6.00 Build 0)  -->
<svg version="1.1" xmlns="http://www.w3.org/2000/svg" xmlns:xlink="http://www.w3.org/1999/xlink" x="0px" y="0px"
	 viewBox="0 0 64 64" enable-background="new 0 0 64 64" xml:space="preserve">
<g id="Layer_2" display="none">
	<rect x="-238" y="-401.5" display="inline" fill="#84C9F3" stroke="#000000" stroke-miterlimit="10" width="485" height="615.8"/>
</g>
<g id="Layer_1">
	<g>
		<path fill="none" stroke="#363636" stroke-width="2" stroke-linecap="round" stroke-linejoin="round" stroke-miterlimit="10" d="
			M6.8,22.4v-3.6c0-4,3.2-7.2,7.2-7.2h40.7c1.3,0,2.4,1.1,2.4,2.4V50c0,1.3-1.1,2.4-2.4,2.4H14c-4,0-7.2-3.2-7.2-7.2v-3.6"/>
		<g>
			<path fill="#363636" d="M18.9,27.2c2.6,0,4.8,2.1,4.8,4.8c0,2.6-2.1,4.8-4.8,4.8c0,0-0.1,0-0.1,0v0H5.6v-9.6H18.9L18.9,27.2
				C18.9,27.2,18.9,27.2,18.9,27.2 M18.9,25.2C18.9,25.2,18.9,25.2,18.9,25.2C18.9,25.2,18.8,25.2,18.9,25.2H5.6c-1.1,0-2,0.9-2,2
				v9.6c0,1.1,0.9,2,2,2h13.2c0,0,0,0,0,0c0,0,0,0,0,0c3.7,0,6.8-3,6.8-6.8C25.7,28.3,22.7,25.2,18.9,25.2L18.9,25.2z"/>
		</g>
		<circle fill="#363636" cx="18.9" cy="32" r="2.4"/>
		<rect x="-6.3" y="-6.3" fill="none" width="76.7" height="76.7"/>
	</g>
</g>
</svg>
