<?xml version="1.0" encoding="utf-8"?>
<!-- Generator: Adobe Illustrator 18.1.1, SVG Export Plug-In . SVG Version: 6.00 Build 0)  -->
<svg version="1.1" xmlns="http://www.w3.org/2000/svg" xmlns:xlink="http://www.w3.org/1999/xlink" x="0px" y="0px"
	 viewBox="0 0 64 64" enable-background="new 0 0 64 64" xml:space="preserve">
<g id="Layer_2" display="none">
	<rect x="-238" y="-267.5" display="inline" fill="#84C9F3" stroke="#000000" stroke-miterlimit="10" width="485" height="615.8"/>
</g>
<g id="Layer_1">
	<g>
		<path fill="none" stroke="#363636" stroke-width="2" stroke-linejoin="round" stroke-miterlimit="10" d="M47,56H17
			c-2.2,0-4-1.8-4-4V32c0-1.1,0.9-2,2-2h34c1.1,0,2,0.9,2,2v20C51,54.2,49.2,56,47,56z"/>
		<path fill="none" stroke="#363636" stroke-width="2" stroke-linejoin="round" stroke-miterlimit="10" d="M19,27v-5
			c0-7.4,5.6-13,13-13s13,5.6,13,13v5"/>
		<path fill="none" stroke="#363636" stroke-width="2" stroke-linejoin="round" stroke-miterlimit="10" d="M37,50l-3-5.5
			c1.5-0.7,2.5-2.2,2.5-4c0-2.5-2-4.5-4.5-4.5s-4.5,2-4.5,4.5c0,1.7,1,3.2,2.5,4L27,50H37z"/>
		<rect y="0" fill="none" width="64" height="64"/>
	</g>
</g>
</svg>
