<?xml version="1.0" encoding="utf-8"?>
<!-- Generator: Adobe Illustrator 18.1.1, SVG Export Plug-In . SVG Version: 6.00 Build 0)  -->
<svg version="1.1" xmlns="http://www.w3.org/2000/svg" xmlns:xlink="http://www.w3.org/1999/xlink" x="0px" y="0px"
	 viewBox="0 0 64 64" enable-background="new 0 0 64 64" xml:space="preserve">
<g id="Layer_2" display="none">
	<rect x="-238" y="-133.5" display="inline" fill="#84C9F3" stroke="#000000" stroke-miterlimit="10" width="485" height="615.8"/>
</g>
<g id="Layer_1">
	<g>
		<path fill="none" stroke="#363636" stroke-width="2" stroke-linecap="round" stroke-linejoin="round" stroke-miterlimit="10" d="
			M49,25c0-10-8.7-18-18.9-16.9c-7.7,0.8-13.9,7-14.9,14.6c-0.8,6.3,1.8,12,6.3,15.5c1,0.8,1.6,1.9,1.6,3.2V45c0,2.2,1.8,4,4,4h10
			c2.2,0,4-1.8,4-4v-3.5c0-1.2,0.6-2.4,1.6-3.2C46.5,35.2,49,30.4,49,25z"/>
		
			<line fill="#FFFFFF" stroke="#363636" stroke-width="2" stroke-linecap="round" stroke-linejoin="round" stroke-miterlimit="10" x1="25" y1="53" x2="39" y2="53"/>
		
			<line fill="#FFFFFF" stroke="#363636" stroke-width="2" stroke-linecap="round" stroke-linejoin="round" stroke-miterlimit="10" x1="28" y1="57" x2="36" y2="57"/>
		
			<line fill="none" stroke="#363636" stroke-width="2" stroke-linecap="round" stroke-miterlimit="10" x1="25" y1="26" x2="27" y2="34"/>
		
			<line fill="none" stroke="#363636" stroke-width="2" stroke-linecap="round" stroke-miterlimit="10" x1="39" y1="26" x2="37" y2="34"/>
		<circle fill="#363636" cx="29" cy="26" r="1"/>
		<circle fill="#363636" cx="35" cy="26" r="1"/>
		<circle fill="#363636" cx="32" cy="26" r="1"/>
		<rect y="0" fill="none" width="64" height="64"/>
	</g>
</g>
</svg>
