<?xml version="1.0" encoding="utf-8"?>
<!-- Generator: Adobe Illustrator 18.1.1, SVG Export Plug-In . SVG Version: 6.00 Build 0)  -->
<svg version="1.1" xmlns="http://www.w3.org/2000/svg" xmlns:xlink="http://www.w3.org/1999/xlink" x="0px" y="0px"
	 viewBox="0 0 64 64" enable-background="new 0 0 64 64" xml:space="preserve">
<g id="Layer_2" display="none">
	<rect x="-104" y="-334.5" display="inline" fill="#84C9F3" stroke="#000000" stroke-miterlimit="10" width="485" height="615.8"/>
</g>
<g id="Layer_1">
	<g>
		<path fill="none" stroke="#363636" stroke-width="2" stroke-miterlimit="10" d="M58,47.2H6c-0.6,0-1-0.4-1-1V17.8c0-0.6,0.4-1,1-1
			h52c0.6,0,1,0.4,1,1v28.5C59,46.8,58.6,47.2,58,47.2z"/>
		<path fill="none" stroke="#363636" stroke-width="2" stroke-miterlimit="10" d="M51,43H13c0-2.2-1.8-4-4-4V25c2.2,0,4-1.8,4-4h38
			c0,2.2,1.8,4,4,4v14C52.8,39,51,40.8,51,43z"/>
		<g>
			<path fill="#363636" d="M32,25c3.9,0,7,3.1,7,7s-3.1,7-7,7s-7-3.1-7-7S28.1,25,32,25 M32,23c-5,0-9,4-9,9c0,5,4,9,9,9s9-4,9-9
				C41,27,37,23,32,23L32,23z"/>
		</g>
		<rect fill="none" width="64" height="64"/>
	</g>
</g>
</svg>
