<?xml version="1.0" encoding="utf-8"?>
<!-- Generator: Adobe Illustrator 18.1.1, SVG Export Plug-In . SVG Version: 6.00 Build 0)  -->
<svg version="1.1" xmlns="http://www.w3.org/2000/svg" xmlns:xlink="http://www.w3.org/1999/xlink" x="0px" y="0px"
	 viewBox="0 0 64 64" enable-background="new 0 0 64 64" xml:space="preserve">
<g id="Layer_2" display="none">
	<rect x="-171" y="-468.5" display="inline" fill="#84C9F3" stroke="#000000" stroke-miterlimit="10" width="485" height="615.8"/>
</g>
<g id="Layer_1">
	<g>
		<rect x="60.7" y="-73.3" fill="none" width="76.7" height="76.7"/>
	</g>
	<g>
		<path fill="none" stroke="#363636" stroke-width="2" stroke-linecap="round" stroke-linejoin="round" stroke-miterlimit="10" d="
			M26.8,26.3l0.1-0.9l1.2-0.9l1.2-0.9l1.5,0.4c0.9-1.3,1.5-2.9,1.5-4.6l-1.5-0.6l-0.5-1.5l-0.5-1.5l0.9-1.4c-1-1.3-2.3-2.3-3.9-2.8
			l-1,1.2h-1.5h-1.5l-1-1.2c-1.6,0.5-2.9,1.5-3.9,2.8l0.9,1.4l-0.5,1.5l-0.5,1.5l-1.5,0.6c0,1.7,0.6,3.3,1.5,4.6l1.5-0.4l1.2,0.9
			l1.2,0.9l0.1,0.9"/>
		<path fill="none" stroke="#363636" stroke-width="2" stroke-linecap="round" stroke-linejoin="round" stroke-miterlimit="10" d="
			M34.6,29.4l0.6-0.4v-2.2l-2-1.2c0.5-2.1,1.6-4.1,3.2-5.6l2,1.1l1.9-1.1l0-2.3c2.1-0.7,4.4-0.7,6.4,0l0,2.3l1.9,1.1l2-1.1
			c0.8,0.7,1.5,1.6,2,2.5c0.6,1,0.9,2,1.2,3l-2,1.2V29l2,1.2c-0.5,2.1-1.6,4.1-3.2,5.6l-2-1.1l-1.9,1.1l0,2.3
			c-2.1,0.7-4.4,0.7-6.4,0l0-2.3l-1.9-1.1L37.9,35"/>
		
			<polyline fill="none" stroke="#363636" stroke-width="2" stroke-linecap="round" stroke-linejoin="round" stroke-miterlimit="10" points="
			15.3,32.3 15.4,32.2 13.9,29.6 		"/>
		
			<line fill="none" stroke="#363636" stroke-width="2" stroke-linecap="round" stroke-linejoin="round" stroke-miterlimit="10" x1="22.4" y1="27.1" x2="21.9" y2="26.3"/>
		<path fill="none" stroke="#363636" stroke-width="2" stroke-linecap="round" stroke-linejoin="round" stroke-miterlimit="10" d="
			M10.2,38.1c0,0,0-0.1,0-0.1"/>
		<path fill="none" stroke="#363636" stroke-width="2" stroke-linecap="round" stroke-linejoin="round" stroke-miterlimit="10" d="
			M10.2,38c0.1-1.1,0.3-2.2,0.6-3.2l3,0l1.5-2.5"/>
		
			<line fill="none" stroke="#363636" stroke-width="2" stroke-linecap="round" stroke-linejoin="round" stroke-miterlimit="10" x1="26.3" y1="27.1" x2="26.8" y2="26.3"/>
		<path fill="none" stroke="#363636" stroke-width="2" stroke-linecap="round" stroke-linejoin="round" stroke-miterlimit="10" d="
			M38.4,40.3c0,0,0-0.1,0-0.1"/>
		<path fill="none" stroke="#363636" stroke-width="2" stroke-linecap="round" stroke-linejoin="round" stroke-miterlimit="10" d="
			M10.2,38.6c0-0.1,0-0.3,0-0.4"/>
		<path fill="none" stroke="#363636" stroke-width="2" stroke-linecap="round" stroke-linejoin="round" stroke-miterlimit="10" d="
			M34.6,29.4c0,0.1,0.1,0.1,0.2,0.2l-1.1,2l1.9,3.2l2.3,0c0,0.1,0,0.1,0.1,0.2"/>
		
			<polyline fill="none" stroke="#363636" stroke-width="2" stroke-linecap="round" stroke-linejoin="round" stroke-miterlimit="10" points="
			22.4,27.1 22.8,27.9 25.8,27.9 26.3,27.1 		"/>
		<path fill="none" stroke="#363636" stroke-width="2" stroke-linecap="round" stroke-linejoin="round" stroke-miterlimit="10" d="
			M38.4,40.3c-0.1,1.1-0.3,2.1-0.6,3.1l-3,0L33.3,46l0,0"/>
		<path fill="none" stroke="#363636" stroke-width="2" stroke-linecap="round" stroke-linejoin="round" stroke-miterlimit="10" d="
			M34.6,29.4c-1.9-2-4.4-3.5-7.3-4.1l-0.6,1"/>
		<path fill="none" stroke="#363636" stroke-width="2" stroke-linecap="round" stroke-linejoin="round" stroke-miterlimit="10" d="
			M34.7,48.7C34.8,48.7,34.8,48.6,34.7,48.7L33.3,46"/>
		<path fill="none" stroke="#363636" stroke-width="2" stroke-linecap="round" stroke-linejoin="round" stroke-miterlimit="10" d="
			M37.9,35c0.4,1.3,0.6,2.7,0.6,4.1c0,0.3,0,0.7,0,1"/>
		<path fill="none" stroke="#363636" stroke-width="2" stroke-linecap="round" stroke-linejoin="round" stroke-miterlimit="10" d="
			M21.9,26.3l-0.6-1c-2.9,0.6-5.5,2.2-7.4,4.3l0,0.1"/>
		<path fill="none" stroke="#363636" stroke-width="2" stroke-linecap="round" stroke-linejoin="round" stroke-miterlimit="10" d="
			M31.6,51.2c1.2-0.7,2.2-1.6,3.1-2.5"/>
		
			<polyline fill="none" stroke="#363636" stroke-width="2" stroke-linecap="round" stroke-linejoin="round" stroke-miterlimit="10" points="
			34.7,48.7 33.3,46.1 33.3,46 		"/>
		<path fill="none" stroke="#363636" stroke-width="2" stroke-linecap="round" stroke-linejoin="round" stroke-miterlimit="10" d="
			M38.4,40.1c0,0,0,0.1,0,0.1"/>
		<path fill="none" stroke="#363636" stroke-width="2" stroke-linecap="round" stroke-linejoin="round" stroke-miterlimit="10" d="
			M38.4,40.3c-0.1,1.1-0.3,2.2-0.6,3.2l-3,0L33.3,46"/>
		<path fill="none" stroke="#363636" stroke-width="2" stroke-linecap="round" stroke-linejoin="round" stroke-miterlimit="10" d="
			M10.2,38.1c0,0.3,0,0.7,0,1c0,1.5,0.2,2.9,0.7,4.3l3,0l1.5,2.6l-1.5,2.6c1.9,2.1,4.5,3.6,7.4,4.3l1.5-2.6h3l1.6,2.6
			c2.9-0.6,5.5-2.2,7.4-4.3l0-0.1"/>
		<path fill="none" stroke="#363636" stroke-width="2" stroke-linecap="round" stroke-linejoin="round" stroke-miterlimit="10" d="
			M17,27.1c-1.2,0.7-2.2,1.6-3.1,2.5"/>
		<path fill="none" stroke="#363636" stroke-width="2" stroke-linecap="round" stroke-linejoin="round" stroke-miterlimit="10" d="
			M10.2,38c0.1-1.1,0.3-2.1,0.6-3.1l3,0l1.5-2.6l0,0"/>
		<path fill="none" stroke="#363636" stroke-width="2" stroke-linecap="round" stroke-linejoin="round" stroke-miterlimit="10" d="
			M10.2,38.1c0,0,0-0.1,0-0.1"/>
		<path fill="none" stroke="#363636" stroke-width="2" stroke-linecap="round" stroke-linejoin="round" stroke-miterlimit="10" d="
			M13.9,29.6C13.9,29.6,13.9,29.6,13.9,29.6l1.4,2.6"/>
		<path fill="none" stroke="#363636" stroke-width="2" stroke-linecap="round" stroke-linejoin="round" stroke-miterlimit="10" d="
			M38.4,40.1c0-0.1,0-0.3,0-0.4"/>
		
			<circle fill="none" stroke="#363636" stroke-width="2" stroke-linecap="round" stroke-linejoin="round" stroke-miterlimit="10" cx="24.3" cy="39.1" r="2"/>
		
			<circle fill="none" stroke="#363636" stroke-width="2" stroke-linecap="round" stroke-linejoin="round" stroke-miterlimit="10" cx="43.6" cy="27.9" r="2"/>
	</g>
</g>
</svg>
