<?xml version="1.0" encoding="utf-8"?>
<!-- Generator: Adobe Illustrator 18.1.1, SVG Export Plug-In . SVG Version: 6.00 Build 0)  -->
<svg version="1.1" xmlns="http://www.w3.org/2000/svg" xmlns:xlink="http://www.w3.org/1999/xlink" x="0px" y="0px"
	 viewBox="0 0 64 64" enable-background="new 0 0 64 64" xml:space="preserve">
<g id="Layer_2" display="none">
	<rect x="-305" y="-267.5" display="inline" fill="#84C9F3" stroke="#000000" stroke-miterlimit="10" width="485" height="615.8"/>
</g>
<g id="Layer_1">
	<g>
		<path fill="none" stroke="#363636" stroke-width="2" stroke-linecap="round" stroke-linejoin="round" stroke-miterlimit="10" d="
			M26.6,32.5c0-0.7,0.1-1.4,0.3-2.1"/>
		<path fill="none" stroke="#363636" stroke-width="2" stroke-linecap="round" stroke-linejoin="round" stroke-miterlimit="10" d="
			M32,24l6.5-3.8c4.8-2.8,10.9-1.1,13.7,3.7l1,1.7c1.7,2.9,0.7,6.5-2.2,8.2l-13.9,8c-1.6,0.9-3.4,1-5,0.5"/>
		<path fill="none" stroke="#363636" stroke-width="2" stroke-linecap="round" stroke-linejoin="round" stroke-miterlimit="10" d="
			M32.2,42.3"/>
		<path fill="none" stroke="#363636" stroke-width="2" stroke-linecap="round" stroke-linejoin="round" stroke-miterlimit="10" d="
			M26.6,32.5"/>
		<path fill="none" stroke="#363636" stroke-width="2" stroke-linecap="round" stroke-linejoin="round" stroke-miterlimit="10" d="
			M37.2,30.3l6.2-3.6c0.5-0.3,0.6-0.9,0.4-1.4s-0.9-0.6-1.4-0.4l-6,3.4"/>
		
			<polyline fill="none" stroke="#363636" stroke-width="2" stroke-linecap="round" stroke-linejoin="round" stroke-miterlimit="10" points="
			49.8,35.8 53.3,41.9 52.3,45.9 55.1,46.6 54.3,49.3 56.9,50.1 57.9,51.8 56.8,55.9 53.3,57.9 49.2,56.8 48.2,55.1 49,52.4 
			46.2,51.6 47,48.9 42.9,47.8 39.4,41.7 		"/>
		
			<line fill="none" stroke="#363636" stroke-width="2" stroke-linecap="round" stroke-linejoin="round" stroke-miterlimit="10" x1="42.8" y1="39.7" x2="45.3" y2="44.1"/>
		
			<line fill="none" stroke="#363636" stroke-width="2" stroke-linecap="round" stroke-linejoin="round" stroke-miterlimit="10" x1="46.3" y1="37.7" x2="48.8" y2="42.1"/>
		<path fill="none" stroke="#363636" stroke-width="2" stroke-linecap="round" stroke-linejoin="round" stroke-miterlimit="10" d="
			M37.2,30.3c0.7,2.5,0.4,5.3-1,7.7l-1,1.7c-0.7,1.2-1.8,2.1-3,2.6"/>
		<path fill="none" stroke="#363636" stroke-width="2" stroke-linecap="round" stroke-linejoin="round" stroke-miterlimit="10" d="
			M16,20.1c-1.6,0.8-3.1,2.2-4,3.9l-1,1.7c-1.7,2.9-0.7,6.5,2.2,8.2l13.9,8c1.6,0.9,3.5,1,5.2,0.4"/>
		<path fill="none" stroke="#363636" stroke-width="2" stroke-linecap="round" stroke-linejoin="round" stroke-miterlimit="10" d="
			M32,24l0.5,0.3c1.7,1,3,2.4,3.9,4.1"/>
		<path fill="none" stroke="#363636" stroke-width="2" stroke-linecap="round" stroke-linejoin="round" stroke-miterlimit="10" d="
			M36.4,28.4c0.3,0.6,0.6,1.2,0.7,1.9"/>
		<path fill="none" stroke="#363636" stroke-width="2" stroke-linecap="round" stroke-linejoin="round" stroke-miterlimit="10" d="
			M23,19.3c0.9,0.2,1.8,0.6,2.6,1.1L32,24"/>
		<path fill="none" stroke="#363636" stroke-width="2" stroke-linecap="round" stroke-linejoin="round" stroke-miterlimit="10" d="
			M21.2,22.9"/>
		
			<line fill="none" stroke="#363636" stroke-width="2" stroke-linecap="round" stroke-linejoin="round" stroke-miterlimit="10" x1="19.8" y1="28.5" x2="20.7" y2="26.8"/>
		
			<polyline fill="none" stroke="#363636" stroke-width="2" stroke-linecap="round" stroke-linejoin="round" stroke-miterlimit="10" points="
			19.8,28.5 19.7,28.5 26.6,32.5 		"/>
		
			<polyline fill="none" stroke="#363636" stroke-width="2" stroke-linecap="round" stroke-linejoin="round" stroke-miterlimit="10" points="
			20.7,26.8 20.7,26.8 26.9,30.4 		"/>
		
			<polyline fill="none" stroke="#363636" stroke-width="2" stroke-linecap="round" stroke-linejoin="round" stroke-miterlimit="10" points="
			14.4,35.8 10.9,41.9 12,46 9.2,46.7 10,49.4 7.2,50.2 6.2,51.9 7.3,56 10.8,58 14.9,56.9 15.9,55.2 15.3,52.6 18,51.9 17.3,49.1 
			21.2,47.9 24.7,41.9 		"/>
		
			<line fill="none" stroke="#363636" stroke-width="2" stroke-linecap="round" stroke-linejoin="round" stroke-miterlimit="10" x1="17.8" y1="37.8" x2="15.3" y2="42.1"/>
		
			<line fill="none" stroke="#363636" stroke-width="2" stroke-linecap="round" stroke-linejoin="round" stroke-miterlimit="10" x1="21.3" y1="39.8" x2="18.8" y2="44.1"/>
		<path fill="none" stroke="#363636" stroke-width="2" stroke-linecap="round" stroke-linejoin="round" stroke-miterlimit="10" d="
			M25.6,28.4c-6.1-3.5-8.2-11.4-4.7-17.5s11.4-8.2,17.5-4.7c3.4,2,5.6,5.3,6.2,9"/>
		<path fill="none" stroke="#363636" stroke-width="2" stroke-linecap="round" stroke-linejoin="round" stroke-miterlimit="10" d="
			M20.7,26.8c-0.1-0.1-0.3-0.1-0.5-0.1c-0.6,0-1,0.4-1,1c0,0.4,0.2,0.7,0.5,0.8"/>
		<path fill="none" stroke="#363636" stroke-width="2" stroke-linecap="round" stroke-linejoin="round" stroke-miterlimit="10" d="
			M26.1,32.2c0.1,0.1,0.3,0.1,0.5,0.1c0.6,0,1-0.4,1-1c0-0.4-0.2-0.7-0.5-0.8"/>
		<path fill="none" stroke="#363636" stroke-width="2" stroke-linecap="round" stroke-linejoin="round" stroke-miterlimit="10" d="
			M19.8,28.5c0.2,0.1,0.3,0.2,0.5,0.2c0.6,0,1-0.4,1-1c0-0.4-0.2-0.7-0.5-0.9"/>
	</g>
</g>
</svg>
