<?xml version="1.0" encoding="utf-8"?>
<!-- Generator: Adobe Illustrator 18.1.1, SVG Export Plug-In . SVG Version: 6.00 Build 0)  -->
<svg version="1.1" xmlns="http://www.w3.org/2000/svg" xmlns:xlink="http://www.w3.org/1999/xlink" x="0px" y="0px"
	 viewBox="0 0 64 64" enable-background="new 0 0 64 64" xml:space="preserve">
<g id="Layer_2" display="none">
	<rect x="-104" y="-267.5" display="inline" fill="#84C9F3" stroke="#000000" stroke-miterlimit="10" width="485" height="615.8"/>
</g>
<g id="Layer_1">
	<g>
		<path fill="none" stroke="#363636" stroke-width="2" stroke-miterlimit="10" d="M48.6,42H55c1.1,0,2-0.9,2-2V24c0-1.1-0.9-2-2-2
			h-6.4"/>
		<path fill="none" stroke="#363636" stroke-width="2" stroke-miterlimit="10" d="M35.4,22H9c-1.1,0-2,0.9-2,2v16c0,1.1,0.9,2,2,2
			h26.4"/>
		<line fill="none" stroke="#363636" stroke-width="2" stroke-miterlimit="10" x1="8" y1="27" x2="25" y2="27"/>
		<line fill="none" stroke="#363636" stroke-width="2" stroke-miterlimit="10" x1="25" y1="32" x2="8" y2="32"/>
		<line fill="none" stroke="#363636" stroke-width="2" stroke-miterlimit="10" x1="25" y1="37" x2="8" y2="37"/>
		<path fill="none" stroke="#363636" stroke-width="2" stroke-miterlimit="10" d="M35.4,22c1.9-1.3,4.2-2,6.6-2s4.7,0.7,6.6,2"/>
		<path fill="none" stroke="#363636" stroke-width="2" stroke-miterlimit="10" d="M48.6,22c3.2,2.1,5.4,5.8,5.4,10s-2.1,7.9-5.4,10"
			/>
		<path fill="none" stroke="#363636" stroke-width="2" stroke-miterlimit="10" d="M35.4,22c-3.2,2.1-5.4,5.8-5.4,10s2.1,7.9,5.4,10"
			/>
		<path fill="none" stroke="#363636" stroke-width="2" stroke-miterlimit="10" d="M48.6,42c-1.9,1.3-4.2,2-6.6,2s-4.7-0.7-6.6-2"/>
		<circle fill="none" stroke="#363636" stroke-width="2" stroke-miterlimit="10" cx="42" cy="32" r="8"/>
		<line fill="none" stroke="#363636" stroke-width="2" stroke-miterlimit="10" x1="13" y1="43" x2="13" y2="45"/>
		<line fill="none" stroke="#363636" stroke-width="2" stroke-miterlimit="10" x1="50" y1="43" x2="50" y2="45"/>
	</g>
</g>
</svg>
