<?xml version="1.0" encoding="utf-8"?>
<!-- Generator: Adobe Illustrator 18.1.1, SVG Export Plug-In . SVG Version: 6.00 Build 0)  -->
<svg version="1.1" xmlns="http://www.w3.org/2000/svg" xmlns:xlink="http://www.w3.org/1999/xlink" x="0px" y="0px"
	 viewBox="0 0 64 64" enable-background="new 0 0 64 64" xml:space="preserve">
<g id="Layer_2" display="none">
	<rect x="-372" y="-334.5" display="inline" fill="#84C9F3" stroke="#000000" stroke-miterlimit="10" width="485" height="615.8"/>
</g>
<g id="Layer_1">
	<g>
		<g>
			<path fill="none" stroke="#363636" stroke-width="2" stroke-linecap="round" stroke-linejoin="round" stroke-miterlimit="10" d="
				M58.3,32c0,0.8-0.6,1.6-0.7,2.4c-0.1,0.8,0.4,1.7,0.3,2.5c-0.1,0.8-0.9,1.4-1.1,2.2c-0.2,0.8,0.1,1.7-0.2,2.5
				c-0.3,0.7-1.2,1.2-1.5,2c-0.4,0.7-0.2,1.7-0.6,2.4c-0.4,0.7-1.4,1-1.9,1.6c-0.5,0.6-0.5,1.6-1.1,2.2c-0.5,0.6-1.5,0.7-2.1,1.3
				c-0.6,0.5-0.8,1.5-1.5,2c-0.6,0.5-1.6,0.4-2.3,0.9c-0.7,0.4-1.1,1.3-1.8,1.7C43,55.9,42,55.7,41.3,56c-0.7,0.3-1.3,1.1-2.1,1.3
				c-0.8,0.2-1.7-0.2-2.5,0c-0.8,0.1-1.5,0.8-2.3,0.9c-0.8,0.1-1.6-0.5-2.4-0.5c-0.8,0-1.6,0.6-2.4,0.5c-0.8-0.1-1.5-0.8-2.3-0.9
				c-0.8-0.1-1.7,0.3-2.5,0c-0.8-0.2-1.3-1-2.1-1.3c-0.7-0.3-1.7-0.1-2.4-0.4c-0.7-0.4-1.1-1.3-1.8-1.7c-0.7-0.4-1.7-0.4-2.3-0.9
				c-0.6-0.5-0.9-1.5-1.5-2c-0.6-0.5-1.6-0.7-2.1-1.3c-0.5-0.6-0.6-1.6-1.1-2.2c-0.5-0.6-1.4-1-1.9-1.6c-0.4-0.7-0.3-1.7-0.6-2.4
				c-0.4-0.7-1.2-1.2-1.5-2c-0.3-0.7,0-1.7-0.2-2.5c-0.2-0.8-1-1.4-1.1-2.2c-0.1-0.8,0.3-1.7,0.3-2.5c-0.1-0.8-0.7-1.6-0.7-2.4
				c0-0.8,0.6-1.6,0.7-2.4c0.1-0.8-0.4-1.7-0.3-2.5c0.1-0.8,0.9-1.4,1.1-2.2c0.2-0.8-0.1-1.7,0.2-2.5c0.3-0.7,1.2-1.2,1.5-2
				c0.4-0.7,0.2-1.7,0.6-2.4c0.4-0.7,1.4-1,1.9-1.6c0.5-0.6,0.5-1.6,1.1-2.2c0.5-0.6,1.5-0.7,2.1-1.3c0.6-0.5,0.8-1.5,1.5-2
				c0.6-0.5,1.6-0.4,2.3-0.9c0.7-0.4,1.1-1.3,1.8-1.7C21,8.1,22,8.3,22.7,8c0.7-0.3,1.3-1.1,2.1-1.3c0.8-0.2,1.7,0.2,2.5,0
				c0.8-0.1,1.5-0.8,2.3-0.9c0.8-0.1,1.6,0.5,2.4,0.5c0.8,0,1.6-0.6,2.4-0.5c0.8,0.1,1.5,0.8,2.3,0.9c0.8,0.1,1.7-0.3,2.5,0
				c0.8,0.2,1.3,1,2.1,1.3C42,8.3,43,8.1,43.7,8.5c0.7,0.4,1.1,1.3,1.8,1.7c0.7,0.4,1.7,0.4,2.3,0.9c0.6,0.5,0.9,1.5,1.5,2
				c0.6,0.5,1.6,0.7,2.1,1.3c0.5,0.6,0.6,1.6,1.1,2.2c0.5,0.6,1.4,1,1.9,1.6c0.4,0.7,0.3,1.7,0.6,2.4c0.4,0.7,1.2,1.2,1.5,2
				c0.3,0.7,0,1.7,0.2,2.5c0.2,0.8,1,1.4,1.1,2.2c0.1,0.8-0.3,1.7-0.3,2.5C57.7,30.4,58.3,31.2,58.3,32z"/>
		</g>
		
			<circle fill="none" stroke="#363636" stroke-width="2" stroke-linecap="round" stroke-linejoin="round" stroke-miterlimit="10" cx="32" cy="32" r="18"/>
		
			<line fill="none" stroke="#363636" stroke-width="2" stroke-linecap="round" stroke-linejoin="round" stroke-miterlimit="10" x1="36" y1="19" x2="19" y2="36"/>
		
			<line fill="none" stroke="#363636" stroke-width="2" stroke-linecap="round" stroke-linejoin="round" stroke-miterlimit="10" x1="44.5" y1="27.5" x2="27.5" y2="44.5"/>
		<rect fill="none" width="64" height="64"/>
	</g>
	<g>
		<rect x="-5.7" y="61.3" fill="none" width="75.3" height="75.3"/>
	</g>
</g>
</svg>
