<?xml version="1.0" encoding="utf-8"?>
<!-- Generator: Adobe Illustrator 18.1.1, SVG Export Plug-In . SVG Version: 6.00 Build 0)  -->
<svg version="1.1" xmlns="http://www.w3.org/2000/svg" xmlns:xlink="http://www.w3.org/1999/xlink" x="0px" y="0px"
	 viewBox="0 0 64 64" enable-background="new 0 0 64 64" xml:space="preserve">
<g id="Layer_2" display="none">
	<rect x="-372" y="-401.5" display="inline" fill="#84C9F3" stroke="#000000" stroke-miterlimit="10" width="485" height="615.8"/>
</g>
<g id="Layer_1">
	<g>
		<path fill="none" stroke="#363636" stroke-width="2" stroke-linecap="round" stroke-linejoin="round" stroke-miterlimit="10" d="
			M53.1,18.3c-0.6-0.3-7-3.9-21.1-3.9s-20.6,3.6-21.1,3.9c-2.8,1-4.8,3.6-4.8,6.7L7.3,32l12.9-1.2v-5.9c0-0.3,0-0.6-0.1-0.9
			c3.4-0.8,7.4-1.5,11.8-1.5s8.5,0.7,11.8,1.5c0,0.3-0.1,0.6-0.1,0.9v5.9L56.7,32l1.2-7.1C57.9,21.8,55.9,19.2,53.1,18.3z"/>
		<g>
			<path fill="none" stroke="#363636" stroke-width="2" stroke-linecap="round" stroke-linejoin="round" stroke-miterlimit="10" d="
				M10.8,36.7v11.8c0,2.6,2.1,4.7,4.7,4.7h33c2.6,0,4.7-2.1,4.7-4.7V36.7"/>
		</g>
		
			<circle fill="none" stroke="#363636" stroke-width="2" stroke-linecap="round" stroke-linejoin="round" stroke-miterlimit="10" cx="32" cy="37.9" r="9.4"/>
		<rect x="-5.7" y="-5.7" fill="none" width="75.3" height="75.3"/>
	</g>
</g>
</svg>
