<?xml version="1.0" encoding="utf-8"?>
<!-- Generator: Adobe Illustrator 18.1.1, SVG Export Plug-In . SVG Version: 6.00 Build 0)  -->
<svg version="1.1" xmlns="http://www.w3.org/2000/svg" xmlns:xlink="http://www.w3.org/1999/xlink" x="0px" y="0px"
	 viewBox="0 0 64 64" enable-background="new 0 0 64 64" xml:space="preserve">
<g id="Layer_2" display="none">
	<rect x="-372" y="-468.5" display="inline" fill="#84C9F3" stroke="#000000" stroke-miterlimit="10" width="485" height="615.8"/>
</g>
<g id="Layer_1">
	<g>
		<rect x="-5.7" y="-72.7" fill="none" width="75.3" height="75.3"/>
	</g>
	<g>
		<g>
			<g>
				
					<path fill="none" stroke="#363636" stroke-width="2" stroke-linecap="round" stroke-linejoin="round" stroke-miterlimit="10" d="
					M48.9,14.9c-5.5-5.5-14.3-5.5-19.8,0c-4.2,4.2-5.2,10.5-2.9,15.6l-14,14l1.4,8.5h7.1v-2.8h2.8v-2.8h2.8l2.1-2.1l0-4.2h4.2
					l2.7-2.7c4.7,1.2,9.9,0,13.5-3.6C54.4,29.2,54.4,20.4,48.9,14.9z"/>
			</g>
		</g>
		<g>
			<path fill="#363636" d="M42.6,19.2c0.5,0,1,0.2,1.4,0.6c0.8,0.8,0.8,2,0,2.8c-0.4,0.4-0.9,0.6-1.4,0.6c-0.5,0-1-0.2-1.4-0.6
				c-0.8-0.8-0.8-2,0-2.8C41.6,19.4,42.1,19.2,42.6,19.2 M42.6,17.2c-1.1,0-2.1,0.4-2.8,1.2c-0.8,0.8-1.2,1.8-1.2,2.8
				c0,1.1,0.4,2.1,1.2,2.8c0.8,0.8,1.8,1.2,2.8,1.2s2.1-0.4,2.8-1.2c1.6-1.6,1.6-4.1,0-5.7C44.7,17.6,43.7,17.2,42.6,17.2L42.6,17.2
				z"/>
		</g>
		<rect fill="none" width="64" height="64"/>
	</g>
</g>
</svg>
