<?xml version="1.0" encoding="utf-8"?>
<!-- Generator: Adobe Illustrator 18.1.1, SVG Export Plug-In . SVG Version: 6.00 Build 0)  -->
<svg version="1.1" xmlns="http://www.w3.org/2000/svg" xmlns:xlink="http://www.w3.org/1999/xlink" x="0px" y="0px"
	 viewBox="0 0 64 64" enable-background="new 0 0 64 64" xml:space="preserve">
<g id="Layer_2" display="none">
	<rect x="-171" y="-200.5" display="inline" fill="#84C9F3" stroke="#000000" stroke-miterlimit="10" width="485" height="615.8"/>
</g>
<g id="Layer_1">
	<g>
		<polyline fill="none" stroke="#363636" stroke-width="2" stroke-linejoin="round" stroke-miterlimit="10" points="43.9,34.7 
			49.8,50.2 40.2,49.5 33.4,56.2 32,52.6 		"/>
		
			<line fill="none" stroke="#363636" stroke-width="2" stroke-linejoin="round" stroke-miterlimit="10" x1="26.1" y1="36.9" x2="32" y2="52.6"/>
		<polyline fill="none" stroke="#363636" stroke-width="2" stroke-linejoin="round" stroke-miterlimit="10" points="20.1,34.7 
			14.2,50.2 23.8,49.5 30.6,56.2 32,52.6 		"/>
		<path fill="none" stroke="#363636" stroke-width="2" stroke-linejoin="round" stroke-miterlimit="10" d="M43.9,34.7
			c-0.1,0.3-0.3,0.5-0.5,0.8c-1.3,1.3-3.6,1-5.4,1.5"/>
		<path fill="none" stroke="#363636" stroke-width="2" stroke-linejoin="round" stroke-miterlimit="10" d="M20.1,34.7
			c-0.7-1.5-0.5-3.7-1.1-5.2c-0.7-1.8-3.1-3.3-3.1-5.4s2.3-3.6,3.1-5.4c0.8-1.8,0.3-4.6,1.6-6c1.4-1.4,4.1-0.9,6-1.6
			C28.4,10.3,30,8,32,8c2,0,3.6,2.3,5.4,3.1c1.8,0.8,4.6,0.3,6,1.6c1.4,1.4,0.9,4.1,1.6,6c0.7,1.8,3.1,3.3,3.1,5.4
			c0,2-2.3,3.6-3.1,5.4c-0.6,1.5-0.4,3.7-1.1,5.2"/>
		<path fill="none" stroke="#363636" stroke-width="2" stroke-linejoin="round" stroke-miterlimit="10" d="M26.1,36.9
			c-1.8-0.5-4.2-0.2-5.4-1.5c-0.2-0.2-0.4-0.5-0.5-0.8"/>
		<path fill="none" stroke="#363636" stroke-width="2" stroke-linejoin="round" stroke-miterlimit="10" d="M26.1,36.9
			c0.2,0.1,0.4,0.1,0.5,0.2c1.8,0.7,3.3,3.1,5.4,3.1c2,0,3.6-2.3,5.4-3.1c0.2-0.1,0.4-0.1,0.5-0.2"/>
		<path fill="none" stroke="#363636" stroke-width="2" stroke-linejoin="round" stroke-miterlimit="10" d="M39.1,24.1
			C39.1,24.1,39.1,24.1,39.1,24.1c0-1.8-0.6-3.4-1.6-4.6"/>
		<path fill="none" stroke="#363636" stroke-width="2" stroke-linejoin="round" stroke-miterlimit="10" d="M26.5,19.5
			c-1,1.2-1.6,2.8-1.6,4.6c0,0,0,0,0,0.1"/>
		<path fill="none" stroke="#363636" stroke-width="2" stroke-linejoin="round" stroke-miterlimit="10" d="M26.5,19.5
			c1.3-1.6,3.3-2.6,5.5-2.6s4.2,1,5.5,2.6"/>
		<path fill="none" stroke="#363636" stroke-width="2" stroke-linejoin="round" stroke-miterlimit="10" d="M39.1,24.1
			c0,3.9-3.2,7.1-7.1,7.1s-7.1-3.2-7.1-7.1"/>
	</g>
</g>
</svg>
